<svg xmlns="http://www.w3.org/2000/svg" xmlns:xlink="http://www.w3.org/1999/xlink" width="96" height="95" viewBox="0 0 96 95">
  <defs>
    <linearGradient id="linear-gradient" x1="0.5" x2="0.5" y2="1" gradientUnits="objectBoundingBox">
      <stop offset="0" stop-color="#fff"/>
      <stop offset="1" stop-color="#e9e9e9"/>
    </linearGradient>
    <filter id="Elipse_7662" x="0" y="0" width="96" height="95" filterUnits="userSpaceOnUse">
      <feOffset dy="3" input="SourceAlpha"/>
      <feGaussianBlur stdDeviation="3" result="blur"/>
      <feFlood flood-opacity="0.161"/>
      <feComposite operator="in" in2="blur"/>
      <feComposite in="SourceGraphic"/>
    </filter>
  </defs>
  <g id="Grupo_1101068" data-name="Grupo 1101068" transform="translate(-176 -1341)">
    <g id="Grupo_1085035" data-name="Grupo 1085035" transform="translate(0 -1468)">
      <g transform="matrix(1, 0, 0, 1, 176, 2809)" filter="url(#Elipse_7662)">
        <ellipse id="Elipse_7662-2" data-name="Elipse 7662" cx="39" cy="38.5" rx="39" ry="38.5" transform="translate(9 6)" fill="url(#linear-gradient)"/>
      </g>
      <g id="Grupo_1085034" data-name="Grupo 1085034" transform="translate(-1982.583 2764.784)">
        <g id="Grupo_17809" data-name="Grupo 17809" transform="translate(2192.121 91.282)">
          <g id="Grupo_17804" data-name="Grupo 17804" transform="translate(0 2.724)">
            <path id="Trazado_28404" data-name="Trazado 28404" d="M2232.39,126.075a8.67,8.67,0,0,0,2.082,5.71h-31.378a.992.992,0,0,1-.81-.415,10.106,10.106,0,0,1,0-10.592.992.992,0,0,1,.81-.415h31.378A8.671,8.671,0,0,0,2232.39,126.075Z" transform="translate(-2200.785 -120.364)" fill="#ff9751"/>
            <path id="Trazado_28405" data-name="Trazado 28405" d="M2210.359,120.365l-8.848,9.584a10.024,10.024,0,0,1-.724-3.874,9.062,9.062,0,0,1,1.5-5.3.991.991,0,0,1,.81-.414Z" transform="translate(-2200.785 -120.364)" fill="#ff9751"/>
            <path id="Trazado_28406" data-name="Trazado 28406" d="M2238.535,126.075a8.669,8.669,0,0,0,2.082,5.71h-31.856a9.819,9.819,0,0,1,0-11.421h31.856A8.672,8.672,0,0,0,2238.535,126.075Z" transform="translate(-2203.477 -120.364)" fill="#e0d3ce"/>
            <g id="Grupo_17803" data-name="Grupo 17803" transform="translate(3.453 0.001)">
              <path id="Trazado_28407" data-name="Trazado 28407" d="M2213.05,120.365l-6.087,6.594c-.021-.282-.033-.576-.033-.883a8.366,8.366,0,0,1,1.831-5.711Z" transform="translate(-2206.93 -120.365)" fill="#cdbfbb"/>
              <path id="Trazado_28408" data-name="Trazado 28408" d="M2260.237,126.075a8.668,8.668,0,0,0,2.082,5.71h-3.775a8.873,8.873,0,0,1,0-11.421h3.775A8.667,8.667,0,0,0,2260.237,126.075Z" transform="translate(-2228.632 -120.365)" fill="#cdbfbb"/>
            </g>
          </g>
          <g id="Grupo_17808" data-name="Grupo 17808" transform="translate(4.298)">
            <g id="Grupo_17806" data-name="Grupo 17806" transform="translate(0.001)">
              <path id="Trazado_28409" data-name="Trazado 28409" d="M2243.421,117.175a1.658,1.658,0,0,1-1.657,1.657h-31.671a1.658,1.658,0,0,1,0-3.316h31.671a1.658,1.658,0,0,1,1.657,1.659Z" transform="translate(-2208.436 -115.516)" fill="#ff9751"/>
              <g id="Grupo_17805" data-name="Grupo 17805">
                <path id="Trazado_28410" data-name="Trazado 28410" d="M2216.225,115.516l-3.06,3.316h-3.072a1.658,1.658,0,0,1,0-3.316Z" transform="translate(-2208.436 -115.516)" fill="#ff9751"/>
                <path id="Trazado_28411" data-name="Trazado 28411" d="M2266.9,117.174a1.658,1.658,0,0,1-1.658,1.659h-3.215a1.658,1.658,0,0,0,0-3.316h3.215A1.658,1.658,0,0,1,2266.9,117.174Z" transform="translate(-2231.917 -115.516)" fill="#ff9751"/>
              </g>
            </g>
            <g id="Grupo_17807" data-name="Grupo 17807" transform="translate(0 13.553)">
              <path id="Trazado_28412" data-name="Trazado 28412" d="M2241.764,142.953h-31.671a1.658,1.658,0,1,1,0-3.315h31.671a1.658,1.658,0,0,1,0,3.315Z" transform="translate(-2208.435 -139.638)" fill="#ff9751"/>
              <path id="Trazado_28413" data-name="Trazado 28413" d="M2266.9,141.3a1.655,1.655,0,0,1-1.658,1.657h-3.215a1.657,1.657,0,1,0,0-3.314h3.215A1.658,1.658,0,0,1,2266.9,141.3Z" transform="translate(-2231.917 -139.638)" fill="#ff9751"/>
            </g>
          </g>
        </g>
        <g id="Grupo_17817" data-name="Grupo 17817" transform="translate(2181.01 60.203)">
          <g id="Grupo_17812" data-name="Grupo 17812" transform="translate(0.749 19.798)">
            <g id="Grupo_17810" data-name="Grupo 17810" transform="translate(0 6.341)">
              <path id="Trazado_28414" data-name="Trazado 28414" d="M2204.165,109.4l-2.676-2.676-18.217,16.817a2.885,2.885,0,1,0,4.076,4.076Z" transform="translate(-2182.344 -106.723)" fill="#873f30"/>
              <path id="Trazado_28415" data-name="Trazado 28415" d="M2187.378,128.342a2.884,2.884,0,0,1-4.782-1.15,2.881,2.881,0,0,0,2.927-.7c.027-.028.055-.057.082-.085l16.818-18.217,1.852,1.853-16.817,18.217C2187.432,128.287,2187.405,128.315,2187.378,128.342Z" transform="translate(-2182.454 -107.365)" fill="#6c3328"/>
            </g>
            <path id="Trazado_28416" data-name="Trazado 28416" d="M2221.065,95.438l-6.162,7.35,2.517,2.517,7.35-6.162Z" transform="translate(-2196.609 -95.438)" fill="#873f30"/>
            <path id="Trazado_28417" data-name="Trazado 28417" d="M2221.838,95.438l-1.991,2.375.6.6a1.126,1.126,0,0,1,0,1.592l-3.777,3.777,1.525,1.525,7.351-6.162Z" transform="translate(-2197.382 -95.438)" fill="#6c3328"/>
            <g id="Grupo_17811" data-name="Grupo 17811" transform="translate(16.255 5.845)">
              <path id="Trazado_28418" data-name="Trazado 28418" d="M2214.247,111.373l-2.444-2.444a1.809,1.809,0,0,1,2.558-2.558l2.444,2.444a1.809,1.809,0,0,1-2.559,2.558Z" transform="translate(-2211.273 -105.842)" fill="#ba5d4f"/>
              <path id="Trazado_28419" data-name="Trazado 28419" d="M2217.678,112.247a1.808,1.808,0,0,1-2.558,0l-1.852-1.852a1.809,1.809,0,0,0,2.558-2.558l1.852,1.852a1.807,1.807,0,0,1,0,2.558Z" transform="translate(-2212.147 -106.716)" fill="#a34f41"/>
            </g>
          </g>
          <g id="Grupo_17813" data-name="Grupo 17813" transform="translate(19.88 2.998)">
            <path id="Trazado_28420" data-name="Trazado 28420" d="M2224.91,65.538l5.426,5.426-8.518,8.518-5.426-5.426Z" transform="translate(-2216.392 -65.538)" fill="#ba5d4f"/>
            <path id="Trazado_28421" data-name="Trazado 28421" d="M2242.97,100.647l-5.426-5.426,8.518-8.518,5.426,5.426Z" transform="translate(-2225.659 -74.811)" fill="#a34f41"/>
          </g>
          <g id="Grupo_17816" data-name="Grupo 17816">
            <path id="Trazado_28422" data-name="Trazado 28422" d="M2213.111,74.173l-.189-.188a1.831,1.831,0,0,1,0-2.589l9.323-9.323a1.83,1.83,0,0,1,2.588,0l.188.188a1.83,1.83,0,0,1,0,2.588l-9.324,9.324a1.83,1.83,0,0,1-2.588,0Z" transform="translate(-2194.757 -60.787)" fill="#873f30"/>
            <path id="Trazado_28423" data-name="Trazado 28423" d="M2243.459,104.522l.189.188a1.83,1.83,0,0,0,2.588,0l9.324-9.324a1.83,1.83,0,0,0,0-2.588l-.189-.188a1.83,1.83,0,0,0-2.588,0l-9.324,9.323A1.831,1.831,0,0,0,2243.459,104.522Z" transform="translate(-2208.136 -74.167)" fill="#6c3328"/>
            <g id="Grupo_17815" data-name="Grupo 17815">
              <path id="Trazado_28424" data-name="Trazado 28424" d="M2235.368,71.647l6.093,6.093L2228.6,90.605l-6.093-6.093Z" transform="translate(-2199.19 -65.217)" fill="#fcc16d"/>
              <path id="Trazado_28425" data-name="Trazado 28425" d="M2227.852,89.88l12.865-12.865L2243.8,80.1l-12.864,12.865Z" transform="translate(-2201.533 -67.569)" fill="#fca62f"/>
              <path id="Trazado_28426" data-name="Trazado 28426" d="M2234.639,70.636l-1.492-.61a1.373,1.373,0,0,0-1.49.3l-10.482,10.482a1.373,1.373,0,0,0-.3,1.49l.611,1.493a.915.915,0,0,0,1.493.3L2234.94,72.13a.915.915,0,0,0-.3-1.494Z" transform="translate(-2198.432 -64.462)" fill="#873f30"/>
              <path id="Trazado_28427" data-name="Trazado 28427" d="M2246.011,82.007l.61,1.493a1.374,1.374,0,0,1-.3,1.49l-10.482,10.482a1.373,1.373,0,0,1-1.49.3l-1.493-.61a.915.915,0,0,1-.3-1.494l11.961-11.961a.915.915,0,0,1,1.494.3Z" transform="translate(-2203.477 -69.507)" fill="#6c3328"/>
              <g id="Grupo_17814" data-name="Grupo 17814">
                <path id="Trazado_28428" data-name="Trazado 28428" d="M2229.748,104.086h-.557a7.739,7.739,0,0,1-.645-1.23.749.749,0,0,0-1.385.573c.093.224.2.442.306.657h-29.389a2.416,2.416,0,0,0-.654.091,8.716,8.716,0,0,1-1.1-4.46q0-.491.043-.965h14.354a.749.749,0,1,0,0-1.5H2197l1.761-1.907h28.7a9.368,9.368,0,0,0-.721,1.907h-9.848a.749.749,0,0,0,0,1.5h9.586c-.03.3-.047.612-.048.922a.749.749,0,0,0,.746.752h0a.749.749,0,0,0,.749-.746,8.015,8.015,0,0,1,1.26-4.334h.558a2.407,2.407,0,1,0,0-4.814h-9.365l8.58-8.581a2.579,2.579,0,0,0,0-3.648l-.189-.188a2.578,2.578,0,0,0-3.515-.123l-1.326-1.326.451-.452a2.116,2.116,0,0,0,.464-2.3l-.61-1.493a1.661,1.661,0,0,0-1.205-1l-1.042-1.042a.749.749,0,1,0-1.059,1.059l.513.513-11.807,11.807-3.472-3.472,11.807-11.807.459.46a.749.749,0,1,0,1.059-1.06l-.989-.989a1.659,1.659,0,0,0-1-1.205h0l-1.492-.61a2.117,2.117,0,0,0-2.3.464l-.451.451-1.326-1.326a2.579,2.579,0,0,0-.123-3.515l-.189-.189a2.579,2.579,0,0,0-3.648,0l-9.324,9.323a2.58,2.58,0,0,0,0,3.648l.189.189a2.579,2.579,0,0,0,3.515.122l1.326,1.327-.452.452a2.118,2.118,0,0,0-.463,2.3l.61,1.492a1.661,1.661,0,0,0,1.188,1l-3.757,4.481a2.559,2.559,0,0,0-3.381,3.245l-1.7,1.573a.749.749,0,0,0,1.017,1.1l1.573-1.454,1.856,1.856-13.951,15.112a2.136,2.136,0,1,1-3.018-3.018l10.943-10.1a.749.749,0,1,0-1.016-1.1l-10.943,10.1a3.634,3.634,0,0,0,2.462,6.3h.075a3.605,3.605,0,0,0,2.6-1.168l4.49-4.864a8.634,8.634,0,0,0,1.2,2.568,1.745,1.745,0,0,0,1.421.729h1.262a2.471,2.471,0,0,0-.021.317,2.41,2.41,0,0,0,2.407,2.407h31.671a2.407,2.407,0,1,0,0-4.814Zm.908-11.146a.91.91,0,0,1-.908.909h-29.607l1.245-1.349a2.559,2.559,0,0,0,2.555-.468h25.807a.91.91,0,0,1,.908.909Zm-22.6-8.646-4.338,3.636-1.725-1.724,3.637-4.338Zm-3.268,6.24a2.574,2.574,0,0,0-.156-1.414l4.48-3.757a1.662,1.662,0,0,0,1,1.188l1.493.61a2.118,2.118,0,0,0,2.3-.464l.452-.452,1.326,1.326a2.583,2.583,0,0,0-.3,2.96h-10.6Zm22.165-11.674a1.073,1.073,0,0,1,.764.316l.189.189a1.081,1.081,0,0,1,0,1.528l-9.324,9.324a1.081,1.081,0,0,1-1.528,0l-.189-.188a1.083,1.083,0,0,1,0-1.529l9.324-9.324a1.074,1.074,0,0,1,.764-.316Zm-2.756.189-7.46,7.46-1.322-1.322,7.46-7.459Zm-13.576,5.846,11.961-11.961a.158.158,0,0,1,.115-.049.169.169,0,0,1,.035,0,.158.158,0,0,1,.121.1l.61,1.492a.622.622,0,0,1-.136.677l-10.482,10.482a.622.622,0,0,1-.677.137l-1.493-.61a.163.163,0,0,1-.1-.121.161.161,0,0,1,.046-.15Zm-9.961-11.518a1.071,1.071,0,0,1-.764-.317l-.189-.188a1.082,1.082,0,0,1,0-1.528l9.324-9.324a1.081,1.081,0,0,1,1.528,0l.189.189a1.081,1.081,0,0,1,0,1.528l-9.324,9.324a1.074,1.074,0,0,1-.764.316Zm2.755-.189,7.46-7.46,1.322,1.321-7.46,7.46Zm.87,3.892L2214.766,66.6a.622.622,0,0,1,.677-.136l1.493.61a.166.166,0,0,1,.055.271L2205.029,79.3a.166.166,0,0,1-.271-.054l-.61-1.493a.622.622,0,0,1,.136-.676Zm-5.52,10.577a1.06,1.06,0,0,1,1.809-.749l2.444,2.443a1.06,1.06,0,1,1-1.5,1.5l-2.443-2.444a1.051,1.051,0,0,1-.311-.75Zm-4.533,16.923a7.552,7.552,0,0,1-1.2-3.027l1.8-1.945c0,.037,0,.074,0,.111a10.4,10.4,0,0,0,1.162,4.961h-1.557A.241.241,0,0,1,2194.23,104.578Zm35.517,2.823h-31.67a.909.909,0,0,1,0-1.817h31.67a.909.909,0,0,1,0,1.817Z" transform="translate(-2181.01 -60.203)" fill="#00223d"/>
                <path id="Trazado_28429" data-name="Trazado 28429" d="M2217.73,132.2a.749.749,0,1,0,0,1.5h17.454a.749.749,0,0,0,0-1.5Z" transform="translate(-2196.77 -91.747)" fill="#00223d"/>
              </g>
            </g>
          </g>
        </g>
      </g>
    </g>
  </g>
</svg>
