<svg xmlns="http://www.w3.org/2000/svg" width="65.505" height="77.294" viewBox="0 0 65.505 77.294">
  <g id="Grupo_1084900" data-name="Grupo 1084900" transform="translate(0 0)">
    <path id="Trazado_27829" data-name="Trazado 27829" d="M1844.158,193.91h-19.651a1.31,1.31,0,0,1-1.31-1.31v-7.205a11.135,11.135,0,1,1,22.271,0V192.6A1.31,1.31,0,0,1,1844.158,193.91Zm-18.341-2.62h17.031v-5.895a8.515,8.515,0,1,0-17.031,0Z" transform="translate(-1801.58 -174.259)" fill="#00223d"/>
    <path id="Trazado_27830" data-name="Trazado 27830" d="M1855.346,207.247H1797.7l3.93-6.55h49.783Z" transform="translate(-1793.772 -182.356)" fill="#8c6b3b"/>
    <path id="Trazado_27831" data-name="Trazado 27831" d="M1854.767,207.979h-57.642a1.311,1.311,0,0,1-1.124-1.985l3.93-6.55a1.308,1.308,0,0,1,1.124-.636h49.782a1.308,1.308,0,0,1,1.124.636l3.93,6.55a1.311,1.311,0,0,1-1.124,1.985Zm-55.329-2.62h53.016l-2.358-3.931h-48.3Z" transform="translate(-1793.194 -181.778)" fill="#00223d"/>
    <rect id="Rectángulo_4363" data-name="Rectángulo 4363" width="19.65" height="18.34" transform="translate(32.721 27.779) rotate(-76.838)" fill="#83d816"/>
    <path id="Trazado_27832" data-name="Trazado 27832" d="M1856.484,210.771a1.319,1.319,0,0,1-.3-.035l-17.859-4.177a1.31,1.31,0,0,1-.977-1.574l4.476-19.133a1.308,1.308,0,0,1,1.574-.977l17.859,4.177a1.31,1.31,0,0,1,.977,1.574l-4.476,19.134A1.309,1.309,0,0,1,1856.484,210.771Zm-16.287-6.464,15.308,3.58,3.879-16.582-15.308-3.581Z" transform="translate(-1805.903 -177.499)" fill="#00223d"/>
    <rect id="Rectángulo_4364" data-name="Rectángulo 4364" width="22.065" height="23.641" transform="translate(9.039 7.879) rotate(-6.742)" fill="#2a8ee6"/>
    <path id="Trazado_27833" data-name="Trazado 27833" d="M1807.262,208.686a1.311,1.311,0,0,1-1.3-1.157l-2.774-23.476a1.31,1.31,0,0,1,1.147-1.455l21.912-2.59a1.31,1.31,0,0,1,1.455,1.147l2.774,23.477a1.31,1.31,0,0,1-1.147,1.455l-21.911,2.59A1.486,1.486,0,0,1,1807.262,208.686Zm-1.319-23.64,2.467,20.875,19.31-2.281-2.467-20.875Z" transform="translate(-1795.45 -176.017)" fill="#00223d"/>
    <rect id="Rectángulo_4365" data-name="Rectángulo 4365" width="21.708" height="22.846" transform="translate(18.828 18.961) rotate(-13.521)" fill="#ff9751"/>
    <path id="Trazado_27834" data-name="Trazado 27834" d="M1823.937,222.295a1.311,1.311,0,0,1-1.273-1l-5.341-22.212a1.31,1.31,0,0,1,.968-1.58l21.1-5.075a1.308,1.308,0,0,1,1.58.967l5.341,22.212a1.309,1.309,0,0,1-.967,1.58l-21.105,5.075A1.294,1.294,0,0,1,1823.937,222.295Zm-3.761-22.554,4.729,19.665,18.557-4.462-4.728-19.665Z" transform="translate(-1799.77 -179.812)" fill="#00223d"/>
    <path id="Trazado_27835" data-name="Trazado 27835" d="M1856.809,261.231h-62.883l2.62-51.093h57.643Z" transform="translate(-1792.616 -185.248)" fill="#b80fff"/>
    <path id="Trazado_27836" data-name="Trazado 27836" d="M1856.23,261.963h-62.883a1.309,1.309,0,0,1-1.308-1.377l2.62-51.092a1.311,1.311,0,0,1,1.309-1.243h57.643a1.31,1.31,0,0,1,1.308,1.243l2.62,51.092a1.31,1.31,0,0,1-1.31,1.377Zm-61.5-2.62h60.126l-2.486-48.472h-55.153Z" transform="translate(-1792.038 -184.67)" fill="#00223d"/>
    <ellipse id="Elipse_1059" data-name="Elipse 1059" cx="2.62" cy="2.62" rx="2.62" ry="2.62" transform="translate(39.957 30.131)" fill="#8c6b3b"/>
    <path id="Trazado_27837" data-name="Trazado 27837" d="M1851.676,223.665a3.93,3.93,0,1,1,3.93-3.931A3.935,3.935,0,0,1,1851.676,223.665Zm0-5.241a1.31,1.31,0,1,0,1.31,1.31A1.311,1.311,0,0,0,1851.676,218.424Z" transform="translate(-1809.099 -186.983)" fill="#00223d"/>
    <ellipse id="Elipse_1060" data-name="Elipse 1060" cx="2.62" cy="2.62" rx="2.62" ry="2.62" transform="translate(20.306 30.131)" fill="#8c6b3b"/>
    <path id="Trazado_27838" data-name="Trazado 27838" d="M1823.35,223.665a3.93,3.93,0,1,1,3.93-3.931A3.935,3.935,0,0,1,1823.35,223.665Zm0-5.241a1.31,1.31,0,1,0,1.31,1.31A1.311,1.311,0,0,0,1823.35,218.424Z" transform="translate(-1800.424 -186.983)" fill="#00223d"/>
    <path id="Trazado_27839" data-name="Trazado 27839" d="M1834.332,241.12a11.148,11.148,0,0,1-11.135-11.135V222.78a1.31,1.31,0,0,1,2.62,0v7.205a8.516,8.516,0,0,0,17.031,0v-6.7a1.285,1.285,0,0,1-.1-.505,1.31,1.31,0,0,1,1.31-1.31h.1a1.31,1.31,0,0,1,1.31,1.31v7.205A11.147,11.147,0,0,1,1834.332,241.12Z" transform="translate(-1801.58 -188.718)" fill="#00223d"/>
  </g>
</svg>
