<svg xmlns="http://www.w3.org/2000/svg" width="106" height="106" viewBox="0 0 106 106">
  <g id="Grupo_1084821" data-name="Grupo 1084821" transform="translate(-1007 -7521)">
    <g id="Elipse_4924" data-name="Elipse 4924" transform="translate(1007 7521)" fill="#fff" stroke="#43c0ff" stroke-width="2">
      <circle cx="53" cy="53" r="53" stroke="none"/>
      <circle cx="53" cy="53" r="52" fill="none"/>
    </g>
    <g id="Grupo_1084822" data-name="Grupo 1084822" transform="translate(1031.852 7545.172)">
      <g id="Grupo_17262" data-name="Grupo 17262" transform="translate(3.246 0.827)">
        <path id="Trazado_27302" data-name="Trazado 27302" d="M-163.65,1416.411l12.5,1.509,15.4-1.509a2.166,2.166,0,0,0,2.162-2.162,2.167,2.167,0,0,0-2.162-2.166h-1.359l-16.649-3.508,16.649-3.505h1.359a2.167,2.167,0,0,0,2.162-2.166,2.164,2.164,0,0,0-2.162-2.162H-163.65a7.849,7.849,0,0,0-7.837,7.833,7.818,7.818,0,0,0,2.3,5.537A7.816,7.816,0,0,0-163.65,1416.411Z" transform="translate(171.487 -1400.741)" fill="#ffe07d" fill-rule="evenodd"/>
      </g>
      <g id="Grupo_17263" data-name="Grupo 17263" transform="translate(7.574 5.155)">
        <path id="Trazado_27303" data-name="Trazado 27303" d="M-158.8,1416.929h26.534a7.805,7.805,0,0,1,0-7.013H-158.8a3.518,3.518,0,0,0-3.508,3.505,3.5,3.5,0,0,0,1.029,2.479A3.5,3.5,0,0,0-158.8,1416.929Z" transform="translate(162.313 -1409.915)" fill="#f9f7f8" fill-rule="evenodd"/>
      </g>
      <g id="Grupo_17264" data-name="Grupo 17264" transform="translate(7.574 5.155)">
        <path id="Trazado_27304" data-name="Trazado 27304" d="M-132.271,1409.915H-158.8a3.518,3.518,0,0,0-3.508,3.505,3.5,3.5,0,0,0,.35,1.523,3.521,3.521,0,0,1,3.159-1.989l25.714,0A8.24,8.24,0,0,1-132.271,1409.915Z" transform="translate(162.313 -1409.915)" fill="#dddaec" fill-rule="evenodd"/>
      </g>
      <g id="Grupo_17265" data-name="Grupo 17265" transform="translate(28.674 0.827)">
        <path id="Trazado_27305" data-name="Trazado 27305" d="M-107.29,1400.741h-10.3a16.8,16.8,0,0,1,1.333,4.328h8.969a2.167,2.167,0,0,0,2.162-2.166A2.164,2.164,0,0,0-107.29,1400.741Z" transform="translate(117.592 -1400.741)" fill="#ffd064" fill-rule="evenodd"/>
      </g>
      <g id="Grupo_17266" data-name="Grupo 17266" transform="translate(3.246 16.497)">
        <path id="Trazado_27306" data-name="Trazado 27306" d="M-149.641,1453.284l18.935-2.112a4.017,4.017,0,0,0,4-4v-9.209a4.017,4.017,0,0,0-4-4.005h-38.669a2.117,2.117,0,0,0-2.112,2.112,2.118,2.118,0,0,0,2.112,2.113h1.989l36.46,4.385-36.46,4.385h-1.989a2.117,2.117,0,0,0-2.112,2.112,2.118,2.118,0,0,0,2.112,2.112Z" transform="translate(171.487 -1433.953)" fill="#a7e9a6" fill-rule="evenodd"/>
      </g>
      <g id="Grupo_17267" data-name="Grupo 17267" transform="translate(7.347 20.721)">
        <path id="Trazado_27307" data-name="Trazado 27307" d="M-162.794,1451.677H-127.4a1.069,1.069,0,0,0,1.066-1.066v-6.637a1.07,1.07,0,0,0-1.066-1.066h-35.393a10.05,10.05,0,0,1,1.043,4.385A10.15,10.15,0,0,1-162.794,1451.677Z" transform="translate(162.794 -1442.907)" fill="#f9f7f8" fill-rule="evenodd"/>
      </g>
      <g id="Grupo_17268" data-name="Grupo 17268" transform="translate(7.347 20.722)">
        <path id="Trazado_27308" data-name="Trazado 27308" d="M-127.4,1442.908h-35.393a10.868,10.868,0,0,1,.773,2.149h32.148a1.068,1.068,0,0,1,1.063,1.066v5.555h1.409a1.069,1.069,0,0,0,1.066-1.066v-6.637a1.069,1.069,0,0,0-1.066-1.066Z" transform="translate(162.794 -1442.908)" fill="#dddaec" fill-rule="evenodd"/>
      </g>
      <g id="Grupo_17269" data-name="Grupo 17269" transform="translate(28.081 12.169)">
        <path id="Trazado_27309" data-name="Trazado 27309" d="M-109.313,1424.78h-7.84a16.266,16.266,0,0,1-1.7,4.328h10.894a2.166,2.166,0,0,0,2.162-2.162,2.167,2.167,0,0,0-2.162-2.166Z" transform="translate(118.848 -1424.78)" fill="#ffd064" fill-rule="evenodd"/>
      </g>
      <g id="Grupo_17270" data-name="Grupo 17270" transform="translate(35.117 16.497)">
        <path id="Trazado_27310" data-name="Trazado 27310" d="M-95.025,1433.953H-103.3a16.432,16.432,0,0,1,1.566,4.225h5.424a1.069,1.069,0,0,1,1.066,1.066v6.637a1.069,1.069,0,0,1-1.066,1.066h-5.7a15.853,15.853,0,0,1-1.925,4.225h8.909a4.017,4.017,0,0,0,4-4v-9.209a4.017,4.017,0,0,0-4-4.005Z" transform="translate(103.934 -1433.953)" fill="#7fdbae" fill-rule="evenodd"/>
      </g>
      <g id="Grupo_17271" data-name="Grupo 17271" transform="translate(0.827 33.716)">
        <path id="Trazado_27311" data-name="Trazado 27311" d="M-172.082,1470.449h-.529a4.014,4.014,0,0,0-4,4.005v9.209a4.016,4.016,0,0,0,4,4h48.68a2.121,2.121,0,0,0,1.956-1.316,2.121,2.121,0,0,0,.157-.8,2.126,2.126,0,0,0-.157-.8,2.118,2.118,0,0,0-1.956-1.312h-1.989l-46.468-4,46.468-4.771h1.989a2.12,2.12,0,0,0,1.956-1.312,2.134,2.134,0,0,0,.156-.8,2.128,2.128,0,0,0-.156-.8,2.123,2.123,0,0,0-1.956-1.316Z" transform="translate(176.613 -1470.449)" fill="#ffe07d" fill-rule="evenodd"/>
      </g>
      <g id="Grupo_17272" data-name="Grupo 17272" transform="translate(40.508 46.71)">
        <path id="Trazado_27312" data-name="Trazado 27312" d="M-81.5,1497.991h-8.7a15.378,15.378,0,0,1-2.309,4.224h13a2.123,2.123,0,0,0,1.956-1.316,2.129,2.129,0,0,0,.156-.8,2.13,2.13,0,0,0-.156-.8,2.12,2.12,0,0,0-1.956-1.312Z" transform="translate(92.509 -1497.991)" fill="#ffd064" fill-rule="evenodd"/>
      </g>
      <g id="Grupo_17273" data-name="Grupo 17273" transform="translate(42.347 33.716)">
        <path id="Trazado_27313" data-name="Trazado 27313" d="M-77.449,1470.449H-88.61a16.725,16.725,0,0,1,1.259,4.225h9.9a2.119,2.119,0,0,0,1.956-1.313,2.13,2.13,0,0,0,.156-.8,2.126,2.126,0,0,0-.156-.8,2.122,2.122,0,0,0-1.956-1.316Z" transform="translate(88.61 -1470.449)" fill="#ffd064" fill-rule="evenodd"/>
      </g>
      <g id="Grupo_17274" data-name="Grupo 17274" transform="translate(5.052 37.94)">
        <path id="Trazado_27314" data-name="Trazado 27314" d="M-122.234,1483.788a10.039,10.039,0,0,1,1.043-4.385h-45.4a1.069,1.069,0,0,0-1.066,1.066v6.637a1.069,1.069,0,0,0,1.066,1.066h45.4a10.149,10.149,0,0,1-1.043-4.385Z" transform="translate(167.659 -1479.403)" fill="#f9f7f8" fill-rule="evenodd"/>
      </g>
      <g id="Grupo_17275" data-name="Grupo 17275" transform="translate(5.052 37.941)">
        <path id="Trazado_27315" data-name="Trazado 27315" d="M-157.574,1479.4h-9.019a1.069,1.069,0,0,0-1.066,1.066v3.318a1.069,1.069,0,0,1,1.066-1.066h44.419a10.471,10.471,0,0,1,.983-3.318h-36.383Z" transform="translate(167.659 -1479.404)" fill="#dddaec" fill-rule="evenodd"/>
      </g>
      <g id="Grupo_17276" data-name="Grupo 17276" transform="translate(15.132 25.106)">
        <path id="Trazado_27316" data-name="Trazado 27316" d="M-146.289,1468.607c-.04.506.156.669.583.28l2.882-2.749,2.882,2.749c.426.39.627.226.583-.28q0-8.2.007-16.406h-6.94Q-146.292,1460.4-146.289,1468.607Z" transform="translate(146.294 -1452.201)" fill="#eb5468" fill-rule="evenodd"/>
      </g>
      <g id="Grupo_17277" data-name="Grupo 17277" transform="translate(19.701 25.106)">
        <path id="Trazado_27317" data-name="Trazado 27317" d="M-134.237,1452.2h-2.369q0,7.492,0,14.984l1.226,1.17.557.533c.426.39.626.227.583-.28v-.253q0-8.076.007-16.153Z" transform="translate(136.609 -1452.201)" fill="#e5384f" fill-rule="evenodd"/>
      </g>
      <path id="Trazado_27318" data-name="Trazado 27318" d="M-124.857,1444.871h-1.453a8.752,8.752,0,0,1,0-7.116h1.455a2.942,2.942,0,0,0,2.939-2.939,2.942,2.942,0,0,0-2.939-2.939H-130.7a4.811,4.811,0,0,0,1.2-3.178v-9.209a4.837,4.837,0,0,0-4.831-4.832h-2.378a2.966,2.966,0,0,0,.316-1.335,2.994,2.994,0,0,0-2.989-2.993h-.818a6.837,6.837,0,0,1,0-5.36h.819a3,3,0,0,0,2.989-2.993,2.993,2.993,0,0,0-2.989-2.99h-27.893a8.671,8.671,0,0,0-8.663,8.66,8.6,8.6,0,0,0,2.541,6.122,8.738,8.738,0,0,0,1.038.887h-.641a2.942,2.942,0,0,0-2.939,2.939,2.942,2.942,0,0,0,2.939,2.939h1.455a8.752,8.752,0,0,1,0,7.116h-1.453a2.942,2.942,0,0,0-2.939,2.939,2.924,2.924,0,0,0,.522,1.67,4.84,4.84,0,0,0-2.941,4.448v9.209a4.836,4.836,0,0,0,4.828,4.832h48.68a2.943,2.943,0,0,0,2.939-2.939,2.942,2.942,0,0,0-2.939-2.939Zm0-11.34a1.287,1.287,0,0,1,1.285,1.285,1.287,1.287,0,0,1-1.285,1.286H-139.78a.827.827,0,0,0-.827.827.827.827,0,0,0,.827.827h11.7a10.723,10.723,0,0,0-.6,2.731,9.3,9.3,0,0,0,.6,4.385h-44.164a.242.242,0,0,1-.239-.239v-6.637a.243.243,0,0,1,.239-.239h8.192v2.716a1.172,1.172,0,0,0,.589,1.253,1.186,1.186,0,0,0,1.379-.333l.013-.012,2.311-2.2,2.311,2.2.013.012a1.409,1.409,0,0,0,.948.433.99.99,0,0,0,.435-.1,1.168,1.168,0,0,0,.585-1.254v-2.713h11.62a.826.826,0,0,0,.827-.827.827.827,0,0,0-.827-.827h-11.619v-2.571Zm-44.327-10.263a10.749,10.749,0,0,0-.6-2.731h34.157a.243.243,0,0,1,.239.239v6.637a.243.243,0,0,1-.239.239h-19.841v-2.731h5.787a.826.826,0,0,0,.827-.827.827.827,0,0,0-.827-.827h-19.505Zm5.126,4.385h-5.726a10.81,10.81,0,0,0,.6-2.731h5.126Zm6.939-2.731-.006,14.484-2.068-1.972a.826.826,0,0,0-1.141,0l-2.067,1.972,0-14.484Zm-17.174-17.273a7.016,7.016,0,0,1,7.01-7.006h27.893a1.337,1.337,0,0,1,1.336,1.335,1.339,1.339,0,0,1-1.336,1.339h-15.243a.827.827,0,0,0-.827.827.827.827,0,0,0,.827.827h12.662a8.412,8.412,0,0,0,0,5.36h-25.314a2.673,2.673,0,0,1-1.893-.786,2.675,2.675,0,0,1-.789-1.9,2.683,2.683,0,0,1,2.682-2.678h8.579a.827.827,0,0,0,.827-.827.827.827,0,0,0-.827-.827h-8.579a4.339,4.339,0,0,0-4.335,4.332,4.319,4.319,0,0,0,1.273,3.065,4.317,4.317,0,0,0,3.062,1.27h27.893a1.339,1.339,0,0,1,1.336,1.339,1.337,1.337,0,0,1-1.336,1.336h-27.893a6.959,6.959,0,0,1-4.953-2.057,6.961,6.961,0,0,1-2.057-4.953Zm1.285,11.234a1.287,1.287,0,0,1-1.285-1.286,1.287,1.287,0,0,1,1.285-1.285h38.669a3.181,3.181,0,0,1,3.178,3.178v9.209a3.181,3.181,0,0,1-3.178,3.178h-21.129v-2.571h19.842a1.9,1.9,0,0,0,1.893-1.893v-6.637a1.9,1.9,0,0,0-1.893-1.893h-37.383Zm0,10.423h8.95v2.571h-8.95a1.287,1.287,0,0,1-1.286-1.285,1.287,1.287,0,0,1,1.285-1.286Zm48.151,19.79h-48.68a3.18,3.18,0,0,1-3.175-3.178v-9.209a3.18,3.18,0,0,1,3.175-3.178h9.48v2.571h-8.191a1.9,1.9,0,0,0-1.893,1.893v6.637a1.9,1.9,0,0,0,1.893,1.894h47.391a1.287,1.287,0,0,1,1.285,1.286,1.287,1.287,0,0,1-1.285,1.285Z" transform="translate(178.366 -1398.988)" fill="#00223d"/>
    </g>
  </g>
</svg>
