<svg xmlns="http://www.w3.org/2000/svg" xmlns:xlink="http://www.w3.org/1999/xlink" width="96" height="95" viewBox="0 0 96 95">
  <defs>
    <linearGradient id="linear-gradient" x1="0.5" x2="0.5" y2="1" gradientUnits="objectBoundingBox">
      <stop offset="0" stop-color="#fff"/>
      <stop offset="1" stop-color="#e9e9e9"/>
    </linearGradient>
    <filter id="Elipse_7662" x="0" y="0" width="96" height="95" filterUnits="userSpaceOnUse">
      <feOffset dy="3" input="SourceAlpha"/>
      <feGaussianBlur stdDeviation="3" result="blur"/>
      <feFlood flood-opacity="0.161"/>
      <feComposite operator="in" in2="blur"/>
      <feComposite in="SourceGraphic"/>
    </filter>
  </defs>
  <g id="Grupo_1101061" data-name="Grupo 1101061" transform="translate(-176 -6376)">
    <g transform="matrix(1, 0, 0, 1, 176, 6376)" filter="url(#Elipse_7662)">
      <ellipse id="Elipse_7662-2" data-name="Elipse 7662" cx="39" cy="38.5" rx="39" ry="38.5" transform="translate(9 6)" fill="url(#linear-gradient)"/>
    </g>
    <g id="Grupo_17405" data-name="Grupo 17405" transform="translate(195.951 6395.176)">
      <g id="Grupo_17403" data-name="Grupo 17403" transform="translate(0.859 0.858)">
        <g id="Grupo_17385" data-name="Grupo 17385" transform="translate(0 11.161)">
          <path id="Trazado_27704" data-name="Trazado 27704" d="M1097.493,1961.071a3.4,3.4,0,0,1,.541,1.846,3.44,3.44,0,1,1-.541-1.846Z" transform="translate(-1091.166 -1959.483)" fill="#fcd770"/>
        </g>
        <g id="Grupo_17386" data-name="Grupo 17386" transform="translate(9.444 5.151)">
          <path id="Trazado_27705" data-name="Trazado 27705" d="M1117.31,1945.031a3.433,3.433,0,0,1,3.434,3.434,3.253,3.253,0,0,1-.181,1.082,3.432,3.432,0,1,1-3.254-4.516Z" transform="translate(-1113.876 -1945.031)" fill="#fcd770"/>
        </g>
        <g id="Grupo_17387" data-name="Grupo 17387" transform="translate(18.888 7.727)">
          <path id="Trazado_27706" data-name="Trazado 27706" d="M1145.17,1955.517a4.353,4.353,0,0,1-.712,2.378h-.009a4.291,4.291,0,0,1-7.864-2.378,4.454,4.454,0,0,1,.215-1.357h.009a4.291,4.291,0,0,1,8.362,1.357Z" transform="translate(-1136.585 -1951.225)" fill="#fcd770"/>
        </g>
        <g id="Grupo_17388" data-name="Grupo 17388" transform="translate(30.907 16.312)">
          <path id="Trazado_27707" data-name="Trazado 27707" d="M1169.67,1972.437a2.545,2.545,0,0,1,.97,2.009,2.576,2.576,0,0,1-5.151,0,2.625,2.625,0,0,1,.429-1.425,2.569,2.569,0,0,1,3.752-.584Z" transform="translate(-1165.489 -1971.87)" fill="#fcd770"/>
        </g>
        <g id="Grupo_17389" data-name="Grupo 17389" transform="translate(37.776)">
          <path id="Trazado_27708" data-name="Trazado 27708" d="M1188.015,1932.644a6.01,6.01,0,0,1,0,12.02,5.907,5.907,0,0,1-3.752-1.322,6.005,6.005,0,0,1,3.752-10.7Z" transform="translate(-1182.005 -1932.644)" fill="#ffc729"/>
        </g>
        <g id="Grupo_17390" data-name="Grupo 17390" transform="translate(41.21 3.434)">
          <circle id="Elipse_1040" data-name="Elipse 1040" cx="2.576" cy="2.576" r="2.576" fill="#fcd770"/>
        </g>
        <g id="Grupo_17391" data-name="Grupo 17391" transform="translate(10.302 15.454)">
          <path id="Trazado_27709" data-name="Trazado 27709" d="M1121.091,1969.806v10.56a13.012,13.012,0,0,0-5.151,0v-10.56Z" transform="translate(-1115.94 -1969.806)" fill="#ffeaa7"/>
        </g>
        <g id="Grupo_17392" data-name="Grupo 17392" transform="translate(20.596 19.746)">
          <path id="Trazado_27710" data-name="Trazado 27710" d="M1145.854,1980.128v15.454h-.463a11.873,11.873,0,0,0-.515-1.494,12.925,12.925,0,0,0-2.8-4.173,13.279,13.279,0,0,0-1.382-1.2l.008-.008v-8.577Z" transform="translate(-1140.694 -1980.128)" fill="#ffeaa7"/>
        </g>
        <g id="Grupo_17393" data-name="Grupo 17393" transform="translate(30.907 24.897)">
          <path id="Trazado_27711" data-name="Trazado 27711" d="M1165.489,1992.515h5.151v10.3h-5.151Z" transform="translate(-1165.489 -1992.515)" fill="#ffeaa7"/>
        </g>
        <g id="Grupo_17394" data-name="Grupo 17394" transform="translate(41.21 15.454)">
          <path id="Trazado_27712" data-name="Trazado 27712" d="M1195.414,1969.806v20.39l-1.717-.644h-3.434v-19.746Z" transform="translate(-1190.263 -1969.806)" fill="#ffeaa7"/>
        </g>
        <g id="Grupo_17395" data-name="Grupo 17395" transform="translate(29.19 38.634)">
          <path id="Trazado_27713" data-name="Trazado 27713" d="M1161.36,2025.548h15.453v3.434H1161.36Z" transform="translate(-1161.36 -2025.548)" fill="#ff826e"/>
        </g>
        <g id="Grupo_17396" data-name="Grupo 17396" transform="translate(29.19 35.2)">
          <path id="Trazado_27714" data-name="Trazado 27714" d="M1163.077,2017.289h13.736v3.435H1161.36v-3.435Z" transform="translate(-1161.36 -2017.289)" fill="#b4dd7f"/>
        </g>
        <g id="Grupo_17397" data-name="Grupo 17397" transform="translate(44.644 35.2)">
          <path id="Trazado_27715" data-name="Trazado 27715" d="M1204.582,2019.564a1.236,1.236,0,0,1,0,2.318l-6.061,2.275v-6.869l1.717.644Z" transform="translate(-1198.521 -2017.289)" fill="#aab2bd"/>
        </g>
        <g id="Grupo_17398" data-name="Grupo 17398" transform="translate(25.293 35.2)">
          <path id="Trazado_27716" data-name="Trazado 27716" d="M1152.45,2017.289h3.434v6.869h-3.9a12.959,12.959,0,0,0,0-6.869Z" transform="translate(-1151.987 -2017.289)" fill="#aab2bd"/>
        </g>
        <g id="Grupo_17399" data-name="Grupo 17399" transform="translate(0 29.19)">
          <path id="Trazado_27717" data-name="Trazado 27717" d="M1113.488,2012.282h3.434a12.878,12.878,0,0,1-25.756,0h3.434a9.513,9.513,0,0,1,.713-3.615h.008a9.4,9.4,0,0,1,5.108-5.108v-.009a9.525,9.525,0,0,1,7.229,0v.009a9.39,9.39,0,0,1,5.108,5.108h.009A9.517,9.517,0,0,1,1113.488,2012.282Z" transform="translate(-1091.166 -2002.838)" fill="#d2e1f1"/>
        </g>
        <g id="Grupo_17400" data-name="Grupo 17400" transform="translate(0 25.756)">
          <path id="Trazado_27718" data-name="Trazado 27718" d="M1116.458,2004.023a11.86,11.86,0,0,0-.515-1.494,12.922,12.922,0,0,0-2.8-4.172,13.262,13.262,0,0,0-1.382-1.2,12.65,12.65,0,0,0-2.79-1.6,12.853,12.853,0,0,0-2.353-.721,13.012,13.012,0,0,0-5.151,0,12.877,12.877,0,0,0-10.3,12.621h3.434a9.513,9.513,0,0,1,.713-3.615h.008a9.4,9.4,0,0,1,5.108-5.108v-.009a9.525,9.525,0,0,1,7.229,0v.009a9.39,9.39,0,0,1,5.108,5.108h.009a9.518,9.518,0,0,1,.712,3.615h3.434a12.961,12.961,0,0,0-.463-3.435Z" transform="translate(-1091.166 -1994.58)" fill="#b4dd7f"/>
        </g>
        <g id="Grupo_17401" data-name="Grupo 17401" transform="translate(11.161 32.624)">
          <path id="Trazado_27719" data-name="Trazado 27719" d="M1121.439,2015.243v6.816a2.56,2.56,0,0,0-3.434,0v-6.816a2.429,2.429,0,1,1,3.434,0Z" transform="translate(-1118.005 -2011.096)" fill="#ff826e"/>
        </g>
        <g id="Grupo_17402" data-name="Grupo 17402" transform="translate(10.302 42.927)">
          <path id="Trazado_27720" data-name="Trazado 27720" d="M1120.233,2036.54a2.493,2.493,0,0,1,.858,1.906,2.576,2.576,0,0,1-5.151,0,2.494,2.494,0,0,1,.859-1.906v-.008a2.56,2.56,0,0,1,3.434,0Z" transform="translate(-1115.94 -2035.87)" fill="#ff826e"/>
        </g>
      </g>
      <g id="Grupo_17404" data-name="Grupo 17404">
        <path id="Trazado_27721" data-name="Trazado 27721" d="M1119.885,2013.536a6.671,6.671,0,0,0-1.969-4.752l-.607-.607-.607.607a6.674,6.674,0,0,0-1.969,4.752v6.486a3.4,3.4,0,0,0-.858,2.248,3.434,3.434,0,1,0,6.009-2.248Zm-2.575-2.8a4.97,4.97,0,0,1,.858,2.805v5.421a3.334,3.334,0,0,0-.858-.123,3.377,3.377,0,0,0-.859.122v-5.421A4.97,4.97,0,0,1,1117.31,2010.731Zm0,13.255a1.717,1.717,0,1,1,1.717-1.717A1.719,1.719,0,0,1,1117.31,2023.986Z" transform="translate(-1103.573 -1975.908)" fill="#00223d"/>
        <path id="Trazado_27722" data-name="Trazado 27722" d="M1140.969,1989.816l-3.79-1.421v-20.654h-6.868v19.746h-3.434v-10.3h-6.868v10.3h-3.434v-15.454h-6.868v7.868a13.646,13.646,0,0,0-3.434-1.406v-10.755H1099.4V1978.5a13.728,13.728,0,1,0,16.474,17.577h18.881l6.21-2.329a2.1,2.1,0,0,0,0-3.928Zm-20.961-.611h13.736v1.717h-13.736Zm0,3.434h13.736v1.717h-13.736Zm12.019-23.18h3.434v18.293l-.7-.263h-2.731Zm-10.3,9.444h3.434v8.585h-3.434Zm-28.036,8.159-1.586-.656a12.034,12.034,0,0,1,1.662-2.484l1.216,1.217A10.338,10.338,0,0,0,1093.689,1987.061Zm-.656,1.587a10.209,10.209,0,0,0-.462,2.273h-1.709a11.922,11.922,0,0,1,.578-2.933Zm3.163-4.724-1.218-1.217a12.04,12.04,0,0,1,2.484-1.662l.655,1.581A10.294,10.294,0,0,0,1096.2,1983.924Zm3.509-1.951-.658-1.59a11.936,11.936,0,0,1,2.932-.578v1.714A10.209,10.209,0,0,0,1099.7,1981.973Zm3.991-2.169a11.938,11.938,0,0,1,2.933.578l-.659,1.59a10.208,10.208,0,0,0-2.274-.455Zm4.518,1.24a12.039,12.039,0,0,1,2.484,1.662l-1.217,1.217a10.362,10.362,0,0,0-1.922-1.3Zm3.7,2.876a12.03,12.03,0,0,1,1.662,2.484l-1.585.657a10.327,10.327,0,0,0-1.292-1.923Zm2.324,4.067a11.921,11.921,0,0,1,.579,2.933H1113.1a10.169,10.169,0,0,0-.463-2.273Zm-2.812-14.237h3.434v11.393a13.828,13.828,0,0,0-3.434-4.07Zm-10.3-4.293h3.434v8.7a12.407,12.407,0,0,0-3.434,0Zm1.717,34.342a12.026,12.026,0,0,1-11.976-11.161h3.39v-.858a8.585,8.585,0,1,1,17.171,0v.858h3.39a12.026,12.026,0,0,1-11.976,11.161Zm13.486-14.6h1.968v5.151h-1.968a13.347,13.347,0,0,0,0-5.151Zm24.043,2.932-4.9,1.839v-4.39l4.9,1.838a.381.381,0,0,1,0,.713Z" transform="translate(-1089.101 -1952.288)" fill="#00223d"/>
        <path id="Trazado_27723" data-name="Trazado 27723" d="M1191.632,1945.706a3.434,3.434,0,1,0-3.434-3.434A3.437,3.437,0,0,0,1191.632,1945.706Zm0-5.151a1.717,1.717,0,1,1-1.717,1.717A1.719,1.719,0,0,1,1191.632,1940.555Z" transform="translate(-1146.988 -1935.404)" fill="#00223d"/>
        <path id="Trazado_27724" data-name="Trazado 27724" d="M1093.394,1950.326a4.3,4.3,0,0,0,4.293-4.293,4.254,4.254,0,0,0-.294-1.527l2.364-1.505a4.259,4.259,0,0,0,6.781-.84l1.518.506a5.141,5.141,0,0,0,8.828,4.318l3.328,2.219a3.382,3.382,0,0,0-.2,1.122,3.434,3.434,0,1,0,6.174-2.049l3.983-4.979a6.861,6.861,0,1,0-1.343-1.071l-3.976,4.972a3.37,3.37,0,0,0-3.681.576l-3.326-2.218a5.148,5.148,0,0,0-9.244-4.519l-1.516-.506a4.131,4.131,0,0,0,.052-.509,4.293,4.293,0,0,0-8.585,0,4.242,4.242,0,0,0,.294,1.527l-2.364,1.5a4.289,4.289,0,1,0-3.081,7.27Zm40.351-18.029a5.151,5.151,0,1,1-5.151,5.151A5.156,5.156,0,0,1,1133.745,1932.3Zm-10.3,16.312a1.717,1.717,0,1,1-1.717,1.717A1.719,1.719,0,0,1,1123.443,1948.609Zm-10.3-8.586a3.434,3.434,0,1,1-3.434,3.434A3.438,3.438,0,0,1,1113.14,1940.023Zm-10.3-2.576a2.576,2.576,0,1,1-2.576,2.576A2.579,2.579,0,0,1,1102.838,1937.448Zm-9.444,6.01a2.576,2.576,0,1,1-2.576,2.575A2.578,2.578,0,0,1,1093.394,1943.458Z" transform="translate(-1089.101 -1930.58)" fill="#00223d"/>
      </g>
    </g>
  </g>
</svg>
