<svg id="Grupo_1084902" data-name="Grupo 1084902" xmlns="http://www.w3.org/2000/svg" width="77.013" height="77.012" viewBox="0 0 77.013 77.012">
  <path id="Trazado_27870" data-name="Trazado 27870" d="M1246.09,383.355a7.523,7.523,0,0,0-7.52,7.521v42.116h15.041V390.876A7.522,7.522,0,0,0,1246.09,383.355Z" transform="translate(-1178.102 -365.005)" fill="#ececf1"/>
  <path id="Trazado_27871" data-name="Trazado 27871" d="M1159.978,383.355a7.523,7.523,0,0,0-7.521,7.521v42.116H1167.5V390.876A7.522,7.522,0,0,0,1159.978,383.355Z" transform="translate(-1150.953 -365.005)" fill="#ececf1"/>
  <path id="Trazado_27872" data-name="Trazado 27872" d="M1198.649,418.979h21.359v-18.05H1179.7Z" transform="translate(-1159.541 -370.546)" fill="#7fe881"/>
  <path id="Trazado_27873" data-name="Trazado 27873" d="M1167.5,414.11v28.579a7.521,7.521,0,1,0-15.041,0,7.75,7.75,0,0,0,7.95,7.52h7.092l18.952-18.05Z" transform="translate(-1150.953 -374.701)" fill="#afafaf"/>
  <path id="Trazado_27874" data-name="Trazado 27874" d="M1233.826,443.737A7.535,7.535,0,0,0,1224.3,451V440.47h-12.936l-18.05,18.05h38.506a7.528,7.528,0,0,0,2-14.782Z" transform="translate(-1163.835 -383.012)" fill="#afafaf"/>
  <path id="Trazado_27875" data-name="Trazado 27875" d="M1218.346,418.979V428H1205.41l-18.05,18.05h-12.936L1193.376,428l-18.952-18.049v-9.025h3.61l18.952,18.05Z" transform="translate(-1157.879 -370.546)" fill="#fed2a4"/>
  <path id="Trazado_27876" data-name="Trazado 27876" d="M1200.263,358.751a13.537,13.537,0,0,1,13.538,13.538c0,3.684-3.283,9.941-6.616,15.342-3.435,5.568-6.921,10.228-6.921,10.228s-3.486-4.66-6.921-10.228c-3.333-5.4-6.616-11.659-6.616-15.342A13.537,13.537,0,0,1,1200.263,358.751Z" transform="translate(-1161.757 -357.248)" fill="#ff9751"/>
  <path id="Trazado_27877" data-name="Trazado 27877" d="M1203.727,369.735a6.017,6.017,0,1,1-6.017,6.017A6.023,6.023,0,0,1,1203.727,369.735Z" transform="translate(-1165.22 -360.711)" fill="#ececf1"/>
  <path id="Trazado_27878" data-name="Trazado 27878" d="M1218.248,373.4a9.023,9.023,0,0,0-9.024,9.025v3.008h-10.877c3.624-6.2,5.461-10.847,5.461-13.838a15.041,15.041,0,1,0-30.082,0c0,2.991,1.837,7.64,5.461,13.838H1168.31v-3.008a9.025,9.025,0,1,0-18.05,0v8.423a1.5,1.5,0,0,0,3.009,0v-8.423a6.017,6.017,0,1,1,12.033,0v35.4a9.005,9.005,0,0,0-12.033,0v-14.94a1.5,1.5,0,0,0-3.009,0v21.66a9.273,9.273,0,0,0,9.454,9.025h58.534a9.035,9.035,0,0,0,9.025-9.025V382.426A9.036,9.036,0,0,0,1218.248,373.4Zm-6.017,9.025a6.017,6.017,0,0,1,12.033,0V417.78a8.79,8.79,0,0,0-3.636-1.956,9.076,9.076,0,0,0-8.4,1.99Zm-3.008,21.058H1189.97l-15.793-15.041h6.833c3.284,5.246,6.519,9.58,6.552,9.625a1.5,1.5,0,0,0,2.409,0c.034-.045,3.269-4.379,6.552-9.625h12.7Zm-20.457-43.921A12.047,12.047,0,0,1,1200.8,371.6c0,5.585-8.809,18.5-12.033,23.012-3.274-4.584-12.033-17.478-12.033-23.012A12.047,12.047,0,0,1,1188.766,359.563Zm-35.5,64.98a6.017,6.017,0,1,1,12.033,0,1.5,1.5,0,0,0,3.008,0v-25.07l15.267,14.54L1166.2,430.559h-6.491A6.246,6.246,0,0,1,1153.269,424.543Zm33.526-9.44a1.5,1.5,0,0,0,0-2.178l-18.485-17.605v-6.876h1.5l18.517,17.635a1.5,1.5,0,0,0,1.037.415h19.855v6.017h-11.432a1.5,1.5,0,0,0-1.063.44l-17.61,17.61h-8.552Zm31.452,15.457h-34.875l15.042-15.042h10.808v9.025a1.5,1.5,0,0,0,3.008,0,6.032,6.032,0,0,1,7.644-5.806,5.924,5.924,0,0,1,4.389,5.806A6.024,6.024,0,0,1,1218.248,430.559Z" transform="translate(-1150.26 -356.555)" fill="#00223d"/>
  <path id="Trazado_27879" data-name="Trazado 27879" d="M1203.034,382.58a7.521,7.521,0,1,0-7.521-7.521A7.529,7.529,0,0,0,1203.034,382.58Zm0-12.033a4.512,4.512,0,1,1-4.512,4.512A4.517,4.517,0,0,1,1203.034,370.547Z" transform="translate(-1164.528 -360.018)" fill="#00223d"/>
  <path id="Trazado_27880" data-name="Trazado 27880" d="M1151.764,416.239a1.5,1.5,0,1,0-1.5-1.5A1.505,1.505,0,0,0,1151.764,416.239Z" transform="translate(-1150.26 -374.424)" fill="#00223d"/>
</svg>
