<svg xmlns="http://www.w3.org/2000/svg" width="83.518" height="73.263" viewBox="0 0 83.518 73.263">
  <g id="Credit_card-2" data-name="Credit card-2" transform="translate(0 0)">
    <path id="Trazado_27854" data-name="Trazado 27854" d="M1579.061,378.971v16.588a5.529,5.529,0,0,1-5.529,5.529h-49.762a5.529,5.529,0,0,1-5.529-5.529V378.971Z" transform="translate(-1497.505 -363.766)" fill="#ffcd00"/>
    <path id="Trazado_27855" data-name="Trazado 27855" d="M1574.971,399.488h19.352a5.529,5.529,0,0,0,5.529-5.529V374.607A24.867,24.867,0,0,1,1575,399.488Z" transform="translate(-1518.297 -362.166)" fill="#ebbf00"/>
    <path id="Trazado_27856" data-name="Trazado 27856" d="M1518.24,362.68v2.765h60.821V362.68a5.529,5.529,0,0,0-5.529-5.529h-49.762A5.529,5.529,0,0,0,1518.24,362.68Z" transform="translate(-1497.505 -355.769)" fill="#ffcd00"/>
    <path id="Trazado_27857" data-name="Trazado 27857" d="M1518.24,370.243h60.821v5.529H1518.24Z" transform="translate(-1497.505 -360.567)" fill="#6d6e71"/>
    <ellipse id="Elipse_1065" data-name="Elipse 1065" cx="4.147" cy="4.147" rx="4.147" ry="4.147" transform="translate(67.733 23.499)" fill="#f7941d"/>
    <path id="Trazado_27858" data-name="Trazado 27858" d="M1487.692,426.974v26.264h13.823V426.974Z" transform="translate(-1486.309 -381.358)" fill="#006df0"/>
    <path id="Trazado_27859" data-name="Trazado 27859" d="M1502.966,426.974h4.147v26.264h-4.147Z" transform="translate(-1491.907 -381.358)" fill="#005ece"/>
    <path id="Trazado_27860" data-name="Trazado 27860" d="M1552.943,432.924l17.279-9.98a4.149,4.149,0,1,1,4.147,7.188l-31.251,19.438a11.061,11.061,0,0,1-6.941,1.613l-23.348-2.334a10.762,10.762,0,0,0-1.106-.055h-2.212V429.44h1.7a5.531,5.531,0,0,0,2.053-.4l8.017-3.207a16.58,16.58,0,0,1,9.873-.766l18.741,4.3a4.146,4.146,0,0,1,2.933,5.078h0a4.146,4.146,0,0,1-5.079,2.932h0l-13.356-2.6" transform="translate(-1494.306 -379.677)" fill="#ffbcab"/>
    <ellipse id="Elipse_1066" data-name="Elipse 1066" cx="4.147" cy="4.147" rx="4.147" ry="4.147" transform="translate(60.821 23.499)" fill="#f15a29"/>
    <g id="Grupo_17496" data-name="Grupo 17496" transform="translate(0 0)">
      <path id="Trazado_27861" data-name="Trazado 27861" d="M1522.969,393.673h49.762a6.919,6.919,0,0,0,6.911-6.911V361.881a6.92,6.92,0,0,0-6.911-6.912h-49.762a6.92,6.92,0,0,0-6.912,6.912v24.882A6.919,6.919,0,0,0,1522.969,393.673Zm49.762-2.765h-49.762a4.146,4.146,0,0,1-4.147-4.146V371.557h58.056v15.205A4.146,4.146,0,0,1,1572.732,390.909Zm-53.909-24.881h58.056v2.765h-58.056Zm4.147-8.294h49.762a4.147,4.147,0,0,1,4.147,4.147v1.382h-58.056v-1.382A4.147,4.147,0,0,1,1522.969,357.734Z" transform="translate(-1496.705 -354.969)" fill="#00223d"/>
      <path id="Trazado_27862" data-name="Trazado 27862" d="M1591.751,389.881a24.182,24.182,0,0,1-11.247,2.045,14.88,14.88,0,1,0,11.247-2.045Zm-6.911,8.294a2.765,2.765,0,1,1,2.765-2.765A2.764,2.764,0,0,1,1584.84,398.175Zm6.911,0a2.724,2.724,0,0,1-1.8-.672,5.458,5.458,0,0,0,0-4.186,2.72,2.72,0,0,1,1.8-.671,2.765,2.765,0,1,1,0,5.529Z" transform="translate(-1519.871 -367.764)" fill="#00223d"/>
      <path id="Trazado_27863" data-name="Trazado 27863" d="M1548.5,402.973h-17.969a1.382,1.382,0,0,0,0,2.765H1548.5a1.382,1.382,0,1,0,0-2.765Z" transform="translate(-1501.504 -372.562)" fill="#00223d"/>
      <path id="Trazado_27864" data-name="Trazado 27864" d="M1530.532,399.192h1.382a1.382,1.382,0,0,0,0-2.765h-1.382a1.382,1.382,0,0,0,0,2.765Z" transform="translate(-1501.504 -370.163)" fill="#00223d"/>
      <path id="Trazado_27865" data-name="Trazado 27865" d="M1539.259,399.192h1.382a1.382,1.382,0,0,0,0-2.765h-1.382a1.382,1.382,0,0,0,0,2.765Z" transform="translate(-1504.702 -370.163)" fill="#00223d"/>
      <path id="Trazado_27866" data-name="Trazado 27866" d="M1547.987,399.192h1.382a1.382,1.382,0,0,0,0-2.765h-1.382a1.382,1.382,0,0,0,0,2.765Z" transform="translate(-1507.901 -370.163)" fill="#00223d"/>
      <path id="Trazado_27867" data-name="Trazado 27867" d="M1558.1,396.427h-1.382a1.382,1.382,0,0,0,0,2.765h1.382a1.382,1.382,0,0,0,0-2.765Z" transform="translate(-1511.099 -370.163)" fill="#00223d"/>
      <path id="Trazado_27868" data-name="Trazado 27868" d="M1568.289,422.979a5.551,5.551,0,0,0-7.554-2.023l-15.786,9.118a5.587,5.587,0,0,0-3.536-2.839l-18.745-4.3a17.9,17.9,0,0,0-10.694.829l-8.017,3.208a4.129,4.129,0,0,1-1.543.3h-.317V424.5a1.382,1.382,0,0,0-1.382-1.382h-13.823a1.382,1.382,0,0,0-1.382,1.382v26.264a1.382,1.382,0,0,0,1.382,1.382h13.823a1.382,1.382,0,0,0,1.382-1.382v-1.382h.829q.483,0,.968.048l23.351,2.335q.61.061,1.222.061a12.528,12.528,0,0,0,6.588-1.876l31.214-19.417a5.539,5.539,0,0,0,2.02-7.553Zm-68.956,26.4h-11.059v-23.5h11.059Zm65.51-21.217-31.25,19.437a9.76,9.76,0,0,1-6.074,1.411l-23.348-2.336q-.623-.061-1.244-.061h-.829V430.028h.317a6.9,6.9,0,0,0,2.567-.493l8.018-3.208a15.139,15.139,0,0,1,9.05-.7l18.693,4.285a2.774,2.774,0,0,1,2.025,2.3,1.251,1.251,0,0,0,.017.138,2.768,2.768,0,0,1-.086.945,2.8,2.8,0,0,1-3.445,1.945l-.035-.01-13.358-2.6a1.382,1.382,0,0,0-.528,2.713l13.27,2.577a5.529,5.529,0,0,0,6.773-3.907h0a5.528,5.528,0,0,0,.179-1.106l16.565-9.568a2.765,2.765,0,0,1,4.147,2.381A2.826,2.826,0,0,1,1564.843,428.164Z" transform="translate(-1485.51 -378.883)" fill="#00223d"/>
      <path id="Trazado_27869" data-name="Trazado 27869" d="M1497.8,433.52a1.382,1.382,0,0,0-1.383,1.382v1.382a1.382,1.382,0,0,0,2.765,0V434.9A1.382,1.382,0,0,0,1497.8,433.52Z" transform="translate(-1489.508 -383.757)" fill="#00223d"/>
    </g>
  </g>
</svg>
