<svg xmlns="http://www.w3.org/2000/svg" xmlns:xlink="http://www.w3.org/1999/xlink" width="96" height="95" viewBox="0 0 96 95">
  <defs>
    <linearGradient id="linear-gradient" x1="0.5" x2="0.5" y2="1" gradientUnits="objectBoundingBox">
      <stop offset="0" stop-color="#fff"/>
      <stop offset="1" stop-color="#e9e9e9"/>
    </linearGradient>
    <filter id="Elipse_7662" x="0" y="0" width="96" height="95" filterUnits="userSpaceOnUse">
      <feOffset dy="3" input="SourceAlpha"/>
      <feGaussianBlur stdDeviation="3" result="blur"/>
      <feFlood flood-opacity="0.161"/>
      <feComposite operator="in" in2="blur"/>
      <feComposite in="SourceGraphic"/>
    </filter>
  </defs>
  <g id="Grupo_1101054" data-name="Grupo 1101054" transform="translate(-176 -1088)">
    <g transform="matrix(1, 0, 0, 1, 176, 1088)" filter="url(#Elipse_7662)">
      <ellipse id="Elipse_7662-2" data-name="Elipse 7662" cx="39" cy="38.5" rx="39" ry="38.5" transform="translate(9 6)" fill="url(#linear-gradient)"/>
    </g>
    <g id="Grupo_17248" data-name="Grupo 17248" transform="translate(502.393 -457.704)">
      <path id="Trazado_27259" data-name="Trazado 27259" d="M-298.514,1615.017l28.093-15.589-6.866-3.649,14.094-9.073-5.925-3.091,16.072-14.068-27.358,13.738,6.8,3.614-13.648,8.567,7.188,3.821Z" transform="translate(-2.095 -2.096)" fill="#f7a139"/>
      <path id="Trazado_27260" data-name="Trazado 27260" d="M-261.8,1630.615a.919.919,0,0,0,.49-.142l3.995-2.507a.924.924,0,0,0,.291-1.274.924.924,0,0,0-1.274-.292l-3.995,2.508a.924.924,0,0,0-.292,1.274A.924.924,0,0,0-261.8,1630.615Z" transform="translate(-26.93 -41.451)" fill="#00223d"/>
      <path id="Trazado_27261" data-name="Trazado 27261" d="M-269.209,1640.926a.92.92,0,0,0,.49-.141l.018-.012a.924.924,0,0,0,.293-1.274.924.924,0,0,0-1.274-.293l-.019.012a.924.924,0,0,0-.293,1.274A.924.924,0,0,0-269.209,1640.926Z" transform="translate(-21.79 -50.338)" fill="#00223d"/>
      <path id="Trazado_27262" data-name="Trazado 27262" d="M-254.373,1566.936a.923.923,0,0,0-1.181-.31l-27.358,13.737a.924.924,0,0,0-.509.815.924.924,0,0,0,.49.827l5.389,2.864-12.295,7.718a.923.923,0,0,0-.432.816.925.925,0,0,0,.49.783l5.988,3.182-17.417,14.849a.925.925,0,0,0-.16,1.23.923.923,0,0,0,.76.4.923.923,0,0,0,.448-.116l28.092-15.589a.924.924,0,0,0,.476-.816.925.925,0,0,0-.49-.808l-5.474-2.909,12.769-8.219a.925.925,0,0,0,.423-.819.924.924,0,0,0-.5-.777l-4.727-2.466,15.056-13.177A.924.924,0,0,0-254.373,1566.936Zm-17.448,13.888a.925.925,0,0,0-.309.805.925.925,0,0,0,.49.71l4.515,2.355-12.757,8.212a.924.924,0,0,0-.423.816.924.924,0,0,0,.49.778l5.363,2.851-18.525,10.28,11.419-9.735a.924.924,0,0,0,.319-.8.923.923,0,0,0-.485-.716l-5.778-3.071,12.295-7.718a.924.924,0,0,0,.432-.816.923.923,0,0,0-.49-.783l-5.22-2.774,19.281-9.682Z" transform="translate(0)" fill="#00223d"/>
      <path id="Trazado_27263" data-name="Trazado 27263" d="M-192.23,1670l-.019.011a.924.924,0,0,0-.358,1.257.923.923,0,0,0,.808.475.92.92,0,0,0,.449-.117l.019-.011a.924.924,0,0,0,.358-1.257A.924.924,0,0,0-192.23,1670Z" transform="translate(-75.508 -71.722)" fill="#00223d"/>
      <path id="Trazado_27264" data-name="Trazado 27264" d="M-209.187,1674.239l-4.124,2.289a.924.924,0,0,0-.36,1.257.924.924,0,0,0,.809.476.923.923,0,0,0,.447-.116l4.124-2.289a.924.924,0,0,0,.36-1.257A.924.924,0,0,0-209.187,1674.239Z" transform="translate(-60.892 -74.666)" fill="#00223d"/>
    </g>
  </g>
</svg>
