<svg xmlns="http://www.w3.org/2000/svg" width="76.986" height="79.956" viewBox="0 0 76.986 79.956">
  <g id="Grupo_1101063" data-name="Grupo 1101063" transform="translate(-433.548 -6561)">
    <g id="Grupo_1100845" data-name="Grupo 1100845" transform="translate(9023.534 14348)">
      <g id="icon_media_pdf" transform="translate(-8588.571 -7787)">
        <path id="Trazado_715359" data-name="Trazado 715359" d="M37.786,0A37.786,37.786,0,1,1,0,37.786,37.786,37.786,0,0,1,37.786,0Z" fill="#02dd84"/>
        <g id="Grupo_15730" data-name="Grupo 15730" transform="translate(18.893 14.17)">
          <g id="Grupo_15724" data-name="Grupo 15724">
            <g id="Grupo_15722" data-name="Grupo 15722" transform="translate(0 2.362)" opacity="0.2">
              <path id="Trazado_24792" data-name="Trazado 24792" d="M39.616,24.627V14H19.542A3.542,3.542,0,0,0,16,17.542V57.69a3.542,3.542,0,0,0,3.542,3.542h30.7a3.542,3.542,0,0,0,3.542-3.542V28.17H43.158A3.542,3.542,0,0,1,39.616,24.627Z" transform="translate(-16 -14)" fill="#231f20"/>
            </g>
            <path id="Trazado_24793" data-name="Trazado 24793" d="M39.616,22.627V12H19.542A3.542,3.542,0,0,0,16,15.542V55.69a3.542,3.542,0,0,0,3.542,3.542h30.7a3.542,3.542,0,0,0,3.542-3.542V26.17H43.158A3.542,3.542,0,0,1,39.616,22.627Z" transform="translate(-16 -12)" fill="#e0e0d1"/>
            <g id="Grupo_15723" data-name="Grupo 15723" transform="translate(24.82 13.331)" opacity="0.2">
              <path id="Trazado_24794" data-name="Trazado 24794" d="M37.02,23.29,49.985,34.756V24.128Z" transform="translate(-37.02 -23.29)" fill="#231f20"/>
            </g>
            <path id="Trazado_24795" data-name="Trazado 24795" d="M36,12V22.627a3.542,3.542,0,0,0,3.542,3.542H50.17Z" transform="translate(-12.384 -12)" fill="#fff"/>
          </g>
          <g id="Grupo_15725" data-name="Grupo 15725" transform="translate(7.085 11.808)">
            <rect id="Rectángulo_3745" data-name="Rectángulo 3745" width="11.371" height="2.362" fill="#0b481e"/>
          </g>
          <g id="Grupo_15726" data-name="Grupo 15726" transform="translate(7.085 23.616)">
            <rect id="Rectángulo_3746" data-name="Rectángulo 3746" width="23.616" height="2.362" fill="#0b481e"/>
          </g>
          <g id="Grupo_15727" data-name="Grupo 15727" transform="translate(7.085 17.712)">
            <rect id="Rectángulo_3747" data-name="Rectángulo 3747" width="23.616" height="2.362" fill="#0b481e"/>
          </g>
          <g id="Grupo_15728" data-name="Grupo 15728" transform="translate(7.085 29.52)">
            <rect id="Rectángulo_3748" data-name="Rectángulo 3748" width="23.616" height="2.362" fill="#0b481e"/>
          </g>
          <g id="Grupo_15729" data-name="Grupo 15729" transform="translate(7.085 35.424)">
            <rect id="Rectángulo_3749" data-name="Rectángulo 3749" width="23.616" height="2.362" fill="#0b481e"/>
          </g>
        </g>
      </g>
      <path id="Trazado_875514" data-name="Trazado 875514" d="M29.134,93.546l-5.726,5.726,2.641,2.641,2.641,2.641,5.726-5.726,2.863,2.863,5.211-16.22-16.22,5.211Z" transform="translate(-8611.979 -7813.013)" fill="#12263f" stroke="#fff" stroke-width="2"/>
    </g>
  </g>
</svg>
