<svg xmlns="http://www.w3.org/2000/svg" xmlns:xlink="http://www.w3.org/1999/xlink" width="96" height="95" viewBox="0 0 96 95">
  <defs>
    <linearGradient id="linear-gradient" x1="0.5" x2="0.5" y2="1" gradientUnits="objectBoundingBox">
      <stop offset="0" stop-color="#fff"/>
      <stop offset="1" stop-color="#e9e9e9"/>
    </linearGradient>
    <filter id="Elipse_7662" x="0" y="0" width="96" height="95" filterUnits="userSpaceOnUse">
      <feOffset dy="3" input="SourceAlpha"/>
      <feGaussianBlur stdDeviation="3" result="blur"/>
      <feFlood flood-opacity="0.161"/>
      <feComposite operator="in" in2="blur"/>
      <feComposite in="SourceGraphic"/>
    </filter>
  </defs>
  <g id="Grupo_1101056" data-name="Grupo 1101056" transform="translate(-176 -1210)">
    <g transform="matrix(1, 0, 0, 1, 176, 1210)" filter="url(#Elipse_7662)">
      <ellipse id="Elipse_7662-2" data-name="Elipse 7662" cx="39" cy="38.5" rx="39" ry="38.5" transform="translate(9 6)" fill="url(#linear-gradient)"/>
    </g>
    <g id="Grupo_17251" data-name="Grupo 17251" transform="translate(882.207 -341.029)">
      <path id="Trazado_27265" data-name="Trazado 27265" d="M-669.122,1634.628l5.938,10.285-8.57,4.948a5.937,5.937,0,0,1-8.111-2.173,5.937,5.937,0,0,1,2.173-8.111Z" transform="translate(-1.891 -39.761)" fill="#dbb10f"/>
      <path id="Trazado_27266" data-name="Trazado 27266" d="M-595.458,1604.3a1.979,1.979,0,0,1-1.666,2.968l-1.114.219-.025-.126L-611,1585.3l-.083-.065.713-.908a1.979,1.979,0,0,1,3.4.04C-587.2,1618.609-612.14,1575.406-595.458,1604.3Z" transform="translate(-47.563 -6.118)" fill="#dbb10f"/>
      <path id="Trazado_27267" data-name="Trazado 27267" d="M-644.151,1679.751a2.968,2.968,0,0,1-1.086,4.055,2.97,2.97,0,0,1-4.055-1.086l-5.443-9.428,5.142-2.969Z" transform="translate(-18.909 -63.192)" fill="#495d85"/>
      <path id="Trazado_27268" data-name="Trazado 27268" d="M-583.167,1605.433l1.979,3.428-2.439,3.693-3.958-6.856Z" transform="translate(-62.988 -20.597)" fill="#e9eef0"/>
      <path id="Trazado_27269" data-name="Trazado 27269" d="M-621.886,1610.91l.025.126-19.275,3.78-5.938-10.284,12.365-15.752.083.065Z" transform="translate(-23.938 -9.665)" fill="#b80fff"/>
      <path id="Trazado_27270" data-name="Trazado 27270" d="M-646.927,1659.311a.99.99,0,0,0,.362-1.352.991.991,0,0,0-1.352-.363.99.99,0,0,0-.362,1.352A.99.99,0,0,0-646.927,1659.311Z" transform="translate(-23.061 -54.752)" fill="#00223d"/>
      <path id="Trazado_27271" data-name="Trazado 27271" d="M-674.043,1615.616l4.984,8.633a3.964,3.964,0,0,0,5.408,1.449,3.956,3.956,0,0,0,1.449-5.407l-2.969-5.143,2.571-1.484a.99.99,0,0,0,.362-1.352l-1.287-2.229,18.955-3.718a2.968,2.968,0,0,0,2.406-4.448l-3.289-5.7,2.1-3.184a.989.989,0,0,0,.031-1.04l-1.979-3.428a.991.991,0,0,0-.916-.493l-3.807.229-3.651-6.324a2.943,2.943,0,0,0-2.534-1.484h-.038a2.943,2.943,0,0,0-2.5,1.369l-12.928,16.469-8.4,4.852a6.93,6.93,0,0,0-2.536,9.463A6.936,6.936,0,0,0-674.043,1615.616Zm10.126,5.664a1.978,1.978,0,0,1-.725,2.7,1.982,1.982,0,0,1-2.7-.724l-4.948-8.572,3.428-1.979Zm-2.245-7.847-.99-1.714,1.714-.99.99,1.714Zm19.454-23.346,1.368,2.369-1.22,1.847-2.357-4.083Zm-10.383-7.139a.968.968,0,0,1,.858-.475.973.973,0,0,1,.844.494l11.51,19.938a.989.989,0,0,1-.832,1.483,3.648,3.648,0,0,0-.543.092l-12.176-21.089C-657.173,1583.064-657.141,1583.032-657.09,1582.949Zm-1.656,2.121,11.44,19.815-17.265,3.386-5.249-9.092Zm-22.153,26.588a4.944,4.944,0,0,1-.664-2.469,4.966,4.966,0,0,1,2.475-4.29l7.713-4.453,4.948,8.57-7.714,4.453A4.954,4.954,0,0,1-680.9,1611.658Z" transform="translate(0 -4.227)" fill="#00223d"/>
      <path id="Trazado_27272" data-name="Trazado 27272" d="M-664.983,1663.72a.99.99,0,0,0-1.352-.362l-1.714.99a.991.991,0,0,1-1.352-.362.99.99,0,0,0-1.352-.362.99.99,0,0,0-.362,1.352,2.973,2.973,0,0,0,4.056,1.086l1.714-.99A.989.989,0,0,0-664.983,1663.72Z" transform="translate(-8.07 -58.533)" fill="#00223d"/>
      <path id="Trazado_27273" data-name="Trazado 27273" d="M-551.855,1586.418l-5.514,3.069a.99.99,0,0,0-.384,1.346.989.989,0,0,0,1.346.383l5.514-3.068a.989.989,0,0,0,.383-1.346A.989.989,0,0,0-551.855,1586.418Z" transform="translate(-82.489 -8.032)" fill="#00223d"/>
      <path id="Trazado_27274" data-name="Trazado 27274" d="M-551.717,1614.467l-3.824-1.025a.99.99,0,0,0-1.212.7.989.989,0,0,0,.7,1.212l3.824,1.025a.989.989,0,0,0,1.212-.7A.989.989,0,0,0-551.717,1614.467Z" transform="translate(-83.205 -25.832)" fill="#00223d"/>
      <path id="Trazado_27275" data-name="Trazado 27275" d="M-572.021,1574.79l-1.026,3.824a.99.99,0,0,0,.7,1.212.99.99,0,0,0,1.212-.7l1.025-3.824a.99.99,0,0,0-.7-1.213A.989.989,0,0,0-572.021,1574.79Z" transform="translate(-72.509)" fill="#00223d"/>
    </g>
  </g>
</svg>
