<svg xmlns="http://www.w3.org/2000/svg" xmlns:xlink="http://www.w3.org/1999/xlink" width="130" height="130" viewBox="0 0 130 130">
  <defs>
    <clipPath id="clip-path">
      <rect id="Rectángulo_361763" data-name="Rectángulo 361763" width="55.818" height="61.4" fill="none"/>
    </clipPath>
  </defs>
  <g id="Grupo_1101054" data-name="Grupo 1101054" transform="translate(-473 -11276)">
    <g id="Grupo_86326" data-name="Grupo 86326" transform="translate(0 3770)">
      <circle id="Elipse_4923" data-name="Elipse 4923" cx="53" cy="53" r="53" transform="translate(485 7521)" fill="#ffe9e1"/>
      <g id="Grupo_86320" data-name="Grupo 86320" transform="translate(153 -27)">
        <rect id="Rectángulo_34475" data-name="Rectángulo 34475" width="130" height="130" transform="translate(320 7533)" fill="none"/>
        <g id="Grupo_1084920" data-name="Grupo 1084920" transform="translate(359.657 7569.3)">
          <g id="Grupo_1084184" data-name="Grupo 1084184" clip-path="url(#clip-path)">
            <path id="Trazado_717048" data-name="Trazado 717048" d="M49.266,141.168c1.754,4.621,2,8.936-1.637,13.012,1.038,0,1.936-.008,2.834,0a6.9,6.9,0,0,1,.561,13.784c-.3.022-.594.026-.891.026q-20.471,0-40.942,0a6.906,6.906,0,1,1-.258-13.8c7.832-.022,15.663-.006,23.495-.006H34.06c-2.823-2.2-3.523-5.013-3.342-8.15a9.152,9.152,0,0,1,6.962-8.6c.13-.026.272-.1.387-.069,1.5.406,2.118-.565,2.888-1.609,1.849-2.506,4.6-3.011,7.459-2.719a39.86,39.86,0,0,1,5.893,1.228c1.267.328,1.415.944.655,2.044A14.358,14.358,0,0,1,50,140.768l-.729.4M29.635,166.075H32.31q8.966,0,17.932,0a4.99,4.99,0,1,0,.138-9.972q-20.706-.018-41.411,0c-.165,0-.331,0-.5.011a5.016,5.016,0,0,0-4.6,4.86,4.96,4.96,0,0,0,5.151,5.1c6.869.025,13.738.008,20.607.009m6.847-13.028c.919-1.11,1.145-1.055,2.23-.137a5.337,5.337,0,0,0,2.223,1.186,6.241,6.241,0,0,0,7.323-4.812,17.61,17.61,0,0,0-.1-5.477,3.833,3.833,0,0,0-3.826-3,5.75,5.75,0,0,0-5.767,4.459c-.153.6-.479.977-1.1.87a.9.9,0,0,1-.759-1.261,15.263,15.263,0,0,1,1.363-2.92,20.1,20.1,0,0,1,1.995-2.3,6.4,6.4,0,0,0-1.844-.357,4.929,4.929,0,0,0-1.929.7,8.257,8.257,0,0,0-2.718,10.886,4.544,4.544,0,0,0,2.91,2.156m5.16-14.205a10.431,10.431,0,0,1,.956-.541c1.507-.646,3.009-1.306,4.538-1.895a.907.907,0,0,1,1.3.7c.145.625-.224.978-.813,1.145-.655.187-1.3.4-1.953.6.677.426,1.449.968,2.006.8a10.666,10.666,0,0,0,5.267-3.88c-1.008-.237-1.826-.468-2.659-.617a11.315,11.315,0,0,0-5.482.1,4.62,4.62,0,0,0-3.157,3.588" transform="translate(-1.577 -106.594)"/>
            <path id="Trazado_717049" data-name="Trazado 717049" d="M12.158,9.893c-1.753-.1-1.864-.222-1.865-1.828,0-.686,0-1.371,0-2.184-1.284,0-2.463-.021-3.642.007-.925.022-1.333-.4-1.316-1.311.02-1.123.013-2.247,0-3.371C5.331.377,5.745,0,6.556,0q6.692,0,13.384,0a1.054,1.054,0,0,1,1.194,1.226c-.014,1.157-.008,2.313,0,3.47,0,.833-.422,1.2-1.232,1.189-1.186-.009-2.371,0-3.72,0,0,.682,0,1.294,0,1.906,0,1.911,0,1.911-1.906,2.142a7.256,7.256,0,0,0-.074.746c-.005,3.47.006,6.94-.014,10.409a1,1,0,0,0,.7,1.115,3.467,3.467,0,0,1,2.173,2.758,1.681,1.681,0,0,0,1,1.323c2.471,1.4,4.928,2.824,7.387,4.244,1.213.7,1.294.993.6,2.191q-2.2,3.82-4.413,7.634c-.57.982-.94,1.082-1.922.534-.634-.354-1.249-.745-1.893-1.08a1.189,1.189,0,0,1-.6-1.726c.5-1.257.926-2.545,1.434-3.8.207-.51.2-.828-.313-1.145-1.543-.958-3.045-1.982-4.6-2.923a1.187,1.187,0,0,0-1.026.01c-1.553.941-3.059,1.96-4.6,2.922A.725.725,0,0,0,7.777,34.2c.527,1.318.981,2.664,1.5,3.987a1.11,1.11,0,0,1-.555,1.571c-.724.4-1.433.819-2.148,1.233a1.035,1.035,0,0,1-1.6-.393Q2.586,36.482.215,32.359c-.45-.78-.163-1.278.568-1.694,2.583-1.469,5.163-2.945,7.71-4.475a2.1,2.1,0,0,0,.848-1.167,4.275,4.275,0,0,1,2.329-2.912,1.189,1.189,0,0,0,.579-.847c.039-3.6.027-7.2.02-10.806a2.99,2.99,0,0,0-.111-.566M10.937,29.048l-1.2-1.328L2.251,32.048l4.017,6.928,1-.666c-.544-1.475-1.009-2.884-1.586-4.245a1.462,1.462,0,0,1,.73-2.116c1.522-.909,2.99-1.909,4.526-2.9m13.274,2.989L16.722,27.72,15.54,29.051c1.578,1.023,3.078,2.043,4.629,2.98a1.37,1.37,0,0,1,.63,1.979c-.582,1.422-1.072,2.882-1.612,4.357l1.042.564,3.981-6.893M19.176,1.993H7.337v1.9h11.84ZM13.213,23.731a2.007,2.007,0,0,0,.039,4.014,2.007,2.007,0,0,0-.039-4.014m.971-17.768h-1.9V7.891h1.9Z" transform="translate(0 0)"/>
            <path id="Trazado_717050" data-name="Trazado 717050" d="M37.355,259.625c-6.869,0-13.738.016-20.607-.008a4.96,4.96,0,0,1-5.151-5.1,5.016,5.016,0,0,1,4.6-4.86c.165-.012.33-.011.5-.011q20.706,0,41.411,0a4.99,4.99,0,1,1-.138,9.972q-8.966.013-17.932,0H37.355M26.45,251.7a2.935,2.935,0,1,0,2.978,2.913A2.924,2.924,0,0,0,26.45,251.7m-6.931,2.9a2.939,2.939,0,1,0-2.928,2.976,2.938,2.938,0,0,0,2.928-2.976m19.825.069a2.936,2.936,0,1,0-2.995,2.9,2.931,2.931,0,0,0,2.995-2.9m6.951,2.906a2.937,2.937,0,1,0-2.908-2.992,2.939,2.939,0,0,0,2.908,2.992m9.96,0A2.935,2.935,0,1,0,53.3,254.63a2.931,2.931,0,0,0,2.953,2.944" transform="translate(-9.297 -200.145)" fill="#727997"/>
            <path id="Trazado_717051" data-name="Trazado 717051" d="M160.094,178.687a4.544,4.544,0,0,1-2.91-2.156,8.256,8.256,0,0,1,2.718-10.886,4.928,4.928,0,0,1,1.929-.7,6.4,6.4,0,0,1,1.843.357,20.091,20.091,0,0,0-1.994,2.3,15.253,15.253,0,0,0-1.363,2.92.9.9,0,0,0,.759,1.261c.623.106.949-.267,1.1-.87a5.75,5.75,0,0,1,5.767-4.459,3.833,3.833,0,0,1,3.826,3,17.6,17.6,0,0,1,.1,5.477,6.241,6.241,0,0,1-7.323,4.812,5.337,5.337,0,0,1-2.223-1.186c-1.085-.917-1.311-.973-2.229.137" transform="translate(-125.188 -132.234)" fill="#ff9751"/>
            <path id="Trazado_717052" data-name="Trazado 717052" d="M202.066,146.553a4.62,4.62,0,0,1,3.157-3.588,11.315,11.315,0,0,1,5.482-.1c.833.149,1.651.38,2.659.617a10.665,10.665,0,0,1-5.267,3.88c-.557.168-1.329-.374-2.006-.8.651-.2,1.3-.411,1.953-.6.589-.168.958-.52.813-1.145a.907.907,0,0,0-1.3-.7c-1.529.588-3.031,1.249-4.538,1.895a10.438,10.438,0,0,0-.956.541" transform="translate(-162.001 -114.307)" fill="#02dd84"/>
            <path id="Trazado_717053" data-name="Trazado 717053" d="M20.04,141.133c-1.536.991-3,1.991-4.526,2.9a1.462,1.462,0,0,0-.73,2.116c.577,1.361,1.041,2.77,1.586,4.245l-1,.666-4.017-6.928,7.487-4.327,1.2,1.328" transform="translate(-9.103 -112.085)" fill="#b80fff"/>
            <path id="Trazado_717054" data-name="Trazado 717054" d="M87.048,144.12l-3.981,6.893-1.042-.564c.54-1.474,1.029-2.935,1.612-4.357a1.37,1.37,0,0,0-.63-1.979c-1.551-.936-3.051-1.957-4.629-2.98l1.181-1.331,7.489,4.318" transform="translate(-62.837 -112.082)" fill="#b80fff"/>
            <rect id="Rectángulo_361761" data-name="Rectángulo 361761" width="11.84" height="1.901" transform="translate(7.336 1.993)" fill="#b0c0d2"/>
            <path id="Trazado_717055" data-name="Trazado 717055" d="M58.607,119.683a2.007,2.007,0,1,1-1.986,2.031,2.009,2.009,0,0,1,1.986-2.031" transform="translate(-45.394 -95.952)" fill="#fff"/>
            <rect id="Rectángulo_361762" data-name="Rectángulo 361762" width="1.897" height="1.929" transform="translate(12.287 5.962)" fill="#b0c0d2"/>
            <path id="Trazado_717056" data-name="Trazado 717056" d="M74.832,260.025a2.935,2.935,0,1,1-2.888,3,2.923,2.923,0,0,1,2.888-3m.3,1.776-.448-.014c-.273.381-.785.784-.752,1.136a.944.944,0,0,0,1.887.058c.051-.353-.436-.783-.687-1.179" transform="translate(-57.679 -208.467)"/>
            <path id="Trazado_717057" data-name="Trazado 717057" d="M27.789,262.928a2.939,2.939,0,1,1-3-2.9,2.948,2.948,0,0,1,3,2.9m-3.208,1.189.461.013c.27-.378.78-.78.747-1.128-.037-.376-.583-.7-.907-1.05-.347.327-.913.618-.976.993-.058.343.428.778.675,1.172" transform="translate(-17.566 -208.472)"/>
            <path id="Trazado_717058" data-name="Trazado 717058" d="M127.8,262.992a2.936,2.936,0,1,1-2.926-2.967,2.943,2.943,0,0,1,2.926,2.967m-1.787.242q.009-.226.019-.453c-.376-.279-.772-.8-1.121-.77-.375.032-.706.582-1.056.906.322.348.607.918.977.98.347.058.784-.421,1.182-.663" transform="translate(-97.756 -208.468)"/>
            <path id="Trazado_717059" data-name="Trazado 717059" d="M174.839,265.9a2.937,2.937,0,1,1,2.962-2.936,2.944,2.944,0,0,1-2.962,2.936m.253-4.1-.45,0c-.263.388-.765.8-.724,1.157a.946.946,0,0,0,1.891,0c.044-.351-.456-.77-.717-1.159" transform="translate(-137.84 -208.465)"/>
            <path id="Trazado_717060" data-name="Trazado 717060" d="M224.892,265.907a2.935,2.935,0,1,1,2.914-2.981,2.935,2.935,0,0,1-2.914,2.981m.166-4.109-.448.014c-.248.4-.734.83-.68,1.179a1.354,1.354,0,0,0,.977.909c.326,0,.872-.6.9-.968s-.479-.754-.751-1.134" transform="translate(-177.933 -208.478)"/>
            <path id="Trazado_717061" data-name="Trazado 717061" d="M83.165,268.926c.251.4.738.827.687,1.179a.944.944,0,0,1-1.887-.058c-.033-.352.48-.755.752-1.136l.448.014" transform="translate(-65.712 -215.593)" fill="#fff"/>
            <path id="Trazado_717062" data-name="Trazado 717062" d="M32.628,271.886c-.246-.394-.733-.829-.675-1.172.063-.375.629-.666.976-.993.324.348.869.674.907,1.05.034.348-.476.75-.747,1.128l-.461-.013" transform="translate(-25.614 -216.241)" fill="#fff"/>
            <path id="Trazado_717063" data-name="Trazado 717063" d="M133.8,271.265c-.4.242-.835.722-1.182.663-.37-.062-.655-.632-.977-.98.35-.324.681-.873,1.056-.906.349-.03.746.491,1.121.77q-.009.226-.019.453" transform="translate(-105.539 -216.498)" fill="#fff"/>
            <path id="Trazado_717064" data-name="Trazado 717064" d="M183.122,268.94c.261.389.76.808.717,1.159a.946.946,0,0,1-1.891,0c-.041-.353.461-.769.724-1.157l.45,0" transform="translate(-145.869 -215.613)" fill="#fff"/>
            <path id="Trazado_717065" data-name="Trazado 717065" d="M233.092,268.918c.272.38.78.779.751,1.134s-.577.965-.9.968a1.354,1.354,0,0,1-.977-.909c-.055-.349.431-.783.68-1.179l.449-.014" transform="translate(-185.967 -215.597)" fill="#fff"/>
          </g>
        </g>
      </g>
    </g>
  </g>
</svg>
