<svg id="Grupo_1084899" data-name="Grupo 1084899" xmlns="http://www.w3.org/2000/svg" width="78.174" height="78.174" viewBox="0 0 78.174 78.174">
  <path id="Trazado_27825" data-name="Trazado 27825" d="M444.451,570.19l-19.5,19.5,33.341,33.341,36.083-36.082.479-22.707-11.113-11.114-22.707.479Zm39.014,4.187a6.972,6.972,0,1,1,0-9.86A6.972,6.972,0,0,1,483.465,574.377Z" transform="translate(-423.418 -546.39)" fill="#36d28f"/>
  <path id="Trazado_27826" data-name="Trazado 27826" d="M498.854,541.123c-1.561-1.561-4.218-1.67-7.483-.307a27.342,27.342,0,0,0-7.623,5.111c-.134-.134-.266-.27-.4-.4a1.574,1.574,0,0,0-1.12-.452l-22.707.479a1.535,1.535,0,0,0-1.051.449l-7.856,7.856a1.533,1.533,0,0,0,2.168,2.168l7.421-7.42,21.327-.45a29.133,29.133,0,0,0-4.454,6.269,8.5,8.5,0,1,0,8.486,8.5,8.648,8.648,0,0,0-.075-1.122l0-.016a8.5,8.5,0,0,0-5.259-6.754,27.022,27.022,0,0,1,3.528-4.766l8.075,8.076-.452,21.437L456.81,614.34l-31.173-31.174,18.417-18.417a1.533,1.533,0,1,0-2.168-2.168l-19.5,19.5a1.532,1.532,0,0,0,0,2.167l33.342,33.342a1.533,1.533,0,0,0,2.168,0l36.082-36.082a1.539,1.539,0,0,0,.449-1.052l.479-22.706a1.534,1.534,0,0,0-.449-1.116l-.406-.406a27.343,27.343,0,0,0,5.112-7.623C500.524,545.341,500.415,542.684,498.854,541.123Zm-21.8,27.24a5.438,5.438,0,0,1-1.23-10.735c-.61,2.388-.291,4.329.953,5.573a4.6,4.6,0,0,0,3.374,1.258,8.939,8.939,0,0,0,2.2-.3,5.441,5.441,0,0,1-5.3,4.209Zm5.1-7.339c-1.765.575-2.819.4-3.209.01-.49-.49-.474-1.7.01-3.2a5.439,5.439,0,0,1,3.2,3.2Zm14.179-13.6a24.1,24.1,0,0,1-4.452,6.634l-5.962-5.963a24.08,24.08,0,0,1,6.634-4.452c1.923-.8,3.546-.942,4.134-.354S497.136,545.5,496.332,547.425Z" transform="translate(-421.936 -539.867)" fill="#00223d"/>
  <path id="Trazado_27827" data-name="Trazado 27827" d="M467.693,612.323a8.384,8.384,0,0,0-1.2,10.337l-1.515,1.515a1.533,1.533,0,1,0,2.168,2.168l1.414-1.414a8.408,8.408,0,0,0,5.068,1.7c.132,0,.265,0,.4-.01a7.429,7.429,0,0,0,5.791-3.179,7.107,7.107,0,0,0,.952-6.247,9.278,9.278,0,0,0-1.572-2.906l6.234-6.234a5.322,5.322,0,0,1-1.107,5.906,1.533,1.533,0,0,0,2.168,2.168,8.387,8.387,0,0,0,1.2-10.337l1.515-1.515a1.533,1.533,0,0,0-2.168-2.168l-1.415,1.415a8.4,8.4,0,0,0-5.465-1.7,7.428,7.428,0,0,0-5.79,3.178,7.107,7.107,0,0,0-.952,6.248,9.3,9.3,0,0,0,1.572,2.906l-6.234,6.234a5.322,5.322,0,0,1,1.107-5.905,1.533,1.533,0,1,0-2.168-2.168Zm10.149,5.8a4.062,4.062,0,0,1-.545,3.571,4.383,4.383,0,0,1-3.421,1.869,5.325,5.325,0,0,1-3.12-.832L477,616.485A5.99,5.99,0,0,1,477.842,618.123Zm-1.5-7.791a4.063,4.063,0,0,1,.545-3.571,4.384,4.384,0,0,1,3.421-1.868,5.334,5.334,0,0,1,3.119.833l-6.245,6.245A5.982,5.982,0,0,1,476.338,610.332Z" transform="translate(-442.883 -570.261)" fill="#00223d"/>
  <path id="Trazado_27828" data-name="Trazado 27828" d="M469.02,577.217a1.532,1.532,0,1,0,.585-1.875A1.548,1.548,0,0,0,469.02,577.217Z" transform="translate(-445.038 -557.197)" fill="#00223d"/>
</svg>
