<svg xmlns="http://www.w3.org/2000/svg" width="106" height="106" viewBox="0 0 106 106">
  <g id="Grupo_1084819" data-name="Grupo 1084819" transform="translate(-485 -7521)">
    <g id="Elipse_4923" data-name="Elipse 4923" transform="translate(485 7521)" fill="#fff" stroke="#01927f" stroke-width="2">
      <circle cx="53" cy="53" r="53" stroke="none"/>
      <circle cx="53" cy="53" r="52" fill="none"/>
    </g>
    <g id="Grupo_1084820" data-name="Grupo 1084820" transform="translate(506.7 7544.252)">
      <g id="Grupo_17259" data-name="Grupo 17259" transform="translate(0.872 0.874)">
        <path id="Trazado_27276" data-name="Trazado 27276" d="M-468.036,1389.181h17.562a1.746,1.746,0,0,1,1.746,1.746v54.362a1.746,1.746,0,0,1-1.746,1.746h-31.1a1.009,1.009,0,0,1-.693-1.741l7.912-7.487a2.521,2.521,0,0,0,.714-2.441l-1.36-5.457a2.521,2.521,0,0,1,1.474-2.936l11.686-4.885a2.521,2.521,0,0,0,1.543-2.151l1.117-16.077a2.521,2.521,0,0,0-.552-1.756l-9.084-11.283a1.009,1.009,0,0,1,.786-1.641Z" transform="translate(506.583 -1389.181)" fill="#ce9775"/>
        <path id="Trazado_27277" data-name="Trazado 27277" d="M-415.114,1389.181h-3.492a1.746,1.746,0,0,1,1.746,1.746v54.362a1.746,1.746,0,0,1-1.746,1.746h3.492a1.746,1.746,0,0,0,1.746-1.746v-54.362A1.746,1.746,0,0,0-415.114,1389.181Z" transform="translate(471.223 -1389.181)" fill="#c6855b"/>
        <g id="Grupo_17257" data-name="Grupo 17257">
          <path id="Trazado_27278" data-name="Trazado 27278" d="M-535.858,1426.217a1.455,1.455,0,0,0,.061,1.993,1.455,1.455,0,0,0,1.993.061l20.468-18.117,6.226-6.226,2.142-4.309a.932.932,0,0,0-.175-1.073l-.99-.99a.932.932,0,0,0-1.073-.176l-4.31,2.142-6.226,6.226" transform="translate(536.223 -1393.659)" fill="#ce9775"/>
          <path id="Trazado_27279" data-name="Trazado 27279" d="M-505.133,1398.546l-.99-.99a.932.932,0,0,0-1.073-.176l-1.734.861.3.3a.931.931,0,0,1,.175,1.073l-2.142,4.31-6.226,6.226-19.388,17.161a1.448,1.448,0,0,0,.419.9,1.455,1.455,0,0,0,1.993.061l20.468-18.117,6.226-6.226,2.142-4.31A.931.931,0,0,0-505.133,1398.546Z" transform="translate(536.214 -1393.659)" fill="#c6855b"/>
          <path id="Trazado_27280" data-name="Trazado 27280" d="M-514.824,1389.777l24.751,24.751a.349.349,0,0,0,.593-.295,19.336,19.336,0,0,0-5.478-11l-1.17-1.17-6.226-6.226-1.17-1.17a19.337,19.337,0,0,0-11-5.478.349.349,0,0,0-.295.593Z" transform="translate(524.454 -1389.181)" fill="#c7c2c9"/>
          <path id="Trazado_27281" data-name="Trazado 27281" d="M-489.48,1414.233a19.336,19.336,0,0,0-5.478-11l-1.17-1.17-6.226-6.226-1.171-1.17a19.335,19.335,0,0,0-11-5.478.349.349,0,0,0-.295.593l.2.2a19.335,19.335,0,0,1,7.61,4.688l1.17,1.17,6.226,6.226,1.17,1.17a19.342,19.342,0,0,1,4.688,7.61l3.689,3.69a.349.349,0,0,0,.593-.3Z" transform="translate(524.454 -1389.181)" fill="#b0aab3"/>
          <path id="Trazado_27282" data-name="Trazado 27282" d="M-495.642,1407.781l4.716,4.717a1.068,1.068,0,0,0,1.509,0l4.717-4.717a1.068,1.068,0,0,0,0-1.51l-4.717-4.717a1.068,1.068,0,0,0-1.509,0l-4.716,4.717a1.067,1.067,0,0,0,0,1.51Z" transform="translate(513.969 -1395.846)" fill="#766d78"/>
          <path id="Trazado_27283" data-name="Trazado 27283" d="M-479.711,1406.272l-4.717-4.717a1.067,1.067,0,0,0-1.509,0l-.992.992a6.335,6.335,0,0,1,0,8.96l.992.991a1.067,1.067,0,0,0,1.509,0l4.717-4.717A1.068,1.068,0,0,0-479.711,1406.272Z" transform="translate(508.981 -1395.846)" fill="#655e67"/>
        </g>
        <g id="Grupo_17258" data-name="Grupo 17258" transform="translate(37.716 3.725)">
          <ellipse id="Elipse_1022" data-name="Elipse 1022" cx="2.968" cy="2.968" rx="2.968" ry="2.968" transform="translate(0 35.97)" fill="#766d78"/>
          <ellipse id="Elipse_1023" data-name="Elipse 1023" cx="1.746" cy="1.746" rx="1.746" ry="1.746" transform="translate(11.641 43.653)" fill="#766d78"/>
          <ellipse id="Elipse_1024" data-name="Elipse 1024" cx="1.746" cy="1.746" rx="1.746" ry="1.746" transform="translate(12.979 19.207)" fill="#766d78"/>
          <ellipse id="Elipse_1025" data-name="Elipse 1025" cx="1.746" cy="1.746" rx="1.746" ry="1.746" transform="translate(11.641)" fill="#766d78"/>
        </g>
      </g>
      <path id="Trazado_27284" data-name="Trazado 27284" d="M-512.184,1405.419l8.648,8.648a1.223,1.223,0,0,0,1.408.231,1.222,1.222,0,0,0,.667-1.263,20.142,20.142,0,0,0-1.925-6.219,20.191,20.191,0,0,0-3.8-5.284l-.553-.552.326-.327a1.943,1.943,0,0,0,.266-2.41l1.885-3.793a1.8,1.8,0,0,0-.34-2.079l-.99-.99a1.8,1.8,0,0,0-2.079-.34l-3.793,1.885a1.943,1.943,0,0,0-2.41.266l-.326.326-.553-.553a20.341,20.341,0,0,0-11.506-5.726,1.22,1.22,0,0,0-1.294.746,1.216,1.216,0,0,0,.267,1.329l8.647,8.648a1.942,1.942,0,0,0-.311,2.19l-5.631,6.362a.873.873,0,0,0,.075,1.233.874.874,0,0,0,1.232-.075l5.494-6.208,3.093,3.094-19.774,17.5a.582.582,0,0,1-.8-.025.582.582,0,0,1-.024-.8l9.31-10.519a.873.873,0,0,0-.075-1.232.873.873,0,0,0-1.232.075l-9.31,10.519a2.331,2.331,0,0,0,.1,3.19,2.332,2.332,0,0,0,3.189.1l19.927-17.638a1.946,1.946,0,0,0,.872.208,1.932,1.932,0,0,0,1.318-.519Zm7.236,2.175a18.433,18.433,0,0,1,1.456,4.047l-7.454-7.454,1.972-1.972.553.552a18.443,18.443,0,0,1,3.473,4.827Zm-2.945-14.989a.058.058,0,0,1,.067.011l.99.99a.058.058,0,0,1,.011.067l-1.6,3.222-2.689-2.689Zm-17.964-3.33a18.6,18.6,0,0,1,8.87,4.925l.553.553-1.973,1.973Zm7.5,10.143a.2.2,0,0,1,0-.275l4.717-4.717a.194.194,0,0,1,.274,0l4.717,4.717a.2.2,0,0,1,0,.275l-4.716,4.717a.2.2,0,0,1-.275,0Zm19.411,19.615a.874.874,0,0,0,1.235,0,.873.873,0,0,0,0-1.235l-2.24-2.24a.873.873,0,0,0-1.235,0,.873.873,0,0,0,0,1.235Zm3.6-3.959a.877.877,0,0,0,1.081-.6.873.873,0,0,0-.6-1.081l-3.475-1.005a.873.873,0,0,0-1.081.6.873.873,0,0,0,.6,1.081Zm-8.413,2.256a.873.873,0,0,0-.6,1.081l1.005,3.475a.876.876,0,0,0,1.081.6.873.873,0,0,0,.6-1.081l-1-3.474a.873.873,0,0,0-1.081-.6Zm15.309,7.671a.873.873,0,0,0,.873.873.873.873,0,0,0,.873-.873.873.873,0,0,0-.873-.873A.872.872,0,0,0-488.447,1425Zm-4.328,5.762a3.846,3.846,0,0,0-3.841-3.841,3.846,3.846,0,0,0-3.841,3.841,3.846,3.846,0,0,0,3.841,3.841A3.846,3.846,0,0,0-492.774,1430.765Zm-5.936,0a2.1,2.1,0,0,1,2.095-2.1,2.1,2.1,0,0,1,2.1,2.1,2.1,2.1,0,0,1-2.1,2.1A2.1,2.1,0,0,1-498.711,1430.765Zm16.472-17.985a2.622,2.622,0,0,0-2.619-2.619,2.622,2.622,0,0,0-2.619,2.619,2.623,2.623,0,0,0,2.619,2.619A2.623,2.623,0,0,0-482.239,1412.78Zm-2.619.873a.874.874,0,0,1-.873-.873.875.875,0,0,1,.873-.873.874.874,0,0,1,.873.873A.874.874,0,0,1-484.858,1413.653Zm-14.065,28.811a.873.873,0,0,0,.873.873.873.873,0,0,0,.873-.873.873.873,0,0,0-.873-.873A.873.873,0,0,0-498.923,1442.464Zm12.726-51.51a2.622,2.622,0,0,0-2.619,2.619,2.622,2.622,0,0,0,2.619,2.619,2.622,2.622,0,0,0,2.619-2.619A2.622,2.622,0,0,0-486.2,1390.954Zm0,3.492a.874.874,0,0,1-.873-.873.874.874,0,0,1,.873-.873.874.874,0,0,1,.873.873A.874.874,0,0,1-486.2,1394.446Zm6.752,17.756a.873.873,0,0,0,.873-.873v-21.481a2.622,2.622,0,0,0-2.619-2.619h-17.562a1.886,1.886,0,0,0-1.466,3.062l9.084,11.283a1.643,1.643,0,0,1,.36,1.148l-1.117,16.077a1.639,1.639,0,0,1-1.008,1.406l-11.686,4.885a3.375,3.375,0,0,0-1.984,3.952l1.36,5.457a1.649,1.649,0,0,1-.467,1.6l-7.912,7.487a1.892,1.892,0,0,0,1.293,3.248h31.1a2.622,2.622,0,0,0,2.619-2.619V1415.4a.873.873,0,0,0-.873-.873.873.873,0,0,0-.873.873v28.811a.874.874,0,0,1-.873.873h-31.1c-.1.01-.173-.173-.093-.234l7.912-7.487a3.4,3.4,0,0,0,.961-3.286l-1.36-5.457a1.638,1.638,0,0,1,.964-1.919l11.686-4.885a3.377,3.377,0,0,0,2.077-2.9l1.117-16.077a3.381,3.381,0,0,0-.742-2.364l-9.084-11.283c-.067-.067.015-.23.106-.22h17.562a.874.874,0,0,1,.873.873v21.481a.873.873,0,0,0,.873.873Zm-6.752,27.642a2.622,2.622,0,0,0,2.619-2.619,2.622,2.622,0,0,0-2.619-2.619,2.622,2.622,0,0,0-2.619,2.619A2.622,2.622,0,0,0-486.2,1439.844Zm0-3.492a.874.874,0,0,1,.873.873.874.874,0,0,1-.873.873.874.874,0,0,1-.873-.873A.874.874,0,0,1-486.2,1436.353Zm1.242-32.3a.873.873,0,0,0,.873.873.873.873,0,0,0,.873-.873.873.873,0,0,0-.873-.873A.873.873,0,0,0-484.955,1404.049Z" transform="translate(538.172 -1387.228)" fill="#00223d"/>
    </g>
  </g>
</svg>
