<svg xmlns="http://www.w3.org/2000/svg" xmlns:xlink="http://www.w3.org/1999/xlink" width="96" height="95" viewBox="0 0 96 95">
  <defs>
    <linearGradient id="linear-gradient" x1="0.5" x2="0.5" y2="1" gradientUnits="objectBoundingBox">
      <stop offset="0" stop-color="#fff"/>
      <stop offset="1" stop-color="#e9e9e9"/>
    </linearGradient>
    <filter id="Elipse_7662" x="0" y="0" width="96" height="95" filterUnits="userSpaceOnUse">
      <feOffset dy="3" input="SourceAlpha"/>
      <feGaussianBlur stdDeviation="3" result="blur"/>
      <feFlood flood-opacity="0.161"/>
      <feComposite operator="in" in2="blur"/>
      <feComposite in="SourceGraphic"/>
    </filter>
  </defs>
  <g id="Grupo_1101057" data-name="Grupo 1101057" transform="translate(-806 -1208)">
    <g transform="matrix(1, 0, 0, 1, 806, 1208)" filter="url(#Elipse_7662)">
      <ellipse id="Elipse_7662-2" data-name="Elipse 7662" cx="39" cy="38.5" rx="39" ry="38.5" transform="translate(9 6)" fill="url(#linear-gradient)"/>
    </g>
    <g id="Grupo_17247" data-name="Grupo 17247" transform="translate(1523.505 -156.23)">
      <path id="Trazado_27250" data-name="Trazado 27250" d="M-691.375,1442.675l2.606-3.671-3.523-3.67,3.67-3.671v26.61h5.506v-15.6h8.258v6.423h5.505v-8.258a3.67,3.67,0,0,0-3.67-3.67h-6.423v-6.423l12.846-9.176-2.753-3.671-11.928,8.258-2.753,5.505-2.753-5.505h-3.67l-5.927,6.588a3.67,3.67,0,0,0,.128,5.047Z" transform="translate(-1.46 -22.179)" fill="#02dd84"/>
      <path id="Trazado_27251" data-name="Trazado 27251" d="M-664.3,1439.466H-669.8l2.753,5.505Z" transform="translate(-18.445 -35.487)" fill="#ef9f35"/>
      <circle id="Elipse_1021" data-name="Elipse 1021" cx="5.506" cy="5.506" r="5.506" transform="translate(-691.917 1392.968)" fill="#e8e8e8"/>
      <path id="Trazado_27252" data-name="Trazado 27252" d="M-648.237,1499.37v9.176h18.352v-9.176h-18.352Z" transform="translate(-31.752 -72.451)" fill="#ef9f35"/>
      <path id="Trazado_27253" data-name="Trazado 27253" d="M-588.03,1389.093a7.341,7.341,0,0,1-5.148,5.147.266.266,0,0,0-.188.326.266.266,0,0,0,.188.188,7.34,7.34,0,0,1,5.148,5.148.267.267,0,0,0,.326.188.267.267,0,0,0,.188-.188,7.341,7.341,0,0,1,5.147-5.148.266.266,0,0,0,.188-.326.266.266,0,0,0-.188-.187,7.341,7.341,0,0,1-5.147-5.147.266.266,0,0,0-.326-.188A.266.266,0,0,0-588.03,1389.093Z" transform="translate(-65.605 -4.282)" fill="#f7d04f"/>
      <g id="Grupo_17246" data-name="Grupo 17246" transform="translate(-699.693 1381.957)">
        <path id="Trazado_27254" data-name="Trazado 27254" d="M-693.486,1437.393a.918.918,0,0,0,.725.266.918.918,0,0,0,.679-.385l1.083-1.533v16.6a.917.917,0,0,0,.918.917h5.506a.917.917,0,0,0,.918-.917v-14.682h6.423v4.588h-2.753a.918.918,0,0,0-.918.918v9.176a.917.917,0,0,0,.918.917h18.352a.917.917,0,0,0,.917-.917v-9.176a.918.918,0,0,0-.917-.918H-669.9v-7.341a4.588,4.588,0,0,0-4.588-4.588h-5.506v-5.037l12.461-8.9a.919.919,0,0,0,.376-.606.918.918,0,0,0-.174-.688l-2.753-3.67a.918.918,0,0,0-1.257-.2l-9.4,6.506a6.423,6.423,0,0,0-2.662-8.685,6.424,6.424,0,0,0-8.685,2.662,6.423,6.423,0,0,0,1.189,7.61h-1.019a.916.916,0,0,0-.679.3l-5.927,6.588a4.588,4.588,0,0,0,.183,6.313Zm2.486-6.423-1.468-1.569,1.468-1.468Zm28.445,20.453h-16.517v-7.341h16.517Zm-21.674-30.28-1.266,2.532-1.266-2.532Zm-6.772-6.423a4.588,4.588,0,0,1,4.588-4.588,4.588,4.588,0,0,1,4.588,4.588,4.588,4.588,0,0,1-4.588,4.588A4.588,4.588,0,0,1-691,1414.719Zm-6.166,12.709,5.661-6.286h2.689l2.505,5a.917.917,0,0,0,1.235.4.918.918,0,0,0,.4-.4l2.652-5.294,11.011-7.625,1.661,2.211-12.085,8.635a.918.918,0,0,0-.385.743v6.423a.918.918,0,0,0,.917.917h6.423a2.753,2.753,0,0,1,2.753,2.753v7.341h-3.67v-5.505a.918.918,0,0,0-.918-.917h-8.258a.918.918,0,0,0-.918.917v14.681h-3.67V1425.73a.918.918,0,0,0-.569-.844.918.918,0,0,0-1,.193l-3.67,3.67a.918.918,0,0,0,0,1.285l3,3.129-1.551,2.166-4.111-4.093a2.753,2.753,0,0,1-.1-3.808Z" transform="translate(699.693 -1398.202)" fill="#00223d"/>
        <path id="Trazado_27255" data-name="Trazado 27255" d="M-584.714,1389.3a6.423,6.423,0,0,1-6.423-6.423.918.918,0,0,0-.918-.918.918.918,0,0,0-.918.918,6.423,6.423,0,0,1-6.423,6.423.918.918,0,0,0-.917.918.918.918,0,0,0,.917.917,6.423,6.423,0,0,1,6.423,6.423.917.917,0,0,0,.918.917.918.918,0,0,0,.918-.917,6.423,6.423,0,0,1,6.423-6.423.918.918,0,0,0,.917-.917A.917.917,0,0,0-584.714,1389.3Zm-7.341,4.478a8.333,8.333,0,0,0-3.56-3.56,8.331,8.331,0,0,0,3.56-3.56,8.33,8.33,0,0,0,3.56,3.56A8.332,8.332,0,0,0-592.055,1393.776Z" transform="translate(638.369 -1381.957)" fill="#00223d"/>
        <path id="Trazado_27256" data-name="Trazado 27256" d="M-625.689,1444.157l2.5-1.834,1.085,1.48-2.5,1.834Z" transform="translate(654.028 -1419.207)" fill="#00223d"/>
        <path id="Trazado_27257" data-name="Trazado 27257" d="M-613.694,1427.491l9.173-6.731,1.086,1.48-9.173,6.731Z" transform="translate(646.626 -1405.901)" fill="#00223d"/>
        <path id="Trazado_27258" data-name="Trazado 27258" d="M-613.628,1412.384l5.5-3.67,1.018,1.527-5.5,3.67Z" transform="translate(646.585 -1398.468)" fill="#00223d"/>
      </g>
    </g>
  </g>
</svg>
