<svg xmlns="http://www.w3.org/2000/svg" xmlns:xlink="http://www.w3.org/1999/xlink" width="96" height="95" viewBox="0 0 96 95">
  <defs>
    <linearGradient id="linear-gradient" x1="0.5" x2="0.5" y2="1" gradientUnits="objectBoundingBox">
      <stop offset="0" stop-color="#fff"/>
      <stop offset="1" stop-color="#e9e9e9"/>
    </linearGradient>
    <filter id="Elipse_7662" x="0" y="0" width="96" height="95" filterUnits="userSpaceOnUse">
      <feOffset dy="3" input="SourceAlpha"/>
      <feGaussianBlur stdDeviation="3" result="blur"/>
      <feFlood flood-opacity="0.161"/>
      <feComposite operator="in" in2="blur"/>
      <feComposite in="SourceGraphic"/>
    </filter>
  </defs>
  <g id="Grupo_1101052" data-name="Grupo 1101052" transform="translate(-806 -842)">
    <g transform="matrix(1, 0, 0, 1, 806, 842)" filter="url(#Elipse_7662)">
      <ellipse id="Elipse_7662-2" data-name="Elipse 7662" cx="39" cy="38.5" rx="39" ry="38.5" transform="translate(9 6)" fill="url(#linear-gradient)"/>
    </g>
    <g id="Grupo_17230" data-name="Grupo 17230" transform="translate(602.063 -722.726)">
      <path id="Trazado_27181" data-name="Trazado 27181" d="M233.915,1652.875a1.023,1.023,0,0,0-1.023,1.023v16.17h17.222v-17.193Z" transform="translate(-6.416 -44.105)" fill="#afafaf"/>
      <path id="Trazado_27182" data-name="Trazado 27182" d="M237.366,1652.875h-3.452a1.023,1.023,0,0,0-1.023,1.023v16.17h3.452V1653.9A1.023,1.023,0,0,1,237.366,1652.875Z" transform="translate(-6.416 -44.105)" fill="#636363"/>
      <path id="Trazado_27183" data-name="Trazado 27183" d="M334.088,1669.359h-16.2v10.648h17.221v-9.625A1.022,1.022,0,0,0,334.088,1669.359Z" transform="translate(-57.665 -54.044)" fill="#02dd84"/>
      <path id="Trazado_27184" data-name="Trazado 27184" d="M317.889,1669.359h3.452v10.648h-3.452Z" transform="translate(-57.665 -54.044)" fill="#01927f"/>
      <path id="Trazado_27185" data-name="Trazado 27185" d="M338.023,1626.089a3.557,3.557,0,1,1-3.557-3.557A3.556,3.556,0,0,1,338.023,1626.089Z" transform="translate(-65.516 -25.81)" fill="#ffcdbf"/>
      <path id="Trazado_27186" data-name="Trazado 27186" d="M333.038,1640.448h-4.026a3.822,3.822,0,0,0-3.81,3.811v4.414a.649.649,0,0,0,.649.649H336.2a.649.649,0,0,0,.649-.649v-4.414A3.821,3.821,0,0,0,333.038,1640.448Z" transform="translate(-62.075 -36.612)" fill="#01927f"/>
      <path id="Trazado_27187" data-name="Trazado 27187" d="M327.521,1648.673v-4.414a3.822,3.822,0,0,1,3.81-3.811h-2.319a3.822,3.822,0,0,0-3.81,3.811v4.414a.649.649,0,0,0,.649.649h2.319A.649.649,0,0,1,327.521,1648.673Z" transform="translate(-62.075 -36.612)" fill="#02dd84"/>
      <path id="Trazado_27188" data-name="Trazado 27188" d="M291.65,1628.764H276.706a1.022,1.022,0,0,0-1.023,1.023v25.743h16.99v-25.743A1.023,1.023,0,0,0,291.65,1628.764Z" transform="translate(-32.217 -29.568)" fill="#b80fff"/>
      <path id="Trazado_27189" data-name="Trazado 27189" d="M280.157,1628.764h-3.452a1.022,1.022,0,0,0-1.023,1.023v25.743h3.452v-25.743A1.023,1.023,0,0,1,280.157,1628.764Z" transform="translate(-32.217 -29.568)" fill="#f4b537"/>
      <path id="Trazado_27190" data-name="Trazado 27190" d="M280.917,1699.808h-55.2a1.221,1.221,0,0,1-1.218-1.217V1697.1a1.221,1.221,0,0,1,1.218-1.218h55.2a1.222,1.222,0,0,1,1.218,1.218v1.489A1.221,1.221,0,0,1,280.917,1699.808Z" transform="translate(-1.358 -70.038)" fill="#3e4b5a"/>
      <path id="Trazado_27191" data-name="Trazado 27191" d="M228.07,1698.591V1697.1a1.221,1.221,0,0,1,1.218-1.218h-3.567a1.221,1.221,0,0,0-1.218,1.218v1.489a1.221,1.221,0,0,0,1.218,1.217h3.567A1.221,1.221,0,0,1,228.07,1698.591Z" transform="translate(-1.358 -70.038)" fill="#303f49"/>
      <path id="Trazado_27192" data-name="Trazado 27192" d="M295.261,1585.495a3.557,3.557,0,1,1-3.557-3.557A3.557,3.557,0,0,1,295.261,1585.495Z" transform="translate(-39.733 -1.334)" fill="#ffcdbf"/>
      <path id="Trazado_27193" data-name="Trazado 27193" d="M290.275,1599.853H286.25a3.822,3.822,0,0,0-3.811,3.811v4.414a.649.649,0,0,0,.649.649h10.348a.649.649,0,0,0,.649-.649v-4.414A3.822,3.822,0,0,0,290.275,1599.853Z" transform="translate(-36.291 -12.136)" fill="#feca57"/>
      <path id="Trazado_27194" data-name="Trazado 27194" d="M284.758,1608.078v-4.414a3.822,3.822,0,0,1,3.811-3.811H286.25a3.822,3.822,0,0,0-3.811,3.811v4.414a.649.649,0,0,0,.649.649h2.319A.649.649,0,0,1,284.758,1608.078Z" transform="translate(-36.291 -12.136)" fill="#f4b537"/>
      <path id="Trazado_27195" data-name="Trazado 27195" d="M252.443,1609.618a3.556,3.556,0,1,1-3.556-3.556A3.556,3.556,0,0,1,252.443,1609.618Z" transform="translate(-13.916 -15.879)" fill="#ffcdbf"/>
      <g id="Grupo_17229" data-name="Grupo 17229" transform="translate(231.414 1580.604)">
        <path id="Trazado_27196" data-name="Trazado 27196" d="M334.435,1626.089a3.554,3.554,0,0,1,1.794-3.089,3.557,3.557,0,1,0,0,6.178A3.555,3.555,0,0,1,334.435,1626.089Z" transform="translate(-296.931 -1606.414)" fill="#ffbeab"/>
        <path id="Trazado_27197" data-name="Trazado 27197" d="M291.673,1585.495a3.553,3.553,0,0,1,1.794-3.089,3.556,3.556,0,1,0,0,6.178A3.555,3.555,0,0,1,291.673,1585.495Z" transform="translate(-271.147 -1581.938)" fill="#ffbeab"/>
        <path id="Trazado_27198" data-name="Trazado 27198" d="M248.855,1609.618a3.553,3.553,0,0,1,1.794-3.088,3.557,3.557,0,1,0,0,6.177A3.553,3.553,0,0,1,248.855,1609.618Z" transform="translate(-245.33 -1596.484)" fill="#ffbeab"/>
      </g>
      <path id="Trazado_27199" data-name="Trazado 27199" d="M247.457,1623.977h-4.026a3.822,3.822,0,0,0-3.811,3.811v4.414a.65.65,0,0,0,.649.649h10.348a.649.649,0,0,0,.649-.649v-4.414A3.821,3.821,0,0,0,247.457,1623.977Z" transform="translate(-10.473 -26.681)" fill="#afafaf"/>
      <path id="Trazado_27200" data-name="Trazado 27200" d="M241.94,1632.2v-4.414a3.822,3.822,0,0,1,3.81-3.811h-2.319a3.822,3.822,0,0,0-3.811,3.811v4.414a.649.649,0,0,0,.649.649h2.319A.649.649,0,0,1,241.94,1632.2Z" transform="translate(-10.473 -26.681)" fill="#636363"/>
      <path id="Trazado_27201" data-name="Trazado 27201" d="M322.95,1632.115v4.415a1.52,1.52,0,0,0,1.519,1.519h10.349a1.52,1.52,0,0,0,1.519-1.519v-4.415a4.688,4.688,0,0,0-3.339-4.483,4.426,4.426,0,1,0-6.708,0A4.688,4.688,0,0,0,322.95,1632.115Zm6.693-10.054a2.687,2.687,0,0,1,0,5.374h-.009a2.687,2.687,0,0,1,0-5.374Zm-4.954,10.054a2.945,2.945,0,0,1,2.941-2.941h4.025a2.945,2.945,0,0,1,2.941,2.941v4.194h-1.19v-4.33a.87.87,0,1,0-1.739,0v4.33h-4.048v-4.33a.87.87,0,1,0-1.739,0v4.33h-1.19Z" transform="translate(-60.717 -24.478)" fill="#00223d"/>
      <path id="Trazado_27202" data-name="Trazado 27202" d="M280.187,1591.519v4.415a1.521,1.521,0,0,0,1.519,1.519h10.348a1.521,1.521,0,0,0,1.52-1.519v-4.415a4.689,4.689,0,0,0-3.339-4.483,4.426,4.426,0,1,0-6.708,0A4.688,4.688,0,0,0,280.187,1591.519Zm6.693-10.054a2.687,2.687,0,1,1-2.686,2.687A2.69,2.69,0,0,1,286.88,1581.465Zm-4.954,10.054a2.944,2.944,0,0,1,2.941-2.94h4.026a2.944,2.944,0,0,1,2.941,2.94v4.194h-1.19v-4.331a.87.87,0,0,0-1.739,0v4.331h-4.048v-4.331a.87.87,0,0,0-1.739,0v4.331h-1.19Z" transform="translate(-34.933 0)" fill="#00223d"/>
      <path id="Trazado_27203" data-name="Trazado 27203" d="M237.368,1615.643v4.415a1.521,1.521,0,0,0,1.52,1.519h10.348a1.521,1.521,0,0,0,1.519-1.519v-4.415a4.688,4.688,0,0,0-3.339-4.483,4.426,4.426,0,1,0-6.708,0A4.688,4.688,0,0,0,237.368,1615.643Zm6.693-10.054a2.687,2.687,0,0,1,0,5.374h0a2.687,2.687,0,0,1,0-5.374Zm-4.954,10.054a2.944,2.944,0,0,1,2.941-2.94h4.026a2.944,2.944,0,0,1,2.941,2.94v4.194h-1.19v-4.331a.87.87,0,0,0-1.739,0v4.331h-4.048v-4.331a.87.87,0,0,0-1.739,0v4.331h-1.19Z" transform="translate(-9.115 -14.546)" fill="#00223d"/>
      <path id="Trazado_27204" data-name="Trazado 27204" d="M294.939,1639.831a.425.425,0,0,0-.224.054l-1.02.618a.46.46,0,0,0-.224.409c0,.339.288.606.572.417l.224-.139v3.933c0,.494,1.205.494,1.205,0v-4.914C295.472,1639.978,295.186,1639.831,294.939,1639.831Z" transform="translate(-42.942 -36.241)" fill="#00223d"/>
      <path id="Trazado_27205" data-name="Trazado 27205" d="M252.111,1669.516a1.668,1.668,0,0,0-1.8-1.6,1.6,1.6,0,0,0-1.746,1.483c0,.487.232.626.541.626.394,0,.634-.217.634-.441a.527.527,0,0,1,.579-.579.536.536,0,0,1,.587.549c0,.981-2.434,1.677-2.434,2.889v.75c0,.224.309.37.525.37h2.75c.193,0,.363-.255.363-.533s-.17-.518-.363-.518h-2.024v-.07C249.723,1671.741,252.111,1671.192,252.111,1669.516Z" transform="translate(-15.81 -53.175)" fill="#00223d"/>
      <path id="Trazado_27206" data-name="Trazado 27206" d="M337.211,1680.555c-.348,0-.688-.085-.688-.448,0-.293-.123-.4-.618-.4-.425,0-.572.093-.572.44,0,.649.51,1.46,1.839,1.46,1.082,0,1.955-.479,1.955-1.746v-.146a1.12,1.12,0,0,0-.788-1.136,1.356,1.356,0,0,0,.595-1.267c0-1.043-.742-1.4-1.723-1.4-1.329,0-1.762.78-1.762,1.383,0,.371.07.487.626.487.448,0,.563-.177.563-.44,0-.3.193-.394.572-.394.316,0,.572.108.572.556,0,.625-.309.664-.6.664-.263,0-.348.231-.348.463s.085.463.348.463c.425,0,.742.1.742.619v.146C337.921,1680.362,337.736,1680.555,337.211,1680.555Z" transform="translate(-68.183 -57.996)" fill="#00223d"/>
      <path id="Trazado_27207" data-name="Trazado 27207" d="M279.535,1653.318h-1.243v-2.425a.87.87,0,0,0-1.74,0v2.425H261.3v-8.908h15.1a.153.153,0,0,1,.153.153v2.272a.87.87,0,0,0,1.74,0v-2.272a1.894,1.894,0,0,0-1.892-1.892H261.3v-14.226a1.9,1.9,0,0,0-1.893-1.892H244.464a1.894,1.894,0,0,0-1.892,1.892v7.68h-15.1a1.9,1.9,0,0,0-1.892,1.892v15.3h-1.244a2.09,2.09,0,0,0-2.087,2.087v1.373a2.089,2.089,0,0,0,2.087,2.087H249.7a.87.87,0,1,0,0-1.74H224.338a.353.353,0,0,1-.348-.348v-1.373a.353.353,0,0,1,.348-.348h55.2a.353.353,0,0,1,.348.348v1.373a.353.353,0,0,1-.348.348H253.763a.87.87,0,0,0,0,1.74h25.772a2.09,2.09,0,0,0,2.087-2.087v-1.373A2.09,2.09,0,0,0,279.535,1653.318Zm-52.213-15.3a.152.152,0,0,1,.152-.153h15.1v15.453h-15.25Zm16.99-9.573a.153.153,0,0,1,.153-.153h14.944a.153.153,0,0,1,.153.153v24.873h-15.25Z" transform="translate(0 -28.234)" fill="#00223d"/>
    </g>
  </g>
</svg>
