<svg xmlns="http://www.w3.org/2000/svg" xmlns:xlink="http://www.w3.org/1999/xlink" width="96" height="95" viewBox="0 0 96 95">
  <defs>
    <linearGradient id="linear-gradient" x1="0.5" x2="0.5" y2="1" gradientUnits="objectBoundingBox">
      <stop offset="0" stop-color="#fff"/>
      <stop offset="1" stop-color="#e9e9e9"/>
    </linearGradient>
    <filter id="Elipse_7662" x="0" y="0" width="96" height="95" filterUnits="userSpaceOnUse">
      <feOffset dy="3" input="SourceAlpha"/>
      <feGaussianBlur stdDeviation="3" result="blur"/>
      <feFlood flood-opacity="0.161"/>
      <feComposite operator="in" in2="blur"/>
      <feComposite in="SourceGraphic"/>
    </filter>
  </defs>
  <g id="Grupo_1101060" data-name="Grupo 1101060" transform="translate(-806 -6252)">
    <g transform="matrix(1, 0, 0, 1, 806, 6252)" filter="url(#Elipse_7662)">
      <ellipse id="Elipse_7662-2" data-name="Elipse 7662" cx="39" cy="38.5" rx="39" ry="38.5" transform="translate(9 6)" fill="url(#linear-gradient)"/>
    </g>
    <g id="Grupo_17384" data-name="Grupo 17384" transform="translate(826.418 6265.193)">
      <g id="Grupo_17382" data-name="Grupo 17382" transform="translate(0.89 0.89)">
        <g id="Grupo_17363" data-name="Grupo 17363" transform="translate(23.133 48.045)">
          <path id="Trazado_27679" data-name="Trazado 27679" d="M1155.018,1891.487l1.779,5.338h-7.118l1.779-5.338Z" transform="translate(-1149.679 -1891.487)" fill="#ff826e"/>
        </g>
        <g id="Grupo_17364" data-name="Grupo 17364" transform="translate(23.302 43.596)">
          <path id="Trazado_27680" data-name="Trazado 27680" d="M1156.784,1884.381l-1.61,3h-3.559l-1.61-3,3.39-1.45Z" transform="translate(-1150.004 -1882.931)" fill="#fc6e51"/>
        </g>
        <g id="Grupo_17365" data-name="Grupo 17365" transform="translate(8.007 40.687)">
          <path id="Trazado_27681" data-name="Trazado 27681" d="M1127.709,1890.032h-7.118v-2.758a9.617,9.617,0,0,1,4.751-8.283,9.427,9.427,0,0,1,3.123-1.148l2.8-.507,1.779,5.579,2.838-1.219,1.61,3-1.779,5.338Z" transform="translate(-1120.591 -1877.336)" fill="#fcd770"/>
        </g>
        <g id="Grupo_17366" data-name="Grupo 17366" transform="translate(28.471 40.687)">
          <path id="Trazado_27682" data-name="Trazado 27682" d="M1169.733,1890.032h-8.007l-1.779-5.338,1.61-3,2.838,1.219,1.779-5.579,2.8.507a9.606,9.606,0,0,1,7.3,6.166,9.668,9.668,0,0,1,.57,3.266v2.758Z" transform="translate(-1159.946 -1877.336)" fill="#fcd770"/>
        </g>
        <g id="Grupo_17367" data-name="Grupo 17367" transform="translate(18.684 40.037)">
          <path id="Trazado_27683" data-name="Trazado 27683" d="M1149.132,1879.646l-3.39,1.45-2.838,1.219-1.779-5.579,3.559-.649Z" transform="translate(-1141.124 -1876.087)" fill="#ffc729"/>
        </g>
        <g id="Grupo_17368" data-name="Grupo 17368" transform="translate(26.692 40.037)">
          <path id="Trazado_27684" data-name="Trazado 27684" d="M1164.531,1876.737l-1.779,5.579-2.838-1.219-3.39-1.45,4.448-3.559Z" transform="translate(-1156.524 -1876.087)" fill="#ffc729"/>
        </g>
        <g id="Grupo_17369" data-name="Grupo 17369" transform="translate(0)">
          <path id="Trazado_27685" data-name="Trazado 27685" d="M1148.842,1805.176l-3.2,2a23.141,23.141,0,0,0-36.888,18.6v1.779h-3.559v-1.779a26.686,26.686,0,0,1,43.65-20.606Z" transform="translate(-1105.192 -1799.09)" fill="#ccd1d9"/>
        </g>
        <g id="Grupo_17370" data-name="Grupo 17370" transform="translate(43.338 7.224)">
          <path id="Trazado_27686" data-name="Trazado 27686" d="M1198.582,1832.45v1.779h-3.559v-1.779a23.055,23.055,0,0,0-6.486-16.059l1.61-3.408A26.589,26.589,0,0,1,1198.582,1832.45Z" transform="translate(-1188.537 -1812.983)" fill="#ccd1d9"/>
        </g>
        <g id="Grupo_17371" data-name="Grupo 17371" transform="translate(3.559 3.559)">
          <path id="Trazado_27687" data-name="Trazado 27687" d="M1135.169,1805.934v7.118h-1.735a10.709,10.709,0,0,0-10.169,14.1l.284.863a2.66,2.66,0,0,0-.836,1.939,2.457,2.457,0,0,0,.16.89h-10.837v-1.779a23.147,23.147,0,0,1,23.133-23.133Z" transform="translate(-1112.036 -1805.934)" fill="#e8e8e8"/>
        </g>
        <g id="Grupo_17372" data-name="Grupo 17372" transform="translate(26.692 3.559)">
          <path id="Trazado_27688" data-name="Trazado 27688" d="M1170.279,1810.463l-6.548,4.093a10.67,10.67,0,0,0-5.472-1.5h-1.735v-7.118a23.028,23.028,0,0,1,13.755,4.529Z" transform="translate(-1156.524 -1805.934)" fill="#e8e8e8"/>
        </g>
        <g id="Grupo_17373" data-name="Grupo 17373" transform="translate(38.312 10.632)">
          <path id="Trazado_27689" data-name="Trazado 27689" d="M1190.383,1837.375h-10.837a2.459,2.459,0,0,0,.16-.89,2.66,2.66,0,0,0-.836-1.939l.285-.863a10.647,10.647,0,0,0,.551-3.381,11.341,11.341,0,0,0-.124-1.655l4.315-9.111a23.055,23.055,0,0,1,6.486,16.059Z" transform="translate(-1178.87 -1819.537)" fill="#e8e8e8"/>
        </g>
        <g id="Grupo_17374" data-name="Grupo 17374" transform="translate(33.898 4.449)">
          <path id="Trazado_27690" data-name="Trazado 27690" d="M1180.134,1809.282l2.616-1.637-1.317,2.776-1.611,3.408-4.315,9.111a10.692,10.692,0,0,0-3.017-5.926,10.487,10.487,0,0,0-2.108-1.637l6.548-4.093Z" transform="translate(-1170.383 -1807.645)" fill="#ff826e"/>
        </g>
        <g id="Grupo_17375" data-name="Grupo 17375" transform="translate(14.236 10.676)">
          <path id="Trazado_27691" data-name="Trazado 27691" d="M1153.922,1830.3a1.785,1.785,0,0,1-1.779,1.779h-6.228a2.662,2.662,0,0,1-1.886-.783l-.035-.035-.045.026a7.628,7.628,0,0,1-3.372.792,2.674,2.674,0,0,1-2.669-2.669,6.081,6.081,0,0,0-1.78,4.3v.151h-.89a2.678,2.678,0,0,0-1.833.729l-.284-.863a10.71,10.71,0,0,1,10.169-14.1h3.47a10.67,10.67,0,0,1,5.472,1.5,10.484,10.484,0,0,1,2.109,1.637,10.692,10.692,0,0,1,3.016,5.926,11.327,11.327,0,0,1,.124,1.655,10.646,10.646,0,0,1-.551,3.381l-.285.863a2.679,2.679,0,0,0-1.833-.729h-.89Z" transform="translate(-1132.569 -1819.622)" fill="#656d78"/>
        </g>
        <g id="Grupo_17376" data-name="Grupo 17376" transform="translate(22.243 37.493)">
          <path id="Trazado_27692" data-name="Trazado 27692" d="M1156.02,1871.2l.845,2.535-4.448,3.559-4.449-3.559.846-2.535v-.009a8.87,8.87,0,0,0,7.207,0Z" transform="translate(-1147.968 -1871.194)" fill="#f0d0b4"/>
        </g>
        <g id="Grupo_17377" data-name="Grupo 17377" transform="translate(35.545 24.912)">
          <path id="Trazado_27693" data-name="Trazado 27693" d="M1177.152,1849.668a2.46,2.46,0,0,1-.16.89,2.527,2.527,0,0,1-.622,1,2.665,2.665,0,0,1-1.886.783h-.934c.026-.294.044-.588.044-.89V1847h.89a2.67,2.67,0,0,1,2.669,2.669Z" transform="translate(-1173.549 -1846.999)" fill="#f0d0b4"/>
        </g>
        <g id="Grupo_17378" data-name="Grupo 17378" transform="translate(17.794 20.464)">
          <path id="Trazado_27694" data-name="Trazado 27694" d="M1157.208,1842.893v4.449c0,.3-.018.6-.044.89a8.9,8.9,0,0,1-17.706,0c-.027-.294-.045-.588-.045-.89v-4.6a6.081,6.081,0,0,1,1.779-4.3,2.674,2.674,0,0,0,2.669,2.669,7.628,7.628,0,0,0,3.372-.792l.045-.026.035.035a2.663,2.663,0,0,0,1.886.783h6.228a1.785,1.785,0,0,0,1.78-1.78Z" transform="translate(-1139.413 -1838.444)" fill="#f0d0b4"/>
        </g>
        <g id="Grupo_17379" data-name="Grupo 17379" transform="translate(14.236 24.912)">
          <path id="Trazado_27695" data-name="Trazado 27695" d="M1136.172,1852.338h-.934a2.662,2.662,0,0,1-1.886-.783,2.523,2.523,0,0,1-.623-1,2.459,2.459,0,0,1-.16-.89,2.67,2.67,0,0,1,2.669-2.669h.89v4.449C1136.128,1851.75,1136.146,1852.044,1136.172,1852.338Z" transform="translate(-1132.569 -1846.999)" fill="#f0d0b4"/>
        </g>
        <g id="Grupo_17380" data-name="Grupo 17380" transform="translate(0 32.03)">
          <circle id="Elipse_1038" data-name="Elipse 1038" cx="5.338" cy="5.338" r="5.338" fill="#ccd1d9"/>
        </g>
        <g id="Grupo_17381" data-name="Grupo 17381" transform="translate(42.707 32.03)">
          <circle id="Elipse_1039" data-name="Elipse 1039" cx="5.338" cy="5.338" r="5.338" fill="#ccd1d9"/>
        </g>
      </g>
      <g id="Grupo_17383" data-name="Grupo 17383" transform="translate(0)">
        <path id="Trazado_27696" data-name="Trazado 27696" d="M1149.885,1848.71h-1.78a.89.89,0,1,1-1.78,0h-1.779a2.669,2.669,0,0,0,5.339,0Z" transform="translate(-1123.193 -1822.019)" fill="#00223d"/>
        <path id="Trazado_27697" data-name="Trazado 27697" d="M1160.9,1849.6a.89.89,0,0,1-.89-.89h-1.779a2.669,2.669,0,0,0,5.338,0h-1.78A.89.89,0,0,1,1160.9,1849.6Z" transform="translate(-1129.764 -1822.019)" fill="#00223d"/>
        <path id="Trazado_27698" data-name="Trazado 27698" d="M1155.129,1860.282a2.813,2.813,0,0,1-5.339,0l-.046-.137-1.687.567.046.135a4.592,4.592,0,0,0,8.712,0l.046-.137-1.687-.567Z" transform="translate(-1124.878 -1827.507)" fill="#00223d"/>
        <path id="Trazado_27699" data-name="Trazado 27699" d="M1150.4,1805.3l2.344-4.949-4.658,2.911a27.575,27.575,0,0,0-44.6,21.7v2.669h14.73a3.548,3.548,0,0,0,3.064,1.78h.17a9.81,9.81,0,0,0,4.927,6.807l-.437,1.309-5.845,1.063a10.475,10.475,0,0,0-8.6,10.306v3.648h39.148v-3.648a10.476,10.476,0,0,0-8.6-10.306l-5.845-1.063-.437-1.309a9.811,9.811,0,0,0,4.927-6.807h.17a3.547,3.547,0,0,0,3.064-1.78h14.73v-2.669A27.687,27.687,0,0,0,1150.4,1805.3Zm-9.547,14.32a2.672,2.672,0,0,0-2.669-2.669h-2.669v1.779h2.669a.89.89,0,0,1,0,1.779h-6.228a1.779,1.779,0,0,1,0-3.559v-1.78a3.548,3.548,0,0,0-3.252,4.993,6.659,6.659,0,0,1-2.087.345,1.779,1.779,0,1,1,0-3.559v-1.78a3.551,3.551,0,0,0-3.52,3.175,7.026,7.026,0,0,0-1.776,3.942h-.043a3.543,3.543,0,0,0-1.336.265,9.807,9.807,0,0,1,9.384-12.721h3.479a9.807,9.807,0,0,1,9.384,12.721,3.543,3.543,0,0,0-1.336-.265Zm-8.9-16.87a22,22,0,0,1,11.234,3.572l-4.946,3.091a11.536,11.536,0,0,0-5.438-1.36h-.85Zm7.932,7.735,8.648-5.405-4.92,10.386a11.648,11.648,0,0,0-3.728-4.98Zm-34.624,14.473a25.774,25.774,0,0,1,41.2-20.679l-1.622,1.013a24,24,0,0,0-37.794,19.666v.89h-1.779Zm3.559.89v-.89a22.267,22.267,0,0,1,21.354-22.221v5.316h-.85a11.609,11.609,0,0,0-11.011,15.278l.129.388a3.523,3.523,0,0,0-.724,2.129Zm10.677,0a1.781,1.781,0,0,1,1.779-1.779v3.559A1.781,1.781,0,0,1,1119.5,1825.85Zm6.877,13.4,2.973,2.379-3.963,1.7-1.175-3.683Zm3.551,7.95h2.277l1.187,3.559h-4.65Zm2.385-1.779h-2.5l-.9-1.672,2.146-.919,2.146.92Zm-19.042,3.47a8.7,8.7,0,0,1,7.141-8.556l2.036-.37,1.84,5.769,2.99-1.281,1.043,1.941-1.455,4.366h-6.477V1847.2h-1.779v3.559h-5.339Zm33.573-5.565a8.7,8.7,0,0,1,2.016,5.565v1.868h-5.339V1847.2h-1.78v3.559h-6.477l-1.455-4.366,1.043-1.941,2.99,1.281,1.84-5.769,2.036.37a8.709,8.709,0,0,1,5.125,2.99Zm-8.927-3.682-1.174,3.683-3.963-1.7,2.972-2.379Zm-3.443-1.649-3.409,2.727-3.408-2.727.358-1.075a9.685,9.685,0,0,0,6.1,0Zm-3.409-2.361a8.016,8.016,0,0,1-8.008-8.007v-4.6a5.205,5.205,0,0,1,.578-2.365,3.551,3.551,0,0,0,2.981,1.628,8.488,8.488,0,0,0,3.267-.676,3.538,3.538,0,0,0,2.072.676h6.228a2.637,2.637,0,0,0,.89-.164v5.5A8.016,8.016,0,0,1,1131.063,1835.637Zm9.787-8.007v-3.559a1.78,1.78,0,0,1,0,3.559Zm2.835-3.909.129-.388a11.285,11.285,0,0,0,.488-5.164l3.642-7.687a22.111,22.111,0,0,1,5.363,14.479v.89h-8.9A3.525,3.525,0,0,0,1143.684,1823.721Zm13.18,2.129h-1.779v-.89a23.9,23.9,0,0,0-6.315-16.224l.821-1.731a25.528,25.528,0,0,1,7.274,17.955Z" transform="translate(-1103.481 -1797.379)" fill="#00223d"/>
        <path id="Trazado_27700" data-name="Trazado 27700" d="M1196.015,1865.821h-1.779v1.78h-1.779v1.779h1.779v1.779h1.779v-1.779h1.78V1867.6h-1.78Z" transform="translate(-1146.19 -1830.232)" fill="#00223d"/>
        <path id="Trazado_27701" data-name="Trazado 27701" d="M1191.84,1858.977a6.228,6.228,0,1,0,6.228,6.228A6.236,6.236,0,0,0,1191.84,1858.977Zm0,10.676a4.448,4.448,0,1,1,4.448-4.449A4.454,4.454,0,0,1,1191.84,1869.653Z" transform="translate(-1142.905 -1826.947)" fill="#00223d"/>
        <path id="Trazado_27702" data-name="Trazado 27702" d="M1110.325,1869.243h5.338v1.78h-5.338Z" transform="translate(-1106.766 -1831.875)" fill="#00223d"/>
        <path id="Trazado_27703" data-name="Trazado 27703" d="M1115.937,1865.2a6.228,6.228,0,1,0-6.228,6.228A6.236,6.236,0,0,0,1115.937,1865.2Zm-6.228,4.449a4.448,4.448,0,1,1,4.449-4.449A4.454,4.454,0,0,1,1109.709,1869.653Z" transform="translate(-1103.481 -1826.947)" fill="#00223d"/>
      </g>
    </g>
  </g>
</svg>
