<svg xmlns="http://www.w3.org/2000/svg" width="124.6" height="125.47" viewBox="0 0 124.6 125.47">
  <g id="Grupo_1101054" data-name="Grupo 1101054" transform="translate(-732.7 -574)">
    <g id="Grupo_1084940" data-name="Grupo 1084940" transform="translate(4933.7 10196)">
      <path id="Trazado_712755" data-name="Trazado 712755" d="M198.359,233.5,171.2,218.1a.875.875,0,0,0-.87,0l-27.252,15.452,3.578,8.563,24.017,7.085,27.871-7.344Z" transform="translate(-4309.463 -9786.59)" fill="#c3e937"/>
      <path id="Trazado_712756" data-name="Trazado 712756" d="M188.4,352.04l-37.553-6.62-34.025,8.172v11.121L150.5,384.32a.878.878,0,0,0,.884,0l33.54-19.528-.047-.078Z" transform="translate(-4289.644 -9882.806)" fill="#c3e937"/>
      <g id="Grupo_1008309" data-name="Grupo 1008309" transform="translate(-4199.163 -9553.084)">
        <path id="Trazado_712757" data-name="Trazado 712757" d="M315.835,299.712a.881.881,0,0,1,.01,1.526L289.8,316.4l-.047-.078L255.726,297.03l27.688-15.7Z" transform="translate(-195.356 -281.33)" fill="#02dd84"/>
        <path id="Trazado_712758" data-name="Trazado 712758" d="M42.053,281.54l27.595,15.648L35.622,316.481h0L9.715,301.4a.88.88,0,0,1,.007-1.526Z" transform="translate(-9.277 -281.489)" fill="#02dd84"/>
      </g>
      <path id="Trazado_712759" data-name="Trazado 712759" d="M187.053,40.239a32.74,32.74,0,1,0-38.1,32.3l4.267,5.022a1.433,1.433,0,0,0,2.184,0l4.267-5.022A32.746,32.746,0,0,0,187.053,40.239Z" transform="translate(-4293.229 -9627.661)" fill="#f37c7c"/>
      <path id="Trazado_712760" data-name="Trazado 712760" d="M136.073,47.229a37.435,37.435,0,0,1,31.462-36.95,32.746,32.746,0,1,0-22.369,61.4A37.284,37.284,0,0,1,136.073,47.229Z" transform="translate(-4293.229 -9627.663)" fill="#ee6161"/>
      <g id="Grupo_1008311" data-name="Grupo 1008311" transform="translate(-4162.936 -9611.441)">
        <path id="Trazado_712761" data-name="Trazado 712761" d="M164.792,84.67a24.016,24.016,0,1,1,16.4,6.469A23.936,23.936,0,0,1,164.792,84.67Z" transform="translate(-157.166 -43.1)" fill="#c8effe"/>
      </g>
      <path id="Trazado_712762" data-name="Trazado 712762" d="M157.166,67.343a23.929,23.929,0,0,0,7.165,17.11A37.475,37.475,0,0,1,179.31,43.4,24.023,24.023,0,0,0,157.166,67.343Z" transform="translate(-4320.102 -9654.766)" fill="#99e6fc"/>
      <g id="XMLID_286_" transform="translate(-4155.31 -9578.573)">
        <g id="Grupo_1008312" data-name="Grupo 1008312" transform="translate(0 0)">
          <path id="Trazado_712763" data-name="Trazado 712763" d="M221.077,185.6l.189.211a24.016,24.016,0,0,1-32.969.164l5.279-4.517a17.434,17.434,0,0,1,22.664,0Z" transform="translate(-188.296 -177.275)" fill="#fdd79b"/>
        </g>
      </g>
      <g id="Grupo_1008313" data-name="Grupo 1008313" transform="translate(-4149.899 -9598.564)">
        <path id="Trazado_712764" data-name="Trazado 712764" d="M260.885,105.042H256.1v-2.953a6.417,6.417,0,0,1,6.417-6.417h3.739a1.043,1.043,0,0,1,1.043,1.043v1.911A6.417,6.417,0,0,1,260.885,105.042Z" transform="translate(-244.904 -95.672)" fill="#fee97d"/>
        <path id="Trazado_712765" data-name="Trazado 712765" d="M216.8,115.772h4.782v-2.953a6.417,6.417,0,0,0-6.417-6.417H211.43a1.043,1.043,0,0,0-1.043,1.043v1.911A6.417,6.417,0,0,0,216.8,115.772Z" transform="translate(-210.387 -103.774)" fill="#fee97d"/>
      </g>
      <g id="Grupo_1008315" data-name="Grupo 1008315" transform="translate(-4190.599 -9564.875)">
        <circle id="Elipse_5143" data-name="Elipse 5143" cx="6.25" cy="6.25" r="6.25" transform="translate(45.649 37.401)" fill="#f37c7c"/>
        <circle id="Elipse_5144" data-name="Elipse 5144" cx="6.25" cy="6.25" r="6.25" transform="translate(0 0)" fill="#f37c7c"/>
        <circle id="Elipse_5145" data-name="Elipse 5145" cx="6.25" cy="6.25" r="6.25" transform="translate(91.113 0)" fill="#f37c7c"/>
      </g>
      <g id="Grupo_1008317" data-name="Grupo 1008317" transform="translate(-4201 -9622)">
        <path id="Trazado_712766" data-name="Trazado 712766" d="M125,256.115l-13.621-7.723v-6.725a8.087,8.087,0,1,0-3.674,0v4.642L88.714,235.54a1.837,1.837,0,0,0-1.812,3.2l1.046.593L63.984,252.917,40.114,239.382l.893-.506a1.837,1.837,0,1,0-1.812-3.2L20.265,246.413v-4.747a8.087,8.087,0,1,0-3.674,0v6.83L3.154,256.115a2.717,2.717,0,0,0-.027,4.711l25.918,15.091h0l33.662,19.6a2.723,2.723,0,0,0,2.735,0l40.888-23.807a1.837,1.837,0,1,0-1.849-3.175l-6.39,3.72L67.71,255.029l23.963-13.587,16.032,9.09v7.179a1.837,1.837,0,1,0,3.674,0v-5.1l10.36,5.874-10.257,5.972a1.837,1.837,0,1,0,1.849,3.175l11.7-6.811a2.717,2.717,0,0,0-.027-4.712Zm-19.871-22.323a4.413,4.413,0,1,1,4.413,4.413A4.417,4.417,0,0,1,105.129,233.792Zm-91.113,0a4.413,4.413,0,1,1,4.412,4.413A4.417,4.417,0,0,1,14.015,233.792Zm2.575,18.928v4.991a1.837,1.837,0,1,0,3.674,0v-7.075l16.124-9.142L60.26,255.029,29.969,272.2,6.415,258.489ZM94.417,274.4,64.077,292.063,33.645,274.344l30.339-17.2Z" transform="translate(-1.777 -170.416)"/>
        <path id="Trazado_712767" data-name="Trazado 712767" d="M157.733,80.2h0a1.836,1.836,0,0,0,.306.284,25.848,25.848,0,1,0-2.131-35.875A1.837,1.837,0,1,0,158.7,47,22.177,22.177,0,1,1,192,76.287L190.5,75a1.837,1.837,0,1,0-2.389,2.792l1.2,1.022a22.134,22.134,0,0,1-27.344.176l3.637-3.112a15.654,15.654,0,0,1,16.538-2.369,1.837,1.837,0,0,0,1.509-3.351,19.134,19.134,0,0,0-6.073-1.6V61.518h2.945a8.263,8.263,0,0,0,8.254-8.254V51.353a2.883,2.883,0,0,0-2.88-2.88h-3.739a8.263,8.263,0,0,0-7.426,4.654,8.217,8.217,0,0,0-5.408-2.026h-3.739a2.883,2.883,0,0,0-2.88,2.88v1.911a8.263,8.263,0,0,0,8.254,8.254H173.9v4.422a19.279,19.279,0,0,0-10.689,4.522l-3.977,3.4a22.176,22.176,0,0,1-4.3-23.31,1.837,1.837,0,1,0-3.409-1.37A25.851,25.851,0,0,0,157.733,80.2Zm19.845-23.468a4.585,4.585,0,0,1,4.58-4.58H185.1v1.116a4.585,4.585,0,0,1-4.58,4.58h-2.945Zm-6.619,3.744a4.585,4.585,0,0,1-4.58-4.58V54.777h2.945a4.585,4.585,0,0,1,4.58,4.58v1.116Z" transform="translate(-113.44 -26.876)"/>
        <path id="Trazado_712768" data-name="Trazado 712768" d="M142.321,68.573l3.837,4.516a3.27,3.27,0,0,0,4.984,0l3.838-4.517a34.571,34.571,0,1,0-12.659,0ZM117.753,34.022A30.992,30.992,0,0,1,148.426,3.675h.226a30.9,30.9,0,0,1,5.059,61.39,1.838,1.838,0,0,0-1.1.623l-3.959,4.659-3.959-4.659a1.837,1.837,0,0,0-1.1-.623,30.908,30.908,0,0,1-25.837-31.042Z" transform="translate(-86.565 0)"/>
        <path id="Trazado_712769" data-name="Trazado 712769" d="M229.34,394.347v5.767a1.837,1.837,0,0,0,3.674,0v-5.767a8.087,8.087,0,1,0-3.674,0Zm1.837-12.287a4.413,4.413,0,1,1-4.412,4.412A4.417,4.417,0,0,1,231.177,382.06Z" transform="translate(-168.877 -285.696)"/>
      </g>
    </g>
  </g>
</svg>
