<svg xmlns="http://www.w3.org/2000/svg" xmlns:xlink="http://www.w3.org/1999/xlink" width="108" height="108.687" viewBox="0 0 108 108.687">
  <defs>
    <clipPath id="clip-path">
      <rect id="Rectángulo_401507" data-name="Rectángulo 401507" width="108" height="108.687" fill="#fff"/>
    </clipPath>
  </defs>
  <g id="Grupo_1099911" data-name="Grupo 1099911" clip-path="url(#clip-path)">
    <path id="Trazado_874704" data-name="Trazado 874704" d="M107.869,54.326a13.281,13.281,0,0,1-.273-2.69,63.286,63.286,0,0,0-1.136-7.656c-.052-.28-.121-.556-.193-.839s-.142-.57-.214-.86c-.148-.584-.283-1.195-.48-1.806s-.39-1.25-.594-1.9c-.231-.646-.459-1.309-.684-2a4.407,4.407,0,0,0-.356-1.039c-.155-.342-.328-.677-.5-1.019a11.667,11.667,0,0,1-.922-2.151c-.148-.373-.294-.749-.473-1.115s-.38-.736-.577-1.105-.4-.742-.618-1.109-.456-.732-.684-1.105-.445-.756-.677-1.133-.473-.763-.708-1.153a15.971,15.971,0,0,0-1.63-2.252,6.353,6.353,0,0,1-.48-.532c-.155-.18-.3-.366-.449-.556-.283-.387-.546-.794-.818-1.209l-.2-.307-.218-.3c-.152-.2-.3-.394-.466-.584a6.8,6.8,0,0,0-1.095-1.039c-1.461-1.406-2.9-2.918-4.531-4.327-.18-.2-.37-.4-.563-.587l-.29-.287c-.1-.09-.211-.176-.318-.262-.421-.349-.856-.68-1.309-1.008-.435-.338-.925-.622-1.4-.929-.238-.152-.473-.3-.708-.459s-.477-.311-.718-.456Q82.941,10,82.225,9.491l-.352-.252c-.124-.076-.252-.152-.376-.224-.252-.148-.5-.294-.76-.432A24.609,24.609,0,0,0,77.5,7.108a13.2,13.2,0,0,0-1.544-.974c-.266-.148-.539-.29-.808-.425s-.57-.242-.853-.352a18.27,18.27,0,0,0-1.768-.584c-.6-.145-1.226-.269-1.851-.37-.587-.211-1.2-.373-1.8-.559s-1.212-.387-1.841-.525-1.247-.3-1.882-.435c-.635-.111-1.285-.193-1.934-.262-.321-.048-.639-.117-.97-.148s-.649-.073-.974-.107-.66-.073-.984-.111c-.166-.017-.332-.041-.494-.052l-.5-.031c-.66-.045-1.33-.09-2-.145-.67-.028-1.343-.048-2.017-.086-.342.031-.68.038-1.019.083s-.68.069-1.019.093c-.684.062-1.368.073-2.051.142-.684.052-1.378.086-2.065.111-.694.055-1.388.1-2.1.121-2.721.722-5.5,1.212-8.316,1.917-.7.19-1.4.418-2.079.666-.677.266-1.343.573-2.017.867l-.5.224-.49.245c-.335.162-.663.321-1,.473s-.68.29-1.015.456-.673.311-1.019.449a57.091,57.091,0,0,0-7.639,4.824,29.352,29.352,0,0,0-6.841,6.233,94.267,94.267,0,0,0-5.76,7.511C8.931,29.231,7.339,32,5.961,34.956A42.689,42.689,0,0,0,3.2,44.387a61.68,61.68,0,0,0-.953,9.939A35.746,35.746,0,0,0,3.2,64.268l.145.6.162.6c.107.4.2.8.294,1.2l.142.6c.045.2.107.394.155.594.107.4.207.791.314,1.188.19.8.449,1.575.694,2.355l.186.584c.062.193.128.387.207.573.148.38.3.76.459,1.133.117.39.228.784.376,1.164s.307.753.473,1.122.332.739.511,1.105l.58,1.064c.193.352.39.7.587,1.057s.418.687.625,1.029.418.687.611,1.033.421.677.625,1.022a42.5,42.5,0,0,0,5.76,7.514,79.327,79.327,0,0,0,6.841,6.233c.335.193.68.366,1.008.563s.646.4.957.618l.463.325.47.311c.311.214.615.432.925.653.6.452,1.236.856,1.861,1.264.321.2.635.4.957.591.332.173.663.342,1,.5.314.19.639.376.963.559s.66.332.995.49l1.008.459.511.221c.169.069.338.131.515.193.687.256,1.371.518,2.055.76.7.224,1.388.452,2.069.7,1.4.366,2.759.829,4.144,1.167.345.09.691.18,1.036.266s.691.138,1.039.2.7.121,1.05.173l.518.069c.18.017.356.028.528.038.694.1,1.392.18,2.082.259l2.069.124c.691.059,1.378.041,2.058.076.342.014.684.028,1.022.048s.68.021,1.019.041c.673-.079,1.343-.107,2.017-.128.67-.048,1.34-.069,2-.09l.5-.017c.166-.007.328-.024.49-.038.335-.028.66-.059.988-.093s.656-.073.981-.117a8.982,8.982,0,0,0,.963-.2c.642-.117,1.278-.235,1.913-.349l1.882-.432c.625-.128,1.233-.321,1.848-.483s1.216-.318,1.81-.518a16.563,16.563,0,0,0,1.827-.435c.594-.2,1.16-.439,1.727-.673.283-.124.563-.242.839-.373s.546-.276.815-.414c.539-.28,1.088-.535,1.616-.808a33.886,33.886,0,0,0,3.094-1.723c.252-.148.5-.3.749-.445l.376-.218.366-.228c.49-.3.991-.58,1.506-.832.242-.148.48-.307.708-.466s.47-.314.708-.47c.466-.314.946-.608,1.378-.95s.881-.666,1.305-1.008l.325-.256.294-.276c.2-.186.394-.373.587-.566s.4-.352.611-.521.421-.325.625-.5c.414-.332.832-.663,1.24-.991a7.7,7.7,0,0,0,.594-.511c.186-.18.37-.366.546-.559a7.378,7.378,0,0,0,.912-1.243c.318-.394.649-.767,1-1.126.173-.176.349-.352.525-.528l.259-.262.249-.273c.332-.366.649-.732.943-1.115.148-.19.29-.383.421-.584a6.51,6.51,0,0,0,.335-.632,17.477,17.477,0,0,1,1.492-2.345c.269-.366.539-.729.8-1.088a11.7,11.7,0,0,0,.718-1.112c.221-.376.442-.749.656-1.115s.4-.753.6-1.122.387-.736.58-1.1.345-.736.518-1.095a54.732,54.732,0,0,0,3.315-9.02c.169-.684.335-1.336.49-1.968.086-.314.135-.625.2-.932s.121-.6.176-.894c.259-1.164.376-2.245.532-3.2.249-1.927.394-3.412.452-4.417a5.655,5.655,0,0,1,.19-1.526,8.476,8.476,0,0,1,.121,1.889c0,.311.014.663,0,1.046s-.035.808-.055,1.267-.035.957-.083,1.485-.114,1.091-.173,1.692a51.346,51.346,0,0,1-6.447,19.632c-.221.387-.418.794-.642,1.191s-.452.8-.687,1.205a12.243,12.243,0,0,1-1.668,2.31l-.414.6c-.142.2-.294.394-.439.591-.29.4-.587.8-.881,1.209l-.224.3-.242.29c-.162.2-.325.39-.5.584-.338.383-.684.767-1.057,1.126a22.242,22.242,0,0,1-4.586,4.517c-.211.18-.418.363-.632.546l-.314.273-.335.259c-.445.342-.894.684-1.343,1.033s-.925.673-1.388,1.022c-.231.173-.459.345-.694.521s-.459.359-.7.528c-.466.359-.953.694-1.45,1.015l-.38.242c-.124.076-.256.148-.387.221-.262.142-.528.287-.791.432-1.053.591-2.169,1.091-3.229,1.72-.58.228-1.164.435-1.744.677-.29.117-.577.238-.863.366s-.58.231-.877.349c-.58.235-1.164.494-1.754.746-.594.231-1.185.48-1.785.732-.625.173-1.26.307-1.892.483s-1.257.38-1.9.532c-.639.169-1.285.342-1.93.511-.649.145-1.316.273-1.979.39-.338.014-.673.059-1.019.069s-.673.045-1.019.076-.673.069-1.012.114c-.173.017-.342.045-.511.062l-.515.048c-.684.069-1.371.152-2.055.238-.694.062-1.392.114-2.1.166-.345.017-.7.055-1.057.048s-.7-.01-1.057-.017c-.708-.021-1.423-.021-2.134-.1l-2.145-.186c-.718-.093-1.437-.18-2.162-.252a57.514,57.514,0,0,1-8.654-1.937,32.547,32.547,0,0,1-8.457-3.467,45.778,45.778,0,0,1-7.97-4.987,45.768,45.768,0,0,1-7.155-6.461,35.352,35.352,0,0,1-3.077-3.812c-.5-.653-.943-1.347-1.44-2.01l-.37-.494-.19-.245-.183-.252q-.368-.5-.756-.995a56.622,56.622,0,0,1-4.59-8.951,69.082,69.082,0,0,1-2.89-9.828c-.307-3.446-.853-6.855-1-10.363a44.606,44.606,0,0,1,1-10.363,49.3,49.3,0,0,1,2.89-9.828A57.816,57.816,0,0,1,8.5,25.183c.211-.363.425-.718.642-1.071L9.3,23.85l.18-.256.359-.508c.49-.666.96-1.34,1.5-1.965,1.029-1.285,2.127-2.5,3.167-3.747a36.213,36.213,0,0,1,7.155-6.465c.307-.252.642-.463.967-.691s.653-.439.988-.66l.494-.325.5-.3c.338-.2.68-.4,1.015-.6.663-.418,1.35-.784,2.02-1.184.335-.2.66-.4.991-.611s.663-.394.995-.608c.338-.183.677-.37,1.012-.559s.684-.359,1.026-.542L32.7,4.3l.515-.259c.176-.083.349-.155.525-.231.7-.3,1.412-.6,2.134-.832a18.15,18.15,0,0,1,2.221-.515,28.692,28.692,0,0,1,4.33-1.115l1.088-.218c.363-.059.722-.117,1.081-.18S45.315.816,45.675.74l.539-.114.535-.1c.736,0,1.454-.048,2.172-.117.722-.041,1.43-.1,2.145-.176S52.485.119,53.189.067C53.545.05,53.9.029,54.246.008s.708,0,1.057.007c.7.035,1.4.069,2.1.114.687.069,1.381.135,2.065.2l.515.045c.169.017.335.045.5.062L61.5.564c.338.038.68.073,1.019.1s.673.086,1.008.121c.67.076,1.34.176,1.993.3.656.148,1.305.314,1.941.483.646.152,1.271.373,1.892.563s1.26.359,1.872.57a18.76,18.76,0,0,1,1.848.573c.591.235,1.174.5,1.751.767.287.135.573.256.86.394s.563.28.843.411c.563.273,1.14.5,1.723.725,1.081.584,2.186,1.112,3.215,1.734.266.148.528.3.784.445l.387.224.376.245c.5.321.995.649,1.475.981a5.9,5.9,0,0,1,.8.376c.256.142.5.294.746.452a11.122,11.122,0,0,1,1.378,1.046c.432.38.85.77,1.26,1.153l.311.287.3.294c.2.2.4.387.608.573,1.637,1.475,3.429,2.745,4.586,4.514a10.388,10.388,0,0,1,1.136,1.06c.18.186.345.38.515.573l.238.29.221.307c.3.411.573.825.85,1.24.142.2.273.407.407.615s.262.414.387.618c.515.822,1.112,1.564,1.627,2.345.256.383.515.767.756,1.153a9.512,9.512,0,0,1,.615,1.212,8.712,8.712,0,0,1,.739,1.109,12.532,12.532,0,0,1,.553,1.178c.173.394.335.787.508,1.167s.318.77.511,1.129c.256.78.6,1.5.877,2.224.152.359.3.715.445,1.064a10.114,10.114,0,0,1,.387,1.05q.394,1.036.715,2.031c.183.67.345,1.33.477,1.972.18.632.3,1.254.425,1.854.066.3.128.594.19.881s.124.573.166.856A49.861,49.861,0,0,1,108,51.615a14.47,14.47,0,0,1-.128,2.711" transform="translate(-0.001 0)" fill="#fff"/>
    <path id="Trazado_874705" data-name="Trazado 874705" d="M76.8,41.423c-.19.007-.111-2.469-1.057-6.8-.073-.363-.183-.732-.276-1.115s-.193-.78-.328-1.184-.262-.815-.4-1.243-.307-.856-.452-1.309a2.23,2.23,0,0,0-.224-.687c-.107-.221-.235-.435-.359-.653a4.54,4.54,0,0,1-.6-1.416,7.5,7.5,0,0,0-.3-.736c-.117-.242-.245-.483-.38-.722s-.266-.487-.411-.725-.307-.473-.466-.715-.294-.494-.449-.742-.3-.5-.456-.76a8.254,8.254,0,0,0-1.084-1.468,2.341,2.341,0,0,1-.338-.328,3.77,3.77,0,0,1-.3-.363c-.183-.256-.342-.532-.508-.812a5.337,5.337,0,0,0-.559-.8,2.987,2.987,0,0,0-.756-.649c-.981-.9-1.913-1.9-2.977-2.821a12.646,12.646,0,0,0-3.481-2.6A7.351,7.351,0,0,0,58.8,11.431a12.9,12.9,0,0,0-2.158-.894,6.532,6.532,0,0,0-.974-.715c-.173-.1-.349-.2-.528-.294s-.37-.162-.556-.235a8.975,8.975,0,0,0-1.171-.352,11.154,11.154,0,0,0-1.24-.162c-.383-.138-.784-.245-1.178-.37s-.791-.262-1.2-.356-.815-.2-1.229-.283-.843-.114-1.271-.142c-1.689-.242-3.422-.352-5.194-.435-.442.055-.884.124-1.33.173s-.891.066-1.336.111-.894.052-1.35.059c-.449.024-.908.035-1.371.028a53.41,53.41,0,0,1-5.432,1.26,11.866,11.866,0,0,0-1.357.425c-.442.176-.874.39-1.305.591l-.328.155-.318.162c-.214.111-.432.218-.649.318-.442.193-.877.4-1.336.566A37.858,37.858,0,0,0,21.009,14.2a15.524,15.524,0,0,0-4.465,4.071c-1.326,1.557-2.493,3.243-3.754,4.907-.825,1.934-1.9,3.7-2.859,5.608a25.541,25.541,0,0,0-1.8,6.154,44.837,44.837,0,0,0-.622,6.485,19.924,19.924,0,0,0,.622,6.485c.314,1.039.535,2.082.8,3.118.117.521.28,1.033.435,1.54a11.958,11.958,0,0,0,.559,1.5,7.266,7.266,0,0,0,.218.77c.09.249.19.494.3.739s.214.483.335.718l.387.691.4.684.421.666c.142.221.273.442.4.67s.273.442.4.67a25.1,25.1,0,0,0,3.754,4.907c1.43,1.461,2.956,2.766,4.465,4.075a12.051,12.051,0,0,1,2.517,1.571c.387.3.787.587,1.195.86.2.138.407.273.615.4s.432.224.656.325a22.969,22.969,0,0,0,5.3,2.214c.915.228,1.8.549,2.7.784.228.062.449.121.673.183s.456.093.684.135.456.076.684.107l.342.041c.114.007.231.01.345.014.452.066.908.121,1.357.169.456.021.908.045,1.357.066s.9.024,1.343.048.888.059,1.33.086a9.485,9.485,0,0,1,1.319-.111c.439-.028.874-.035,1.309-.035a12.424,12.424,0,0,0,1.3-.073,6.008,6.008,0,0,0,1.267-.218l1.254-.228c.411-.093.822-.186,1.229-.283s.8-.207,1.205-.311.8-.2,1.188-.328a7.412,7.412,0,0,0,1.216-.231,10.691,10.691,0,0,0,1.133-.442c.183-.083.366-.162.542-.252l.528-.283c.349-.193.7-.366,1.05-.549a17.626,17.626,0,0,0,2.013-1.143,15.634,15.634,0,0,1,1.979-1.1,17.167,17.167,0,0,0,3.481-2.6,8.779,8.779,0,0,1,.825-.653c.283-.207.566-.411.843-.615a4.4,4.4,0,0,0,.76-.691,3.114,3.114,0,0,0,.549-.863,7.015,7.015,0,0,1,.66-.732c.228-.231.483-.439.7-.677a7.709,7.709,0,0,0,.632-.718,3.376,3.376,0,0,0,.266-.39,3.1,3.1,0,0,0,.2-.435,6.639,6.639,0,0,1,.95-1.554c.18-.235.37-.463.553-.694a6.566,6.566,0,0,0,.487-.718c.148-.245.294-.49.435-.732s.266-.49.4-.732.259-.48.383-.718.231-.48.345-.715a36.477,36.477,0,0,0,2.217-5.909c.117-.445.224-.877.335-1.288s.173-.818.256-1.2c.18-.763.266-1.468.376-2.1.173-1.264.29-2.245.342-2.9s.124-1,.176-1a3.539,3.539,0,0,1,.138,1.25c0,.2.021.435.017.691s-.017.535-.024.839-.014.632-.041.981-.066.725-.1,1.122a33.522,33.522,0,0,1-1.119,5.75,34.66,34.66,0,0,1-3.06,7.29c-.148.259-.273.532-.414.8s-.29.539-.435.812a6.041,6.041,0,0,1-1.126,1.523c-.093.131-.186.262-.273.4s-.19.262-.287.4c-.19.269-.376.539-.573.812a10.76,10.76,0,0,1-1.35,1.526,11.487,11.487,0,0,1-3.032,3.011c-1.095.988-2.379,1.8-3.588,2.79A10.018,10.018,0,0,1,59.542,72.7c-.7.387-1.45.7-2.151,1.147-.387.135-.784.259-1.167.414-.193.073-.387.152-.58.235s-.387.155-.58.231c-.39.159-.774.335-1.16.515-.39.162-.78.338-1.174.525-.421.1-.85.18-1.267.294s-.832.256-1.26.363-.85.238-1.278.359c-.432.1-.87.19-1.316.273-.452,0-.908.01-1.361.045s-.9.107-1.354.148-.908.117-1.368.186c-.459.052-.922.1-1.388.145a10.667,10.667,0,0,1-1.409.035c-.473-.014-.95-.017-1.423-.069l-1.43-.135c-.477-.062-.953-.117-1.437-.159a38.305,38.305,0,0,1-5.767-1.281,18.146,18.146,0,0,1-5.636-2.3,28.442,28.442,0,0,1-5.318-3.315,28.451,28.451,0,0,1-4.766-4.3,19.735,19.735,0,0,1-2.027-2.562c-.328-.439-.618-.9-.95-1.34s-.663-.881-1.039-1.3a38.372,38.372,0,0,1-3.063-5.964,54.671,54.671,0,0,1-1.93-6.554c-.083-2.317-.521-4.565-.663-6.907a27.019,27.019,0,0,1,.663-6.907,31.829,31.829,0,0,1,1.93-6.554A40.111,40.111,0,0,1,10.936,22a11.2,11.2,0,0,1,.888-1.406c.328-.442.649-.888,1.012-1.3.7-.846,1.44-1.644,2.117-2.493a20.7,20.7,0,0,1,4.766-4.3,25.2,25.2,0,0,1,2.666-1.685c.445-.273.908-.511,1.347-.78.221-.135.439-.276.653-.421s.439-.276.649-.428c.452-.249.891-.525,1.343-.763.228-.124.452-.249.68-.37l.338-.183c.117-.055.235-.107.349-.159a12.131,12.131,0,0,1,1.423-.556,8.248,8.248,0,0,1,1.506-.273,15.754,15.754,0,0,1,2.89-.729c.242-.045.483-.09.722-.131s.487-.073.725-.117.48-.086.718-.138l.352-.086.359-.079a10.122,10.122,0,0,0,1.45-.028c.48-.021.953-.062,1.426-.117s.943-.093,1.412-.135a10.676,10.676,0,0,1,1.409-.048c.463.031.929.059,1.392.1s.915.1,1.371.148.908.114,1.357.155l1.35.124a13.16,13.16,0,0,1,1.333.183c.435.1.863.214,1.288.332s.839.262,1.257.394.832.245,1.243.38a8.878,8.878,0,0,1,1.233.366c.394.162.777.352,1.157.535.186.093.376.183.566.276s.37.193.556.283A9.387,9.387,0,0,0,57.39,9c.722.4,1.454.746,2.145,1.157a19.642,19.642,0,0,1,2,1.271,3.916,3.916,0,0,1,1.074.5,5.613,5.613,0,0,1,.912.7c.28.262.546.535.812.8s.515.546.787.791c1.071,1,2.359,1.751,3.035,3.011a4.694,4.694,0,0,1,.8.666,5.562,5.562,0,0,1,.646.784c.19.276.366.563.539.843.086.142.169.28.256.418s.162.287.245.425c.328.556.732,1.039,1.077,1.551.18.256.352.508.511.767a4.789,4.789,0,0,1,.387.818,4.089,4.089,0,0,1,.515.718,6.426,6.426,0,0,1,.352.791c.1.266.2.532.311.787a7.364,7.364,0,0,0,.335.749,12.983,12.983,0,0,0,.563,1.485c.1.238.2.473.3.7a5.479,5.479,0,0,1,.256.7c.183.456.345.9.483,1.343.121.449.211.888.283,1.316.121.418.193.832.276,1.229s.173.777.224,1.153a31.589,31.589,0,0,1,.449,5.159,6.056,6.056,0,0,1-.155,1.792" transform="translate(12.899 12.903)" fill="#fff"/>
    <path id="Trazado_874706" data-name="Trazado 874706" d="M19.322,19.689c-.1.09-.4-.055-.87-.407-.076-.062-.155-.131-.242-.2a.794.794,0,0,1-.269-.235c.066-.207-.421.007-.287-.276-.017-.159-.162-.228-.3-.314s-.086-.318-.318-.356c-.387.062.128-.494-.335-.4a.91.91,0,0,1-.335-.442c.131-.3-.193-.335-.338-.49.18-.332-.028-.449-.332-.542.3-.387.162-.549-.318-.594-.1-.211-.021-.49-.29-.656a1.548,1.548,0,0,1-.242-.725.488.488,0,0,1-.176-.794.494.494,0,0,1-.231-.418,1.063,1.063,0,0,1,.166-.452.539.539,0,0,0-.007-.466.423.423,0,0,1,.1-.47c.048-.152.073-.318.111-.48A1.487,1.487,0,0,1,15,10.5a4.332,4.332,0,0,0,.38-.373.8.8,0,0,0,.166-.518c.162-.318.366-.673.767-.742a.6.6,0,0,1,.345-.47,1.265,1.265,0,0,1,.573-.073,1.22,1.22,0,0,1,.515-.142.891.891,0,0,0,.5-.183c.352-.021.7-.252,1.064-.111A1.661,1.661,0,0,0,20.369,8a.615.615,0,0,1,.528.086,1.635,1.635,0,0,0,.487.238.533.533,0,0,0,.435.307.781.781,0,0,1,.487.231,1.575,1.575,0,0,1,.37.387,1.032,1.032,0,0,0,.394.356,1.346,1.346,0,0,1,.546.894c.3.048.332.242.321.428s-.1.376-.014.521a.672.672,0,0,0,.01.48,1.1,1.1,0,0,1,.079.456.7.7,0,0,1-.055.442.468.468,0,0,0-.01.428c-.079.266.076.58-.176.794.18.325-.335.442-.238.725a2.746,2.746,0,0,1-.29.656c-.449.059-.238.39-.318.6-.138.169,0,.49-.332.542-.131.159-.37.245-.338.487-.055.193-.667.017-.335.442-.021.2-.521.069-.335.4.166.318-.214.249-.314.359s-.211.214-.307.314c-.894.881-1.519,1.254-1.668,1.122-.176-.159.266-.922.981-2.169.073-.124-.066-.4.214-.394.086-.124.01-.366.228-.418-.211-.332.121-.314.228-.452.076-.155.259-.252.228-.48-.086-.252.259-.273.218-.508.287-.069.307-.28.2-.535.273-.1.1-.376.173-.556.366-.086.218-.356.128-.573-.066-.218.124-.376.076-.584a.539.539,0,0,0,.014-.287.542.542,0,0,1-.014-.287.627.627,0,0,1-.162-.262.317.317,0,0,1,.073-.28.447.447,0,0,1-.121-.242,1.31,1.31,0,0,0-.073-.252.355.355,0,0,1-.162-.2.573.573,0,0,0-.128-.228c-.083-.038-.076-.166-.111-.266s-.1-.18-.29-.086a.933.933,0,0,1-.228-.159.559.559,0,0,0-.266-.114.669.669,0,0,0-.577-.173c-.138-.4-.421-.2-.622-.062a1.162,1.162,0,0,1-.622.062c-.19.079-.387.111-.573.173a.4.4,0,0,1-.269.111c-.093.021-.2.045-.228.162s-.114.138-.211.169-.186.073-.186.183a.809.809,0,0,1-.069.266.4.4,0,0,1-.221.166,1.125,1.125,0,0,1-.218.2c-.069.076-.1.173.024.294a2.182,2.182,0,0,0,.155.294c.041.093.007.166-.245.252.066.093,0,.183-.041.283s-.069.2.041.287c-.332.249.041.4.076.584-.031.2-.076.439.128.577.231.121.045.4.176.556.273.086-.1.463.2.532.045.19.186.318.218.511.518-.086.169.3.228.477.035.186.456.114.228.452.4-.069.224.235.228.421s.3.155.218.39c.294-.041.052.307.2.359-.059.211.148.211.186.332a.282.282,0,0,1,.169.3c.052.1.1.186.142.269.273.5.376.818.276.912" transform="translate(35.417 19.235)" fill="#fff"/>
    <path id="Trazado_874707" data-name="Trazado 874707" d="M19.382,20.862c.1.093,0,.411-.276.912-.045.083-.093.173-.142.269a.813.813,0,0,1-.169.3c-.221-.021.111.394-.186.328-.145.059-.169.211-.207.363s-.262.169-.214.39c.2.325-.508.038-.228.421a.774.774,0,0,1-.231.452c-.321.007-.18.3-.228.48-.38,0-.335.245-.221.511-.487-.031-.5.2-.2.535-.062.18-.29.307-.176.559a1.26,1.26,0,0,1-.128.577c.238.262.207.421-.076.587.148.114.19.207.169.3a.666.666,0,0,1-.169.28c-.086.1,0,.19.059.276s.145.155.031.276a1.013,1.013,0,0,0,.093.252.721.721,0,0,1,.1.245.558.558,0,0,0,0,.311c.031.093.128.148.3.124.18.086.356.121.4.363.169-.076.269-.083.335-.017s.107.176.166.294c.193.028.332.314.584.176.2.1.425-.09.625.062.211.1.463.176.632-.062a.257.257,0,0,1,.283-.121c.107.007.224.024.3-.055a.187.187,0,0,0,.3-.059c.055-.1.1-.2.2-.218a.831.831,0,0,1,.252-.131.236.236,0,0,0,.152-.231,1.778,1.778,0,0,1,.1-.249.45.45,0,0,1,.2-.186c-.176-.18-.138-.238-.028-.287s.245-.114.221-.211a.243.243,0,0,0,.114-.266.549.549,0,0,1-.024-.287c-.045-.1.014-.19.055-.29a.24.24,0,0,0-.052-.29c.01-.2-.211-.352-.076-.587-.273-.124.09-.435-.131-.577a2.624,2.624,0,0,1-.173-.559c.266-.328-.093-.383-.2-.535-.052-.186-.356-.228-.221-.508-.062-.173,0-.414-.224-.483-.142-.114.283-.587-.231-.449-.162-.086.138-.49-.228-.425-.349.059-.138-.269-.218-.39s-.138-.245-.2-.359c-.594-1.039-.936-1.671-.774-1.813s.919.328,1.972,1.44c.107.107.414.086.321.356.09.138.363.162.332.4.39-.041.252.273.335.442.117.155.114.387.338.49.287.079.1.418.332.542-.093.29.038.466.318.6-.107.29.214.418.294.656-.242.338.055.494.242.729s.059.535.176.8a1.3,1.3,0,0,0,.045.428,1.208,1.208,0,0,1,.021.445,1.086,1.086,0,0,1,.1.48.787.787,0,0,1-.2.463,1.133,1.133,0,0,1-.086.49c-.073.159-.138.314-.221.466a.92.92,0,0,1-.214.483c-.107.145-.242.266-.335.418a.977.977,0,0,1-.439.318.522.522,0,0,0-.335.432,1.885,1.885,0,0,1-.452.294,3.679,3.679,0,0,0-.477.249,5.388,5.388,0,0,0-1.019.328c-.414-.28-.7-.038-1.074.107a1.77,1.77,0,0,1-1.067-.111,2.812,2.812,0,0,1-1.022-.325.952.952,0,0,1-.473-.256,1.171,1.171,0,0,0-.456-.29.73.73,0,0,1-.411-.349,1.031,1.031,0,0,0-.359-.4,1.065,1.065,0,0,1-.549-.9,1.42,1.42,0,0,1-.076-.515.51.51,0,0,0-.231-.445c-.066-.148-.214-.29-.28-.449a.372.372,0,0,1,.186-.49.6.6,0,0,1,.052-.445.439.439,0,0,0,.017-.428c.4-.228.1-.539.176-.8.124-.245.321-.439.242-.729s.256-.425.294-.656c-.093-.3.425-.307.314-.6.145-.169.162-.4.335-.542-.321-.418.2-.356.338-.49.159-.124-.073-.494.335-.445-.211-.356.162-.318.335-.4s.059-.359.318-.356c-.117-.28.294-.152.307-.314.218-.007.169-.211.287-.28a.3.3,0,0,1,.269-.235c.083-.073.166-.138.238-.2.47-.352.774-.5.874-.407" transform="translate(35.405 51.117)" fill="#fff"/>
    <path id="Trazado_874708" data-name="Trazado 874708" d="M19.583,19.72c-.138-.007-.245-.321-.328-.9-.007-.1-.017-.2-.028-.314a.766.766,0,0,1-.021-.356c.19-.1-.307-.294-.007-.4.1-.124.041-.28,0-.439s.166-.287.028-.477c-.314-.228.439-.259.045-.515a.921.921,0,0,1,.076-.553c.3-.121.1-.373.107-.587.363-.107.3-.335.148-.615.483-.066.5-.273.2-.646.073-.224.332-.363.259-.67a1.491,1.491,0,0,1,.342-.684.488.488,0,0,1,.435-.687.5.5,0,0,1,.131-.456,1.077,1.077,0,0,1,.439-.207c.169-.035.242-.183.325-.332a.418.418,0,0,1,.4-.262c.148-.076.276-.176.421-.262a1.524,1.524,0,0,1,.47-.2,3.921,3.921,0,0,0,.532,0,.774.774,0,0,0,.483-.249,1.192,1.192,0,0,1,1.071.017.6.6,0,0,1,.577-.086,1.272,1.272,0,0,1,.456.356,1.192,1.192,0,0,1,.463.262.924.924,0,0,0,.483.224c.262.235.67.314.829.673a1.675,1.675,0,0,0,.673.829.6.6,0,0,1,.314.435,1.6,1.6,0,0,0,.176.511.526.526,0,0,0,.093.528.788.788,0,0,1,.176.5,1.469,1.469,0,0,1-.01.535,1,1,0,0,0,.028.532,1.361,1.361,0,0,1-.245,1.019.346.346,0,0,1-.076.528c-.152.117-.345.193-.38.359a.662.662,0,0,0-.332.349,1.219,1.219,0,0,1-.266.376.711.711,0,0,1-.352.273.468.468,0,0,0-.311.3c-.242.131-.359.463-.687.439-.1.356-.546.076-.684.342a2.588,2.588,0,0,1-.666.259c-.356-.276-.442.107-.646.2-.218.024-.345.349-.618.148-.207.021-.435-.086-.584.107-.18.1-.483-.459-.553.076-.159.128-.414-.321-.515.045-.111.338-.328.024-.477.028s-.3,0-.439.007c-1.257-.007-1.962-.186-1.972-.383-.014-.238.836-.466,2.224-.846.142-.031.238-.328.428-.124.152-.028.269-.249.459-.135.086-.383.3-.135.48-.155.162-.059.366,0,.5-.18.117-.238.376-.01.515-.2.252.152.414.017.518-.235.262.121.342-.2.518-.273.318.2.407-.1.5-.314.1-.2.352-.176.466-.359a.55.55,0,0,0,.214-.193.542.542,0,0,1,.19-.214.607.607,0,0,1,.073-.3.323.323,0,0,1,.249-.152.432.432,0,0,1,.083-.252,1.155,1.155,0,0,0,.128-.228.382.382,0,0,1,.028-.259.5.5,0,0,0,.069-.252c-.028-.09.066-.169.114-.266s.055-.2-.142-.266a.932.932,0,0,1-.052-.276.569.569,0,0,0-.107-.269.682.682,0,0,0-.283-.528c.18-.38-.159-.435-.4-.483a1.112,1.112,0,0,1-.483-.4c-.19-.079-.352-.193-.528-.283a.385.385,0,0,1-.269-.111c-.083-.048-.173-.111-.273-.045a.26.26,0,0,1-.269-.031c-.086-.045-.183-.079-.262,0a.9.9,0,0,1-.238.138.387.387,0,0,1-.273-.041,1.1,1.1,0,0,1-.3-.01c-.1,0-.19.052-.186.224a2.187,2.187,0,0,0-.1.314c-.038.1-.114.124-.352.007-.024.114-.131.135-.235.169s-.19.1-.169.235c-.411-.059-.256.311-.359.466-.166.124-.366.256-.314.5.073.252-.252.314-.273.518.131.256-.4.259-.235.521-.1.166-.09.356-.2.511.428.307-.1.338-.18.5-.1.155.245.4-.152.483.325.231-.01.321-.138.456s.1.321-.124.432c.238.176-.183.256-.111.4-.19.111-.045.252-.1.366a.284.284,0,0,1-.09.332c-.031.1-.062.2-.09.29-.159.546-.311.846-.449.839" transform="translate(46.86 24.032)" fill="#fff"/>
    <path id="Trazado_874709" data-name="Trazado 874709" d="M19.511,19.812c.007.138-.294.29-.839.449-.093.028-.19.059-.29.09a.8.8,0,0,1-.332.093c-.145-.169-.2.359-.37.1-.138-.062-.266.031-.4.111s-.307-.066-.432.124c-.086.376-.383-.332-.459.138a.755.755,0,0,1-.48.155c-.235-.221-.342.086-.5.18-.266-.269-.407-.066-.515.2-.325-.366-.5-.218-.521.235-.173.083-.425.014-.521.273a1.3,1.3,0,0,1-.5.318c-.017.352-.152.442-.47.359.028.186-.01.28-.09.332a.634.634,0,0,1-.318.076c-.131.01-.138.135-.152.242s-.01.207-.173.214a.884.884,0,0,0-.114.245.772.772,0,0,1-.1.245.558.558,0,0,0-.221.218c-.041.09-.01.2.121.3.069.186.169.335.031.539.176.069.249.135.249.228a.929.929,0,0,1-.086.325c.114.152.01.456.283.535.076.211.366.235.4.487.076.218.2.452.487.4a.26.26,0,0,1,.287.117c.069.079.142.176.249.169.035.193.148.19.256.176.111-.031.214-.076.294-.014a.936.936,0,0,1,.276.083.22.22,0,0,0,.266-.052,2.413,2.413,0,0,1,.245-.107.474.474,0,0,1,.276.007c0-.252.069-.266.183-.224s.252.1.3.007a.234.234,0,0,0,.269-.1.561.561,0,0,1,.186-.221c.035-.1.142-.124.242-.166a.238.238,0,0,0,.169-.242c.148-.138.1-.4.359-.47-.1-.28.373-.242.318-.5a2.589,2.589,0,0,1,.273-.521c.421-.041.207-.335.235-.521.093-.169-.09-.411.2-.515.076-.166.29-.3.18-.5-.017-.18.618-.218.155-.483-.052-.173.445-.245.138-.459-.283-.2.093-.287.124-.432s.076-.269.111-.4c.314-1.153.521-1.841.732-1.827s.418.881.376,2.414c0,.148.231.352-.024.477-.035.162.145.373-.048.518.307.249-.014.37-.073.549-.028.193-.193.352-.111.587.145.259-.224.37-.148.618-.269.138-.3.356-.2.646-.283.135-.148.452-.262.673-.407.073-.307.39-.342.687s-.338.418-.442.687a1.294,1.294,0,0,0-.269.338,1.192,1.192,0,0,1-.3.328,1.077,1.077,0,0,1-.262.414.8.8,0,0,1-.466.186,1.134,1.134,0,0,1-.411.287c-.159.062-.318.121-.483.173a.911.911,0,0,1-.494.19c-.18.031-.359.017-.535.059a.935.935,0,0,1-.532-.086.536.536,0,0,0-.542.069,1.739,1.739,0,0,1-.528-.111,3.666,3.666,0,0,0-.511-.162,5.524,5.524,0,0,0-.953-.49c-.093-.49-.47-.521-.836-.68a1.76,1.76,0,0,1-.677-.832,2.876,2.876,0,0,1-.49-.953.941.941,0,0,1-.155-.518,1.165,1.165,0,0,0-.117-.525.71.71,0,0,1-.041-.539,1.007,1.007,0,0,0,.024-.535,1.077,1.077,0,0,1,.249-1.026,1.419,1.419,0,0,1,.311-.418.508.508,0,0,0,.152-.48c.062-.148.055-.356.121-.515a.37.37,0,0,1,.477-.214.622.622,0,0,1,.352-.28c.145-.055.273-.117.318-.29.442.121.449-.314.687-.442.262-.086.539-.083.687-.342s.483-.121.673-.259c.142-.276.518.083.646-.2.221-.017.4-.169.618-.145.069-.525.4-.107.587-.111.2.028.3-.4.553-.073.1-.4.335-.114.515-.048s.3-.214.48-.028c.114-.276.318.1.439,0,.159.152.269-.028.4.007a.3.3,0,0,1,.356.021c.111.01.214.021.314.028.58.083.9.19.9.328" transform="translate(23.59 47.346)" fill="#fff"/>
    <path id="Trazado_874710" data-name="Trazado 874710" d="M20.665,19.525c-.09-.1.055-.4.411-.87.062-.076.128-.155.2-.242a.834.834,0,0,1,.235-.269c.207.062,0-.425.276-.287.159-.017.231-.166.314-.3s.318-.09.356-.318c-.059-.387.494.128.4-.335a.876.876,0,0,1,.442-.335c.3.131.335-.193.487-.338.332.18.449-.028.542-.332.387.3.549.162.6-.318.207-.1.49-.021.653-.29a1.523,1.523,0,0,1,.725-.242.491.491,0,0,1,.8-.176.484.484,0,0,1,.414-.231,1.076,1.076,0,0,1,.456.166.531.531,0,0,0,.463-.007.422.422,0,0,1,.47.1c.155.048.318.073.48.111a1.487,1.487,0,0,1,.473.193,3.892,3.892,0,0,0,.373.38.8.8,0,0,0,.521.166c.314.162.67.37.742.767a.592.592,0,0,1,.466.345,1.177,1.177,0,0,1,.073.573,1.22,1.22,0,0,1,.142.515.9.9,0,0,0,.183.5c.021.352.252.7.111,1.064a1.685,1.685,0,0,0-.111,1.064.624.624,0,0,1-.086.532,1.6,1.6,0,0,0-.238.48.55.55,0,0,0-.307.439c-.048.176-.073.376-.231.483a1.473,1.473,0,0,1-.387.373,1.018,1.018,0,0,0-.356.4,1.354,1.354,0,0,1-.894.542.345.345,0,0,1-.425.321c-.19-.021-.38-.107-.525-.014a.672.672,0,0,0-.48.01,1.106,1.106,0,0,1-.456.079.694.694,0,0,1-.439-.055.465.465,0,0,0-.432-.01c-.262-.079-.58.076-.794-.173-.325.176-.442-.335-.725-.242a2.808,2.808,0,0,1-.656-.29c-.055-.449-.39-.238-.594-.318-.173-.138-.49,0-.542-.332-.162-.131-.249-.37-.49-.338-.193-.055-.017-.667-.442-.335-.2-.021-.069-.521-.4-.332-.314.159-.245-.218-.356-.321s-.214-.207-.318-.3c-.881-.894-1.254-1.519-1.122-1.668.159-.176.922.266,2.169.977.128.076.4-.062.394.218.128.086.366.014.418.228.332-.211.314.121.452.228.155.076.256.259.48.228.252-.086.276.259.508.218.069.287.283.307.535.2.1.273.376.1.556.173.086.366.359.218.577.128.214-.066.373.124.58.076a.589.589,0,0,0,.29.014.565.565,0,0,1,.283-.017.573.573,0,0,1,.262-.155.312.312,0,0,1,.283.069.448.448,0,0,1,.242-.121,1.211,1.211,0,0,0,.249-.073.355.355,0,0,1,.2-.162.573.573,0,0,0,.228-.128c.041-.086.166-.076.266-.111s.18-.1.09-.29a.835.835,0,0,1,.155-.228A.5.5,0,0,0,30,20.707a.684.684,0,0,0,.176-.577c.394-.142.2-.421.062-.622a1.1,1.1,0,0,1-.062-.622c-.079-.19-.114-.387-.176-.573a.384.384,0,0,1-.107-.269c-.024-.093-.048-.2-.162-.228s-.138-.117-.169-.211-.073-.186-.19-.186a.835.835,0,0,1-.262-.069.4.4,0,0,1-.166-.221,1.125,1.125,0,0,1-.2-.218.185.185,0,0,0-.29.024,1.833,1.833,0,0,0-.294.155c-.093.041-.166.007-.252-.245-.1.066-.186,0-.287-.041s-.2-.073-.287.041c-.245-.328-.4.038-.58.076-.207-.031-.442-.076-.577.128-.128.231-.4.045-.559.176-.086.273-.463-.1-.532.2-.186.048-.318.19-.508.221.086.518-.307.169-.48.228-.186.031-.111.452-.452.231.069.394-.235.221-.418.224s-.155.3-.394.218c.045.294-.307.052-.359.2-.211-.059-.211.145-.328.186a.289.289,0,0,1-.3.169c-.1.048-.186.1-.269.142-.5.273-.818.376-.912.276" transform="translate(50.636 35.916)" fill="#fff"/>
    <path id="Trazado_874711" data-name="Trazado 874711" d="M19.531,19.584c-.093.1-.411,0-.912-.276-.083-.045-.173-.093-.269-.142a.813.813,0,0,1-.3-.169c.021-.218-.4.111-.332-.186-.052-.145-.211-.169-.359-.207s-.169-.262-.394-.214c-.321.2-.035-.508-.421-.228a.746.746,0,0,1-.449-.231c-.01-.321-.3-.18-.48-.228,0-.38-.245-.335-.511-.221.031-.487-.2-.5-.535-.2-.18-.062-.311-.29-.559-.176a1.274,1.274,0,0,1-.58-.128c-.259.238-.418.2-.584-.076-.117.152-.207.19-.3.169a.666.666,0,0,1-.28-.169c-.1-.086-.19,0-.276.062s-.155.138-.273.028a.952.952,0,0,0-.256.1.79.79,0,0,1-.245.1.558.558,0,0,0-.311,0c-.093.031-.148.131-.124.3-.09.183-.121.356-.363.4.079.169.083.269.017.335s-.176.107-.294.166c-.028.193-.314.332-.176.584-.1.2.09.425-.062.629-.1.207-.176.459.062.629a.257.257,0,0,1,.121.283c-.007.107-.024.224.055.3a.188.188,0,0,0,.055.3c.1.055.207.1.221.2a.831.831,0,0,1,.131.252.23.23,0,0,0,.231.152,2.331,2.331,0,0,1,.249.1.45.45,0,0,1,.186.2c.176-.18.235-.138.29-.028s.111.245.207.221a.243.243,0,0,0,.266.114.549.549,0,0,1,.287-.024c.1-.045.19.014.29.055a.24.24,0,0,0,.29-.052c.2.01.352-.211.584-.076.128-.273.439.09.58-.131a2.565,2.565,0,0,1,.559-.173c.328.266.383-.093.535-.2.186-.052.228-.352.508-.221.173-.062.414,0,.483-.224.114-.142.587.283.449-.231.086-.162.487.138.421-.228-.055-.345.273-.138.394-.218s.245-.138.359-.2c1.036-.594,1.668-.936,1.813-.777s-.328.922-1.44,1.975c-.107.107-.086.414-.356.318-.138.093-.162.366-.4.335.041.394-.273.252-.442.338-.155.114-.387.111-.49.335-.079.287-.418.1-.546.332-.287-.093-.466.038-.6.321-.29-.107-.418.211-.656.287-.342-.238-.494.059-.729.245s-.535.059-.8.176a1.294,1.294,0,0,0-.428.045,1.208,1.208,0,0,1-.445.021,1.086,1.086,0,0,1-.48.1.769.769,0,0,1-.459-.2,1.164,1.164,0,0,1-.5-.086c-.155-.073-.311-.138-.463-.221a.883.883,0,0,1-.483-.214c-.145-.107-.266-.242-.418-.338a.948.948,0,0,1-.318-.435.522.522,0,0,0-.432-.335,1.786,1.786,0,0,1-.294-.452,3.916,3.916,0,0,0-.249-.477,5.31,5.31,0,0,0-.328-1.019c.28-.414.038-.7-.111-1.074a1.8,1.8,0,0,1,.114-1.067A2.833,2.833,0,0,1,8.107,17.5a.952.952,0,0,1,.256-.473,1.11,1.11,0,0,0,.29-.456A.719.719,0,0,1,9,16.162a1.056,1.056,0,0,0,.4-.359,1.064,1.064,0,0,1,.9-.549,1.443,1.443,0,0,1,.515-.076.5.5,0,0,0,.445-.235c.152-.062.294-.211.452-.276a.372.372,0,0,1,.49.186.6.6,0,0,1,.445.052.439.439,0,0,0,.428.017c.228.4.542.1.8.176.249.124.442.321.729.242s.425.256.66.294c.294-.093.307.425.6.318.169.142.4.162.542.332.418-.321.356.2.49.338.124.162.494-.069.445.338.356-.214.318.159.4.332s.359.059.356.318c.276-.117.152.3.314.307.007.221.211.169.276.287a.306.306,0,0,1,.238.269c.073.083.138.166.2.242.356.466.5.77.411.87" transform="translate(18.715 35.902)" fill="#fff"/>
    <path id="Trazado_874712" data-name="Trazado 874712" d="M19.6,19.786c.007-.135.325-.245.9-.328.1-.007.2-.017.311-.028a.787.787,0,0,1,.359-.021c.1.19.294-.307.4-.01.124.1.28.045.439.01s.287.162.477.024c.228-.314.256.442.515.045a.921.921,0,0,1,.553.076c.121.3.373.1.584.107.107.363.338.3.618.148.066.483.273.5.646.2.221.073.363.332.67.259a1.543,1.543,0,0,1,.684.342.489.489,0,0,1,.687.435.5.5,0,0,1,.456.131,1.029,1.029,0,0,1,.2.439c.038.169.186.242.335.325a.418.418,0,0,1,.262.4c.073.148.176.28.262.421a1.524,1.524,0,0,1,.2.47,3.92,3.92,0,0,0,0,.532.779.779,0,0,0,.252.487,1.185,1.185,0,0,1-.021,1.067.6.6,0,0,1,.086.577,1.272,1.272,0,0,1-.356.456,1.168,1.168,0,0,1-.262.463.924.924,0,0,0-.224.483c-.235.262-.314.67-.673.829a1.664,1.664,0,0,0-.829.677.607.607,0,0,1-.435.311,1.573,1.573,0,0,0-.511.176.542.542,0,0,0-.528.093.769.769,0,0,1-.5.176,1.469,1.469,0,0,1-.535-.01,1,1,0,0,0-.532.028,1.361,1.361,0,0,1-1.019-.245.346.346,0,0,1-.528-.076c-.121-.152-.193-.345-.359-.38a.675.675,0,0,0-.349-.332,1.18,1.18,0,0,1-.376-.266.711.711,0,0,1-.273-.352.468.468,0,0,0-.3-.311c-.131-.242-.466-.356-.439-.687-.356-.1-.076-.546-.342-.684a2.588,2.588,0,0,1-.259-.666c.276-.356-.107-.442-.2-.646-.024-.218-.345-.345-.148-.618-.024-.2.086-.435-.107-.584-.1-.176.459-.483-.076-.553-.128-.159.321-.414-.045-.515-.338-.111-.024-.328-.028-.477s-.007-.3-.007-.439c.007-1.257.186-1.961.383-1.972.238-.014.466.836.843,2.224.035.142.328.238.124.428.028.152.256.269.138.459.38.086.135.307.155.48.055.162,0,.366.18.5.238.117.01.376.2.515-.152.252-.017.414.235.521-.124.259.2.338.269.515-.2.321.1.408.318.5.2.1.176.356.356.466a.585.585,0,0,0,.2.214.569.569,0,0,1,.214.19.581.581,0,0,1,.3.073.312.312,0,0,1,.148.249.414.414,0,0,1,.256.086,1.248,1.248,0,0,0,.231.124.367.367,0,0,1,.259.031.558.558,0,0,0,.249.069c.09-.031.169.062.266.111s.2.055.266-.142a.932.932,0,0,1,.276-.052.548.548,0,0,0,.269-.107.677.677,0,0,0,.528-.283c.376.18.435-.159.483-.4a1.136,1.136,0,0,1,.4-.483c.076-.19.193-.352.28-.528a.374.374,0,0,1,.114-.266c.048-.083.111-.176.045-.276a.261.261,0,0,1,.031-.269c.045-.086.079-.183,0-.262a.944.944,0,0,1-.138-.235.394.394,0,0,1,.041-.276,1.1,1.1,0,0,1,.01-.3c0-.1-.052-.19-.224-.186a2.187,2.187,0,0,0-.314-.1c-.1-.038-.124-.114-.007-.352-.114-.021-.135-.131-.173-.235s-.093-.19-.231-.169c.059-.407-.311-.256-.466-.359-.124-.166-.256-.363-.5-.314-.252.073-.314-.252-.518-.273-.256.131-.259-.4-.521-.235-.166-.1-.356-.09-.511-.2-.307.428-.338-.1-.5-.176-.155-.107-.4.242-.483-.155-.231.325-.321-.01-.459-.138s-.318.1-.428-.124c-.18.238-.256-.183-.4-.111-.111-.19-.256-.045-.37-.1a.281.281,0,0,1-.328-.093l-.29-.09c-.546-.159-.846-.311-.839-.449" transform="translate(46.877 47.356)" fill="#fff"/>
    <path id="Trazado_874713" data-name="Trazado 874713" d="M19.479,19.712c-.135.007-.29-.294-.449-.839l-.09-.294a.706.706,0,0,1-.09-.328c.166-.142-.363-.2-.1-.366.062-.142-.031-.269-.111-.4s.066-.307-.124-.432c-.373-.083.332-.383-.135-.459a.741.741,0,0,1-.159-.483c.224-.231-.086-.338-.18-.5.269-.266.066-.407-.2-.515.37-.325.218-.5-.235-.521-.083-.173-.01-.425-.269-.521a1.277,1.277,0,0,1-.318-.5c-.352-.017-.445-.155-.363-.47-.186.024-.28-.014-.332-.093a.673.673,0,0,1-.076-.318c-.01-.131-.135-.138-.238-.152s-.211-.01-.214-.173a.954.954,0,0,0-.249-.114.8.8,0,0,1-.245-.1.526.526,0,0,0-.218-.224c-.09-.041-.193-.01-.3.121-.19.069-.338.169-.542.031-.066.176-.135.252-.224.249a.872.872,0,0,1-.328-.09c-.155.117-.456.014-.535.287-.211.076-.235.366-.487.4-.218.076-.452.2-.4.487a.261.261,0,0,1-.114.287c-.083.069-.18.142-.173.249-.193.035-.19.148-.173.256s.076.214.01.3a.784.784,0,0,1-.083.269.23.23,0,0,0,.052.273,1.886,1.886,0,0,1,.107.245.451.451,0,0,1-.007.269c.252,0,.266.073.221.186s-.093.252-.007.3a.245.245,0,0,0,.107.269.561.561,0,0,1,.221.186c.1.035.124.142.166.242s.107.183.242.169c.138.152.4.1.47.359.283-.1.245.373.5.318a2.75,2.75,0,0,1,.518.273c.041.421.335.207.521.235.169.093.411-.086.515.2.166.076.3.29.5.18.176-.017.214.618.48.155.176-.052.245.445.459.138.207-.283.29.093.432.124l.4.111c1.153.314,1.841.518,1.83.732s-.884.421-2.414.38c-.152,0-.356.231-.48-.028-.159-.035-.37.145-.515-.045-.249.3-.373-.017-.553-.076-.193-.028-.352-.193-.587-.111-.256.148-.37-.221-.618-.148-.138-.269-.356-.3-.646-.2-.131-.283-.449-.148-.673-.259-.069-.411-.39-.311-.684-.345s-.421-.338-.691-.439a1.189,1.189,0,0,0-.338-.273,1.234,1.234,0,0,1-.328-.3,1.155,1.155,0,0,1-.414-.266.786.786,0,0,1-.186-.466,1.178,1.178,0,0,1-.287-.411c-.059-.159-.121-.318-.173-.483a.9.9,0,0,1-.19-.494c-.028-.176-.017-.359-.059-.532a1,1,0,0,1,.086-.535.528.528,0,0,0-.069-.542,1.806,1.806,0,0,1,.114-.525,3.851,3.851,0,0,0,.159-.515,5.4,5.4,0,0,0,.49-.953c.49-.093.521-.47.68-.836a1.793,1.793,0,0,1,.832-.677,2.876,2.876,0,0,1,.953-.49.947.947,0,0,1,.515-.155,1.169,1.169,0,0,0,.528-.117.727.727,0,0,1,.539-.041,1.007,1.007,0,0,0,.535.024,1.078,1.078,0,0,1,1.026.252,1.351,1.351,0,0,1,.418.307.5.5,0,0,0,.48.152c.148.062.356.055.518.121a.376.376,0,0,1,.211.48.591.591,0,0,1,.28.349c.059.145.117.273.29.318-.121.442.314.449.442.691.086.259.083.539.342.684s.121.483.262.673c.273.142-.086.518.2.646.017.221.169.4.145.618.525.069.107.4.111.587-.028.2.4.3.076.553.4.1.114.338.045.518s.214.294.028.477c.28.114-.1.314.007.439-.152.159.024.269-.007.4a.308.308,0,0,1-.024.356c-.01.111-.021.214-.028.314-.079.584-.19.9-.328.9" transform="translate(23.584 24.088)" fill="#fff"/>
  </g>
</svg>
