<svg xmlns="http://www.w3.org/2000/svg" width="84.76" height="84.76" viewBox="0 0 84.76 84.76">
  <g id="Grupo_1101059" data-name="Grupo 1101059" transform="translate(-211 -4246)">
    <g id="Grupo_17682" data-name="Grupo 17682" transform="translate(-1746.848 3882.417)">
      <g id="Grupo_17650" data-name="Grupo 17650" transform="translate(1964.683 364.95)">
        <path id="Trazado_28205" data-name="Trazado 28205" d="M2025.424,438.891h-43.748v2.734a5.468,5.468,0,1,1-10.937,0v-71.09a5.468,5.468,0,0,0-5.468-5.468h50.583a9.57,9.57,0,0,1,9.57,9.57Z" transform="translate(-1965.272 -365.068)" fill="#fff"/>
      </g>
      <g id="Grupo_17653" data-name="Grupo 17653" transform="translate(1975.62 438.773)">
        <g id="Grupo_17652" data-name="Grupo 17652">
          <g id="Grupo_17651" data-name="Grupo 17651">
            <path id="Trazado_28206" data-name="Trazado 28206" d="M2026.367,445.25h-43.748v2.734a5.469,5.469,0,0,1-5.468,5.469h49.216a5.469,5.469,0,0,0,5.468-5.469V445.25Z" transform="translate(-1977.151 -445.25)" fill="#8e8e8e"/>
          </g>
        </g>
      </g>
      <g id="Grupo_17655" data-name="Grupo 17655" transform="translate(1959.214 364.95)">
        <g id="Grupo_17654" data-name="Grupo 17654">
          <path id="Trazado_28207" data-name="Trazado 28207" d="M1970.269,381.473h-10.937V370.536a5.469,5.469,0,0,1,10.937,0Z" transform="translate(-1959.332 -365.068)" fill="#8e8e8e"/>
        </g>
      </g>
      <g id="Grupo_17657" data-name="Grupo 17657" transform="translate(1975.62 411.432)">
        <g id="Grupo_17656" data-name="Grupo 17656">
          <circle id="Elipse_1083" data-name="Elipse 1083" cx="10.937" cy="10.937" r="10.937" fill="#f6ff9b"/>
        </g>
      </g>
      <g id="Grupo_17659" data-name="Grupo 17659" transform="translate(1981.088 416.9)">
        <g id="Grupo_17658" data-name="Grupo 17658">
          <circle id="Elipse_1084" data-name="Elipse 1084" cx="5.468" cy="5.468" r="5.468" fill="#cddc39"/>
        </g>
      </g>
      <g id="Grupo_17660" data-name="Grupo 17660" transform="translate(2020.721 412.802)">
        <path id="Trazado_28208" data-name="Trazado 28208" d="M2026.136,420.459l3.417-3.418,17.086,17.086-3.418,3.418Z" transform="translate(-2026.136 -417.041)" fill="#ef6c00"/>
      </g>
      <g id="Grupo_17661" data-name="Grupo 17661" transform="translate(2011.153 403.232)">
        <path id="Trazado_28209" data-name="Trazado 28209" d="M2015.744,416.215l9.568-9.568,6.834,6.834-9.568,9.568Z" transform="translate(-2015.744 -406.647)" fill="#ef6c00"/>
      </g>
      <g id="Grupo_17662" data-name="Grupo 17662" transform="translate(2005.685 411.432)">
        <path id="Trazado_28210" data-name="Trazado 28210" d="M2009.8,419.655l4.1-4.1,9.568,9.568-4.1,4.1Z" transform="translate(-2009.805 -415.553)" fill="#ef6c00"/>
      </g>
      <g id="Grupo_17663" data-name="Grupo 17663" transform="translate(2019.356 397.764)">
        <path id="Trazado_28211" data-name="Trazado 28211" d="M2024.654,404.809l4.1-4.1,9.568,9.568-4.1,4.1Z" transform="translate(-2024.654 -400.708)" fill="#ef6c00"/>
      </g>
      <g id="Grupo_17664" data-name="Grupo 17664" transform="translate(1957.848 363.583)">
        <path id="Trazado_28212" data-name="Trazado 28212" d="M2024.836,448.343H1975.62a6.844,6.844,0,0,1-6.836-6.835V382.722h-9.57a1.366,1.366,0,0,1-1.366-1.367V370.418a6.835,6.835,0,0,1,13.671,0v71.09a4.1,4.1,0,1,0,8.2,0v-2.734a1.367,1.367,0,0,1,1.367-1.366H2030.3a1.366,1.366,0,0,1,1.367,1.366v2.734A6.843,6.843,0,0,1,2024.836,448.343Zm-43.75-2.734h43.75a4.106,4.106,0,0,0,4.1-4.1v-1.367h-46.481v1.367a6.8,6.8,0,0,1-1.37,4.1Zm-20.5-65.622h8.2v-9.57a4.1,4.1,0,0,0-8.2,0Z" transform="translate(-1957.848 -363.583)" fill="#00223d"/>
      </g>
      <g id="Grupo_17665" data-name="Grupo 17665" transform="translate(2023.469 420.318)">
        <path id="Trazado_28213" data-name="Trazado 28213" d="M2029.121,425.205h2.734V443.66h-2.734Z" transform="translate(-2029.121 -425.205)" fill="#00223d"/>
      </g>
      <g id="Grupo_17666" data-name="Grupo 17666" transform="translate(1964.683 363.583)">
        <path id="Trazado_28214" data-name="Trazado 28214" d="M2026.792,399.128h-2.734V373.153a6.843,6.843,0,0,0-6.835-6.835h-51.95v-2.734h51.95a9.581,9.581,0,0,1,9.57,9.57Z" transform="translate(-1965.272 -363.583)" fill="#00223d"/>
      </g>
      <g id="Grupo_17667" data-name="Grupo 17667" transform="translate(2004.329 410.064)">
        <path id="Trazado_28215" data-name="Trazado 28215" d="M2019.27,430.474a1.366,1.366,0,0,1-.967-.4l-9.57-9.57a1.365,1.365,0,0,1,0-1.934l4.1-4.1a1.367,1.367,0,0,1,1.934,0l9.57,9.57a1.365,1.365,0,0,1,0,1.933l-4.1,4.1A1.363,1.363,0,0,1,2019.27,430.474Zm-7.637-10.937,7.637,7.636,2.168-2.168-7.637-7.636Z" transform="translate(-2008.332 -414.068)" fill="#00223d"/>
      </g>
      <g id="Grupo_17668" data-name="Grupo 17668" transform="translate(2018 396.393)">
        <path id="Trazado_28216" data-name="Trazado 28216" d="M2034.118,415.625a1.362,1.362,0,0,1-.967-.4l-9.57-9.57a1.367,1.367,0,0,1,0-1.933l4.1-4.1a1.365,1.365,0,0,1,1.933,0l9.57,9.57a1.366,1.366,0,0,1,0,1.932l-4.1,4.1A1.362,1.362,0,0,1,2034.118,415.625Zm-7.636-10.937,7.636,7.637,2.168-2.168-7.636-7.637Z" transform="translate(-2023.181 -399.219)" fill="#00223d"/>
      </g>
      <g id="Grupo_17669" data-name="Grupo 17669" transform="translate(2010.188 402.265)">
        <path id="Trazado_28217" data-name="Trazado 28217" d="M2014.7,415.165l9.568-9.568,1.932,1.933-9.567,9.568Z" transform="translate(-2014.696 -405.597)" fill="#00223d"/>
      </g>
      <g id="Grupo_17670" data-name="Grupo 17670" transform="translate(2017.022 409.101)">
        <path id="Trazado_28218" data-name="Trazado 28218" d="M2022.119,422.59l9.568-9.568,1.933,1.933-9.568,9.568Z" transform="translate(-2022.119 -413.022)" fill="#00223d"/>
      </g>
      <g id="Grupo_17671" data-name="Grupo 17671" transform="translate(2019.768 411.832)">
        <path id="Trazado_28219" data-name="Trazado 28219" d="M2043.157,438.829a1.368,1.368,0,0,1-.967-.4L2025.1,421.339l1.934-1.933,16.122,16.122,1.484-1.484-16.122-16.122,1.934-1.934,17.089,17.089a1.368,1.368,0,0,1,0,1.933l-3.418,3.418A1.366,1.366,0,0,1,2043.157,438.829Z" transform="translate(-2025.101 -415.988)" fill="#00223d"/>
      </g>
      <g id="Grupo_17672" data-name="Grupo 17672" transform="translate(1975.62 388.191)">
        <path id="Trazado_28220" data-name="Trazado 28220" d="M1977.151,390.311h45.114v2.733h-45.114Z" transform="translate(-1977.151 -390.311)" fill="#00223d"/>
      </g>
      <g id="Grupo_17673" data-name="Grupo 17673" transform="translate(1975.62 399.128)">
        <path id="Trazado_28221" data-name="Trazado 28221" d="M1977.151,402.19H2016.8v2.734h-39.646Z" transform="translate(-1977.151 -402.19)" fill="#00223d"/>
      </g>
      <g id="Grupo_17674" data-name="Grupo 17674" transform="translate(1975.62 393.659)">
        <path id="Trazado_28222" data-name="Trazado 28222" d="M1977.151,396.25h45.114v2.734h-45.114Z" transform="translate(-1977.151 -396.25)" fill="#00223d"/>
      </g>
      <g id="Grupo_17675" data-name="Grupo 17675" transform="translate(1975.62 377.254)">
        <path id="Trazado_28223" data-name="Trazado 28223" d="M1977.151,378.432h45.114v2.734h-45.114Z" transform="translate(-1977.151 -378.432)" fill="#00223d"/>
      </g>
      <g id="Grupo_17676" data-name="Grupo 17676" transform="translate(1975.62 371.785)">
        <path id="Trazado_28224" data-name="Trazado 28224" d="M1977.151,372.492h45.114v2.734h-45.114Z" transform="translate(-1977.151 -372.492)" fill="#00223d"/>
      </g>
      <g id="Grupo_17677" data-name="Grupo 17677" transform="translate(1975.62 382.722)">
        <path id="Trazado_28225" data-name="Trazado 28225" d="M1977.151,384.371h45.114v2.734h-45.114Z" transform="translate(-1977.151 -384.371)" fill="#00223d"/>
      </g>
      <g id="Grupo_17678" data-name="Grupo 17678" transform="translate(1975.62 404.596)">
        <path id="Trazado_28226" data-name="Trazado 28226" d="M1977.151,408.129h36.912v2.734h-36.912Z" transform="translate(-1977.151 -408.129)" fill="#00223d"/>
      </g>
      <g id="Grupo_17679" data-name="Grupo 17679" transform="translate(1974.253 410.064)">
        <path id="Trazado_28227" data-name="Trazado 28227" d="M1987.97,438.676a12.3,12.3,0,1,1,12.3-12.3A12.318,12.318,0,0,1,1987.97,438.676Zm0-21.874a9.57,9.57,0,1,0,9.57,9.57A9.582,9.582,0,0,0,1987.97,416.8Z" transform="translate(-1975.666 -414.068)" fill="#00223d"/>
      </g>
      <g id="Grupo_17680" data-name="Grupo 17680" transform="translate(1979.721 415.533)">
        <path id="Trazado_28228" data-name="Trazado 28228" d="M1988.441,433.678a6.835,6.835,0,1,1,6.835-6.835A6.844,6.844,0,0,1,1988.441,433.678Zm0-10.936a4.1,4.1,0,1,0,4.1,4.1A4.106,4.106,0,0,0,1988.441,422.742Z" transform="translate(-1981.605 -420.008)" fill="#00223d"/>
      </g>
      <g id="Grupo_17681" data-name="Grupo 17681" transform="translate(2001.595 427.836)">
        <path id="Trazado_28229" data-name="Trazado 28229" d="M2021.768,440.207H2016.3a5.473,5.473,0,0,1-4.632-2.563,9.016,9.016,0,0,1-6.3,2.563v-2.734a6.285,6.285,0,0,0,5.239-2.8l.46-.69a1.367,1.367,0,0,1,2.5.759,2.737,2.737,0,0,0,2.734,2.734h5.468Z" transform="translate(-2005.363 -433.37)" fill="#00223d"/>
      </g>
    </g>
  </g>
</svg>
