<svg xmlns="http://www.w3.org/2000/svg" width="75.571" height="75.571" viewBox="0 0 75.571 75.571">
  <g id="Grupo_1101031" data-name="Grupo 1101031" transform="translate(-329.963 -2843.893)">
    <g id="icon_media_pdf" transform="translate(329.963 2843.893)">
      <path id="Trazado_715359" data-name="Trazado 715359" d="M37.786,0A37.786,37.786,0,1,1,0,37.786,37.786,37.786,0,0,1,37.786,0Z" fill="#02dd84"/>
    </g>
    <g id="navegador" transform="translate(321.066 2823.221)">
      <path id="Trazado_716382" data-name="Trazado 716382" d="M73.4,71.168l-4.47-1.621A24,24,0,1,0,47.5,82.735a23.771,23.771,0,0,0,13.539-4.182L62.365,82.2a.813.813,0,0,0,1.529,0l2.53-6.972L73.4,72.7a.814.814,0,0,0,0-1.529ZM35.144,57.924a26.818,26.818,0,0,1,1.345-7.854h10.2v7.854ZM46.69,59.551V67.4H36.515a26.69,26.69,0,0,1-1.372-7.854ZM37.1,48.444a24.958,24.958,0,0,1,4.374-6.953,25.56,25.56,0,0,1,5.216-4.514V48.444Zm7.3-11.861a27.656,27.656,0,0,0-4.1,3.777,26.645,26.645,0,0,0-4.675,7.415q-.138.332-.269.669H27.641A22.433,22.433,0,0,1,44.4,36.583ZM26.875,50.071h7.918a28.657,28.657,0,0,0-1.277,7.854H25.143A22.214,22.214,0,0,1,26.875,50.071Zm-1.732,9.48h8.373A28.635,28.635,0,0,0,34.793,67.4H26.875A22.2,22.2,0,0,1,25.143,59.551Zm2.5,9.48h7.718q.13.337.269.67A26.69,26.69,0,0,0,40.3,77.116a27.593,27.593,0,0,0,4.1,3.777A22.432,22.432,0,0,1,27.641,69.032Zm13.878,7.005a25.114,25.114,0,0,1-4.393-7.005H46.69V80.5A25.52,25.52,0,0,1,41.519,76.037ZM68.125,67.4h-5.1l-2.529-.916A28.939,28.939,0,0,0,61.5,59.551h8.355A22.421,22.421,0,0,1,68.125,67.4Zm1.728-9.48H61.5a28.613,28.613,0,0,0-1.277-7.854h7.9A22.235,22.235,0,0,1,69.852,57.924Zm-2.5-9.48h-7.7c-.087-.225-.176-.448-.269-.669a26.641,26.641,0,0,0-4.678-7.415,27.636,27.636,0,0,0-4.1-3.775A22.422,22.422,0,0,1,67.356,48.444ZM48.317,36.974a25.506,25.506,0,0,1,5.175,4.465,25.124,25.124,0,0,1,4.395,7H48.317Zm0,13.1H58.5a26.7,26.7,0,0,1,1.372,7.854H48.317Zm0,9.48H59.871a27.44,27.44,0,0,1-.912,6.381l-1.235-.448a.813.813,0,0,0-1.041,1.042L57,67.4H48.317Zm0,9.48H57.59l.143.395A25.764,25.764,0,0,1,48.318,80.5Zm2.3,11.864a27.2,27.2,0,0,0,7.9-9.32l1.956,5.393A22.089,22.089,0,0,1,50.614,80.9Zm14.9-7.068a.816.816,0,0,0-.487.487l-1.895,5.222L58.8,67.606l11.932,4.326Z"/>
      <path id="Trazado_716383" data-name="Trazado 716383" d="M283.345,379.763a22.089,22.089,0,0,1-9.855,3.927,27.2,27.2,0,0,0,7.9-9.32Z" transform="translate(-222.876 -302.794)" fill="#b9b8ad"/>
      <path id="Trazado_716384" data-name="Trazado 716384" d="M158.7,362.381a25.521,25.521,0,0,1-5.171-4.465,25.114,25.114,0,0,1-4.393-7.005H158.7Z" transform="translate(-112.013 -281.878)" fill="#e0e0d1"/>
      <path id="Trazado_716385" data-name="Trazado 716385" d="M78.441,362.771A22.432,22.432,0,0,1,61.68,350.91H69.4q.13.337.269.67a26.69,26.69,0,0,0,4.675,7.414,27.592,27.592,0,0,0,4.1,3.777Z" transform="translate(-34.039 -281.878)" fill="#e0e0d1"/>
      <path id="Trazado_716386" data-name="Trazado 716386" d="M261.726,351.3a25.764,25.764,0,0,1-9.415,11.072V350.91h9.273Z" transform="translate(-203.993 -281.878)" fill="#b9b8ad"/>
      <path id="Trazado_716387" data-name="Trazado 716387" d="M373.93,263.5a22.421,22.421,0,0,1-1.728,7.854h-5.1l-2.529-.916a28.938,28.938,0,0,0,1.005-6.937Z" transform="translate(-304.078 -203.949)" fill="#b9b8ad"/>
      <path id="Trazado_716388" data-name="Trazado 716388" d="M263.864,263.5a27.439,27.439,0,0,1-.912,6.381l-1.235-.448a.813.813,0,0,0-1.041,1.042l.319.879H252.31V263.5Z" transform="translate(-203.993 -203.949)" fill="#b9b8ad"/>
      <path id="Trazado_716389" data-name="Trazado 716389" d="M142.4,263.5v7.854H132.222a26.69,26.69,0,0,1-1.372-7.854Z" transform="translate(-95.707 -203.949)" fill="#e0e0d1"/>
      <path id="Trazado_716390" data-name="Trazado 716390" d="M48.3,271.354H40.382A22.2,22.2,0,0,1,38.65,263.5h8.373A28.64,28.64,0,0,0,48.3,271.354Z" transform="translate(-13.507 -203.949)" fill="#e0e0d1"/>
      <path id="Trazado_716391" data-name="Trazado 716391" d="M48.3,176.09a28.657,28.657,0,0,0-1.277,7.854H38.649a22.212,22.212,0,0,1,1.732-7.854Z" transform="translate(-13.506 -126.019)" fill="#e0e0d1"/>
      <path id="Trazado_716392" data-name="Trazado 716392" d="M142.406,176.09v7.854H130.86a26.818,26.818,0,0,1,1.345-7.854Z" transform="translate(-95.716 -126.019)" fill="#e0e0d1"/>
      <g id="Grupo_1011000" data-name="Grupo 1011000" transform="translate(48.317 36.584)">
        <path id="Trazado_716393" data-name="Trazado 716393" d="M263.864,183.944H252.31V176.09h10.182A26.7,26.7,0,0,1,263.864,183.944Z" transform="translate(-252.31 -162.603)" fill="#b9b8ad"/>
        <path id="Trazado_716394" data-name="Trazado 716394" d="M261.879,66.81H252.31V55.34a25.506,25.506,0,0,1,5.175,4.465A25.125,25.125,0,0,1,261.879,66.81Z" transform="translate(-252.31 -54.95)" fill="#b9b8ad"/>
        <path id="Trazado_716395" data-name="Trazado 716395" d="M290.178,63.6h-7.7c-.087-.225-.176-.448-.269-.669a26.641,26.641,0,0,0-4.678-7.415,27.637,27.637,0,0,0-4.1-3.775A22.422,22.422,0,0,1,290.178,63.6Z" transform="translate(-271.139 -51.74)" fill="#b9b8ad"/>
        <path id="Trazado_716396" data-name="Trazado 716396" d="M371.7,183.944h-8.355a28.614,28.614,0,0,0-1.277-7.854h7.9A22.235,22.235,0,0,1,371.7,183.944Z" transform="translate(-350.166 -162.603)" fill="#b9b8ad"/>
      </g>
      <path id="Trazado_716397" data-name="Trazado 716397" d="M158.48,55.36V66.827h-9.59a24.958,24.958,0,0,1,4.374-6.953A25.56,25.56,0,0,1,158.48,55.36Z" transform="translate(-111.79 -18.384)" fill="#e0e0d1"/>
      <path id="Trazado_716398" data-name="Trazado 716398" d="M78.44,51.73a27.656,27.656,0,0,0-4.1,3.777,26.646,26.646,0,0,0-4.675,7.415q-.138.332-.269.669H61.68A22.433,22.433,0,0,1,78.44,51.73Z" transform="translate(-34.039 -15.147)" fill="#e0e0d1"/>
      <path id="Trazado_716399" data-name="Trazado 716399" d="M360.932,342.1l-5.222,1.895a.816.816,0,0,0-.487.487l-1.895,5.222L349,337.77Z" transform="translate(-290.197 -270.164)" fill="#ff9751"/>
    </g>
  </g>
</svg>
