<svg xmlns="http://www.w3.org/2000/svg" xmlns:xlink="http://www.w3.org/1999/xlink" width="96" height="95" viewBox="0 0 96 95">
  <defs>
    <linearGradient id="linear-gradient" x1="0.5" x2="0.5" y2="1" gradientUnits="objectBoundingBox">
      <stop offset="0" stop-color="#fff"/>
      <stop offset="1" stop-color="#e9e9e9"/>
    </linearGradient>
    <filter id="Elipse_7662" x="0" y="0" width="96" height="95" filterUnits="userSpaceOnUse">
      <feOffset dy="3" input="SourceAlpha"/>
      <feGaussianBlur stdDeviation="3" result="blur"/>
      <feFlood flood-opacity="0.161"/>
      <feComposite operator="in" in2="blur"/>
      <feComposite in="SourceGraphic"/>
    </filter>
  </defs>
  <g id="Grupo_1101058" data-name="Grupo 1101058" transform="translate(-806 -6130)">
    <g transform="matrix(1, 0, 0, 1, 806, 6130)" filter="url(#Elipse_7662)">
      <ellipse id="Elipse_7662-2" data-name="Elipse 7662" cx="39" cy="38.5" rx="39" ry="38.5" transform="translate(9 6)" fill="url(#linear-gradient)"/>
    </g>
    <g id="Grupo_17357" data-name="Grupo 17357" transform="translate(825.251 6143.814)">
      <path id="Trazado_27610" data-name="Trazado 27610" d="M771.714,1997.522l13.953,6.265v-24.972l-12.018-6.265Z" transform="translate(-756.917 -1953.259)" fill="#44c868"/>
      <path id="Trazado_27611" data-name="Trazado 27611" d="M772.749,1994.45l12.917,19.633-13.953-6.265Z" transform="translate(-756.917 -1963.555)" fill="#afafaf"/>
      <path id="Trazado_27612" data-name="Trazado 27612" d="M759.333,1997.522l-13.953,6.265,4.517-24.908,11.37-6.329Z" transform="translate(-744.536 -1953.259)" fill="#4ce166"/>
      <path id="Trazado_27613" data-name="Trazado 27613" d="M747.729,2001.132l12.639-6.681-1.035,13.368-13.953,6.265Z" transform="translate(-744.536 -1963.555)" fill="#afafaf"/>
      <path id="Trazado_27614" data-name="Trazado 27614" d="M822.664,1997.522l13.953,6.265-4.517-24.908-11.37-6.329Z" transform="translate(-779.962 -1953.259)" fill="#44c868"/>
      <path id="Trazado_27615" data-name="Trazado 27615" d="M821.811,1984.71l13.923,16.173-3.126-17.239-1.723-.959Z" transform="translate(-780.47 -1958.024)" fill="#afafaf"/>
      <path id="Trazado_27616" data-name="Trazado 27616" d="M812,1997.522l-13.953,6.265v-24.972l12.018-6.265Z" transform="translate(-769.298 -1953.259)" fill="#4ce166"/>
      <path id="Trazado_27617" data-name="Trazado 27617" d="M749.814,1996.918l12.639-6.681.368-4.749-12.09,6.372Z" transform="translate(-746.621 -1959.342)" fill="#ffdb56"/>
      <g id="Grupo_17356" data-name="Grupo 17356" transform="translate(15.832 21.63)">
        <path id="Trazado_27618" data-name="Trazado 27618" d="M786.589,1987.285l-12.553-1.8-.368,4.749,12.917,19.633v-7.139l-7.708-12.147,7.711.923Z" transform="translate(-773.668 -1980.972)" fill="#ffbb24"/>
        <path id="Trazado_27619" data-name="Trazado 27619" d="M821.527,1982.02,830.6,1980l-5.445-3.031-3.949.923Z" transform="translate(-796.018 -1976.964)" fill="#ffbb24"/>
      </g>
      <path id="Trazado_27620" data-name="Trazado 27620" d="M811.1,1988.76l-.49-6.322h0l-.289-3.731-12.268,5.389v4.222l8.013-3.488Z" transform="translate(-769.301 -1956.153)" fill="#ffdb56"/>
      <path id="Trazado_27621" data-name="Trazado 27621" d="M822.269,1992.427l14.855,17.921-1.391-7.669-13.923-16.173Z" transform="translate(-780.47 -1959.82)" fill="#ffbb24"/>
      <path id="Trazado_27622" data-name="Trazado 27622" d="M788.423,1937.734a10.961,10.961,0,0,0-10.961,10.961c0,9.219,10.961,17.7,10.961,17.7s10.961-8.483,10.961-17.7A10.962,10.962,0,0,0,788.423,1937.734Zm0,15.333a4.372,4.372,0,1,1,4.372-4.372A4.372,4.372,0,0,1,788.423,1953.067Z" transform="translate(-759.62 -1936.89)" fill="#ff9751"/>
      <path id="Trazado_27623" data-name="Trazado 27623" d="M796.8,1937.734a11.073,11.073,0,0,0-1.519.105,10.963,10.963,0,0,1,9.442,10.856c0,7.062-6.432,13.692-9.442,16.407.919.829,1.519,1.294,1.519,1.294s10.962-8.483,10.962-17.7A10.962,10.962,0,0,0,796.8,1937.734Z" transform="translate(-767.998 -1936.89)" fill="#ea7951"/>
      <path id="Trazado_27624" data-name="Trazado 27624" d="M798.047,2018.03l4.808,4.98-4.808,2.159Z" transform="translate(-769.298 -1974.641)" fill="#ffdb56"/>
      <path id="Trazado_27625" data-name="Trazado 27625" d="M801.108,1987.186l.013-.015a.863.863,0,0,0,.067-.107.311.311,0,0,0,.015-.032.8.8,0,0,0,.036-.083c0-.014.009-.029.013-.044s.014-.053.019-.08.006-.031.007-.047a.791.791,0,0,0,.006-.087c0-.014,0-.028,0-.042a.838.838,0,0,0-.012-.13l-3.369-18.574a.844.844,0,0,0-1.661.3l1.424,7.854-10.981-12.755,7.385-1.648,1.094.609.475,2.619a.844.844,0,0,0,1.661-.3l-.546-3.011a.842.842,0,0,0-.42-.587h0l-11.371-6.33h0a.83.83,0,0,0-.1-.047l-.032-.01c-.024-.009-.048-.017-.072-.023l-.041-.008c-.022,0-.043-.009-.065-.011a.341.341,0,0,0-.045,0l-.064,0-.046,0-.063.006-.046.008c-.02,0-.04.009-.061.014l-.045.013-.058.022-.045.02-.019.009-1.928,1a16.409,16.409,0,0,0,2.159-7.743,11.805,11.805,0,1,0-23.61,0,16.46,16.46,0,0,0,2.2,7.821l-2.078-1.083-.02-.009-.043-.019-.059-.023-.045-.013c-.02-.005-.04-.011-.061-.014l-.046-.008c-.021,0-.041,0-.062-.006l-.046,0-.062,0-.047,0c-.021,0-.042.006-.062.01l-.044.009a.685.685,0,0,0-.068.021l-.036.011a.911.911,0,0,0-.1.047h0l-11.369,6.329a.843.843,0,0,0-.42.587h0l-3.2,17.657h0a.844.844,0,0,0,1.661.3l.961-5.3,10.922-5.774-.879,11.342-12.033,5.4.423-2.336a.844.844,0,1,0-1.661-.3l-.71,3.912a.844.844,0,0,0,1.176.92l13.607-6.109,13.6,6.107h0l0,0,.023.009.038.015.037.013.024.007.032.008.053.01.026,0,.017,0c.029,0,.057,0,.085.005h.016a.716.716,0,0,0,.1-.007h.013l.019,0a.727.727,0,0,0,.079-.018l.022,0h0l.007,0a.793.793,0,0,0,.1-.036l13.607-6.109h0l13.608,6.11.04.015c.013.005.026.011.04.015s.035.011.054.015a.3.3,0,0,0,.033.009c.021,0,.043.008.065.011l.023,0a.858.858,0,0,0,.09,0h0a.861.861,0,0,0,.122-.01l.029,0a.809.809,0,0,0,.12-.03l.007,0c.026-.01.052-.019.077-.031l.021-.012c.021-.011.041-.023.062-.036s.041-.025.06-.039l.021-.014c.015-.012.027-.025.042-.038s.023-.019.033-.03A.913.913,0,0,0,801.108,1987.186ZM777.54,1983.5l-4.159-4.308V1968.86l7.049-3.068,4.344,3.391.829,10.694Zm-4.159,1.868v-3.746l2.523,2.613Zm-3.311-20.782c.7.652,1.272,1.136,1.622,1.425v1.347l-6.764-.81a.844.844,0,0,0-.813,1.29l7.576,11.94v4.076l-11.21-17.037.137-1.774.139-1.789Zm6.375-1.292,7.613-3.345.539,6.96-3.525-2.752a.845.845,0,0,0-.856-.109l-6.833,2.974v-.925A39.7,39.7,0,0,0,776.445,1963.29Zm9.733,2.164-.01-.125,12.094,14.048.775,4.275-12.63-15.236Zm-.66-8.52.92.512-.865.2Zm-19.024,11.5,5.2.622v7.571Zm-6.224,1.128,9.969,15.152-10.768-4.835Zm26.363,1.773,10.841,13.079-10.183-4.572Zm5.221-10.872-5.96,1.331-.189-2.44,2.926-.684,3.224,1.794Zm-8.042-3.69.108,1.391-4.756,2.09q.708-.878,1.321-1.747Zm-11.222-18.942a10.129,10.129,0,0,1,10.117,10.117c0,7.571-7.986,14.813-10.117,16.61-2.131-1.8-10.117-9.039-10.117-16.61A10.129,10.129,0,0,1,772.591,1937.829Zm-6.128,22.966c.541.646,1.08,1.246,1.6,1.8l-7.172-1.026.371-4.793,3.5,1.823Q765.537,1959.687,766.463,1960.8Zm-6.908-3.861-.242,3.131-.131,1.693-10.144,5.347.871-4.8Zm-11.435,15.226.521-2.872.013-.074,10.373-5.467-.214,2.76Z" transform="translate(-743.788 -1936.141)" fill="#00223d"/>
      <path id="Trazado_27626" data-name="Trazado 27626" d="M798.737,1953.794a5.222,5.222,0,0,0-5.216-5.216.844.844,0,1,0,0,1.688,3.527,3.527,0,1,1-2.517,1.055.844.844,0,1,0-1.2-1.183,5.216,5.216,0,1,0,8.936,3.656Z" transform="translate(-764.717 -1941.988)" fill="#00223d"/>
    </g>
  </g>
</svg>
