<svg xmlns="http://www.w3.org/2000/svg" xmlns:xlink="http://www.w3.org/1999/xlink" width="96" height="95" viewBox="0 0 96 95">
  <defs>
    <linearGradient id="linear-gradient" x1="0.5" x2="0.5" y2="1" gradientUnits="objectBoundingBox">
      <stop offset="0" stop-color="#fff"/>
      <stop offset="1" stop-color="#e9e9e9"/>
    </linearGradient>
    <filter id="Elipse_7662" x="0" y="0" width="96" height="95" filterUnits="userSpaceOnUse">
      <feOffset dy="3" input="SourceAlpha"/>
      <feGaussianBlur stdDeviation="3" result="blur"/>
      <feFlood flood-opacity="0.161"/>
      <feComposite operator="in" in2="blur"/>
      <feComposite in="SourceGraphic"/>
    </filter>
  </defs>
  <g id="Grupo_1101062" data-name="Grupo 1101062" transform="translate(-806 -6374)">
    <g transform="matrix(1, 0, 0, 1, 806, 6374)" filter="url(#Elipse_7662)">
      <ellipse id="Elipse_7662-2" data-name="Elipse 7662" cx="39" cy="38.5" rx="39" ry="38.5" transform="translate(9 6)" fill="url(#linear-gradient)"/>
    </g>
    <g id="Grupo_17452" data-name="Grupo 17452" transform="translate(828.014 6389)">
      <g id="Grupo_17450" data-name="Grupo 17450" transform="translate(0.825 0.825)">
        <g id="Grupo_17406" data-name="Grupo 17406" transform="translate(36.031 21.442)">
          <path id="Trazado_27725" data-name="Trazado 27725" d="M1339.384,1969.292l1.9,4.445-1.9,3.8-1.9-3.8Z" transform="translate(-1337.479 -1969.292)" fill="#fcd770"/>
        </g>
        <g id="Grupo_17407" data-name="Grupo 17407" transform="translate(37.936 19.792)">
          <path id="Trazado_27726" data-name="Trazado 27726" d="M1345.683,1965.045l1.509.305-2.326,4.643-.577,1.146-1.905-4.445Z" transform="translate(-1342.384 -1965.045)" fill="#ef6c00"/>
        </g>
        <g id="Grupo_17408" data-name="Grupo 17408" transform="translate(34.134 19.702)">
          <path id="Trazado_27727" data-name="Trazado 27727" d="M1333.1,1965.727a2.408,2.408,0,0,0-.181-.915h.008l3.472,1.74-1.905,4.445-.577-1.146-1.32-2.631a2.464,2.464,0,0,0,.5-1.493Z" transform="translate(-1332.595 -1964.812)" fill="#ef6c00"/>
        </g>
        <g id="Grupo_17409" data-name="Grupo 17409" transform="translate(37.936 39.585)">
          <path id="Trazado_27728" data-name="Trazado 27728" d="M1348.982,2017.657v8.247h-6.6v-9.9h6.6Z" transform="translate(-1342.384 -2016.008)" fill="#aab2bd"/>
        </g>
        <g id="Grupo_17410" data-name="Grupo 17410" transform="translate(44.533 41.234)">
          <path id="Trazado_27729" data-name="Trazado 27729" d="M1362.67,2020.255v2.474a2.47,2.47,0,0,1-2.474,2.474h-.825v-4.948Z" transform="translate(-1359.372 -2020.255)" fill="#f0d0b4"/>
        </g>
        <g id="Grupo_17411" data-name="Grupo 17411" transform="translate(37.936 20.452)">
          <path id="Trazado_27730" data-name="Trazado 27730" d="M1348.982,1985.877h-6.6v-9.9l4.123-.825.726-3.645,1.748.347v-5.113l.3.058a5.783,5.783,0,0,1,4.643,5.666V1986.7a.827.827,0,0,1-.824.825h-4.123Z" transform="translate(-1342.384 -1966.744)" fill="#ff9751"/>
        </g>
        <g id="Grupo_17412" data-name="Grupo 17412" transform="translate(28.889 23.091)">
          <path id="Trazado_27731" data-name="Trazado 27731" d="M1324.013,1979.311l4.124.825v6.383a5.783,5.783,0,0,0-4.643-5.666l-.3-.058-1.79-.354-1.509-.305-.792-3.975-.008-.009a4.956,4.956,0,0,0,2.169-2.614h.281v2.474l1.748-.347Z" transform="translate(-1319.09 -1973.539)" fill="#ff9751"/>
        </g>
        <g id="Grupo_17413" data-name="Grupo 17413" transform="translate(31.338 22.11)">
          <path id="Trazado_27732" data-name="Trazado 27732" d="M1328.193,1971.012l1.32,2.631-2.367.478-1.748.346v-2.474h.824a2.468,2.468,0,0,0,1.749-.726,2.119,2.119,0,0,0,.223-.256Z" transform="translate(-1325.397 -1971.012)" fill="#ff9751"/>
        </g>
        <g id="Grupo_17414" data-name="Grupo 17414" transform="translate(33.086 24.741)">
          <path id="Trazado_27733" data-name="Trazado 27733" d="M1332.842,1978.932l1.9,3.8-4.123-.825-.726-3.645,2.367-.478Z" transform="translate(-1329.898 -1977.786)" fill="#ff9751"/>
        </g>
        <g id="Grupo_17415" data-name="Grupo 17415" transform="translate(37.936 24.741)">
          <path id="Trazado_27734" data-name="Trazado 27734" d="M1344.866,1977.786l2.367.478-.726,3.645-4.123.825,1.905-3.8Z" transform="translate(-1342.384 -1977.786)" fill="#ff9751"/>
        </g>
        <g id="Grupo_17416" data-name="Grupo 17416" transform="translate(40.418 20.098)">
          <path id="Trazado_27735" data-name="Trazado 27735" d="M1352.891,1966.186v5.113l-1.749-.347-2.367-.478,2.326-4.643Z" transform="translate(-1348.776 -1965.831)" fill="#ff9751"/>
        </g>
        <g id="Grupo_17417" data-name="Grupo 17417" transform="translate(24.485 31.338)">
          <path id="Trazado_27736" data-name="Trazado 27736" d="M1309.656,1994.773l1.905,4.445-1.905,3.8-1.9-3.8Z" transform="translate(-1307.751 -1994.773)" fill="#fcd770"/>
        </g>
        <g id="Grupo_17418" data-name="Grupo 17418" transform="translate(26.39 29.688)">
          <path id="Trazado_27737" data-name="Trazado 27737" d="M1315.955,1990.526l1.509.305-2.326,4.643-.577,1.146-1.905-4.445Z" transform="translate(-1312.656 -1990.526)" fill="#ffc729"/>
        </g>
        <g id="Grupo_17419" data-name="Grupo 17419" transform="translate(21.582 29.688)">
          <path id="Trazado_27738" data-name="Trazado 27738" d="M1301.785,1990.526l3.3,1.649-1.905,4.445-.577-1.146-2.326-4.643Z" transform="translate(-1300.276 -1990.526)" fill="#ffc729"/>
        </g>
        <g id="Grupo_17421" data-name="Grupo 17421" transform="translate(26.39 30.348)">
          <g id="Grupo_17420" data-name="Grupo 17420">
            <path id="Trazado_27739" data-name="Trazado 27739" d="M1312.656,2011.358v-9.9l4.123-.825.726-3.645,1.749.346v-5.113l.3.058a5.783,5.783,0,0,1,4.643,5.666v13.409h-11.546Z" transform="translate(-1312.656 -1992.225)" fill="#f9a825"/>
          </g>
        </g>
        <g id="Grupo_17423" data-name="Grupo 17423" transform="translate(19.793 35.115)">
          <g id="Grupo_17422" data-name="Grupo 17422">
            <path id="Trazado_27740" data-name="Trazado 27740" d="M1298.143,2008.144l4.123.825v9.9h-3.3v-3.513a5.792,5.792,0,0,0-3.3-5.22v-5.286l1.748-.346Z" transform="translate(-1295.669 -2004.499)" fill="#f9a825"/>
          </g>
        </g>
        <g id="Grupo_17425" data-name="Grupo 17425" transform="translate(21.541 34.637)">
          <g id="Grupo_17424" data-name="Grupo 17424">
            <path id="Trazado_27741" data-name="Trazado 27741" d="M1303.114,2004.413l1.9,3.8-4.123-.825-.726-3.645,2.367-.479Z" transform="translate(-1300.17 -2003.267)" fill="#ef6c00"/>
          </g>
        </g>
        <g id="Grupo_17427" data-name="Grupo 17427" transform="translate(26.39 34.637)">
          <g id="Grupo_17426" data-name="Grupo 17426">
            <path id="Trazado_27742" data-name="Trazado 27742" d="M1315.138,2003.267l2.367.479-.726,3.645-4.123.825,1.905-3.8Z" transform="translate(-1312.656 -2003.267)" fill="#ef6c00"/>
          </g>
        </g>
        <g id="Grupo_17429" data-name="Grupo 17429" transform="translate(19.793 29.994)">
          <g id="Grupo_17428" data-name="Grupo 17428">
            <path id="Trazado_27743" data-name="Trazado 27743" d="M1297.458,1991.312l2.326,4.643-2.367.478-1.748.346v-5.113Z" transform="translate(-1295.669 -1991.312)" fill="#ef6c00"/>
          </g>
        </g>
        <g id="Grupo_17431" data-name="Grupo 17431" transform="translate(28.872 29.994)">
          <g id="Grupo_17430" data-name="Grupo 17430">
            <path id="Trazado_27744" data-name="Trazado 27744" d="M1323.163,1991.667v5.113l-1.749-.346-2.367-.478,2.325-4.643Z" transform="translate(-1319.048 -1991.312)" fill="#ef6c00"/>
          </g>
        </g>
        <g id="Grupo_17433" data-name="Grupo 17433" transform="translate(0 39.882)">
          <g id="Grupo_17432" data-name="Grupo 17432">
            <path id="Trazado_27745" data-name="Trazado 27745" d="M1250.479,2026.371h-5.773v-3.513a5.791,5.791,0,0,1,3.3-5.22,6.114,6.114,0,0,1,1.344-.445l2.1-.421,2.325,4.651,2.474,4.948Z" transform="translate(-1244.706 -2016.772)" fill="#cddc39"/>
          </g>
        </g>
        <g id="Grupo_17435" data-name="Grupo 17435" transform="translate(11.546 39.882)">
          <g id="Grupo_17434" data-name="Grupo 17434">
            <path id="Trazado_27746" data-name="Trazado 27746" d="M1282.681,2017.638a5.791,5.791,0,0,1,3.3,5.22v3.513h-11.545l2.474-4.948,2.326-4.651,2.1.421a6.108,6.108,0,0,1,1.344.445Z" transform="translate(-1274.434 -2016.772)" fill="#cddc39"/>
          </g>
        </g>
        <g id="Grupo_17436" data-name="Grupo 17436" transform="translate(9.072 44.533)">
          <path id="Trazado_27747" data-name="Trazado 27747" d="M1273.012,2028.748l-2.474,4.948-2.474-4.948Z" transform="translate(-1268.064 -2028.748)" fill="#ffeaa7"/>
        </g>
        <g id="Grupo_17437" data-name="Grupo 17437" transform="translate(29.689)">
          <path id="Trazado_27748" data-name="Trazado 27748" d="M1327.747,1919.031l-.8.2a3.315,3.315,0,0,0-2.5,3.1h-.825a2.428,2.428,0,0,0-1.7.685v-.009l-.487-1.451a5.785,5.785,0,0,1-.288-1.8,5.687,5.687,0,0,1,5.674-5.674h5.146a5.674,5.674,0,0,1,5.674,5.674,5.771,5.771,0,0,1-.289,1.8l-.487,1.451a2.481,2.481,0,0,0-1.7-.676h-.825a1.654,1.654,0,0,0-1.649-1.649h-3.3a1.661,1.661,0,0,1-1.649-1.65Z" transform="translate(-1321.15 -1914.083)" fill="#b27946"/>
        </g>
        <g id="Grupo_17438" data-name="Grupo 17438" transform="translate(18.143 9.896)">
          <path id="Trazado_27749" data-name="Trazado 27749" d="M1298.019,1944.512l-.8.2a3.316,3.316,0,0,0-2.5,3.1h-.824a2.479,2.479,0,0,0-1.7.677l-.487-1.452a5.78,5.78,0,0,1-.289-1.8,5.687,5.687,0,0,1,5.674-5.674h5.146a4.7,4.7,0,0,1,.841.074,5.675,5.675,0,0,1,4.816,5.253,2.456,2.456,0,0,1,.016.346,5.769,5.769,0,0,1-.289,1.8l-.487,1.452a2.479,2.479,0,0,0-1.7-.677h-.825a1.654,1.654,0,0,0-1.65-1.649h-3.3a1.662,1.662,0,0,1-1.649-1.649Z" transform="translate(-1291.422 -1939.564)" fill="#b27946"/>
        </g>
        <g id="Grupo_17439" data-name="Grupo 17439" transform="translate(3.299 19.792)">
          <path id="Trazado_27750" data-name="Trazado 27750" d="M1269.694,1980.714V1986a6.113,6.113,0,0,0-1.344-.445l-2.1-.421-.421-.082a1.658,1.658,0,0,1-1.295-1.295l-.578-2.895-.008-.008a4.914,4.914,0,0,0,2.449-4.264v-3.3a1.654,1.654,0,0,0-1.649-1.649h-3.3a1.662,1.662,0,0,1-1.65-1.649l-.8.2a3.306,3.306,0,0,0-2.5,3.2v3.2a4.9,4.9,0,0,0,1.451,3.5,4.533,4.533,0,0,0,1,.767l-.008.008-.577,2.895a1.659,1.659,0,0,1-1.295,1.295l-.421.082-2.1.421a6.118,6.118,0,0,0-1.344.445v-12.708a8.247,8.247,0,0,1,16.494,0v7.422Z" transform="translate(-1253.2 -1965.045)" fill="#656d78"/>
        </g>
        <g id="Grupo_17440" data-name="Grupo 17440" transform="translate(42.603 8.247)">
          <path id="Trazado_27751" data-name="Trazado 27751" d="M1357.256,1939.539a2.468,2.468,0,0,1-1.748.726h-1.1a4.982,4.982,0,0,0,.281-1.649v-3.3h.824a2.473,2.473,0,0,1,1.748,4.222Z" transform="translate(-1354.403 -1935.317)" fill="#f0d0b4"/>
        </g>
        <g id="Grupo_17441" data-name="Grupo 17441" transform="translate(33.861 15.223)">
          <path id="Trazado_27752" data-name="Trazado 27752" d="M1332.669,1953.627a2.457,2.457,0,0,0-.016-.346h.008a4.912,4.912,0,0,0,3.307,1.27,4.85,4.85,0,0,0,2.5-.685l.008.008.792,3.975-3.3,1.649-3.472-1.74h-.008a2.284,2.284,0,0,0-.594-.882l.487-1.452a5.769,5.769,0,0,0,.289-1.8Z" transform="translate(-1331.894 -1953.281)" fill="#f0d0b4"/>
        </g>
        <g id="Grupo_17442" data-name="Grupo 17442" transform="translate(32.979 4.948)">
          <path id="Trazado_27753" data-name="Trazado 27753" d="M1339.526,1930.122v3.3a4.912,4.912,0,0,1-2.449,4.263,4.85,4.85,0,0,1-2.5.685,4.911,4.911,0,0,1-3.307-1.27h-.008a5.568,5.568,0,0,0-1.641-3.645l.009-.008v-3.324a3.315,3.315,0,0,1,2.5-3.1l.8-.2a1.661,1.661,0,0,0,1.65,1.649h3.3a1.654,1.654,0,0,1,1.649,1.649Z" transform="translate(-1329.622 -1926.823)" fill="#f0d0b4"/>
        </g>
        <g id="Grupo_17443" data-name="Grupo 17443" transform="translate(29.804 8.247)">
          <path id="Trazado_27754" data-name="Trazado 27754" d="M1324.63,1938.616v.025l-.008.008a5.518,5.518,0,0,0-3.175-1.608v-.008a2.519,2.519,0,0,1,.66-1.031,2.427,2.427,0,0,1,1.7-.685h.825v3.3Z" transform="translate(-1321.447 -1935.317)" fill="#f0d0b4"/>
        </g>
        <g id="Grupo_17444" data-name="Grupo 17444" transform="translate(23.091 25.705)">
          <path id="Trazado_27755" data-name="Trazado 27755" d="M1309.968,1980.279l.792,3.975-3.3,1.649-3.3-1.649.792-3.975.008-.009a4.9,4.9,0,0,0,5,0Z" transform="translate(-1304.162 -1980.27)" fill="#f0d0b4"/>
        </g>
        <g id="Grupo_17445" data-name="Grupo 17445" transform="translate(31.058 18.143)">
          <path id="Trazado_27756" data-name="Trazado 27756" d="M1327.528,1965.02a2.468,2.468,0,0,1-1.749.726h-1.1a4.988,4.988,0,0,0,.28-1.649v-3.3h.824a2.48,2.48,0,0,1,1.7.676,2.285,2.285,0,0,1,.594.882,2.413,2.413,0,0,1,.181.915,2.465,2.465,0,0,1-.5,1.492,2.147,2.147,0,0,1-.223.256Z" transform="translate(-1324.675 -1960.798)" fill="#f0d0b4"/>
        </g>
        <g id="Grupo_17446" data-name="Grupo 17446" transform="translate(21.442 14.844)">
          <path id="Trazado_27757" data-name="Trazado 27757" d="M1309.811,1955.6v3.3a4.911,4.911,0,0,1-2.449,4.264,4.9,4.9,0,0,1-5,0,4.524,4.524,0,0,1-1-.766,4.936,4.936,0,0,1-1.172-1.848,4.985,4.985,0,0,1-.28-1.649v-3.3a3.317,3.317,0,0,1,2.5-3.1l.8-.2a1.662,1.662,0,0,0,1.649,1.649h3.3a1.654,1.654,0,0,1,1.649,1.649Z" transform="translate(-1299.915 -1952.305)" fill="#f0d0b4"/>
        </g>
        <g id="Grupo_17447" data-name="Grupo 17447" transform="translate(18.143 18.143)">
          <path id="Trazado_27758" data-name="Trazado 27758" d="M1294.72,1964.1a4.988,4.988,0,0,0,.28,1.649h-1.1a2.474,2.474,0,0,1,0-4.948h.824v3.3Z" transform="translate(-1291.422 -1960.798)" fill="#f0d0b4"/>
        </g>
        <g id="Grupo_17448" data-name="Grupo 17448" transform="translate(6.746 35.602)">
          <path id="Trazado_27759" data-name="Trazado 27759" d="M1271.675,2010.032l-2.326,4.651H1264.4l-2.326-4.651.421-.082a1.66,1.66,0,0,0,1.295-1.295l.577-2.895.008-.008a4.9,4.9,0,0,0,5,0l.008.008.577,2.895a1.659,1.659,0,0,0,1.295,1.295Z" transform="translate(-1262.076 -2005.752)" fill="#f0d0b4"/>
        </g>
        <g id="Grupo_17449" data-name="Grupo 17449" transform="translate(6.598 24.741)">
          <path id="Trazado_27760" data-name="Trazado 27760" d="M1271.59,1981.085v3.3a4.915,4.915,0,0,1-2.449,4.264,4.9,4.9,0,0,1-5,0,4.536,4.536,0,0,1-1-.767,4.9,4.9,0,0,1-1.451-3.5v-3.2a3.306,3.306,0,0,1,2.5-3.2l.8-.2a1.662,1.662,0,0,0,1.649,1.65h3.3A1.654,1.654,0,0,1,1271.59,1981.085Z" transform="translate(-1261.694 -1977.786)" fill="#f0d0b4"/>
        </g>
      </g>
      <g id="Grupo_17451" data-name="Grupo 17451">
        <path id="Trazado_27761" data-name="Trazado 27761" d="M1338.488,1944.635a.826.826,0,0,1-.824-.824h-1.649a2.474,2.474,0,1,0,4.948,0h-1.649A.826.826,0,0,1,1338.488,1944.635Z" transform="translate(-1299.728 -1931.44)" fill="#00223d"/>
        <path id="Trazado_27762" data-name="Trazado 27762" d="M1288.41,1932.489l-3.068-.614-.582-2.9a5.805,5.805,0,0,0,1.789-2.168h.566a3.3,3.3,0,0,0,3.3-3.3,3.259,3.259,0,0,0-.672-1.974l.339-1.015a6.5,6.5,0,0,0-6.168-8.557h-5.141a6.5,6.5,0,0,0-6.168,8.557l.334,1a3.345,3.345,0,0,0-.228.355c-.114-.006-.227-.017-.343-.017h-5.141a6.5,6.5,0,0,0-6.167,8.557l.339,1.015a3.036,3.036,0,0,0-.624,2.447,9.064,9.064,0,0,0-14.892,6.949v12.222a6.615,6.615,0,0,0-3.3,5.706v4.339h46.182v-3.3a3.3,3.3,0,0,0,3.3-3.3v-1.649a1.651,1.651,0,0,0,1.649-1.649v-14.236a6.615,6.615,0,0,0-5.3-6.469Zm-7.891,28.951h-3.3v-9.9h-1.649v9.9h-4.948v-8.4l4-.8.676-3.378,1.922.384V1944.2a4.955,4.955,0,0,1,3.3,4.652Zm-19.792-3.3v.63a7.015,7.015,0,0,1-.542,2.669h-3.9l3.92-7.839,1.49.3a4.961,4.961,0,0,1,3.977,4.851v2.69h-3.735a8.665,8.665,0,0,0,.436-2.669v-.63Zm-5.773-9.9a4.128,4.128,0,0,1-4.123-4.124v-3.2a2.47,2.47,0,0,1,1.862-2.4,2.478,2.478,0,0,0,2.261,1.47h3.3a.825.825,0,0,1,.825.825v3.3a4.128,4.128,0,0,1-4.124,4.124Zm-2.274,3.207.377-1.884a5.681,5.681,0,0,0,3.8,0l.377,1.884a2.46,2.46,0,0,0,1.343,1.734l-1.653,3.305h-3.929l-1.653-3.305a2.464,2.464,0,0,0,1.343-1.734Zm3.414,6.689-1.14,2.279-1.139-2.279Zm7.932-26.39v2.474a5.8,5.8,0,0,0,.066.825h-.066a1.65,1.65,0,0,1,0-3.3Zm0,4.948h.565a5.805,5.805,0,0,0,1.789,2.167l-.582,2.9-1.773.354v-1.3a9.019,9.019,0,0,0-1.1-4.326,3.246,3.246,0,0,0,1.1.2Zm11.545-2.474v-2.474a1.65,1.65,0,0,1,0,3.3h-.066A5.759,5.759,0,0,0,1275.57,1934.225Zm0-12.37v.85a6.452,6.452,0,0,0-1.036-.471A1.635,1.635,0,0,1,1275.57,1921.856Zm4.709,12.76-.9,2.1-.9-1.794a3.264,3.264,0,0,0,.339-1.034Zm4.478-1.175.172.035-1.624,3.239-.9-2.1Zm-20.732,10.367.509-.1,1.563,3.118-2.072.414Zm5.773-3.81a5.741,5.741,0,0,0,1.9-.327l.469,2.345-2.367,1.183-2.367-1.183.469-2.345A5.744,5.744,0,0,0,1269.8,1940Zm-1,8.542,1-2.325,1,2.325-1,1.988Zm2.96-1.929-.9-2.1,2.35-1.175.172.034Zm-5.379-3.274,2.351,1.175-.9,2.1-1.624-3.239Zm.48,5.017,1.441,2.875-1.929-.386-.46-2.3Zm5.87,0,.948.189-.46,2.3-1.929.386Zm.766-1.528,1.563-3.118.509.1v3.431Zm3.013-4.51-2.715-.543-.581-2.906a5.845,5.845,0,0,0,.7-.609v1.1l1.923-.384Zm3.835-3.672,1-2.324,1,2.324-1,1.989Zm-3.066-2.436.361.721-2.072.415v-.643A3.258,3.258,0,0,0,1277.281,1936.207Zm1.127,2.25,1.44,2.876-1.928-.386-.46-2.3Zm-4.487-4.232a4.123,4.123,0,1,1-8.247,0v-3.2a2.471,2.471,0,0,1,1.862-2.4,2.478,2.478,0,0,0,2.261,1.471h3.3a.826.826,0,0,1,.824.825Zm-9.9,18.82v-4.123l.273-.054.676,3.378,4,.8v8.4h-1.649v-2.69A6.615,6.615,0,0,0,1264.025,1953.045Zm13.447-10.506,3.047.609v1.358a6.589,6.589,0,0,0-3.047-1.968Zm6.807-4.081.948.19-.46,2.3-1.928.386Zm.766-1.529,1.563-3.119.509.1v3.432Zm-1.335-4.809-2.366,1.183-2.869-1.434a3.333,3.333,0,0,0-.277-.442l.339-1.015a6.5,6.5,0,0,0,.227-.92,5.724,5.724,0,0,0,4.478.283Zm1.757-7.791a4.1,4.1,0,0,1-6.65,3.238,6.472,6.472,0,0,0-1.6-3.524v-2.912a2.469,2.469,0,0,1,1.866-2.4,2.473,2.473,0,0,0,2.257,1.472h3.3a.826.826,0,0,1,.825.825Zm1.649.824h-.066a5.779,5.779,0,0,0,.066-.824v-2.474a1.649,1.649,0,1,1,0,3.3Zm-8.344-11.546h5.141a4.851,4.851,0,0,1,4.6,6.386l-.153.46a3.287,3.287,0,0,0-1.247-.248h-.152a2.47,2.47,0,0,0-2.322-1.649h-3.3a.825.825,0,0,1,0-1.65h.825v-1.649h-.825a2.47,2.47,0,0,0-2.37,1.8l-.278.07a4.106,4.106,0,0,0-3.006,3.074h-.118a3.283,3.283,0,0,0-1.245.253l-.155-.464a4.852,4.852,0,0,1,4.6-6.387Zm-11.546,9.9h5.141a4.852,4.852,0,0,1,4.6,6.386l-.154.46a3.292,3.292,0,0,0-1.247-.248h-.152a2.471,2.471,0,0,0-2.322-1.649h-3.3a.825.825,0,0,1,0-1.649h.825v-1.649h-.825a2.479,2.479,0,0,0-2.383,1.808l-.266.067a4.107,4.107,0,0,0-3.006,3.074h-.118a3.29,3.29,0,0,0-1.247.248l-.154-.46a4.853,4.853,0,0,1,4.6-6.387Zm-19.7,17.319a7.422,7.422,0,1,1,14.844,0v11.546c-.118-.031-.235-.064-.355-.087l-2.528-.505a.824.824,0,0,1-.647-.647l-.473-2.365a5.764,5.764,0,0,0,2.355-4.642v-3.3a2.477,2.477,0,0,0-2.474-2.474h-3.3a.825.825,0,0,1,0-1.649h.825v-1.649h-.825a2.477,2.477,0,0,0-2.382,1.807l-.266.067a4.117,4.117,0,0,0-3.124,4v3.2a5.763,5.763,0,0,0,2.355,4.642l-.473,2.365a.824.824,0,0,1-.647.647l-2.528.506c-.12.024-.238.058-.356.088Zm-3.3,17.927a4.96,4.96,0,0,1,3.977-4.851l1.489-.3,3.92,7.839h-3.9a7.019,7.019,0,0,1-.542-2.669v-.63h-1.649v.63a8.672,8.672,0,0,0,.437,2.669h-3.735Zm37.935,2.69v-8.247h4.948v8.247Zm8.247-4.948a1.651,1.651,0,0,1-1.649,1.649v-3.3h1.649Zm1.649-3.3h-3.3v-11.546h-1.649v9.9h-4.948v-8.4l4-.8.676-3.378,1.922.384v-5.05a4.956,4.956,0,0,1,3.3,4.653Z" transform="translate(-1242.583 -1911.959)" fill="#00223d"/>
        <path id="Trazado_27763" data-name="Trazado 27763" d="M1348.754,2005.391h1.649v1.649h-1.649Z" transform="translate(-1307.52 -1969.104)" fill="#00223d"/>
        <path id="Trazado_27764" data-name="Trazado 27764" d="M1348.754,1996.9h1.649v1.65h-1.649Z" transform="translate(-1307.52 -1963.909)" fill="#00223d"/>
        <path id="Trazado_27765" data-name="Trazado 27765" d="M1308.76,1970.117a.826.826,0,0,1-.825-.825h-1.649a2.474,2.474,0,1,0,4.948,0h-1.649A.826.826,0,0,1,1308.76,1970.117Z" transform="translate(-1281.545 -1947.025)" fill="#00223d"/>
        <path id="Trazado_27766" data-name="Trazado 27766" d="M1270.538,1995.6a.826.826,0,0,1-.825-.825h-1.649a2.474,2.474,0,1,0,4.948,0h-1.649A.826.826,0,0,1,1270.538,1995.6Z" transform="translate(-1258.168 -1962.61)" fill="#00223d"/>
        <path id="Trazado_27767" data-name="Trazado 27767" d="M1319.026,2030.872h1.649v1.65h-1.649Z" transform="translate(-1289.338 -1984.689)" fill="#00223d"/>
        <path id="Trazado_27768" data-name="Trazado 27768" d="M1319.026,2022.378h1.649v1.649h-1.649Z" transform="translate(-1289.338 -1979.494)" fill="#00223d"/>
      </g>
    </g>
  </g>
</svg>
