<svg id="Grupo_1084898" data-name="Grupo 1084898" xmlns="http://www.w3.org/2000/svg" width="71.325" height="71.326" viewBox="0 0 71.325 71.326">
  <g id="Grupo_17485" data-name="Grupo 17485" transform="translate(1.15 1.15)">
    <g id="Grupo_17469" data-name="Grupo 17469" transform="translate(4.601 58.613)">
      <path id="Trazado_27769" data-name="Trazado 27769" d="M1812.21,449.41v10.411H1793.8V449.467l.023-.034a13.829,13.829,0,0,0,18.384-.023Z" transform="translate(-1793.803 -449.41)" fill="#969faa"/>
    </g>
    <g id="Grupo_17470" data-name="Grupo 17470" transform="translate(52.343 27.61)">
      <path id="Trazado_27770" data-name="Trazado 27770" d="M1873.819,402.3l.575,4.59-.069.012h-7.915l-.069-.012.575-4.59Z" transform="translate(-1866.341 -402.304)" fill="#dfb28b"/>
    </g>
    <g id="Grupo_17471" data-name="Grupo 17471" transform="translate(50.617 32.2)">
      <path id="Trazado_27771" data-name="Trazado 27771" d="M1873.5,409.278l1.725,13.817h-11.5l1.726-13.817.069.012h7.915Z" transform="translate(-1863.719 -409.278)" fill="#d3a06c"/>
    </g>
    <g id="Grupo_17472" data-name="Grupo 17472" transform="translate(6.902 6.903)">
      <path id="Trazado_27772" data-name="Trazado 27772" d="M1804.2,370.842v4.6h-6.9v-4.6Z" transform="translate(-1797.299 -370.842)" fill="#ccd1d9"/>
    </g>
    <g id="Grupo_17473" data-name="Grupo 17473" transform="translate(18.406)">
      <path id="Trazado_27773" data-name="Trazado 27773" d="M1820.53,360.354l1.15,11.5h-6.9l1.151-11.5Z" transform="translate(-1814.778 -360.354)" fill="#ccd1d9"/>
    </g>
    <g id="Grupo_17474" data-name="Grupo 17474" transform="translate(11.504 11.504)">
      <path id="Trazado_27774" data-name="Trazado 27774" d="M1804.291,401.037v-23.2H1820.4v11.5h-6.9v4.6h-4.6v7.1a13.59,13.59,0,0,0-4.6,0Z" transform="translate(-1804.291 -377.833)" fill="#dfb28b"/>
    </g>
    <g id="Grupo_17475" data-name="Grupo 17475" transform="translate(4.601 11.504)">
      <path id="Trazado_27775" data-name="Trazado 27775" d="M1800.706,377.833v23.2a13.644,13.644,0,0,0-6.88,3.29l-.023-.035V377.833Z" transform="translate(-1793.803 -377.833)" fill="#cf9e76"/>
    </g>
    <g id="Grupo_17476" data-name="Grupo 17476" transform="translate(20.707 23.008)">
      <path id="Trazado_27776" data-name="Trazado 27776" d="M1832.079,395.312v4.6h-13.8v-4.6h13.8Z" transform="translate(-1818.274 -395.312)" fill="#fcd770"/>
    </g>
    <g id="Grupo_17477" data-name="Grupo 17477" transform="translate(16.105 27.61)">
      <path id="Trazado_27777" data-name="Trazado 27777" d="M1834.29,402.3v18.407h-11.7a13.583,13.583,0,0,0-1.657-4.614,13.783,13.783,0,0,0-9.652-6.695v-7.1h23.008Z" transform="translate(-1811.282 -402.304)" fill="#ffeaa7"/>
    </g>
    <g id="Grupo_17478" data-name="Grupo 17478" transform="translate(27.414 46.017)">
      <path id="Trazado_27778" data-name="Trazado 27778" d="M1867.773,430.271v4.6h-39.309a13.639,13.639,0,0,0,0-4.6h39.309Z" transform="translate(-1828.464 -430.271)" fill="#ccd1d9"/>
    </g>
    <g id="Grupo_17479" data-name="Grupo 17479" transform="translate(23.008 50.618)">
      <path id="Trazado_27779" data-name="Trazado 27779" d="M1826.176,437.262a13.574,13.574,0,0,1-1.657,4.613,14.184,14.184,0,0,1-2.749,3.382v10.411h43.715V437.262Z" transform="translate(-1821.77 -437.262)" fill="#e6e9ed"/>
    </g>
    <g id="Grupo_17480" data-name="Grupo 17480" transform="translate(0 34.512)">
      <ellipse id="Elipse_1043" data-name="Elipse 1043" cx="13.805" cy="13.805" rx="13.805" ry="13.805" fill="#69d6f4"/>
    </g>
    <g id="Grupo_17481" data-name="Grupo 17481" transform="translate(55.219 57.521)">
      <path id="Trazado_27780" data-name="Trazado 27780" d="M1870.711,447.75h6.9v11.5h-6.9Z" transform="translate(-1870.711 -447.75)" fill="#aab2bd"/>
    </g>
    <g id="Grupo_17482" data-name="Grupo 17482" transform="translate(41.414 57.521)">
      <path id="Trazado_27781" data-name="Trazado 27781" d="M1849.736,447.75h6.9v11.5h-6.9Z" transform="translate(-1849.736 -447.75)" fill="#aab2bd"/>
    </g>
    <g id="Grupo_17483" data-name="Grupo 17483" transform="translate(27.609 57.521)">
      <path id="Trazado_27782" data-name="Trazado 27782" d="M1828.761,447.75h6.9v11.5h-6.9Z" transform="translate(-1828.761 -447.75)" fill="#aab2bd"/>
    </g>
    <g id="Grupo_17484" data-name="Grupo 17484" transform="translate(41.414 6.903)">
      <path id="Trazado_27783" data-name="Trazado 27783" d="M1856.639,380.045a4.6,4.6,0,1,1,0-9.2h8.628a4.031,4.031,0,0,1,4.026,4.026v.575h3.451a4.6,4.6,0,0,1,0,9.2h-3.451a2.307,2.307,0,0,0-2.3,2.3v1.15h-4.6v-1.15a2.307,2.307,0,0,0-2.3-2.3h-8.052a2.318,2.318,0,0,1-2.3-2.3,2.308,2.308,0,0,1,2.3-2.3Z" transform="translate(-1849.736 -370.842)" fill="#ccd1d9"/>
    </g>
  </g>
  <g id="Grupo_17486" data-name="Grupo 17486" transform="translate(0 0)">
    <path id="Trazado_27784" data-name="Trazado 27784" d="M1847.051,386.216h-8.934l-2.3,18.407h-9.338V386.216h-4.6v-4.6h-6.9v-11.5h-2.41l-1.151-11.5h-6.685l-1.151,11.5h-2.409v-4.6h-9.2v4.6h-2.3v27.2a14.9,14.9,0,0,0,0,21.533v11.091h64.422V404.623h-4.736Zm-2.032,2.3.287,2.3h-5.446l.288-2.3Zm-5.446,4.6h6.021l1.438,11.5h-8.9Zm-15.4,11.5h-9.62a14.988,14.988,0,0,0-11.087-11.087v-5.019h20.707Zm-19.886,15.347a15.926,15.926,0,0,0,1.6-3.843h3.881A12.693,12.693,0,0,1,1804.292,419.97Zm-14.027-3.843h3.881a15.9,15.9,0,0,0,1.6,3.843A12.709,12.709,0,0,1,1790.265,416.127Zm5.482-19.949a15.9,15.9,0,0,0-1.6,3.844h-3.881A12.711,12.711,0,0,1,1795.747,396.177Zm.821-16.863h-4.6v-2.3h4.6Zm0,2.3v2.3h-4.6v-2.3Zm0,4.6v2.3h-4.6v-2.3Zm10.328,20.707a31.546,31.546,0,0,0-.47-4.6h4.85a12.559,12.559,0,0,1,1.339,4.6Zm-11.454,0a28.6,28.6,0,0,1,.529-4.6h8.1a28.488,28.488,0,0,1,.529,4.6Zm9.154,2.3a28.647,28.647,0,0,1-.529,4.6h-8.1a28.441,28.441,0,0,1-.529-4.6Zm1.3-9.2a15.906,15.906,0,0,0-1.6-3.844,12.688,12.688,0,0,1,5.481,3.844Zm-2.411,0h-6.924c.908-2.845,2.226-4.6,3.462-4.6S1802.573,397.175,1803.481,400.021Zm-9.868,2.3a31.594,31.594,0,0,0-.471,4.6h-5.718a12.535,12.535,0,0,1,1.339-4.6Zm-.471,6.9a31.6,31.6,0,0,0,.471,4.6h-4.851a12.563,12.563,0,0,1-1.339-4.6Zm3.416,6.9h6.925c-.908,2.845-2.227,4.6-3.462,4.6S1797.465,418.971,1796.557,416.127Zm14.719-2.3h-4.85a31.452,31.452,0,0,0,.471-4.6h5.719a12.55,12.55,0,0,1-1.339,4.6Zm8.3-27.61h-11.5v-2.3h11.5Zm-6.9-4.6h-6.9v4.6h-4.6v6.961c-.38-.03-.761-.059-1.151-.059s-.769.028-1.15.059V372.411h13.8Zm-5.861-20.708h2.518l.92,9.2h-4.36Zm-12.545,6.9h4.6v2.3h-4.6Zm2.3,4.6v2.3h-4.6v-2.3Zm-4.6,18.407h4.6v2.718a14.85,14.85,0,0,0-4.6,1.955Zm0,29.838a14.849,14.849,0,0,0,16.106,0v6.975h-16.106Zm27.61,6.975h-4.6v-9.2h4.6Zm13.8,0h-4.6v-9.2h4.6Zm13.8,0h-4.6v-9.2h4.6Zm2.3,0v-11.5h-9.2v11.5h-4.6v-11.5h-9.2v11.5h-4.6v-11.5h-9.2v11.5h-2.3v-8.79a14.95,14.95,0,0,0,4.184-7.315h37.23V427.63Zm2.3-18.407h-36.871c.03-.38.058-.761.058-1.15s-.029-.769-.058-1.15h36.871Z" transform="translate(-1785.064 -358.606)" fill="#00223d"/>
    <path id="Trazado_27785" data-name="Trazado 27785" d="M1879.317,373.7h-2.332a5.185,5.185,0,0,0-5.146-4.6h-2.876v2.3h2.876a2.879,2.879,0,0,1,2.876,2.875V376h4.6a3.451,3.451,0,0,1,0,6.9h-3.451a3.455,3.455,0,0,0-3.451,3.451v1.15h2.3v-1.15a1.151,1.151,0,0,1,1.151-1.15h3.451a5.752,5.752,0,1,0,0-11.5Z" transform="translate(-1813.744 -362.191)" fill="#00223d"/>
    <path id="Trazado_27786" data-name="Trazado 27786" d="M1851.439,385.2h8.053a1.151,1.151,0,0,1,1.151,1.15v1.15h2.3v-1.15a3.455,3.455,0,0,0-3.452-3.451h-8.053a1.15,1.15,0,0,1,0-2.3h6.9v-2.3h-2.3a3.451,3.451,0,1,1,0-6.9h3.451v-2.3h-3.451a5.759,5.759,0,0,0-5.752,5.752,5.691,5.691,0,0,0,1.18,3.451h-.03a3.451,3.451,0,0,0,0,6.9Z" transform="translate(-1806.574 -362.191)" fill="#00223d"/>
    <path id="Trazado_27787" data-name="Trazado 27787" d="M1837.5,407.548h2.3v2.3h-2.3Z" transform="translate(-1802.989 -375.336)" fill="#00223d"/>
    <path id="Trazado_27788" data-name="Trazado 27788" d="M1816.526,407.548h2.3v2.3h-2.3Z" transform="translate(-1795.819 -375.336)" fill="#00223d"/>
    <path id="Trazado_27789" data-name="Trazado 27789" d="M1823.518,407.548h2.3v2.3h-2.3Z" transform="translate(-1798.209 -375.336)" fill="#00223d"/>
    <path id="Trazado_27790" data-name="Trazado 27790" d="M1830.509,407.548h2.3v2.3h-2.3Z" transform="translate(-1800.599 -375.336)" fill="#00223d"/>
    <path id="Trazado_27791" data-name="Trazado 27791" d="M1837.5,414.539h2.3v2.3h-2.3Z" transform="translate(-1802.989 -377.726)" fill="#00223d"/>
    <path id="Trazado_27792" data-name="Trazado 27792" d="M1830.509,414.539h2.3v2.3h-2.3Z" transform="translate(-1800.599 -377.726)" fill="#00223d"/>
    <path id="Trazado_27793" data-name="Trazado 27793" d="M1830.509,421.531h2.3v2.3h-2.3Z" transform="translate(-1800.599 -380.116)" fill="#00223d"/>
    <path id="Trazado_27794" data-name="Trazado 27794" d="M1837.5,421.531h2.3v2.3h-2.3Z" transform="translate(-1802.989 -380.116)" fill="#00223d"/>
  </g>
</svg>
