<svg id="Grupo_1084901" data-name="Grupo 1084901" xmlns="http://www.w3.org/2000/svg" width="78" height="76.409" viewBox="0 0 78 76.409">
  <path id="Trazado_27840" data-name="Trazado 27840" d="M1667.135,372.381H1726.1l-7.641,31.842-43.484.124Z" transform="translate(-1649.33 -361.189)" fill="#eaeaea"/>
  <path id="Trazado_27841" data-name="Trazado 27841" d="M1677.212,413.433l.727,2.965,43.484-.123.707-2.947Z" transform="translate(-1652.296 -374.891)" fill="#cbcbcb"/>
  <path id="Trazado_27842" data-name="Trazado 27842" d="M1706.489,417.13h-46.958c-4.5,0-8.159-3.953-8.159-8.812a8.72,8.72,0,0,1,6.246-8.568l-8.026-35.359a.4.4,0,0,0-.379-.321H1637.98a2.958,2.958,0,0,1,0-5.9h11.234a5.946,5.946,0,0,1,5.684,4.816l8.439,37.178a4.469,4.469,0,0,1-.723,3.621,3.8,3.8,0,0,1-3.084,1.621,2.921,2.921,0,0,0,0,5.825h46.958a2.959,2.959,0,0,1,0,5.9Z" transform="translate(-1634.017 -355.48)" fill="#ff9751"/>
  <g id="Grupo_17493" data-name="Grupo 17493" transform="translate(1.232 4.161)">
    <g id="Grupo_17492" data-name="Grupo 17492">
      <path id="Trazado_27843" data-name="Trazado 27843" d="M1719.462,434.472H1668.74a8.826,8.826,0,0,1-8.687-7.34,8.813,8.813,0,0,0,8.687,10.3h50.721a2.947,2.947,0,0,0,2.55-4.428,2.946,2.946,0,0,1-2.55,1.472Z" transform="translate(-1648.441 -379.939)" fill="#ff9751"/>
      <path id="Trazado_27844" data-name="Trazado 27844" d="M1650.333,362.548a.821.821,0,0,0-.821-.821H1638.2a2.947,2.947,0,0,1-2.55-1.472,2.938,2.938,0,0,0-.39,1.713,3.005,3.005,0,0,0,3.023,2.715h12.051v-2.135Z" transform="translate(-1635.249 -360.255)" fill="#da4a54"/>
    </g>
  </g>
  <ellipse id="Elipse_1061" data-name="Elipse 1061" cx="9.794" cy="9.794" rx="9.794" ry="9.794" transform="translate(51.246 55.589)" fill="#8c808a"/>
  <path id="Trazado_27845" data-name="Trazado 27845" d="M1724.318,461.822a9.8,9.8,0,0,1-9.683-8.316,9.9,9.9,0,0,0-.111,1.478A9.794,9.794,0,1,0,1734,453.506a9.8,9.8,0,0,1-9.682,8.316Z" transform="translate(-1663.278 -389.602)" fill="#7b7179"/>
  <ellipse id="Elipse_1062" data-name="Elipse 1062" cx="9.794" cy="9.794" rx="9.794" ry="9.794" transform="translate(23.911 55.589)" fill="#8c808a"/>
  <path id="Trazado_27846" data-name="Trazado 27846" d="M1680.62,461.822a9.8,9.8,0,0,1-9.683-8.316,9.9,9.9,0,0,0-.111,1.478,9.794,9.794,0,1,0,19.477-1.478,9.8,9.8,0,0,1-9.683,8.316Z" transform="translate(-1646.915 -389.602)" fill="#7b7179"/>
  <path id="Trazado_27847" data-name="Trazado 27847" d="M1633.5,354.358" transform="translate(-1633.503 -354.358)" fill="#7b7179"/>
  <ellipse id="Elipse_1063" data-name="Elipse 1063" cx="4.743" cy="4.743" rx="4.743" ry="4.743" transform="translate(28.889 60.64)" fill="#f9ef63"/>
  <path id="Trazado_27848" data-name="Trazado 27848" d="M1682.727,456.77a4.743,4.743,0,0,1-4.507-3.264,4.743,4.743,0,1,0,9.013,0A4.743,4.743,0,0,1,1682.727,456.77Z" transform="translate(-1649.095 -389.602)" fill="#f1d333"/>
  <ellipse id="Elipse_1064" data-name="Elipse 1064" cx="4.743" cy="4.743" rx="4.743" ry="4.743" transform="translate(56.297 60.64)" fill="#f9ef63"/>
  <path id="Trazado_27849" data-name="Trazado 27849" d="M1726.425,456.77a4.743,4.743,0,0,1-4.506-3.264,4.743,4.743,0,1,0,9.013,0A4.743,4.743,0,0,1,1726.425,456.77Z" transform="translate(-1665.385 -389.602)" fill="#f1d333"/>
  <g id="Grupo_17494" data-name="Grupo 17494" transform="translate(0 1.458)">
    <path id="Trazado_27850" data-name="Trazado 27850" d="M1718.948,417.95h-20.392a1.232,1.232,0,0,0,0,2.464h20.392a1.718,1.718,0,1,1,0,3.437h-50.721a7.581,7.581,0,0,1-1.776-14.952,1.231,1.231,0,0,0,.907-1.491l-5.218-21.281a1.232,1.232,0,0,0-2.393.586l4.941,20.153a10.046,10.046,0,0,0,3.538,19.448h1.735a11.023,11.023,0,0,0-3.553,11.966,1.232,1.232,0,0,0,2.344-.76,8.571,8.571,0,1,1,2.319,3.629,1.232,1.232,0,1,0-1.677,1.8,11.023,11.023,0,1,0,14.442-16.64H1700.8a11.026,11.026,0,1,0,13.873,0h4.276a4.182,4.182,0,1,0,0-8.364Zm-2.651,16.926a8.562,8.562,0,1,1-8.562-8.562A8.572,8.572,0,0,1,1716.3,434.876Z" transform="translate(-1646.695 -370.951)" fill="#00223d"/>
    <path id="Trazado_27851" data-name="Trazado 27851" d="M1711.257,365.776a1.163,1.163,0,0,0-.9-.418h-53.9l-.974-3.807a6.954,6.954,0,0,0-6.818-5.127h-11.277a3.729,3.729,0,1,0,0,7.451h10.686l2.049,8.011a1.149,1.149,0,0,0,1.385.8,1.1,1.1,0,0,0,.839-1.327l-2.19-8.561a1.522,1.522,0,0,0-1.492-1.122h-11.277a1.532,1.532,0,1,1,0-3.061h11.277a4.685,4.685,0,0,1,4.594,3.454l8.472,33.12a2.573,2.573,0,0,1-.515,2.287,2.819,2.819,0,0,1-2.195,1.023,3.695,3.695,0,1,0,0,7.383h23.608a1.1,1.1,0,1,0,0-2.195h-23.608a1.5,1.5,0,1,1,0-2.994,5.13,5.13,0,0,0,4-1.864,4.715,4.715,0,0,0,1.081-2.809l39.16-.107a1.135,1.135,0,0,0,1.11-.841l7.1-28.366a1.062,1.062,0,0,0-.215-.935Zm-6.536,18.493h-6.959l1.482-7.26h7.295Zm-7.362-9.455h-7.181l.658-7.261h8.005Zm-8.9,18.952.661-7.3h5.859l-1.487,7.287Zm-15.925.043-1.5-7.344h5.859l.664,7.331Zm-8.795.024-1.884-7.368h6.847l1.5,7.351Zm14.4-19.019-.658-7.261h11.056l-.658,7.261Zm9.542,2.2-.658,7.26H1679l-.658-7.26Zm-10.983,7.26h-6.108l-1.482-7.26h6.932Zm-.856-9.455h-7.182l-1.482-7.261h8.006Zm-7.586,9.455h-6.96l-1.857-7.26h7.336Zm10.938,2.2h7.63l-.662,7.307-6.3.017Zm10.127-2.2.658-7.26h6.933l-1.482,7.26Zm-24.476-16.716,1.482,7.261h-7.45l-1.857-7.261Zm37.508,26.174-6.524.018,1.486-7.281h6.857Zm4.736-18.914h-7.4l1.481-7.261h7.732Z" transform="translate(-1633.503 -356.424)" fill="#00223d"/>
    <path id="Trazado_27852" data-name="Trazado 27852" d="M1682.213,459.083a5.975,5.975,0,1,0-5.975-5.974A5.982,5.982,0,0,0,1682.213,459.083Zm0-9.485a3.511,3.511,0,1,1-3.511,3.511A3.515,3.515,0,0,1,1682.213,449.6Z" transform="translate(-1648.565 -389.184)" fill="#00223d"/>
    <path id="Trazado_27853" data-name="Trazado 27853" d="M1725.911,459.083a5.975,5.975,0,1,0-5.974-5.974A5.981,5.981,0,0,0,1725.911,459.083Zm0-9.485a3.511,3.511,0,1,1-3.511,3.511A3.515,3.515,0,0,1,1725.911,449.6Z" transform="translate(-1664.871 -389.184)" fill="#00223d"/>
  </g>
</svg>
