<svg xmlns="http://www.w3.org/2000/svg" xmlns:xlink="http://www.w3.org/1999/xlink" width="96" height="95" viewBox="0 0 96 95">
  <defs>
    <linearGradient id="linear-gradient" x1="0.5" x2="0.5" y2="1" gradientUnits="objectBoundingBox">
      <stop offset="0" stop-color="#fff"/>
      <stop offset="1" stop-color="#e9e9e9"/>
    </linearGradient>
    <filter id="Elipse_7662" x="0" y="0" width="96" height="95" filterUnits="userSpaceOnUse">
      <feOffset dy="3" input="SourceAlpha"/>
      <feGaussianBlur stdDeviation="3" result="blur"/>
      <feFlood flood-opacity="0.161"/>
      <feComposite operator="in" in2="blur"/>
      <feComposite in="SourceGraphic"/>
    </filter>
  </defs>
  <g id="Grupo_1101056" data-name="Grupo 1101056" transform="translate(-806 -6008)">
    <g transform="matrix(1, 0, 0, 1, 806, 6008)" filter="url(#Elipse_7662)">
      <ellipse id="Elipse_7662-2" data-name="Elipse 7662" cx="39" cy="38.5" rx="39" ry="38.5" transform="translate(9 6)" fill="url(#linear-gradient)"/>
    </g>
    <g id="Grupo_17456" data-name="Grupo 17456" transform="translate(375.773 -2892.718)">
      <path id="Trazado_27560" data-name="Trazado 27560" d="M762.638,1834.868c0,1.88,1.717,1.88,1.717,3.769s-1.717,1.889-1.717,3.777,1.717,1.889,1.717,3.786c0,.12-.008.232-.017.344l-1.614.541a5.206,5.206,0,0,0-1.8,1.056v-2.455H745.468v14.594a.861.861,0,0,0,.858.859h18.029a3.433,3.433,0,0,1-3.434,3.434H745.468a3.433,3.433,0,0,1-3.434-3.434V1837.1a3.433,3.433,0,0,1,3.434-3.434h15.453a3.432,3.432,0,0,1,1.811.515A2.339,2.339,0,0,0,762.638,1834.868Z" transform="translate(-289.176 7105.513)" fill="#ccd1d9"/>
      <path id="Trazado_27561" data-name="Trazado 27561" d="M749.262,1858.963v14.594a.861.861,0,0,0,.858.859H763v-9.169a4.927,4.927,0,0,1,.129-1.133,5.039,5.039,0,0,1,1.588-2.7v-2.455Z" transform="translate(-292.969 7092.236)" fill="#fcd770"/>
      <path id="Trazado_27562" data-name="Trazado 27562" d="M749.262,1840.894h15.453v5.151H749.262Z" transform="translate(-292.969 7101.72)" fill="#69d6f4"/>
      <path id="Trazado_27563" data-name="Trazado 27563" d="M756.04,1817.545h-6.13a8.585,8.585,0,1,1,12.26,0Z" transform="translate(-292.021 7121.635)" fill="#fcd770"/>
      <path id="Trazado_27564" data-name="Trazado 27564" d="M826.506,1873.467H818.78l-.859-8.585,1.485-2.481,1.949,1.623,1.717-6.868,5.177,1.725,1.606.533a5.152,5.152,0,0,1,3.52,4.884v9.169Z" transform="translate(-329.006 7093.185)" fill="#e6e9ed"/>
      <path id="Trazado_27565" data-name="Trazado 27565" d="M785.039,1873.467h-6.868V1864.3a4.92,4.92,0,0,1,.129-1.133,5.04,5.04,0,0,1,1.588-2.7,5.2,5.2,0,0,1,1.8-1.056l1.614-.541,5.168-1.717,1.717,6.868,1.948-1.623,1.485,2.481-.859,8.585Z" transform="translate(-308.142 7093.185)" fill="#e6e9ed"/>
      <path id="Trazado_27566" data-name="Trazado 27566" d="M821.176,1856.208l-1.717,6.868-1.949-1.623-3.2-2.67,4.292-3.434Z" transform="translate(-327.11 7094.133)" fill="#aab2bd"/>
      <path id="Trazado_27567" data-name="Trazado 27567" d="M806.721,1858.783l-3.2,2.67-1.948,1.623-1.717-6.868,2.575-.859Z" transform="translate(-319.523 7094.133)" fill="#aab2bd"/>
      <path id="Trazado_27568" data-name="Trazado 27568" d="M813.972,1865.246l-3.2-2.67-3.2,2.67,1.485,2.481-.859,8.585h5.151l-.859-8.585Z" transform="translate(-323.572 7090.34)" fill="#ff826e"/>
      <path id="Trazado_27569" data-name="Trazado 27569" d="M808.32,1805.756a17.571,17.571,0,0,1-12.439-5.151,4.526,4.526,0,0,0-3.426,4.292h-.009a3.433,3.433,0,0,0-3.434,3.434v-6.01a12.019,12.019,0,1,1,24.038,0v6.01a3.429,3.429,0,0,0-3.434-3.434v.859Z" transform="translate(-313.833 7128.273)" fill="#b27946"/>
      <path id="Trazado_27570" data-name="Trazado 27570" d="M831.068,1828.247c0,1.889,1.717,1.889,1.717,3.777s-1.717,1.88-1.717,3.769,1.717,1.889,1.717,3.777-1.717,1.889-1.717,3.786a2.332,2.332,0,0,0,.026.351l-5.177-1.725-2.575-.859v-2.867a8.581,8.581,0,0,0,4.25-6.576h.043A3.433,3.433,0,0,0,831.068,1828.247Z" transform="translate(-331.851 7108.357)" fill="#b27946"/>
      <path id="Trazado_27571" data-name="Trazado 27571" d="M794.841,1838.257v2.867l-2.575.859L787.1,1843.7c.008-.112.017-.223.017-.344,0-1.9-1.717-1.9-1.717-3.786s1.717-1.888,1.717-3.777-1.717-1.889-1.717-3.769a2.334,2.334,0,0,1,.095-.687c.352-1.236,1.623-1.468,1.623-3.09a3.429,3.429,0,0,0,3.434,3.434h.043a8.606,8.606,0,0,0,4.25,6.576Z" transform="translate(-311.936 7108.357)" fill="#b27946"/>
      <g id="Grupo_17355" data-name="Grupo 17355" transform="translate(475.179 8928.878)">
        <path id="Trazado_27572" data-name="Trazado 27572" d="M813.858,1849.315v2.867l-4.292,3.434-4.293-3.434v-2.867a8.587,8.587,0,0,0,8.585,0Z" transform="translate(-797.547 -1831.578)" fill="#f0d0b4"/>
        <path id="Trazado_27573" data-name="Trazado 27573" d="M834.758,1822.023a3.436,3.436,0,0,1-2.429,5.864h-.043c.026-.284.043-.567.043-.859v-6.01A3.456,3.456,0,0,1,834.758,1822.023Z" transform="translate(-811.725 -1816.727)" fill="#f0d0b4"/>
        <path id="Trazado_27574" data-name="Trazado 27574" d="M805.373,1815.8a17.64,17.64,0,0,0,6.739,1.339h1.3v5.151c0,.292-.017.575-.043.859a8.586,8.586,0,0,1-17.084,0c-.026-.284-.043-.567-.043-.859v-5.906a.421.421,0,0,1,.009-.1,4.526,4.526,0,0,1,3.426-4.292A17.584,17.584,0,0,0,805.373,1815.8Z" transform="translate(-792.805 -1811.985)" fill="#f0d0b4"/>
        <path id="Trazado_27575" data-name="Trazado 27575" d="M792.446,1821.122v5.906c0,.292.017.575.043.859h-.043a3.434,3.434,0,0,1,0-6.868h.009A.422.422,0,0,0,792.446,1821.122Z" transform="translate(-789.012 -1816.727)" fill="#f0d0b4"/>
      </g>
      <path id="Trazado_27576" data-name="Trazado 27576" d="M805.184,1825.491a.858.858,0,1,1-.859-.858A.859.859,0,0,1,805.184,1825.491Z" transform="translate(-321.42 7110.254)" fill="#00223d"/>
      <path id="Trazado_27577" data-name="Trazado 27577" d="M823.252,1825.491a.859.859,0,1,1-.859-.858A.859.859,0,0,1,823.252,1825.491Z" transform="translate(-330.903 7110.254)" fill="#00223d"/>
      <path id="Trazado_27578" data-name="Trazado 27578" d="M810.514,1839a1.719,1.719,0,0,1-1.717-1.717H807.08a3.434,3.434,0,1,0,6.868,0h-1.717A1.718,1.718,0,0,1,810.514,1839Z" transform="translate(-323.316 7103.616)" fill="#00223d"/>
      <path id="Trazado_27579" data-name="Trazado 27579" d="M789.344,1822.565l-1.013-.338a1.892,1.892,0,0,1,.607-1.051,3.353,3.353,0,0,0,0-4.933,1.67,1.67,0,0,1,0-2.621,3.347,3.347,0,0,0,0-4.93,1.709,1.709,0,0,1-.634-1.309v-6.01a12.877,12.877,0,1,0-25.755,0v6.01a1.709,1.709,0,0,1-.634,1.309,5.9,5.9,0,0,0-.535.653,4.286,4.286,0,0,0-1.224-.233,9.443,9.443,0,1,0-15.814.006,4.289,4.289,0,0,0-4.113,4.274v24.038a4.3,4.3,0,0,0,4.293,4.292h15.453a4.3,4.3,0,0,0,4.205-3.434h29.275v-10.024A6,6,0,0,0,789.344,1822.565Zm-1.676-12.718a1.668,1.668,0,0,1,0,2.618,3.35,3.35,0,0,0,0,4.932,1.671,1.671,0,0,1,0,2.623,3.719,3.719,0,0,0-.985,1.656l-6.106-2.035v-1.778a9.453,9.453,0,0,0,4.139-6.259,4.293,4.293,0,0,0,2.868-1.85C787.611,1809.785,787.641,1809.818,787.668,1809.848Zm-12.243,7.837a7.735,7.735,0,0,1-7.727-7.727v-5.9a3.67,3.67,0,0,1,2.344-3.426,18.318,18.318,0,0,0,12.667,5.037h.442v4.292A7.735,7.735,0,0,1,775.425,1817.685Zm0,1.717a9.38,9.38,0,0,0,3.434-.656v1.1l-3.434,2.748-3.434-2.748v-1.1A9.382,9.382,0,0,0,775.425,1819.4Zm-4.464,1.821,3.107,2.485-3.292,2.744-1.194-4.77Zm3.524,8.481h1.88l.687,6.868H773.8Zm2.171-1.717h-2.462l-.86-1.433,2.091-1.742,2.09,1.742Zm.126-4.279,3.107-2.485,1.377.459-1.193,4.77Zm8.086-18.743a2.56,2.56,0,0,1,0,4.835Zm-9.443-14.752a11.173,11.173,0,0,1,11.16,11.16v2.6a4.247,4.247,0,0,0-1.717-.793v-2.663h-1.717v3.434h-.442a16.615,16.615,0,0,1-11.828-4.9l-.343-.344-.472.118a5.382,5.382,0,0,0-4.01,4.346,4.252,4.252,0,0,0-1.791.8v-2.6A11.173,11.173,0,0,1,775.425,1790.213Zm-11.16,17.17a2.571,2.571,0,0,1,1.717-2.418v4.834A2.57,2.57,0,0,1,764.265,1807.383Zm-1.083,2.464.086-.1a4.316,4.316,0,0,0,2.866,1.849,9.449,9.449,0,0,0,4.14,6.262v1.779l-6.106,2.036a3.715,3.715,0,0,0-.985-1.656,1.673,1.673,0,0,1,0-2.624,3.35,3.35,0,0,0,0-4.931,1.669,1.669,0,0,1,0-2.619Zm-10.936-13.625a7.717,7.717,0,0,1,5.747,12.877H753.1v-1.016a2.569,2.569,0,0,0-.859-4.993.858.858,0,1,1,.859-.858h1.717a2.572,2.572,0,0,0-1.717-2.417v-1.875h-1.717v1.875a2.569,2.569,0,0,0,.859,4.993.859.859,0,1,1-.859.859h-1.717a2.572,2.572,0,0,0,1.717,2.417v1.016H746.5a7.717,7.717,0,0,1,5.747-12.877Zm10.3,40.349v.859a2.578,2.578,0,0,1-2.575,2.575H744.52a2.579,2.579,0,0,1-2.576-2.575v-24.038a2.579,2.579,0,0,1,2.576-2.575h15.453a2.564,2.564,0,0,1,.87.157c0,.061-.011.118-.011.182a3.386,3.386,0,0,0,1.083,2.465,1.67,1.67,0,0,1,0,2.621,3.352,3.352,0,0,0,0,4.933,1.9,1.9,0,0,1,.607,1.051l-1.013.338a6.073,6.073,0,0,0-.675.286v-1.731H743.661v15.453a1.719,1.719,0,0,0,1.717,1.717h15.453v-1.717h-1.717v-8.307a4.287,4.287,0,0,1,2.935-4.072l5.9-1.967,1.823,7.3,2.227-1.855.826,1.377-.753,7.528h-6.091v-.355l-.755-.754a3.288,3.288,0,0,1,0-4.648l.755-.755v-2.072h-1.717v1.361l-.252.251a4.994,4.994,0,0,0-.093,6.972Zm-5.151,0H755.68v-3.434H757.4Zm-6.868-10.3v-3.434h3.434v3.434Zm3.434,1.717v3.434h-3.434v-3.434Zm-5.151-1.717h-3.434v-3.434h3.434Zm-3.434,1.717h3.434v3.434h-3.434Zm0,5.151h3.434v3.434h-3.434Zm5.151,0h3.434v3.434h-3.434Zm6.868-4.873v3.156H755.68v-3.434h1.74C757.415,1828.08,757.4,1828.17,757.4,1828.265Zm.35-2H755.68v-3.434h3.434v1.223A5.991,5.991,0,0,0,757.747,1826.269Zm33.99,10.3h-4.806a4.994,4.994,0,0,0-.094-6.972l-.252-.251v-1.361h-1.717v2.072l.754.755a3.288,3.288,0,0,1,0,4.648l-.754.754v.355h-6.091l-.753-7.529.826-1.377,2.227,1.855,1.824-7.3,5.9,1.967a4.289,4.289,0,0,1,2.935,4.072Z" transform="translate(-288.227 7129.222)" fill="#00223d"/>
      <path id="Trazado_27580" data-name="Trazado 27580" d="M747.455,1839.088v6.868h17.169v-6.868Zm15.453,5.151H749.172V1840.8h13.736Z" transform="translate(-292.021 7102.667)" fill="#00223d"/>
    </g>
  </g>
</svg>
