<svg id="Dairy_Product" data-name="Dairy Product" xmlns="http://www.w3.org/2000/svg" width="76.407" height="76.408" viewBox="0 0 76.407 76.408">
  <g id="Filled" transform="translate(1.194 1.194)">
    <path id="Trazado_27795" data-name="Trazado 27795" d="M637.343,381h21.49v54.918h-21.49Z" transform="translate(-637.343 -361.895)" fill="#e2dbd5"/>
    <path id="Trazado_27796" data-name="Trazado 27796" d="M658.833,371.739h-21.49l7.163-11.939H666Z" transform="translate(-637.343 -352.637)" fill="#efebe8"/>
    <path id="Trazado_27797" data-name="Trazado 27797" d="M689.872,426.656H675.5V371.739l7.188-11.939,7.188,11.939Z" transform="translate(-654.006 -352.637)" fill="#d4ccc7"/>
    <path id="Trazado_27798" data-name="Trazado 27798" d="M682.684,426.656H675.5V371.739l7.188-11.939Z" transform="translate(-654.006 -352.637)" fill="#c6bab3"/>
    <path id="Trazado_27799" data-name="Trazado 27799" d="M637.343,402.192h21.49v31.041h-21.49Z" transform="translate(-637.343 -371.152)" fill="#ff9751"/>
    <path id="Trazado_27800" data-name="Trazado 27800" d="M717.888,347.083h14.326v9.551H717.888Z" transform="translate(-672.521 -347.083)" fill="#ffead2"/>
    <path id="Trazado_27801" data-name="Trazado 27801" d="M709.409,404.631v-21.49l.24-2.388a11.95,11.95,0,0,1,4.535-7.163s2.388-2.388-1.164-5.357c-1.546-1.292-1.606-4.2.99-4.193h14.675c2.5-.013,2.595,2.851.99,4.193-3.552,2.969-1.164,5.357-1.164,5.357a11.941,11.941,0,0,1,4.775,9.551v21.49Z" transform="translate(-668.818 -354.489)" fill="#f09b73"/>
    <path id="Trazado_27802" data-name="Trazado 27802" d="M709.409,408.7v8.563h23.877v-21.49a11.937,11.937,0,0,0-.335-2.807A31.049,31.049,0,0,1,709.409,408.7Z" transform="translate(-668.818 -367.124)" fill="#e58b6c"/>
    <path id="Trazado_27803" data-name="Trazado 27803" d="M650.061,347.083H671.55v7.163H650.061Z" transform="translate(-642.898 -347.083)" fill="#d4ccc7"/>
    <path id="Trazado_27804" data-name="Trazado 27804" d="M722.312,414c-4.583,1.239-6.058-4.9-2.562-6.654l-1.983-5.152h-8.357v42.979c7.163,0,17.658-.884,22.684-5.77Z" transform="translate(-668.818 -371.152)" fill="#eed60f"/>
    <path id="Trazado_27805" data-name="Trazado 27805" d="M698.3,402.192l-4.157,10.8c5.306.872,2.14,9.537-2.525,6.558l-3.858,10.019a3.626,3.626,0,0,1-2.326,6.041l-1.461,3.792a20.672,20.672,0,0,0,28.653,0Z" transform="translate(-657.709 -371.152)" fill="#f8e868"/>
    <path id="Trazado_27806" data-name="Trazado 27806" d="M685.282,457.289a20.681,20.681,0,0,0,27.916-.681l-5.783-15.018a29.87,29.87,0,0,1-22.133,15.7Z" transform="translate(-658.28 -388.359)" fill="#f6e23d"/>
    <ellipse id="Elipse_1044" data-name="Elipse 1044" cx="2.388" cy="2.388" rx="2.388" ry="2.388" transform="translate(42.979 60.887)" fill="#f8e868"/>
    <ellipse id="Elipse_1045" data-name="Elipse 1045" cx="2.388" cy="2.388" rx="2.388" ry="2.388" transform="translate(39.397 52.53)" fill="#f6e23d"/>
    <ellipse id="Elipse_1046" data-name="Elipse 1046" cx="2.388" cy="2.388" rx="2.388" ry="2.388" transform="translate(33.428 64.468)" fill="#f6e23d"/>
    <g id="Grupo_17489" data-name="Grupo 17489" transform="translate(33.428 52.529)">
      <path id="Trazado_27807" data-name="Trazado 27807" d="M717.23,457.569a2.38,2.38,0,0,1,1.172.309,2.354,2.354,0,0,0,.022-.309,2.388,2.388,0,1,0-3.56,2.08A2.387,2.387,0,0,1,717.23,457.569Z" transform="translate(-704.098 -446.823)" fill="#eed60f"/>
      <path id="Trazado_27808" data-name="Trazado 27808" d="M710.872,442.732a2.378,2.378,0,0,1,1.172.309,2.319,2.319,0,0,0,.022-.309,2.388,2.388,0,1,0-3.559,2.079A2.387,2.387,0,0,1,710.872,442.732Z" transform="translate(-701.321 -440.343)" fill="#eed60f"/>
      <path id="Trazado_27809" data-name="Trazado 27809" d="M700.274,463.928a2.378,2.378,0,0,1,1.172.309,2.357,2.357,0,0,0,.022-.309,2.388,2.388,0,1,0-3.559,2.079A2.386,2.386,0,0,1,700.274,463.928Z" transform="translate(-696.692 -449.6)" fill="#eed60f"/>
    </g>
    <path id="Trazado_27810" data-name="Trazado 27810" d="M736.217,356.634v-9.551h-3.638a13.118,13.118,0,0,1-5.527,9.551Z" transform="translate(-676.524 -347.083)" fill="#faddc3"/>
    <ellipse id="Elipse_1047" data-name="Elipse 1047" cx="2.388" cy="2.388" rx="2.388" ry="2.388" transform="translate(38.204 38.203)" fill="#fcf5be"/>
    <ellipse id="Elipse_1048" data-name="Elipse 1048" cx="1.194" cy="1.194" rx="1.194" ry="1.194" transform="translate(41.785 44.173)" fill="#fcf5be"/>
    <ellipse id="Elipse_1049" data-name="Elipse 1049" cx="2.985" cy="2.985" rx="2.985" ry="2.985" transform="translate(48.948 17.908)" fill="#f2bba5"/>
    <ellipse id="Elipse_1050" data-name="Elipse 1050" cx="1.791" cy="1.791" rx="1.791" ry="1.791" transform="translate(54.917 23.877)" fill="#f2bba5"/>
    <ellipse id="Elipse_1051" data-name="Elipse 1051" cx="2.388" cy="2.388" rx="2.388" ry="2.388" transform="translate(5.969 10.745)" fill="#fff"/>
    <ellipse id="Elipse_1052" data-name="Elipse 1052" cx="1.194" cy="1.194" rx="1.194" ry="1.194" transform="translate(10.745 15.52)" fill="#fff"/>
    <path id="Trazado_27811" data-name="Trazado 27811" d="M637.343,430.24v7.967h21.49V413.581A32.286,32.286,0,0,1,637.343,430.24Z" transform="translate(-637.343 -376.126)" fill="#ff9751"/>
    <path id="Trazado_27812" data-name="Trazado 27812" d="M726.366,431.867l2.388,26.265h16.714l2.388-26.265Z" transform="translate(-676.224 -384.113)" fill="#81c784"/>
    <ellipse id="Elipse_1053" data-name="Elipse 1053" cx="2.388" cy="2.388" rx="2.388" ry="2.388" transform="translate(52.53 51.336)" fill="#c8e6c9"/>
    <ellipse id="Elipse_1054" data-name="Elipse 1054" cx="1.194" cy="1.194" rx="1.194" ry="1.194" transform="translate(57.305 56.111)" fill="#c8e6c9"/>
    <path id="Trazado_27813" data-name="Trazado 27813" d="M730.138,464.615h16.714l1.627-17.9a25.647,25.647,0,0,1-18.944,11.273Z" transform="translate(-677.608 -390.596)" fill="#66bb6a"/>
    <path id="Trazado_27814" data-name="Trazado 27814" d="M657.761,425.654a5.969,5.969,0,1,1-11.939,0c0-3.3,5.969-10.744,5.969-10.744S657.761,422.358,657.761,425.654Z" transform="translate(-641.046 -376.707)" fill="#fff"/>
    <path id="Trazado_27815" data-name="Trazado 27815" d="M658.307,431.065a10.979,10.979,0,0,1-10.465,5.149,5.968,5.968,0,0,0,10.8-3.5A5.225,5.225,0,0,0,658.307,431.065Z" transform="translate(-641.929 -383.762)" fill="#efebe8"/>
  </g>
  <g id="Outline" transform="translate(0 0)">
    <path id="Trazado_27816" data-name="Trazado 27816" d="M715.111,455.454a1.194,1.194,0,0,0,1.193-1.194c0-2.284-4.775-1.162-4.775,2.388s4.775,4.68,4.775,2.388a1.194,1.194,0,0,0-1.193-1.194,1.194,1.194,0,1,1,0-2.388Z" transform="translate(-668.55 -392.18)" fill="#00223d"/>
    <path id="Trazado_27817" data-name="Trazado 27817" d="M712.333,441.807a3.582,3.582,0,1,0-3.582,3.582A3.582,3.582,0,0,0,712.333,441.807Zm-4.776,0A1.194,1.194,0,1,1,708.752,443,1.194,1.194,0,0,1,707.558,441.807Z" transform="translate(-665.773 -385.695)" fill="#00223d"/>
    <path id="Trazado_27818" data-name="Trazado 27818" d="M698.154,459.421A3.582,3.582,0,1,0,701.735,463,3.582,3.582,0,0,0,698.154,459.421Zm0,4.776A1.194,1.194,0,1,1,699.348,463,1.194,1.194,0,0,1,698.154,464.2Z" transform="translate(-661.144 -394.953)" fill="#00223d"/>
    <path id="Trazado_27819" data-name="Trazado 27819" d="M703.659,442a19.626,19.626,0,0,1-19.206-3.869l.922-2.395a4.863,4.863,0,0,0,2.822-7.327l3.153-8.19c5.155,1.592,8.223-6.661,3.439-8.933l2.586-6.718,3.512,9.121a1.194,1.194,0,0,0,2.228-.858l-4-10.392h5.8l1.345,3.494c-3.594,3-1.1,9.738,4.332,8.271a1.194,1.194,0,0,0-.6-2.309l-.018,0c-3.158.853-3.96-3.306-1.714-4.436a1.193,1.193,0,0,0,.577-1.5l-1.983-5.151a1.193,1.193,0,0,0-1.114-.765c-8.579,0-9.069-.281-9.472.765-4.117,11.128-4.585,10.938-4.079,11.82a1.193,1.193,0,0,0,.842.585c2.583.425,1.946,3.508.56,4.485a1.891,1.891,0,0,1-2.249-.111,1.194,1.194,0,0,0-1.649.364,1.224,1.224,0,0,0-.107.213l-3.858,10.02a1.193,1.193,0,0,0,.257,1.261,2.433,2.433,0,0,1-1.542,4.018,1.193,1.193,0,0,0-1.042.763l-1.459,3.792a1.193,1.193,0,0,0,.282,1.285,21.866,21.866,0,0,0,22.207,4.952,1.194,1.194,0,0,0-.765-2.262Z" transform="translate(-655.59 -369.007)" fill="#00223d"/>
    <path id="Trazado_27820" data-name="Trazado 27820" d="M747.466,429.747H721.2a1.194,1.194,0,1,0,0,2.388h1.3l2.289,25.179a1.193,1.193,0,0,0,1.188,1.085h16.714a1.194,1.194,0,0,0,1.189-1.085l.869-9.562a1.194,1.194,0,0,0-2.375-.247l0,.032-.77,8.475H727.067L724.9,432.135h18.875l-.535,5.893a1.194,1.194,0,0,0,2.377.216l.555-6.109h1.3a1.194,1.194,0,1,0,0-2.388Z" transform="translate(-672.253 -381.993)" fill="#00223d"/>
    <path id="Trazado_27821" data-name="Trazado 27821" d="M708.671,373.591a1.194,1.194,0,0,0,1.409-.93h0a10.742,10.742,0,0,1,4.082-6.448,1.2,1.2,0,0,0,.128-.111c1.585-1.586,1.818-4.558-1.242-7.117a1.719,1.719,0,0,1-.6-1.7c.039-.106.137-.388.821-.386,14.458.275,15.183-.424,15.487.4a1.669,1.669,0,0,1-.588,1.679,5.742,5.742,0,0,0-2.372,4.076,4.155,4.155,0,0,0,1.258,3.152,10.8,10.8,0,0,1,4.3,8.6,1.194,1.194,0,1,0,2.388,0,13.2,13.2,0,0,0-5.154-10.431c-.976-1.209-.072-2.568,1.115-3.561,2.161-1.806,2.034-5.421-.736-6.174v-8.486a1.194,1.194,0,0,0-1.194-1.194H713.445a1.194,1.194,0,0,0-1.194,1.194v8.485c-2.8.746-2.9,4.365-.736,6.175,1.2,1.005,2.083,2.359,1.115,3.561a13.13,13.13,0,0,0-4.89,7.8,1.194,1.194,0,0,0,.93,1.408Zm5.968-26.241h11.939v2.388H718.22a1.194,1.194,0,0,0,0,2.388h8.357v2.388H714.639Z" transform="translate(-666.885 -344.963)" fill="#00223d"/>
    <path id="Trazado_27822" data-name="Trazado 27822" d="M652.059,430.7a1.194,1.194,0,0,0-1.193-1.194,4.781,4.781,0,0,1-4.776-4.776c0-1.817,2.637-5.936,4.776-8.793,2.139,2.856,4.775,6.975,4.775,8.793a1.194,1.194,0,1,0,2.388,0c0-3.612-5.594-10.7-6.231-11.491a1.194,1.194,0,0,0-1.678-.185,1.252,1.252,0,0,0-.185.185c-.638.8-6.231,7.879-6.231,11.491C643.7,431.312,652.059,433.58,652.059,430.7Z" transform="translate(-638.927 -374.587)" fill="#00223d"/>
    <path id="Trazado_27823" data-name="Trazado 27823" d="M662.682,418.982H659.1V365.59l5.984-9.973,6,9.973V377.2a1.194,1.194,0,1,0,2.388,0V365.258c0-.607.057-.121-7.213-12.311v-6.79a1.194,1.194,0,0,0-1.193-1.194h-21.49a1.194,1.194,0,0,0-1.194,1.194v6.833l-.955,1.592a1.194,1.194,0,0,0,2.034,1.25l.013-.022.777-1.3h18.7l-5.73,9.551h-4.1a1.194,1.194,0,1,0,0,2.388h3.581V376h-19.1v-9.551h10.745a1.194,1.194,0,1,0,0-2.388h-9.83l.041-.068a1.194,1.194,0,0,0-2.047-1.228c-1.184,1.976-1.295,2.049-1.295,2.49v54.918a1.194,1.194,0,0,0,1.194,1.194h26.265a1.194,1.194,0,1,0,0-2.388Zm-17.908-66.856v-4.776h19.1v4.776Zm11.939,66.856h-19.1v-9.551h19.1Zm0-11.939h-19.1V378.391h19.1Z" transform="translate(-635.224 -344.963)" fill="#00223d"/>
    <ellipse id="Elipse_1055" data-name="Elipse 1055" cx="1.194" cy="1.194" rx="1.194" ry="1.194" transform="translate(3.581 13.133)" fill="#00223d"/>
    <ellipse id="Elipse_1056" data-name="Elipse 1056" cx="1.194" cy="1.194" rx="1.194" ry="1.194" transform="translate(15.52 53.724)" fill="#00223d"/>
    <ellipse id="Elipse_1057" data-name="Elipse 1057" cx="1.194" cy="1.194" rx="1.194" ry="1.194" transform="translate(64.468 33.428)" fill="#00223d"/>
    <ellipse id="Elipse_1058" data-name="Elipse 1058" cx="1.194" cy="1.194" rx="1.194" ry="1.194" transform="translate(70.437 59.693)" fill="#00223d"/>
    <path id="Trazado_27824" data-name="Trazado 27824" d="M750.875,412.79a1.194,1.194,0,0,0-1.193,1.194v4.775a1.194,1.194,0,1,0,2.388,0v-4.775A1.194,1.194,0,0,0,750.875,412.79Z" transform="translate(-685.214 -374.587)" fill="#00223d"/>
  </g>
</svg>
