<svg xmlns="http://www.w3.org/2000/svg" xmlns:xlink="http://www.w3.org/1999/xlink" width="96" height="95" viewBox="0 0 96 95">
  <defs>
    <linearGradient id="linear-gradient" x1="0.5" x2="0.5" y2="1" gradientUnits="objectBoundingBox">
      <stop offset="0" stop-color="#fff"/>
      <stop offset="1" stop-color="#e9e9e9"/>
    </linearGradient>
    <filter id="Elipse_7662" x="0" y="0" width="96" height="95" filterUnits="userSpaceOnUse">
      <feOffset dy="3" input="SourceAlpha"/>
      <feGaussianBlur stdDeviation="3" result="blur"/>
      <feFlood flood-opacity="0.161"/>
      <feComposite operator="in" in2="blur"/>
      <feComposite in="SourceGraphic"/>
    </filter>
  </defs>
  <g id="Grupo_1101059" data-name="Grupo 1101059" transform="translate(-176 -6254)">
    <g transform="matrix(1, 0, 0, 1, 176, 6254)" filter="url(#Elipse_7662)">
      <ellipse id="Elipse_7662-2" data-name="Elipse 7662" cx="39" cy="38.5" rx="39" ry="38.5" transform="translate(9 6)" fill="url(#linear-gradient)"/>
    </g>
    <g id="Grupo_17362" data-name="Grupo 17362" transform="translate(199.904 6275.238)">
      <g id="Grupo_17360" data-name="Grupo 17360" transform="translate(0.755 0.754)">
        <g id="Grupo_17359" data-name="Grupo 17359">
          <path id="Trazado_27627" data-name="Trazado 27627" d="M928.439,2029.39H909.387a3.334,3.334,0,0,1-3.334-3.334v-3.334h25.589Z" transform="translate(-906.053 -1987.711)" fill="#d3dcfb"/>
          <path id="Trazado_27628" data-name="Trazado 27628" d="M949.4,1964.456v23.34H909.387a3.334,3.334,0,0,1-3.334-3.334v-20.006l23.342-8.336Z" transform="translate(-906.053 -1949.451)" fill="#ebf5fc"/>
          <g id="Grupo_17358" data-name="Grupo 17358" transform="translate(3.335 18.339)">
            <path id="Trazado_27629" data-name="Trazado 27629" d="M916.42,1986.878H914.7a.8.8,0,0,1-.8-.805v-1.724a.805.805,0,0,1,.8-.805h1.724a.805.805,0,0,1,.805.805v1.724A.805.805,0,0,1,916.42,1986.878Z" transform="translate(-913.891 -1983.544)" fill="#3c58a0"/>
            <path id="Trazado_27630" data-name="Trazado 27630" d="M932.09,1986.878h-1.724a.805.805,0,0,1-.805-.805v-1.724a.806.806,0,0,1,.805-.805h1.724a.805.805,0,0,1,.805.805v1.724A.805.805,0,0,1,932.09,1986.878Z" transform="translate(-922.893 -1983.544)" fill="#3c58a0"/>
            <path id="Trazado_27631" data-name="Trazado 27631" d="M947.761,1986.878h-1.724a.8.8,0,0,1-.805-.805v-1.724a.805.805,0,0,1,.805-.805h1.724a.805.805,0,0,1,.805.805v1.724A.8.8,0,0,1,947.761,1986.878Z" transform="translate(-931.895 -1983.544)" fill="#3c58a0"/>
            <path id="Trazado_27632" data-name="Trazado 27632" d="M963.432,1986.878h-1.724a.8.8,0,0,1-.805-.805v-1.724a.805.805,0,0,1,.805-.805h1.724a.805.805,0,0,1,.805.805v1.724A.8.8,0,0,1,963.432,1986.878Z" transform="translate(-940.897 -1983.544)" fill="#3c58a0"/>
            <path id="Trazado_27633" data-name="Trazado 27633" d="M979.1,1986.878h-1.724a.8.8,0,0,1-.8-.805v-1.724a.805.805,0,0,1,.8-.805H979.1a.805.805,0,0,1,.805.805v1.724A.805.805,0,0,1,979.1,1986.878Z" transform="translate(-949.899 -1983.544)" fill="#3c58a0"/>
            <path id="Trazado_27634" data-name="Trazado 27634" d="M994.771,1986.878h-1.724a.8.8,0,0,1-.805-.805v-1.724a.805.805,0,0,1,.805-.805h1.724a.805.805,0,0,1,.805.805v1.724A.805.805,0,0,1,994.771,1986.878Z" transform="translate(-958.9 -1983.544)" fill="#3c58a0"/>
            <path id="Trazado_27635" data-name="Trazado 27635" d="M916.42,2002.549H914.7a.8.8,0,0,1-.8-.8v-1.724a.8.8,0,0,1,.8-.805h1.724a.805.805,0,0,1,.805.805v1.724A.805.805,0,0,1,916.42,2002.549Z" transform="translate(-913.891 -1992.546)" fill="#3c58a0"/>
            <path id="Trazado_27636" data-name="Trazado 27636" d="M932.09,2002.549h-1.724a.805.805,0,0,1-.805-.8v-1.724a.805.805,0,0,1,.805-.805h1.724a.805.805,0,0,1,.805.805v1.724A.8.8,0,0,1,932.09,2002.549Z" transform="translate(-922.893 -1992.546)" fill="#3c58a0"/>
            <path id="Trazado_27637" data-name="Trazado 27637" d="M947.761,2002.549h-1.724a.8.8,0,0,1-.805-.8v-1.724a.8.8,0,0,1,.805-.805h1.724a.8.8,0,0,1,.805.805v1.724A.8.8,0,0,1,947.761,2002.549Z" transform="translate(-931.895 -1992.546)" fill="#3c58a0"/>
            <path id="Trazado_27638" data-name="Trazado 27638" d="M964.237,2002.549v-2.5a.834.834,0,0,0-.834-.833h-1.667a.834.834,0,0,0-.834.833v1.667a.834.834,0,0,0,.834.833Z" transform="translate(-940.897 -1992.546)" fill="#3c58a0"/>
            <path id="Trazado_27639" data-name="Trazado 27639" d="M916.42,2018.22H914.7a.8.8,0,0,1-.8-.805v-1.724a.805.805,0,0,1,.8-.805h1.724a.805.805,0,0,1,.805.805v1.724A.805.805,0,0,1,916.42,2018.22Z" transform="translate(-913.891 -2001.548)" fill="#3c58a0"/>
            <path id="Trazado_27640" data-name="Trazado 27640" d="M932.09,2018.22h-1.724a.805.805,0,0,1-.805-.805v-1.724a.805.805,0,0,1,.805-.805h1.724a.805.805,0,0,1,.805.805v1.724A.8.8,0,0,1,932.09,2018.22Z" transform="translate(-922.893 -2001.548)" fill="#3c58a0"/>
            <path id="Trazado_27641" data-name="Trazado 27641" d="M947.761,2018.22h-1.724a.8.8,0,0,1-.805-.805v-1.724a.805.805,0,0,1,.805-.805h1.724a.805.805,0,0,1,.805.805v1.724A.8.8,0,0,1,947.761,2018.22Z" transform="translate(-931.895 -2001.548)" fill="#3c58a0"/>
          </g>
          <path id="Trazado_27642" data-name="Trazado 27642" d="M995.46,1983.544h-1.724a.8.8,0,0,0-.295.057.805.805,0,0,1,.51.749v1.724a.8.8,0,0,1-.51.749.8.8,0,0,0,.295.057h1.724a.8.8,0,0,0,.805-.805v-1.724A.805.805,0,0,0,995.46,1983.544Z" transform="translate(-956.254 -1965.205)" fill="#2a428c"/>
          <path id="Trazado_27643" data-name="Trazado 27643" d="M979.789,1983.544h-1.724a.8.8,0,0,0-.295.057.805.805,0,0,1,.51.749v1.724a.8.8,0,0,1-.51.749.8.8,0,0,0,.295.057h1.724a.805.805,0,0,0,.805-.805v-1.724A.805.805,0,0,0,979.789,1983.544Z" transform="translate(-947.251 -1965.205)" fill="#2a428c"/>
          <path id="Trazado_27644" data-name="Trazado 27644" d="M964.121,1983.544H962.4a.8.8,0,0,0-.3.057.805.805,0,0,1,.51.749v1.724a.8.8,0,0,1-.51.749.8.8,0,0,0,.3.057h1.724a.8.8,0,0,0,.805-.805v-1.724A.805.805,0,0,0,964.121,1983.544Z" transform="translate(-938.25 -1965.205)" fill="#2a428c"/>
          <path id="Trazado_27645" data-name="Trazado 27645" d="M948.45,1983.544h-1.724a.8.8,0,0,0-.295.057.805.805,0,0,1,.51.749v1.724a.8.8,0,0,1-.51.749.8.8,0,0,0,.295.057h1.724a.8.8,0,0,0,.805-.805v-1.724A.805.805,0,0,0,948.45,1983.544Z" transform="translate(-929.248 -1965.205)" fill="#2a428c"/>
          <path id="Trazado_27646" data-name="Trazado 27646" d="M932.779,1983.544h-1.724a.8.8,0,0,0-.295.057.805.805,0,0,1,.51.749v1.724a.8.8,0,0,1-.51.749.8.8,0,0,0,.295.057h1.724a.805.805,0,0,0,.805-.805v-1.724A.805.805,0,0,0,932.779,1983.544Z" transform="translate(-920.246 -1965.205)" fill="#2a428c"/>
          <path id="Trazado_27647" data-name="Trazado 27647" d="M917.108,1983.544h-1.724a.8.8,0,0,0-.295.057.805.805,0,0,1,.51.749v1.724a.8.8,0,0,1-.51.749.8.8,0,0,0,.295.057h1.724a.805.805,0,0,0,.805-.805v-1.724A.805.805,0,0,0,917.108,1983.544Z" transform="translate(-911.244 -1965.205)" fill="#2a428c"/>
          <path id="Trazado_27648" data-name="Trazado 27648" d="M917.108,1999.215h-1.724a.8.8,0,0,0-.295.057.805.805,0,0,1,.51.749v1.724a.805.805,0,0,1-.51.749.8.8,0,0,0,.295.056h1.724a.8.8,0,0,0,.805-.8v-1.724a.805.805,0,0,0-.805-.805Z" transform="translate(-911.244 -1974.207)" fill="#2a428c"/>
          <path id="Trazado_27649" data-name="Trazado 27649" d="M917.108,2014.886h-1.724a.8.8,0,0,0-.295.057.805.805,0,0,1,.51.749v1.724a.8.8,0,0,1-.51.748.8.8,0,0,0,.295.057h1.724a.8.8,0,0,0,.805-.805v-1.724a.805.805,0,0,0-.805-.805Z" transform="translate(-911.244 -1983.21)" fill="#2a428c"/>
          <path id="Trazado_27650" data-name="Trazado 27650" d="M932.779,1999.215h-1.724a.8.8,0,0,0-.295.057.805.805,0,0,1,.51.749v1.724a.805.805,0,0,1-.51.749.8.8,0,0,0,.295.056h1.724a.805.805,0,0,0,.805-.8v-1.724a.805.805,0,0,0-.805-.805Z" transform="translate(-920.246 -1974.207)" fill="#2a428c"/>
          <path id="Trazado_27651" data-name="Trazado 27651" d="M932.779,2014.886h-1.724a.8.8,0,0,0-.295.057.805.805,0,0,1,.51.749v1.724a.8.8,0,0,1-.51.748.8.8,0,0,0,.295.057h1.724a.805.805,0,0,0,.805-.805v-1.724a.805.805,0,0,0-.805-.805Z" transform="translate(-920.246 -1983.21)" fill="#2a428c"/>
          <path id="Trazado_27652" data-name="Trazado 27652" d="M948.45,1999.215h-1.724a.794.794,0,0,0-.295.057.8.8,0,0,1,.51.749v1.724a.8.8,0,0,1-.51.749.8.8,0,0,0,.295.056h1.724a.8.8,0,0,0,.805-.8v-1.724a.8.8,0,0,0-.805-.805Z" transform="translate(-929.248 -1974.207)" fill="#2a428c"/>
          <path id="Trazado_27653" data-name="Trazado 27653" d="M964.926,2002.549v-2.529a.8.8,0,0,0-.805-.805H962.4a.8.8,0,0,0-.3.057.8.8,0,0,1,.51.749v1.724a.8.8,0,0,1-.51.749.8.8,0,0,0,.3.056Z" transform="translate(-938.25 -1974.207)" fill="#2a428c"/>
          <path id="Trazado_27654" data-name="Trazado 27654" d="M948.45,2014.886h-1.724a.8.8,0,0,0-.295.057.805.805,0,0,1,.51.749v1.724a.8.8,0,0,1-.51.748.8.8,0,0,0,.295.057h1.724a.8.8,0,0,0,.805-.805v-1.724a.805.805,0,0,0-.805-.805Z" transform="translate(-929.248 -1983.21)" fill="#2a428c"/>
          <path id="Trazado_27655" data-name="Trazado 27655" d="M1002.478,1973.441v24.305h2.316v-23.34Z" transform="translate(-961.445 -1959.401)" fill="#d3dcfb"/>
          <path id="Trazado_27656" data-name="Trazado 27656" d="M949.4,1959.955v-8.336a3.334,3.334,0,0,0-3.334-3.334H909.387a3.334,3.334,0,0,0-3.334,3.334v8.336Z" transform="translate(-906.053 -1944.95)" fill="#ff9751"/>
          <path id="Trazado_27657" data-name="Trazado 27657" d="M933.727,1946.7a2.084,2.084,0,0,1-4.168,0v-4.168a2.084,2.084,0,0,1,4.168,0Z" transform="translate(-919.556 -1940.449)" fill="#ebf5fc"/>
          <path id="Trazado_27658" data-name="Trazado 27658" d="M978.783,1946.7a2.084,2.084,0,0,1-4.168,0v-4.168a2.084,2.084,0,0,1,4.168,0Z" transform="translate(-945.439 -1940.449)" fill="#ebf5fc"/>
          <path id="Trazado_27659" data-name="Trazado 27659" d="M977.951,1940.449a2.073,2.073,0,0,0-1.156.351,2.081,2.081,0,0,1,.928,1.733v4.168a2.081,2.081,0,0,1-.928,1.733,2.083,2.083,0,0,0,3.24-1.733v-4.168A2.084,2.084,0,0,0,977.951,1940.449Z" transform="translate(-946.691 -1940.449)" fill="#d3dcfb"/>
          <path id="Trazado_27660" data-name="Trazado 27660" d="M932.9,1940.449a2.072,2.072,0,0,0-1.156.351,2.081,2.081,0,0,1,.928,1.733v4.168a2.081,2.081,0,0,1-.928,1.733,2.083,2.083,0,0,0,3.24-1.733v-4.168a2.084,2.084,0,0,0-2.084-2.084Z" transform="translate(-920.808 -1940.449)" fill="#d3dcfb"/>
          <path id="Trazado_27661" data-name="Trazado 27661" d="M996.96,1948.285h-2.315a3.334,3.334,0,0,1,3.334,3.334v8.336h2.315v-8.336A3.334,3.334,0,0,0,996.96,1948.285Z" transform="translate(-956.945 -1944.95)" fill="#d5633b"/>
        </g>
        <circle id="Elipse_1035" data-name="Elipse 1035" cx="12.504" cy="12.504" r="12.504" transform="translate(21.674 25.008)" fill="#4fabf7"/>
        <circle id="Elipse_1036" data-name="Elipse 1036" cx="9.169" cy="9.169" r="9.169" transform="translate(25.009 28.342)" fill="#ebf5fc"/>
        <path id="Trazado_27662" data-name="Trazado 27662" d="M984.807,1999.215c-.391,0-.776.019-1.157.054a12.5,12.5,0,0,1,0,24.9c.381.035.767.054,1.157.054a12.5,12.5,0,0,0,0-25.008Z" transform="translate(-950.629 -1974.207)" fill="#1886ea"/>
        <path id="Trazado_27663" data-name="Trazado 27663" d="M984.809,2007.051a9.27,9.27,0,0,0-1.157.072,9.17,9.17,0,0,1,0,18.194,9.294,9.294,0,0,0,1.157.072,9.169,9.169,0,1,0,0-18.338Z" transform="translate(-950.63 -1978.709)" fill="#d3dcfb"/>
        <circle id="Elipse_1037" data-name="Elipse 1037" cx="1.667" cy="1.667" r="1.667" transform="translate(32.511 35.844)" fill="#ffdd40"/>
      </g>
      <g id="Grupo_17361" data-name="Grupo 17361">
        <path id="Trazado_27664" data-name="Trazado 27664" d="M913.677,1986.615H915.4a1.562,1.562,0,0,0,1.56-1.56v-1.724a1.562,1.562,0,0,0-1.56-1.56h-1.724a1.561,1.561,0,0,0-1.56,1.56v1.724A1.561,1.561,0,0,0,913.677,1986.615Zm-.05-3.284a.05.05,0,0,1,.05-.05H915.4a.05.05,0,0,1,.05.05v1.724a.05.05,0,0,1-.05.05h-1.724a.05.05,0,0,1-.05-.05Z" transform="translate(-908.782 -1963.432)" fill="#00223d"/>
        <path id="Trazado_27665" data-name="Trazado 27665" d="M929.348,1986.615h1.724a1.561,1.561,0,0,0,1.56-1.56v-1.724a1.561,1.561,0,0,0-1.56-1.56h-1.724a1.561,1.561,0,0,0-1.56,1.56v1.724A1.561,1.561,0,0,0,929.348,1986.615Zm-.05-3.284a.05.05,0,0,1,.05-.05h1.724a.05.05,0,0,1,.05.05v1.724a.05.05,0,0,1-.05.05h-1.724a.05.05,0,0,1-.05-.05Z" transform="translate(-917.784 -1963.432)" fill="#00223d"/>
        <path id="Trazado_27666" data-name="Trazado 27666" d="M945.019,1986.615h1.724a1.561,1.561,0,0,0,1.56-1.56v-1.724a1.561,1.561,0,0,0-1.56-1.56h-1.724a1.561,1.561,0,0,0-1.56,1.56v1.724A1.561,1.561,0,0,0,945.019,1986.615Zm-.05-3.284a.05.05,0,0,1,.05-.05h1.724a.05.05,0,0,1,.05.05v1.724a.05.05,0,0,1-.05.05h-1.724a.05.05,0,0,1-.05-.05Z" transform="translate(-926.786 -1963.432)" fill="#00223d"/>
        <path id="Trazado_27667" data-name="Trazado 27667" d="M962.414,1986.615a1.561,1.561,0,0,0,1.56-1.56v-1.724a1.561,1.561,0,0,0-1.56-1.56H960.69a1.561,1.561,0,0,0-1.56,1.56v1.724a1.561,1.561,0,0,0,1.56,1.56Zm-1.774-1.56v-1.724a.05.05,0,0,1,.05-.05h1.724a.05.05,0,0,1,.05.05v1.724a.05.05,0,0,1-.05.05H960.69A.05.05,0,0,1,960.639,1985.055Z" transform="translate(-935.788 -1963.432)" fill="#00223d"/>
        <path id="Trazado_27668" data-name="Trazado 27668" d="M978.082,1986.615a1.562,1.562,0,0,0,1.56-1.56v-1.724a1.562,1.562,0,0,0-1.56-1.56h-1.724a1.561,1.561,0,0,0-1.56,1.56v1.724a1.561,1.561,0,0,0,1.56,1.56Zm-1.775-1.56v-1.724a.05.05,0,0,1,.05-.05h1.724a.05.05,0,0,1,.05.05v1.724a.05.05,0,0,1-.05.05h-1.724A.05.05,0,0,1,976.307,1985.055Z" transform="translate(-944.789 -1963.432)" fill="#00223d"/>
        <path id="Trazado_27669" data-name="Trazado 27669" d="M993.753,1986.615a1.561,1.561,0,0,0,1.56-1.56v-1.724a1.561,1.561,0,0,0-1.56-1.56h-1.724a1.561,1.561,0,0,0-1.56,1.56v1.724a1.561,1.561,0,0,0,1.56,1.56Zm-1.774-1.56v-1.724a.05.05,0,0,1,.05-.05h1.724a.05.05,0,0,1,.05.05v1.724a.05.05,0,0,1-.05.05h-1.724A.05.05,0,0,1,991.978,1985.055Z" transform="translate(-953.791 -1963.432)" fill="#00223d"/>
        <path id="Trazado_27670" data-name="Trazado 27670" d="M912.117,2000.726a1.561,1.561,0,0,0,1.56,1.56H915.4a1.562,1.562,0,0,0,1.56-1.56V1999a1.562,1.562,0,0,0-1.56-1.56h-1.724a1.561,1.561,0,0,0-1.56,1.56Zm1.509-1.724a.05.05,0,0,1,.05-.05H915.4a.05.05,0,0,1,.05.05v1.724a.05.05,0,0,1-.05.05h-1.724a.05.05,0,0,1-.05-.05Z" transform="translate(-908.782 -1972.434)" fill="#00223d"/>
        <path id="Trazado_27671" data-name="Trazado 27671" d="M927.788,2000.726a1.561,1.561,0,0,0,1.56,1.56h1.724a1.561,1.561,0,0,0,1.56-1.56V1999a1.561,1.561,0,0,0-1.56-1.56h-1.724a1.561,1.561,0,0,0-1.56,1.56ZM929.3,1999a.05.05,0,0,1,.05-.05h1.724a.05.05,0,0,1,.05.05v1.724a.05.05,0,0,1-.05.05h-1.724a.05.05,0,0,1-.05-.05Z" transform="translate(-917.784 -1972.434)" fill="#00223d"/>
        <path id="Trazado_27672" data-name="Trazado 27672" d="M943.459,2000.726a1.561,1.561,0,0,0,1.56,1.56h1.724a1.561,1.561,0,0,0,1.56-1.56V1999a1.561,1.561,0,0,0-1.56-1.56h-1.724a1.561,1.561,0,0,0-1.56,1.56Zm1.509-1.724a.05.05,0,0,1,.05-.05h1.724a.05.05,0,0,1,.05.05v1.724a.05.05,0,0,1-.05.05h-1.724a.05.05,0,0,1-.05-.05Z" transform="translate(-926.786 -1972.434)" fill="#00223d"/>
        <path id="Trazado_27673" data-name="Trazado 27673" d="M912.117,2016.4a1.561,1.561,0,0,0,1.56,1.56H915.4a1.562,1.562,0,0,0,1.56-1.56v-1.724a1.562,1.562,0,0,0-1.56-1.56h-1.724a1.561,1.561,0,0,0-1.56,1.56Zm1.509-1.724a.05.05,0,0,1,.05-.051H915.4a.05.05,0,0,1,.05.051v1.724a.05.05,0,0,1-.05.05h-1.724a.05.05,0,0,1-.05-.05Z" transform="translate(-908.782 -1981.437)" fill="#00223d"/>
        <path id="Trazado_27674" data-name="Trazado 27674" d="M927.788,2016.4a1.561,1.561,0,0,0,1.56,1.56h1.724a1.561,1.561,0,0,0,1.56-1.56v-1.724a1.561,1.561,0,0,0-1.56-1.56h-1.724a1.561,1.561,0,0,0-1.56,1.56Zm1.509-1.724a.05.05,0,0,1,.05-.051h1.724a.05.05,0,0,1,.05.051v1.724a.05.05,0,0,1-.05.05h-1.724a.05.05,0,0,1-.05-.05Z" transform="translate(-917.784 -1981.437)" fill="#00223d"/>
        <path id="Trazado_27675" data-name="Trazado 27675" d="M943.459,2016.4a1.561,1.561,0,0,0,1.56,1.56h1.724a1.561,1.561,0,0,0,1.56-1.56v-1.724a1.561,1.561,0,0,0-1.56-1.56h-1.724a1.561,1.561,0,0,0-1.56,1.56Zm1.509-1.724a.051.051,0,0,1,.05-.051h1.724a.05.05,0,0,1,.05.051v1.724a.05.05,0,0,1-.05.05h-1.724a.05.05,0,0,1-.05-.05Z" transform="translate(-926.786 -1981.437)" fill="#00223d"/>
        <path id="Trazado_27676" data-name="Trazado 27676" d="M949.138,1968.162V1946.1a4.094,4.094,0,0,0-4.089-4.089h-5.916v-.5a2.839,2.839,0,1,0-5.677,0v.5h-13.5v-.5a2.839,2.839,0,0,0-5.678,0v.5h-5.914a4.094,4.094,0,0,0-4.089,4.089v11.828a.755.755,0,0,0,1.509,0v-2.737h41.84V1966.7a13.234,13.234,0,0,0-15.164-1.172v-.262a1.59,1.59,0,0,0-1.588-1.588h-1.667a1.59,1.59,0,0,0-1.588,1.588v1.667a1.589,1.589,0,0,0,1.367,1.571,13.2,13.2,0,0,0-3.034,8.432c0,.026,0,.052,0,.079H908.368a2.582,2.582,0,0,1-2.58-2.579v-13.5a.755.755,0,0,0-1.509,0v16.829a4.093,4.093,0,0,0,4.089,4.089h1.826a.755.755,0,0,0,0-1.51h-1.826a2.583,2.583,0,0,1-2.58-2.58v-.164a4.07,4.07,0,0,0,2.58.919h17.681a13.2,13.2,0,0,0,.351,1.825H913.213a.755.755,0,1,0,0,1.51H926.9a13.256,13.256,0,1,0,22.236-13.7Zm-14.173-26.648a1.329,1.329,0,0,1,2.658,0v4.168a1.329,1.329,0,1,1-2.658,0Zm-19.174,0a1.329,1.329,0,0,1,2.658,0v4.168a1.329,1.329,0,1,1-2.658,0Zm-7.423,2.005h5.914v1.824h-.912a.755.755,0,1,0,0,1.51h1.166a2.837,2.837,0,0,0,5.169,0h1.166a.755.755,0,0,0,0-1.51h-.912v-1.824h13.5v1.824h-.913a.755.755,0,0,0,0,1.51h1.167a2.837,2.837,0,0,0,5.169,0h1.166a.755.755,0,1,0,0-1.51h-.912v-1.824h5.916a2.582,2.582,0,0,1,2.579,2.58v4.247h-41.84V1946.1a2.582,2.582,0,0,1,2.58-2.58Zm-2.58,10.161v-1.825h41.84v1.825Zm23.341,11.591a.079.079,0,0,1,.079-.079h1.667a.079.079,0,0,1,.079.079v1.305q-.268.214-.524.441h-1.222a.079.079,0,0,1-.079-.079v-1.667Zm10.083,23.419a11.749,11.749,0,1,1,11.749-11.749A11.763,11.763,0,0,1,939.212,1988.691Z" transform="translate(-904.279 -1938.676)" fill="#00223d"/>
        <path id="Trazado_27677" data-name="Trazado 27677" d="M972.973,2005.277a9.924,9.924,0,1,0,9.924,9.924A9.935,9.935,0,0,0,972.973,2005.277Zm0,18.339a8.415,8.415,0,1,1,8.415-8.415A8.424,8.424,0,0,1,972.973,2023.616Z" transform="translate(-938.04 -1976.935)" fill="#00223d"/>
        <path id="Trazado_27678" data-name="Trazado 27678" d="M987.268,2018.948H985.4a2.433,2.433,0,0,0-1.546-1.546v-3.534a.755.755,0,0,0-1.509,0v3.534a2.422,2.422,0,1,0,3.056,3.056h1.867a.755.755,0,1,0,0-1.51Zm-4.168,1.667a.912.912,0,1,1,.912-.912A.913.913,0,0,1,983.1,2020.615Z" transform="translate(-948.167 -1981.437)" fill="#00223d"/>
      </g>
    </g>
  </g>
</svg>
