<svg xmlns="http://www.w3.org/2000/svg" xmlns:xlink="http://www.w3.org/1999/xlink" width="96" height="95" viewBox="0 0 96 95">
  <defs>
    <linearGradient id="linear-gradient" x1="0.5" x2="0.5" y2="1" gradientUnits="objectBoundingBox">
      <stop offset="0" stop-color="#fff"/>
      <stop offset="1" stop-color="#e9e9e9"/>
    </linearGradient>
    <filter id="Elipse_7662" x="0" y="0" width="96" height="95" filterUnits="userSpaceOnUse">
      <feOffset dy="3" input="SourceAlpha"/>
      <feGaussianBlur stdDeviation="3" result="blur"/>
      <feFlood flood-opacity="0.161"/>
      <feComposite operator="in" in2="blur"/>
      <feComposite in="SourceGraphic"/>
    </filter>
  </defs>
  <g id="Grupo_1101055" data-name="Grupo 1101055" transform="translate(-176 -6010)">
    <g transform="matrix(1, 0, 0, 1, 176, 6010)" filter="url(#Elipse_7662)">
      <ellipse id="Elipse_7662-2" data-name="Elipse 7662" cx="39" cy="38.5" rx="39" ry="38.5" transform="translate(9 6)" fill="url(#linear-gradient)"/>
    </g>
    <g id="Grupo_17354" data-name="Grupo 17354" transform="translate(-1109.392 6454.482)">
      <g id="Grupo_17353" data-name="Grupo 17353" transform="translate(1313.048 -426.583)">
        <path id="Trazado_27552" data-name="Trazado 27552" d="M1359.325-414.8h.021c4.28-.042,3.655-5.763,3.655-5.763-.17-3.824-3.358-3.792-3.676-3.781-.318-.011-3.506-.043-3.686,3.771,0,0-.625,5.72,3.665,5.762h0C1359.3-414.8,1359.314-414.8,1359.325-414.8Z" transform="translate(-1337.296 425.308)" fill="#a7a9ac"/>
        <path id="Trazado_27553" data-name="Trazado 27553" d="M1353.911-390.688l2.765-3.814a18.358,18.358,0,0,1,3.538,1.96,7.436,7.436,0,0,1,.975.858c.879.879.508,5.974,0,7.839a26.39,26.39,0,0,1-2,4.544,7.164,7.164,0,0,0-.562,2.14l-1.907,18.7a1.169,1.169,0,0,1-1.155,1.049h-3.3a1.161,1.161,0,0,1-1.155-1.049l-1.907-18.7a7.091,7.091,0,0,0-.561-2.14,25.989,25.989,0,0,1-2-4.544c-.509-1.865-.879-6.96,0-7.839a7.45,7.45,0,0,1,.974-.858,19.056,19.056,0,0,1,3.538-1.96Z" transform="translate(-1331.882 408.305)" fill="#a7a9ac"/>
        <path id="Trazado_27554" data-name="Trazado 27554" d="M1313.573-380.168a25.879,25.879,0,0,0,1.939,4.438,5.476,5.476,0,0,1,.434,1.684l1.79,17.542a2.048,2.048,0,0,0,2.045,1.843h3.093a2.048,2.048,0,0,0,2.044-1.843l1.79-17.542a5.644,5.644,0,0,1,.456-1.716.96.96,0,0,0-.488-1.261.961.961,0,0,0-1.261.487,7.532,7.532,0,0,0-.6,2.3l-1.79,17.542a.135.135,0,0,1-.127.117H1319.8a.127.127,0,0,1-.127-.117l-1.811-17.552a7.833,7.833,0,0,0-.6-2.3.312.312,0,0,0-.042-.085,24.111,24.111,0,0,1-1.79-4.046c-.487-1.811-.625-5.752-.222-6.451a5.83,5.83,0,0,1,.784-.689,15.46,15.46,0,0,1,2.426-1.409l2.14,2.945a.963.963,0,0,0,.773.392.962.962,0,0,0,.773-.392l2.6-3.57a.976.976,0,0,0-.212-1.345.976.976,0,0,0-1.345.212l-1.822,2.5-1.8-2.489a.962.962,0,0,0-1.134-.328,18.4,18.4,0,0,0-3.527,1.949,7.748,7.748,0,0,0-1.028.9C1312.471-387.1,1313.223-381.46,1313.573-380.168Z" transform="translate(-1313.048 406.523)" fill="#00223d"/>
        <path id="Trazado_27555" data-name="Trazado 27555" d="M1326.316-408.486h.18a4.024,4.024,0,0,0,3.009-1.314c1.578-1.779,1.356-4.746,1.313-5.116a4.239,4.239,0,0,0-4.333-4.428h-.169a4.251,4.251,0,0,0-4.333,4.428c-.032.371-.265,3.337,1.313,5.116A4.025,4.025,0,0,0,1326.316-408.486Zm-2.415-6.26v-.064c.106-2.288,1.557-2.627,2.415-2.627h.159c.858,0,2.31.339,2.416,2.627v.053a5.535,5.535,0,0,1-.848,3.676,2.064,2.064,0,0,1-1.642.667h-.021a2.1,2.1,0,0,1-1.642-.667C1323.848-412.088,1323.838-414.069,1323.9-414.747Z" transform="translate(-1318.122 422.459)" fill="#00223d"/>
        <path id="Trazado_27556" data-name="Trazado 27556" d="M1383.038-377.044a.946.946,0,0,0-.488,1.261,5.732,5.732,0,0,1,.456,1.716l1.79,17.542a2.048,2.048,0,0,0,2.044,1.843h3.094a2.048,2.048,0,0,0,2.045-1.843l1.79-17.542a5.806,5.806,0,0,1,.434-1.684,24.317,24.317,0,0,0,1.938-4.438c.35-1.292,1.113-6.928-.243-8.283a7.715,7.715,0,0,0-1.028-.9,18.012,18.012,0,0,0-3.527-1.949.943.943,0,0,0-1.133.328l-1.822,2.5-1.832-2.489a.963.963,0,0,0-1.345-.212.973.973,0,0,0-.212,1.345l2.6,3.57a.964.964,0,0,0,.774.392.963.963,0,0,0,.773-.392l2.14-2.945a15.47,15.47,0,0,1,2.426,1.409,6.475,6.475,0,0,1,.784.688c.4.7.265,4.64-.223,6.451a24.174,24.174,0,0,1-1.79,4.046.621.621,0,0,0-.043.085,7.525,7.525,0,0,0-.6,2.3l-1.79,17.542a.136.136,0,0,1-.127.117h-3.093a.127.127,0,0,1-.127-.117l-1.79-17.542a7.831,7.831,0,0,0-.6-2.3A.946.946,0,0,0,1383.038-377.044Z" transform="translate(-1352.598 406.534)" fill="#00223d"/>
        <path id="Trazado_27557" data-name="Trazado 27557" d="M1390.222-408.486h.18a4.025,4.025,0,0,0,3.019-1.314c1.578-1.779,1.356-4.746,1.314-5.116a4.233,4.233,0,0,0-4.333-4.428h-.17a4.251,4.251,0,0,0-4.332,4.428c-.032.371-.265,3.337,1.314,5.116A4.023,4.023,0,0,0,1390.222-408.486Zm-2.416-6.26v-.064c.106-2.288,1.558-2.627,2.416-2.627h.159c.858,0,2.31.339,2.415,2.627v.053a5.534,5.534,0,0,1-.848,3.676,2.1,2.1,0,0,1-1.642.667h-.021a2.1,2.1,0,0,1-1.642-.667C1387.753-412.088,1387.743-414.069,1387.806-414.747Z" transform="translate(-1354.538 422.459)" fill="#00223d"/>
        <path id="Trazado_27558" data-name="Trazado 27558" d="M1344.677-393.636c-1.43,1.43-.625,7.394-.244,8.771a26.5,26.5,0,0,0,2.066,4.714,6.033,6.033,0,0,1,.477,1.811l1.907,18.7a2.11,2.11,0,0,0,2.119,1.906h3.294a2.134,2.134,0,0,0,2.119-1.906l1.907-18.7a5.947,5.947,0,0,1,.477-1.811,26.884,26.884,0,0,0,2.066-4.714c.371-1.377,1.187-7.341-.244-8.771a8.537,8.537,0,0,0-1.081-.953,19.833,19.833,0,0,0-3.749-2.076.943.943,0,0,0-1.134.328l-2.023,2.744-1.991-2.744a.962.962,0,0,0-1.134-.328,19.532,19.532,0,0,0-3.75,2.076A7.872,7.872,0,0,0,1344.677-393.636Zm1.377,1.335a5.884,5.884,0,0,1,.848-.742,15.948,15.948,0,0,1,2.648-1.536l2.309,3.178a.963.963,0,0,0,.774.392.963.963,0,0,0,.773-.392l2.309-3.178a16.847,16.847,0,0,1,2.648,1.536,5.859,5.859,0,0,1,.848.742c.445.72.307,4.968-.233,6.928a24.676,24.676,0,0,1-1.917,4.322.606.606,0,0,0-.042.085,8.046,8.046,0,0,0-.646,2.436l-1.907,18.7a.2.2,0,0,1-.2.18h-3.294a.2.2,0,0,1-.2-.18l-1.906-18.7a7.834,7.834,0,0,0-.646-2.436.313.313,0,0,0-.043-.085,25.821,25.821,0,0,1-1.917-4.333C1345.747-387.333,1345.61-391.581,1346.054-392.3Z" transform="translate(-1330.604 409.578)" fill="#00223d"/>
        <path id="Trazado_27559" data-name="Trazado 27559" d="M1357.952-415.121h.19a4.121,4.121,0,0,0,3.167-1.388c1.674-1.875,1.419-5.032,1.388-5.413-.17-3.442-2.552-4.661-4.555-4.661h-.19c-1.992,0-4.385,1.219-4.555,4.661-.032.382-.286,3.528,1.388,5.4A4.182,4.182,0,0,0,1357.952-415.121Zm-2.638-6.621v-.064c.117-2.584,1.886-2.86,2.638-2.86h.18c.752,0,2.521.275,2.637,2.86v.053c.074.731.064,2.871-.911,3.962a2.278,2.278,0,0,1-1.8.731h-.032a2.311,2.311,0,0,1-1.8-.731C1355.251-418.871,1355.24-421.011,1355.314-421.742Z" transform="translate(-1336.019 426.583)" fill="#00223d"/>
      </g>
    </g>
  </g>
</svg>
