<svg xmlns="http://www.w3.org/2000/svg" xmlns:xlink="http://www.w3.org/1999/xlink" width="96" height="95" viewBox="0 0 96 95">
  <defs>
    <linearGradient id="linear-gradient" x1="0.5" x2="0.5" y2="1" gradientUnits="objectBoundingBox">
      <stop offset="0" stop-color="#fff"/>
      <stop offset="1" stop-color="#e9e9e9"/>
    </linearGradient>
    <filter id="Elipse_7662" x="0" y="0" width="96" height="95" filterUnits="userSpaceOnUse">
      <feOffset dy="3" input="SourceAlpha"/>
      <feGaussianBlur stdDeviation="3" result="blur"/>
      <feFlood flood-opacity="0.161"/>
      <feComposite operator="in" in2="blur"/>
      <feComposite in="SourceGraphic"/>
    </filter>
  </defs>
  <g id="Grupo_1101052" data-name="Grupo 1101052" transform="translate(-176 -844)">
    <g transform="matrix(1, 0, 0, 1, 176, 844)" filter="url(#Elipse_7662)">
      <ellipse id="Elipse_7662-2" data-name="Elipse 7662" cx="39" cy="38.5" rx="39" ry="38.5" transform="translate(9 6)" fill="url(#linear-gradient)"/>
    </g>
    <g id="Grupo_1084788" data-name="Grupo 1084788" transform="translate(-243.92 -715.208)">
      <path id="Trazado_27159" data-name="Trazado 27159" d="M520.85,1648.411l-3.127-1.23h-11.1l-3.127,1.23a3.027,3.027,0,0,0-1.916,2.938L502,1661.8h20.35l.418-10.448A3.027,3.027,0,0,0,520.85,1648.411Z" transform="translate(-36.404 -40.984)" fill="#dbd9dc"/>
      <rect id="Rect치ngulo_4342" data-name="Rect치ngulo 4342" width="7.064" height="6.054" transform="translate(472.237 1602.145)" fill="#b48764"/>
      <path id="Trazado_27160" data-name="Trazado 27160" d="M523.013,1590.754a6.526,6.526,0,0,0-3.952,1.514,2.215,2.215,0,0,0-2.1,2.522,18.848,18.848,0,0,0,.5,4.021h11.6C530.076,1593.261,527.68,1590.5,523.013,1590.754Z" transform="translate(-47.243 -1.207)" fill="#5c414b"/>
      <path id="Trazado_27161" data-name="Trazado 27161" d="M519.985,1600.379a4.532,4.532,0,0,1-.925-4.461,2.215,2.215,0,0,0-2.1,2.523,18.844,18.844,0,0,0,.5,4.021h2.522Z" transform="translate(-47.243 -4.858)" fill="#503441"/>
      <path id="Trazado_27162" data-name="Trazado 27162" d="M527.358,1611.092h-.5l-.99-1.2c-4.541.946-6.92-1.015-6.92-1.015a5.106,5.106,0,0,1-1.769,2.753l-.933-.542h0a.987.987,0,0,0-.168.018,1.066,1.066,0,0,0-.823,1.064v.365a1.059,1.059,0,0,0,.807,1.054.989.989,0,0,0,.28.018.488.488,0,0,1,.513.4,5.04,5.04,0,0,0,9.916.007.49.49,0,0,1,.488-.407h.1a1.01,1.01,0,0,0,1.009-1.009v-.5A1.009,1.009,0,0,0,527.358,1611.092Z" transform="translate(-46.039 -13.993)" fill="#c39772"/>
      <path id="Trazado_27163" data-name="Trazado 27163" d="M562.272,1657.734l2.2-2.2a3.015,3.015,0,0,1,.448,1.7l-.418,10.448h-3.112v-7.812A3.027,3.027,0,0,1,562.272,1657.734Z" transform="translate(-78.552 -46.875)" fill="#edebed"/>
      <path id="Trazado_27164" data-name="Trazado 27164" d="M534.59,1654.04h-2.028l-.507,12.59H535.1Z" transform="translate(-57.882 -45.818)" fill="#5d5360"/>
      <path id="Trazado_27165" data-name="Trazado 27165" d="M535.647,1656.782l-.11-2.743h-2.028l-.11,2.743Z" transform="translate(-58.829 -45.818)" fill="#4b3f4e"/>
      <g id="Grupo_17225" data-name="Grupo 17225" transform="translate(470.219 1604.683)">
        <path id="Trazado_27166" data-name="Trazado 27166" d="M524.217,1645.586l-4.036-3.532-1.514,1.514,2.344,3.517a1.009,1.009,0,0,0,1.553.154Z" transform="translate(-518.667 -1642.054)" fill="#edebed"/>
        <path id="Trazado_27167" data-name="Trazado 27167" d="M537.463,1645.586l4.036-3.532,1.514,1.514-2.344,3.517a1.009,1.009,0,0,1-1.553.154Z" transform="translate(-531.913 -1642.054)" fill="#edebed"/>
      </g>
      <path id="Trazado_27168" data-name="Trazado 27168" d="M522.809,1619.5a5.047,5.047,0,0,1-4.028-4.943v-3.622a5.573,5.573,0,0,1-1.606,2.146l-.933-.542h0a.973.973,0,0,0-.168.018,1.066,1.066,0,0,0-.823,1.065v.365a1.06,1.06,0,0,0,.807,1.054,1.011,1.011,0,0,0,.281.018.487.487,0,0,1,.513.4,5.025,5.025,0,0,0,5.959,4.038Z" transform="translate(-46.039 -15.442)" fill="#b48764"/>
      <path id="Trazado_27169" data-name="Trazado 27169" d="M468.123,1658.567l-2.722-1.188h-9.087l-2.722,1.188a3.027,3.027,0,0,0-1.813,2.9l.318,7.514h17.521l.319-7.514A3.027,3.027,0,0,0,468.123,1658.567Z" transform="translate(-1.308 -48.171)" fill="#5d5360"/>
      <rect id="Rect치ngulo_4343" data-name="Rect치ngulo 4343" width="5.045" height="5.045" transform="translate(457.027 1605.676)" fill="#fad7a5"/>
      <circle id="Elipse_1019" data-name="Elipse 1019" cx="3.027" cy="3.027" r="3.027" transform="translate(456.522 1589.531)" fill="#deaf73"/>
      <ellipse id="Elipse_1020" data-name="Elipse 1020" cx="6.054" cy="5.802" rx="6.054" ry="5.802" transform="translate(453.495 1592.053)" fill="#d59f63"/>
      <path id="Trazado_27170" data-name="Trazado 27170" d="M466.064,1609.92c-2.018-2.018-2.32-3.758-2.272-4.85a5.665,5.665,0,0,0-1.764,4.093,5.576,5.576,0,0,0,.867,2.988Z" transform="translate(-8.533 -11.307)" fill="#cd915a"/>
      <path id="Trazado_27171" data-name="Trazado 27171" d="M472.631,1619.63a2.772,2.772,0,0,0-.289-.021,1.009,1.009,0,0,1-.714-.3l-.695-.527a9.775,9.775,0,0,1-6.807-1.4,6.087,6.087,0,0,1-1.858,2.534l-.957-.312h0a1.025,1.025,0,0,0-.169.018,1.067,1.067,0,0,0-.822,1.064v.366a1.059,1.059,0,0,0,.806,1.054.992.992,0,0,0,.281.018.487.487,0,0,1,.513.4,5.039,5.039,0,0,0,9.915.013.5.5,0,0,1,.516-.414,1.016,1.016,0,0,0,.328-.024,1.045,1.045,0,0,0,.764-1.056c-.006-.229-.006-.453-.006-.453A1.053,1.053,0,0,0,472.631,1619.63Z" transform="translate(-7.328 -19.988)" fill="#ffe1b4"/>
      <g id="Grupo_17226" data-name="Grupo 17226" transform="translate(450.468 1611.059)">
        <path id="Trazado_27172" data-name="Trazado 27172" d="M454.488,1665.859l-1.844-2.212a3.021,3.021,0,0,0-.867,2.24l.319,7.514h3.21v-5.28A3.533,3.533,0,0,0,454.488,1665.859Z" transform="translate(-451.775 -1663.647)" fill="#6f6571"/>
        <path id="Trazado_27173" data-name="Trazado 27173" d="M502.148,1665.859l1.844-2.212a3.02,3.02,0,0,1,.867,2.24l-.319,7.514h-3.211v-5.28A3.533,3.533,0,0,1,502.148,1665.859Z" transform="translate(-486.697 -1663.647)" fill="#6f6571"/>
      </g>
      <path id="Trazado_27174" data-name="Trazado 27174" d="M463.851,1623.149v-3.6a7.283,7.283,0,0,1-1.583,1.9l-.957-.312h0a.987.987,0,0,0-.169.018,1.066,1.066,0,0,0-.822,1.064v.366a1.06,1.06,0,0,0,.806,1.054.992.992,0,0,0,.281.018.487.487,0,0,1,.513.4,5.026,5.026,0,0,0,5.959,4.038A5.047,5.047,0,0,1,463.851,1623.149Z" transform="translate(-7.328 -21.509)" fill="#fad7a5"/>
      <g id="Grupo_17227" data-name="Grupo 17227" transform="translate(454.845 1607.629)">
        <path id="Trazado_27175" data-name="Trazado 27175" d="M471.162,1655.073l-3.042-3.042-1.521,1.521,1.876,3.045a.507.507,0,0,0,.761.12Z" transform="translate(-466.598 -1652.03)" fill="#6f6571"/>
        <path id="Trazado_27176" data-name="Trazado 27176" d="M482.054,1655.073l3.042-3.042,1.521,1.521-1.876,3.045a.507.507,0,0,1-.761.12Z" transform="translate(-477.49 -1652.03)" fill="#6f6571"/>
      </g>
      <path id="Trazado_27177" data-name="Trazado 27177" d="M520.89,1669.7h-2.028a.542.542,0,1,0,0,1.084h2.028a.542.542,0,1,0,0-1.084Z" transform="translate(-48.203 -56.853)" fill="#00223d"/>
      <path id="Trazado_27178" data-name="Trazado 27178" d="M522.7,1607.044l-2.951-1.138-1.5-1.505a.541.541,0,0,0-.348-.157v-1.2a5.589,5.589,0,0,0,1.418-2.793,1.543,1.543,0,0,0,.38-.03,1.6,1.6,0,0,0,1.245-1.591v-.4a1.624,1.624,0,0,0-.477-1.153c.479-2.6.084-4.724-1.145-6.144-1.189-1.373-3.105-2.03-5.541-1.9a7.26,7.26,0,0,0-4.163,1.536,2.764,2.764,0,0,0-2.435,3.062,13.546,13.546,0,0,0,.376,3.149,1.607,1.607,0,0,0-.883,1.454v.389a1.6,1.6,0,0,0,1.245,1.591,1.544,1.544,0,0,0,.38.03,5.592,5.592,0,0,0,1.418,2.793v1.2a.541.541,0,0,0-.348.157l-1.505,1.5-2.951,1.139a3.571,3.571,0,0,0-.725.379.542.542,0,1,0,.609.9,2.5,2.5,0,0,1,.506-.265l2.739-1.057,2.094,3.142a1.55,1.55,0,0,0,1.142.685c.052.005.1.008.155.008a1.547,1.547,0,0,0,.763-.2l-.449,10.194a.542.542,0,0,0,.518.565h.024a.542.542,0,0,0,.541-.518l.417-9.463h1.125l.417,9.463a.542.542,0,0,0,.541.518h.024a.542.542,0,0,0,.518-.565l-.45-10.194a1.548,1.548,0,0,0,.763.2q.077,0,.155-.008a1.551,1.551,0,0,0,1.142-.685l2.094-3.142,2.739,1.057a2.49,2.49,0,0,1,.975.679l-1.874,1.874a3.562,3.562,0,0,0-1.05,2.535v7.706a.542.542,0,1,0,1.084,0v-7.706a2.483,2.483,0,0,1,.733-1.768l1.645-1.645a2.5,2.5,0,0,1,.086.758l-.42,10.339a.542.542,0,0,0,.519.564h.022a.542.542,0,0,0,.541-.52l.42-10.34A3.584,3.584,0,0,0,522.7,1607.044Zm-8.9.569-3.008-2.632v-1.037a5.61,5.61,0,0,0,6.015,0v1.037Zm-5.546-8.443a.457.457,0,0,1-.126-.009.525.525,0,0,1-.378-.529v-.389a.514.514,0,0,1,.382-.516.472.472,0,0,1,.464.178.756.756,0,0,0,1.039.163,3.939,3.939,0,0,0,.889-.869.542.542,0,1,0-.87-.647,2.882,2.882,0,0,1-.422.456,1.549,1.549,0,0,0-.588-.314,12.459,12.459,0,0,1-.387-3.055,1.9,1.9,0,0,1,.761-1.733,1.757,1.757,0,0,1,.81-.26.547.547,0,0,0,.374-.15,6.106,6.106,0,0,1,3.627-1.372c2.089-.113,3.7.415,4.663,1.525s1.292,2.838.942,4.989a2.341,2.341,0,0,0-.462.032l-.509-1.223a.542.542,0,0,0-.638-.316c-.05.013-5.055,1.282-7.154-1.331a.542.542,0,1,0-.845.679c2.143,2.668,6.4,2.088,7.811,1.8l.394.946a.891.891,0,0,0,1.03.528,1.173,1.173,0,0,1,.405-.03.511.511,0,0,1,.384.508v.4a.525.525,0,0,1-.378.529.443.443,0,0,1-.126.009,1.056,1.056,0,0,0-1.1.86,4.523,4.523,0,0,1-8.9,0A1.055,1.055,0,0,0,508.255,1599.17Zm3.122,10.577a.467.467,0,0,1-.346-.208l-2.11-3.165.848-.849,3.239,2.834-1.251,1.251A.465.465,0,0,1,511.376,1609.747Zm1.909.58.033-.745.482-.482.482.482.033.745Zm3.285-.788a.472.472,0,0,1-.727.072l-1.251-1.251,3.239-2.834.848.849Z" transform="translate(-38.071 -0.001)" fill="#00223d"/>
      <path id="Trazado_27179" data-name="Trazado 27179" d="M467.108,1609.884l-2.647-1.155-1.447-1.447a.537.537,0,0,0-.348-.157v-.853a5.6,5.6,0,0,0,2.432-3.644,1.547,1.547,0,0,0,.428-.041,1.613,1.613,0,0,0,1.2-1.58v-.4a1.617,1.617,0,0,0-.695-1.333,6.134,6.134,0,0,0,.187-1.5,6.319,6.319,0,0,0-3.043-5.359,3.589,3.589,0,0,0-7.167,0,6.32,6.32,0,0,0-3.043,5.359,6.13,6.13,0,0,0,.186,1.5,1.62,1.62,0,0,0-.693,1.343v.389a1.613,1.613,0,0,0,1.2,1.58,1.547,1.547,0,0,0,.428.041,5.6,5.6,0,0,0,2.432,3.644v.853a.537.537,0,0,0-.348.157l-1.447,1.447-2.646,1.155a3.606,3.606,0,0,0-2.147,3.437l.32,7.551a.542.542,0,0,0,.541.519h.023a.542.542,0,0,0,.519-.564l-.32-7.551a2.5,2.5,0,0,1,.343-1.365l1.423,1.707a3.013,3.013,0,0,1,.7,1.925v5.307a.542.542,0,0,0,1.084,0v-5.307a4.1,4.1,0,0,0-.948-2.619l-1.512-1.815a2.454,2.454,0,0,1,.411-.231l2.307-1.007,1.63,2.646a1.049,1.049,0,0,0,1.574.248l1.033-.881v8.966a.542.542,0,1,0,1.084,0v-8.966l1.033.881a1.049,1.049,0,0,0,1.574-.248l1.63-2.646,2.307,1.007a2.455,2.455,0,0,1,.411.231l-1.512,1.815a4.1,4.1,0,0,0-.948,2.619v5.307a.542.542,0,0,0,1.084,0v-5.307a3.014,3.014,0,0,1,.7-1.925l1.423-1.707a2.5,2.5,0,0,1,.343,1.365l-.32,7.551a.543.543,0,0,0,.519.565h.023a.542.542,0,0,0,.541-.519l.32-7.551A3.607,3.607,0,0,0,467.108,1609.884Zm-7.519-19.775a2.483,2.483,0,0,1,2.414,1.732,6.874,6.874,0,0,0-4.827,0A2.483,2.483,0,0,1,459.589,1590.109Zm-4.448,12.3a1.056,1.056,0,0,0-1.1-.86.463.463,0,0,1-.142-.012.529.529,0,0,1-.362-.526v-.389a.514.514,0,0,1,.382-.516.472.472,0,0,1,.464.178.756.756,0,0,0,1.039.163,3.932,3.932,0,0,0,.877-.853.542.542,0,1,0-.867-.651,2.884,2.884,0,0,1-.414.445,1.55,1.55,0,0,0-.818-.36,5.058,5.058,0,0,1-.157-1.246,5.549,5.549,0,0,1,11.086,0,5.038,5.038,0,0,1-.156,1.243,2.475,2.475,0,0,0-.422.069l-.407-.335a1.038,1.038,0,0,0-.723-.237c-.8.047-4.877.155-6.97-2.35a.542.542,0,1,0-.832.7,7.746,7.746,0,0,0,4.5,2.483,13.272,13.272,0,0,0,3.347.255l.636.523a.541.541,0,0,0,.616.05,1.2,1.2,0,0,1,.534-.071.511.511,0,0,1,.384.509v.4a.529.529,0,0,1-.362.526.47.47,0,0,1-.142.012,1.056,1.056,0,0,0-1.1.86,4.523,4.523,0,0,1-8.9,0Zm4.448,4.789a5.6,5.6,0,0,0,1.993-.367v1.121l-1.993,1.993-1.993-1.993v-1.121A5.6,5.6,0,0,0,459.589,1607.193Zm-2.247,4.719-1.63-2.646.835-.835,2.244,2.245Zm4.495,0-1.449-1.237,2.244-2.245.835.835Z" transform="translate(0 0)" fill="#00223d"/>
      <path id="Trazado_27180" data-name="Trazado 27180" d="M470.873,1677.794h-1.521a.542.542,0,1,0,0,1.084h1.521a.542.542,0,0,0,0-1.084Z" transform="translate(-13.312 -62.558)" fill="#00223d"/>
    </g>
  </g>
</svg>
