<svg xmlns="http://www.w3.org/2000/svg" xmlns:xlink="http://www.w3.org/1999/xlink" width="108" height="108" viewBox="0 0 108 108">
  <defs>
    <filter id="Elipse_5696" x="0" y="0" width="108" height="108" filterUnits="userSpaceOnUse">
      <feOffset dy="3" input="SourceAlpha"/>
      <feGaussianBlur stdDeviation="3" result="blur"/>
      <feFlood flood-opacity="0.161"/>
      <feComposite operator="in" in2="blur"/>
      <feComposite in="SourceGraphic"/>
    </filter>
  </defs>
  <g id="Grupo_1101053" data-name="Grupo 1101053" transform="translate(-591 -4040)">
    <g id="Grupo_1101014" data-name="Grupo 1101014">
      <g id="Grupo_1008761" data-name="Grupo 1008761" transform="translate(420 2116.107)">
        <g transform="matrix(1, 0, 0, 1, 171, 1923.89)" filter="url(#Elipse_5696)">
          <g id="Elipse_5696-2" data-name="Elipse 5696" transform="translate(9 6)" fill="#fff" stroke="#cce9e5" stroke-width="2">
            <circle cx="45" cy="45" r="45" stroke="none"/>
            <circle cx="45" cy="45" r="44" fill="none"/>
          </g>
        </g>
      </g>
      <g id="Grupo_1101008" data-name="Grupo 1101008" transform="translate(621 4067)">
        <path id="Trazado_875539" data-name="Trazado 875539" d="M40.245,8H11.071A3.07,3.07,0,0,0,8,11.071V50.994a3.07,3.07,0,0,0,3.071,3.071H40.245a3.07,3.07,0,0,0,3.071-3.071V11.071A3.07,3.07,0,0,0,40.245,8Zm0,0" transform="translate(-7.232 -7.232)" fill="#e6e9ed"/>
        <path id="Trazado_875540" data-name="Trazado 875540" d="M93.159,144l7.056,7.056a9.967,9.967,0,0,1-12.453,1.336Zm0,0" transform="translate(-79.339 -130.181)" fill="#fcd770"/>
        <path id="Trazado_875541" data-name="Trazado 875541" d="M49.981,144l-5.4,8.392A9.962,9.962,0,0,1,40,144Zm0,0" transform="translate(-36.161 -130.181)" fill="#ffeaa7"/>
        <path id="Trazado_875542" data-name="Trazado 875542" d="M49.981,40v9.981H40A9.98,9.98,0,0,1,49.981,40Zm0,0" transform="translate(-36.161 -36.161)" fill="#ff9751"/>
        <path id="Trazado_875543" data-name="Trazado 875543" d="M144,40a9.978,9.978,0,0,1,7.056,17.036L144,49.981Zm0,0" transform="translate(-130.181 -36.161)" fill="#b3e6ff"/>
        <path id="Trazado_875544" data-name="Trazado 875544" d="M343.608,344.538l.837-.538,6.142,6.142v7.677h-8.445l-2.257-3.1L336,349.375l1.366-.867Zm0,0" transform="translate(-303.755 -310.987)" fill="#99d3cc"/>
        <path id="Trazado_875545" data-name="Trazado 875545" d="M263.677,232l-3.071,3.071h-3.071A1.54,1.54,0,0,1,256,233.535,1.546,1.546,0,0,1,257.535,232Zm0,0" transform="translate(-231.432 -209.735)" fill="#f0d0b4"/>
        <path id="Trazado_875546" data-name="Trazado 875546" d="M305.727,152.476a1.631,1.631,0,0,1,0,2.3l-5.812,5.82-2.718,2.71-2.511,2.511-1.021-2.042A1.863,1.863,0,0,0,292,162.748h1.152l10.272-10.272a1.631,1.631,0,0,1,2.3,0Zm0,0" transform="translate(-263.977 -137.413)" fill="#cf9e76"/>
        <path id="Trazado_875547" data-name="Trazado 875547" d="M236.1,293.359l1.535,3.071h-.007l-2.557,2.557-3.071.768.768-3.071,3.324-3.324Zm0,0" transform="translate(-209.736 -265.206)" fill="#cf9e76"/>
        <path id="Trazado_875548" data-name="Trazado 875548" d="M283.186,243.644l2.565,8.323-6.242,3.969-2.9-1.743a3.075,3.075,0,0,1-1.167-1.259L273.8,249.64l-1.6-3.194a1.832,1.832,0,0,1-.2-.829,1.861,1.861,0,0,1,1.866-1.866h.054a1.863,1.863,0,0,1,1.666,1.029l2.25,4.5a1.112,1.112,0,0,0,1,.614h.161a1.536,1.536,0,0,0,1.444-2.073l-1.321-3.508,2.718-2.71.2.2A4.174,4.174,0,0,1,283.186,243.644Zm0,0" transform="translate(-245.897 -218.416)" fill="#f0d0b4"/>
        <path id="Trazado_875549" data-name="Trazado 875549" d="M55.355,303.677A7.677,7.677,0,1,1,47.677,296,7.677,7.677,0,0,1,55.355,303.677Zm0,0" transform="translate(-36.161 -267.594)" fill="#fcd770"/>
        <path id="Trazado_875550" data-name="Trazado 875550" d="M40.8,32.035l-.51.324L38.025,25a4.964,4.964,0,0,0-1.018-1.81l5.284-5.284a2.4,2.4,0,1,0-3.389-3.39l-2.051,2.051V3.839A3.843,3.843,0,0,0,33.013,0H3.839A3.843,3.843,0,0,0,0,3.839V43.761A3.843,3.843,0,0,0,3.839,47.6H33.013a3.83,3.83,0,0,0,3.426-2.142L38,47.6h9.6V38.837Zm-4.239-6.579,2.387,7.757-5.346,3.4-2.5-1.5a2.3,2.3,0,0,1-.875-.945l-3.242-6.484A1.1,1.1,0,0,1,28.022,26.1a1.088,1.088,0,0,1,.98.606L31.249,31.2a1.875,1.875,0,0,0,1.686,1.042H33.1a2.3,2.3,0,0,0,2.157-3.112l-1.142-3.046,1.808-1.808a3.448,3.448,0,0,1,.636,1.177Zm-7.7-.888H26.1a.768.768,0,0,1,0-1.535h4.289Zm-2.708,4.879.812,1.624-2.018,2.018-1.623.405.405-1.623Zm6.774-2.167.9,2.392A.769.769,0,0,1,33.1,30.71h-.164a.348.348,0,0,1-.312-.193l-.979-1.959Zm7.066-11.673a.861.861,0,0,1,1.218,1.218L30.92,27.11l-.544-1.088a2.579,2.579,0,0,0-.319-.484ZM33.013,46.064H3.839a2.306,2.306,0,0,1-2.3-2.3V3.839a2.306,2.306,0,0,1,2.3-2.3H33.013a2.306,2.306,0,0,1,2.3,2.3V18.108L31.927,21.5H26.1a2.3,2.3,0,0,0-.491,4.551,2.454,2.454,0,0,0-.149,1.912l-3.124,3.124L21.209,35.6l4.519-1.13,1.956-1.956,1.171,2.341a3.827,3.827,0,0,0,1.459,1.575l1.837,1.1-1.007.641L35.3,43.895a2.3,2.3,0,0,1-2.289,2.17Zm13.052,0H38.778L33.346,38.6l7.237-4.6,5.482,5.482Zm0,0" transform="translate(0 0)"/>
        <path id="Trazado_875551" data-name="Trazado 875551" d="M272,32h7.677v1.535H272Zm0,0" transform="translate(-245.897 -28.929)"/>
        <path id="Trazado_875552" data-name="Trazado 875552" d="M272,64h7.677v1.535H272Zm0,0" transform="translate(-245.897 -57.858)"/>
        <path id="Trazado_875553" data-name="Trazado 875553" d="M272,96h7.677v1.535H272Zm0,0" transform="translate(-245.897 -86.787)"/>
        <path id="Trazado_875554" data-name="Trazado 875554" d="M272,128h7.677v1.535H272Zm0,0" transform="translate(-245.897 -115.716)"/>
        <path id="Trazado_875555" data-name="Trazado 875555" d="M98.3,323.071a.769.769,0,0,1,.768.768h1.535a2.3,2.3,0,0,0-1.535-2.162V320H97.535v1.535H96v2.3a2.306,2.306,0,0,0,2.3,2.3.769.769,0,0,1,.768.768v.768H98.3a.769.769,0,0,1-.768-.768H96a2.3,2.3,0,0,0,1.535,2.162v1.677h1.535v-1.535h1.535v-2.3a2.306,2.306,0,0,0-2.3-2.3.769.769,0,0,1-.768-.768v-.768Zm0,0" transform="translate(-86.787 -289.29)"/>
        <path id="Trazado_875556" data-name="Trazado 875556" d="M160,368h1.535v1.535H160Zm0,0" transform="translate(-144.645 -332.684)"/>
        <path id="Trazado_875557" data-name="Trazado 875557" d="M64,368h1.535v1.535H64Zm0,0" transform="translate(-57.858 -332.684)"/>
        <path id="Trazado_875558" data-name="Trazado 875558" d="M40.445,288a8.445,8.445,0,1,0,8.445,8.445A8.455,8.455,0,0,0,40.445,288Zm0,15.355a6.91,6.91,0,1,1,6.91-6.91A6.918,6.918,0,0,1,40.445,303.355Zm0,0" transform="translate(-28.929 -260.361)"/>
        <path id="Trazado_875559" data-name="Trazado 875559" d="M42.748,53.5A10.748,10.748,0,1,0,32,42.748,10.76,10.76,0,0,0,42.748,53.5Zm-9.174-9.981h7.767l-4.2,6.528A9.2,9.2,0,0,1,33.574,43.516Zm4.858,7.366,4.447-6.918,5.812,5.812a9.172,9.172,0,0,1-10.259,1.106Zm13.529-8.134a9.17,9.17,0,0,1-2.184,5.943l-6.261-6.261V33.574A9.221,9.221,0,0,1,51.961,42.748Zm-9.981-9.174v8.406H33.575A9.218,9.218,0,0,1,41.981,33.574Zm0,0" transform="translate(-28.929 -28.929)"/>
      </g>
    </g>
  </g>
</svg>
