<svg xmlns="http://www.w3.org/2000/svg" xmlns:xlink="http://www.w3.org/1999/xlink" width="73" height="72.998" viewBox="0 0 73 72.998">
  <defs>
    <clipPath id="clip-path">
      <rect id="Rectángulo_380931" data-name="Rectángulo 380931" width="73" height="72.998" fill="none"/>
    </clipPath>
  </defs>
  <g id="Grupo_1101063" data-name="Grupo 1101063" transform="translate(-725 -6240.664)">
    <g id="Grupo_1084980" data-name="Grupo 1084980" transform="translate(725 6240.664)">
      <g id="Grupo_1084979" data-name="Grupo 1084979" clip-path="url(#clip-path)">
        <path id="Trazado_794333" data-name="Trazado 794333" d="M.069,68.922V3.917c.242-.105.191-.365.254-.545A4.764,4.764,0,0,1,2.6.668a13.128,13.128,0,0,1,1.463-.6H53.671c.025.037.043.1.076.106a4.807,4.807,0,0,1,3.916,5.087q0,9.932,0,19.865v.747l.205.131a.979.979,0,0,1,.138-.324q3.014-3.026,6.041-6.038a5.221,5.221,0,0,1,7.4-.236,6.478,6.478,0,0,1,1.612,2.9V24.16a8.558,8.558,0,0,1-2.184,3.388c-4.274,4.217-8.5,8.482-12.757,12.715a1.5,1.5,0,0,0-.465,1.181q.02,13.351.01,26.7a4.892,4.892,0,0,1-1.3,3.354,6.283,6.283,0,0,1-2.692,1.556H4.2a5.569,5.569,0,0,1-3.009-1.742A6.266,6.266,0,0,1,.069,68.922M69.76,21.884l-.121-.148h0a2.081,2.081,0,0,0-2.561-.71h0l-.19.1.007-.018a.8.8,0,0,0-.529.339c-1.054.853-1.054.853-.351,1.449l.19.176a.087.087,0,0,0,.072.095,4.319,4.319,0,0,0,.915.9l-.016-.015.3.3-.015-.009a3.433,3.433,0,0,0,.749.771.082.082,0,0,0,.091.07c.265.464.53.48.8,0l-.013.009.159-.154-.006.01a1.889,1.889,0,0,0,.749-.971l-.015-.017a1.745,1.745,0,0,0-.028-1.827l.011-.039-.032-.024a.258.258,0,0,0-.151-.258l-.01-.023m-10.361,13a1.847,1.847,0,0,0,.584-.587l.122-.117a8.822,8.822,0,0,0,1.552-1.609l.586-.675a7.274,7.274,0,0,0,1.724-1.581l-.006.006a1.848,1.848,0,0,0,.584-.587l.122-.116a13.014,13.014,0,0,0,1.581-1.584l-.008.007c.116-.071.262-.135.058-.274-.028.071-.006.11.073.111.6-.359-.053-.409-.147-.6-.86-.878-1.73-1.747-2.575-2.64-.274-.29-.419-.141-.622.062q-6.1,6.112-12.218,12.214c-.192.192-.282.314-.034.554.886.856,1.753,1.733,2.615,2.613.249.255.459.283.717.025.229-.229.48-.435.721-.651a1.979,1.979,0,0,0,.593-.6l.122-.117a8.59,8.59,0,0,0,1.548-1.609l.59-.676A7.29,7.29,0,0,0,59.4,34.876ZM33.12,65.927A1.483,1.483,0,0,1,34.813,64.5c4.562,0,9.123-.009,13.684.011.492,0,.627-.107.625-.615-.022-4.585-.013-9.17-.013-13.755V46.221c-1.371.6-2.692,1.162-3.992,1.767a1.482,1.482,0,0,1-2.073-2.056c.969-2.153,1.94-4.306,2.883-6.471.746-1.713,1.384-3.488,2.971-4.663.223-.165.213-.4.213-.641q0-12.508.006-25.016c0-.376-.058-.533-.49-.529-2.376.022-4.752.019-7.127,0-.388,0-.5.089-.529.5a4.386,4.386,0,0,1-4.2,4.059q-7.911.042-15.822,0a4.382,4.382,0,0,1-4.185-3.995c-.027-.493-.185-.567-.615-.563-2.281.018-4.562.027-6.842,0-.544-.007-.7.116-.7.685q.025,27.261,0,54.523c0,.538.109.7.682.7,4.538-.027,9.075-.016,13.613-.014a1.452,1.452,0,1,1-.062,2.847q-7.7,0-15.395,0c-1.145,0-1.676-.546-1.676-1.713q0-29.078,0-58.156c0-1.189.534-1.709,1.75-1.71,2.352,0,4.7,0,7.056,0,.686,0,1.594.236,2-.108.47-.4.081-1.338.161-2.037.062-.54-.092-.729-.681-.724-3.563.03-7.127.015-10.691.017-1.723,0-2.451.735-2.451,2.468Q2.919,36.5,2.9,67.6a2.352,2.352,0,0,0,2.628,2.626q23.413-.062,46.825-.023c1.714,0,2.465-.745,2.465-2.459q0-11.653,0-23.305v-.782c-.77.349-1.458.715-2.185.972a.913.913,0,0,0-.686,1.043c.021,6.628.015,13.256.015,19.884,0,1.294-.5,1.79-1.813,1.791q-7.626,0-15.252,0c-1.111,0-1.52-.333-1.774-1.425M28.94,2.917c-2.918,0-5.837.008-8.755-.009-.438,0-.617.074-.607.571.033,1.708.007,3.416.015,5.125a1.583,1.583,0,0,0,1.724,1.725q7.545.012,15.09,0a1.592,1.592,0,0,0,1.73-1.721c.01-1.708-.017-3.417.015-5.125.009-.486-.151-.578-.6-.575-2.871.019-5.742.01-8.613.009M51.959,31.529l.168.086c.76-.779,1.5-1.575,2.289-2.329a1.239,1.239,0,0,0,.405-1c-.016-2.755-.008-5.511-.008-8.266q0-7.447,0-14.894a2.007,2.007,0,0,0-2-2.206c-3.777-.018-7.554,0-11.331-.013-.366,0-.511.1-.493.483a11.864,11.864,0,0,1-.006,1.638c-.052.576.109.764.724.756,2.8-.036,5.606-.017,8.409-.015,1.364,0,1.839.477,1.839,1.833q0,11.188,0,22.376v1.547M47.047,43.985c1.422-.626,2.672-1.178,3.924-1.727.265-.116.3-.241.079-.455q-.891-.866-1.756-1.758c-.244-.251-.375-.277-.534.1-.527,1.233-1.088,2.452-1.711,3.845" transform="translate(-0.059 -0.058)" fill="#080808"/>
        <path id="Trazado_794334" data-name="Trazado 794334" d="M4,.009a13.144,13.144,0,0,0-1.463.6,4.765,4.765,0,0,0-2.275,2.7c-.062.181-.012.44-.254.545C.009,2.694.023,1.53,0,.366-.006.059.059-.006.366,0,1.577.023,2.789.009,4,.009" transform="translate(0.001 0)" fill="#f5f4f4"/>
        <path id="Trazado_794335" data-name="Trazado 794335" d="M47.309,82.967l2.8-.007c.253,1.092.663,1.425,1.774,1.425q7.626,0,15.252,0c1.313,0,1.812-.5,1.813-1.791,0-6.628.007-13.256-.015-19.884a.913.913,0,0,1,.686-1.043c.726-.258,1.414-.623,2.185-.972v.782q0,11.653,0,23.305c0,1.714-.751,2.459-2.465,2.459q-23.413,0-46.825.023a2.352,2.352,0,0,1-2.628-2.626q.055-31.109.024-62.218c0-1.733.728-2.467,2.451-2.468,3.564,0,7.127.013,10.691-.017.589,0,.743.185.681.724-.08.7.309,1.638-.161,2.037-.406.344-1.314.107-2,.108-2.352,0-4.7,0-7.056,0-1.216,0-1.75.521-1.75,1.71q0,29.078,0,58.156c0,1.167.531,1.712,1.676,1.713q7.7,0,15.395,0A1.5,1.5,0,0,0,41.6,82.953l2.806,0c.176.916.665,1.413,1.405,1.429q1.151.024,1.5-1.417" transform="translate(-17.05 -17.092)" fill="#01927f"/>
        <path id="Trazado_794336" data-name="Trazado 794336" d="M146.234,19.992c2.871,0,5.742.01,8.613-.009.447,0,.608.089.6.575-.032,1.708-.005,3.416-.015,5.125A1.592,1.592,0,0,1,153.7,27.4q-7.545.01-15.09,0a1.583,1.583,0,0,1-1.724-1.725c-.008-1.708.018-3.417-.015-5.125-.01-.5.169-.573.607-.571,2.918.017,5.837.009,8.755.009" transform="translate(-117.353 -17.133)" fill="#b80fff"/>
        <path id="Trazado_794337" data-name="Trazado 794337" d="M297.909,48.624V47.078q0-11.188,0-22.376c0-1.356-.476-1.832-1.839-1.833-2.8,0-5.606-.021-8.409.015-.615.008-.777-.18-.724-.756a11.863,11.863,0,0,0,.006-1.638c-.018-.38.127-.484.493-.483,3.777.01,7.554-.006,11.331.013a2.007,2.007,0,0,1,2,2.206q.007,7.447,0,14.894c0,2.755-.007,5.511.009,8.266a1.238,1.238,0,0,1-.406,1c-.784.754-1.528,1.55-2.289,2.329l-.168-.086" transform="translate(-246.008 -17.154)" fill="#01927f"/>
        <path id="Trazado_794338" data-name="Trazado 794338" d="M366.19,178.656l-.586.675c-.868-.024-1.16.74-1.648,1.228-.048.048.06.25.1.381l-.122.116c-.439-.047-.657.125-.584.587l.006-.006a2.047,2.047,0,0,0-1.724,1.581l-.59.675c-.867-.025-1.091.825-1.644,1.228-.04.029.06.249.1.381l-.122.117c-.453-.053-.65.148-.593.6-.241.216-.492.423-.721.651-.258.258-.468.23-.717-.025-.862-.881-1.728-1.757-2.615-2.613-.248-.24-.159-.362.034-.554q6.114-6.1,12.218-12.214c.2-.2.348-.353.622-.062.845.893,1.715,1.762,2.575,2.641a.817.817,0,0,0,.147.6c-.079,0-.1-.04-.074-.111-.02.091-.038.182-.056.274l.008-.007a2.487,2.487,0,0,0-1.688,1.257c-.019.1.069.217.108.327l-.122.116c-.439-.047-.657.125-.584.587l.006-.006a2.046,2.046,0,0,0-1.724,1.581" transform="translate(-304.007 -146.819)" fill="#fdb147"/>
        <path id="Trazado_794339" data-name="Trazado 794339" d="M459.783,149.171a.087.087,0,0,1-.072-.1l-.19-.176c-.7-.6-.7-.6.351-1.449.4.232.482-.024.529-.339l-.007.018.19-.1h0l2.561.71h0l.121.148.01.023.151.258.032.024-.011.039q.014.914.028,1.827l.015.017c-.647.017-.633.545-.749.971l.006-.01-.159.154.013-.009h-.8a.082.082,0,0,1-.09-.07.734.734,0,0,0-.749-.771l.015.009a.3.3,0,0,0-.3-.3l.016.014c-.145-.462-.351-.861-.915-.9" transform="translate(-393.57 -126.063)" fill="#e45164"/>
        <path id="Trazado_794340" data-name="Trazado 794340" d="M329.5,283.217c.623-1.393,1.184-2.612,1.711-3.844.159-.372.29-.346.534-.1q.866.891,1.756,1.758c.221.214.187.339-.079.455-1.251.548-2.5,1.1-3.924,1.727" transform="translate(-282.508 -239.291)" fill="#828c9e"/>
        <path id="Trazado_794341" data-name="Trazado 794341" d="M472.512,146.673l-2.561-.71a2.08,2.08,0,0,1,2.561.71" transform="translate(-402.933 -124.995)" fill="#da5d71"/>
        <path id="Trazado_794342" data-name="Trazado 794342" d="M452.385,197.758c-.039-.109-.127-.228-.108-.327a2.487,2.487,0,0,1,1.688-1.257,13.009,13.009,0,0,1-1.581,1.584" transform="translate(-387.777 -168.198)" fill="#f1b64b"/>
        <path id="Trazado_794343" data-name="Trazado 794343" d="M420.414,229.591c-.036-.131-.143-.333-.1-.381.488-.488.78-1.252,1.648-1.228a8.826,8.826,0,0,1-1.552,1.609" transform="translate(-360.369 -195.47)" fill="#f1b64b"/>
        <path id="Trazado_794344" data-name="Trazado 794344" d="M436.053,213.748a2.047,2.047,0,0,1,1.724-1.581,7.275,7.275,0,0,1-1.724,1.581" transform="translate(-373.869 -181.911)" fill="#f1b64b"/>
        <path id="Trazado_794345" data-name="Trazado 794345" d="M404.063,245.737a2.047,2.047,0,0,1,1.724-1.581,7.288,7.288,0,0,1-1.724,1.581" transform="translate(-346.441 -209.338)" fill="#f1b64b"/>
        <path id="Trazado_794346" data-name="Trazado 794346" d="M388.44,261.581c-.035-.131-.135-.352-.1-.381.553-.4.777-1.253,1.644-1.228a8.592,8.592,0,0,1-1.548,1.609" transform="translate(-332.957 -222.898)" fill="#f1b64b"/>
        <path id="Trazado_794347" data-name="Trazado 794347" d="M490.065,157.288q-.014-.913-.028-1.827a1.744,1.744,0,0,1,.028,1.827" transform="translate(-420.155 -133.291)" fill="#da5d71"/>
        <path id="Trazado_794348" data-name="Trazado 794348" d="M485.081,169.364c.117-.426.1-.954.749-.971a1.888,1.888,0,0,1-.749.971" transform="translate(-415.905 -144.379)" fill="#da5d71"/>
        <path id="Trazado_794349" data-name="Trazado 794349" d="M464.307,162.04c.564.034.77.434.915.9a4.313,4.313,0,0,1-.915-.9" transform="translate(-398.094 -138.932)" fill="#da5d71"/>
        <path id="Trazado_794350" data-name="Trazado 794350" d="M472.63,170.247a.734.734,0,0,1,.749.771,3.43,3.43,0,0,1-.749-.771" transform="translate(-405.23 -145.969)" fill="#da5d71"/>
        <path id="Trazado_794351" data-name="Trazado 794351" d="M478.517,176.143h.8c-.266.479-.531.463-.8,0" transform="translate(-410.277 -151.024)" fill="#da5d71"/>
        <path id="Trazado_794352" data-name="Trazado 794352" d="M448.013,208.637c-.073-.462.146-.634.584-.587a1.849,1.849,0,0,1-.584.587" transform="translate(-384.112 -178.375)" fill="#f1b64b"/>
        <path id="Trazado_794353" data-name="Trazado 794353" d="M416.024,240.626c-.073-.462.146-.634.584-.587a1.848,1.848,0,0,1-.584.587" transform="translate(-356.685 -205.802)" fill="#f1b64b"/>
        <path id="Trazado_794354" data-name="Trazado 794354" d="M384,272.622c-.057-.452.14-.652.593-.6a1.976,1.976,0,0,1-.593.6" transform="translate(-329.229 -233.223)" fill="#f1b64b"/>
        <path id="Trazado_794355" data-name="Trazado 794355" d="M465.458,147.6c-.046.315-.131.571-.529.339a.8.8,0,0,1,.529-.339" transform="translate(-398.627 -126.552)" fill="#da5d71"/>
        <path id="Trazado_794356" data-name="Trazado 794356" d="M464.1,191.489a.817.817,0,0,1-.147-.6c.094.188.745.239.147.6" transform="translate(-397.793 -163.669)" fill="#f1b64b"/>
        <path id="Trazado_794357" data-name="Trazado 794357" d="M470.606,168.218a.3.3,0,0,1,.3.3l-.3-.3" transform="translate(-403.495 -144.229)" fill="#da5d71"/>
        <path id="Trazado_794358" data-name="Trazado 794358" d="M488.984,153.469l-.151-.258a.258.258,0,0,1,.151.258" transform="translate(-419.122 -131.362)" fill="#da5d71"/>
        <path id="Trazado_794359" data-name="Trazado 794359" d="M484.005,175.288l.159-.154-.159.154" transform="translate(-414.983 -150.159)" fill="#da5d71"/>
        <path id="Trazado_794360" data-name="Trazado 794360" d="M464.078,194.576c.018-.091.037-.182.056-.273.205.138.059.2-.056.273" transform="translate(-397.898 -166.594)" fill="#f1b64b"/>
        <path id="Trazado_794361" data-name="Trazado 794361" d="M462.468,160.142l.19.176-.19-.176" transform="translate(-396.517 -137.305)" fill="#da5d71"/>
        <path id="Trazado_794362" data-name="Trazado 794362" d="M488.033,152.16l-.122-.148.122.148" transform="translate(-418.332 -130.334)" fill="#da5d71"/>
        <path id="Trazado_794363" data-name="Trazado 794363" d="M468.777,147.04l-.19.1.19-.1" transform="translate(-401.764 -126.071)" fill="#da5d71"/>
        <path id="Trazado_794364" data-name="Trazado 794364" d="M94.022,229.98q2.135,0,4.27,0c1.176,0,1.71.519,1.711,1.669q.005,4.306,0,8.611a1.477,1.477,0,0,1-1.689,1.693q-4.306,0-8.612,0a1.458,1.458,0,0,1-1.673-1.634q-.006-4.341,0-8.682a1.458,1.458,0,0,1,1.65-1.656c1.447,0,2.894,0,4.341,0m-3.142,5.988c0,.9.015,1.8-.008,2.7-.009.346.1.442.441.439q2.7-.022,5.408,0c.342,0,.442-.1.439-.441q-.022-2.7,0-5.408c0-.342-.1-.442-.441-.439q-2.7.022-5.408,0c-.34,0-.448.1-.44.441.022.9.008,1.8.008,2.7" transform="translate(-75.475 -197.182)" fill="#080808"/>
        <path id="Trazado_794365" data-name="Trazado 794365" d="M94.029,131.986c-1.471,0-2.942,0-4.413,0a1.437,1.437,0,0,1-1.589-1.572q-.01-4.413,0-8.826a1.431,1.431,0,0,1,1.587-1.574q4.413-.007,8.826,0A1.421,1.421,0,0,1,100,121.548q.012,4.448,0,8.9a1.435,1.435,0,0,1-1.555,1.539c-1.471.008-2.942,0-4.413,0m.031-2.851c.854,0,1.709-.029,2.561.012.463.022.543-.145.538-.563-.022-1.731-.027-3.462,0-5.193.008-.462-.146-.543-.564-.537-1.731.022-3.462.019-5.193,0-.376,0-.544.053-.538.49.025,1.778.022,3.557,0,5.335,0,.392.133.473.49.464.9-.022,1.8-.007,2.7-.008" transform="translate(-75.47 -102.895)" fill="#080808"/>
        <path id="Trazado_794366" data-name="Trazado 794366" d="M100,345.921c0,1.471.006,2.942,0,4.413a1.439,1.439,0,0,1-1.592,1.573q-4.413.008-8.826,0a1.419,1.419,0,0,1-1.552-1.537q-.012-4.448,0-8.9a1.42,1.42,0,0,1,1.551-1.537q4.413-.009,8.826,0a1.442,1.442,0,0,1,1.593,1.573c.008,1.471,0,2.942,0,4.413m-9.1,2.566v.272c-.043.431.293.29.484.291,1.54.006,3.08-.007,4.62-.014h.148c.332-.139.985.432.991-.421.013-1.8,0-3.6.01-5.4,0-.349-.12-.439-.451-.436q-2.7.019-5.4,0c-.349,0-.441.122-.437.452.022,1.752.026,3.5.036,5.257" transform="translate(-75.466 -291.456)" fill="#080808"/>
        <path id="Trazado_794367" data-name="Trazado 794367" d="M227.477,358.691a1.716,1.716,0,0,1-1.208-.557c-.545-.563-1.129-1.089-1.65-1.672-.33-.369-.531-.3-.832.024-.53.576-1.094,1.121-1.661,1.662a1.449,1.449,0,0,1-2.148.113,1.465,1.465,0,0,1,.145-2.148c.58-.6,1.166-1.185,1.767-1.758.242-.231.259-.379,0-.62-.607-.567-1.19-1.16-1.771-1.754a1.443,1.443,0,1,1,2.007-2.046c.584.557,1.157,1.126,1.709,1.714.262.279.431.343.724.021.526-.579,1.1-1.113,1.658-1.664a1.5,1.5,0,0,1,2.208-.206,1.458,1.458,0,0,1-.144,2.2c-.56.581-1.123,1.161-1.714,1.71-.284.264-.26.426.006.679q.954.908,1.861,1.865a1.38,1.38,0,0,1,.271,1.636,1.406,1.406,0,0,1-1.229.8" transform="translate(-188.262 -299.579)" fill="#0e0e0e"/>
        <path id="Trazado_794368" data-name="Trazado 794368" d="M209.78,132.7a1.753,1.753,0,0,1,1.1.515c.464.476.941.939,1.411,1.409.67.67.668.67,1.36-.022,1.561-1.561,3.111-3.134,4.688-4.678a1.41,1.41,0,0,1,2.439.66,1.309,1.309,0,0,1-.388,1.3q-3.208,3.239-6.445,6.45a1.374,1.374,0,0,1-1.99,0c-1.1-1.05-2.161-2.135-3.216-3.227a1.347,1.347,0,0,1-.24-1.584,1.464,1.464,0,0,1,1.275-.819" transform="translate(-178.639 -110.987)" fill="#0c0d0c"/>
        <path id="Trazado_794369" data-name="Trazado 794369" d="M220.88,240.861a1.888,1.888,0,0,1-.556,1.128c-2.069,2.059-4.126,4.13-6.2,6.186a1.435,1.435,0,0,1-2.246,0q-1.477-1.442-2.923-2.916a1.437,1.437,0,1,1,1.992-2.046,20.034,20.034,0,0,1,1.554,1.565c.4.482.64.384,1.033-.022,1.586-1.634,3.213-3.228,4.819-4.842a1.409,1.409,0,0,1,1.684-.351,1.451,1.451,0,0,1,.841,1.3" transform="translate(-178.681 -205.279)" fill="#0c0d0c"/>
        <path id="Trazado_794370" data-name="Trazado 794370" d="M194.743,453.341q-.344,1.441-1.5,1.417c-.74-.015-1.23-.513-1.405-1.429.207-.969.67-1.421,1.452-1.419.751,0,1.251.5,1.449,1.43" transform="translate(-164.484 -387.466)" fill="#0e0e0e"/>
        <path id="Trazado_794371" data-name="Trazado 794371" d="M107.977,253.068c0-.9.015-1.8-.008-2.7-.009-.344.1-.444.439-.441q2.7.022,5.408,0c.34,0,.444.1.441.439q-.023,2.7,0,5.408c0,.34-.1.443-.439.441q-2.7-.022-5.408,0c-.338,0-.45-.094-.441-.439.023-.9.008-1.8.008-2.7m6.131.038c0-.831-.013-1.662.006-2.492.009-.391-.121-.551-.53-.547-1.59.016-3.18.006-4.771.006-.5,0-.709.227-.7.748.024,1.495.027,2.991,0,4.486-.011.574.248.759.766.757,1.566-.006,3.133-.012,4.7,0,.4,0,.547-.142.537-.54-.02-.806-.006-1.614-.006-2.421" transform="translate(-92.572 -214.283)" fill="#cbd562"/>
        <path id="Trazado_794372" data-name="Trazado 794372" d="M111.155,146.233c-.9,0-1.8-.014-2.7.008-.357.009-.495-.072-.49-.464.021-1.778.024-3.557,0-5.335-.006-.437.162-.494.538-.49,1.731.018,3.462.021,5.193,0,.418-.005.573.076.564.537-.03,1.731-.026,3.462,0,5.193.005.418-.075.586-.538.563-.852-.041-1.707-.012-2.561-.011m2.948-3.049h0c0-.782-.005-1.564,0-2.346,0-.53-.215-.757-.774-.746-1.445.028-2.892.043-4.335,0-.72-.023-.9.288-.887.929.024,1.4.043,2.8-.008,4.193-.025.69.3.876.878.878,1.516,0,3.033-.007,4.549.01.422,0,.6-.127.585-.568-.025-.781-.007-1.564-.007-2.345" transform="translate(-92.565 -119.993)" fill="#cbd562"/>
        <path id="Trazado_794373" data-name="Trazado 794373" d="M113.466,366.987h-.148a15.148,15.148,0,0,0-3.007-.121,6.492,6.492,0,0,1-2.1-.156v-.272c.194-.227.113-.5.114-.754.007-1.377.015-2.755-.006-4.132-.007-.459.081-.693.619-.683,1.591.03,3.183.024,4.774,0,.468-.007.62.153.612.616-.023,1.425-.044,2.851.006,4.275.024.686-.035,1.2-.866,1.228" transform="translate(-92.782 -309.405)" fill="#ff9751"/>
        <path id="Trazado_794374" data-name="Trazado 794374" d="M113.249,366.144c.831-.03.89-.542.866-1.228-.05-1.423-.029-2.85-.006-4.275.008-.463-.144-.623-.612-.616-1.591.022-3.183.029-4.774,0-.538-.01-.626.224-.619.683.021,1.377.013,2.755.006,4.132,0,.253.08.526-.114.754-.01-1.752-.014-3.5-.036-5.257,0-.33.088-.455.437-.452q2.7.022,5.4,0c.331,0,.454.087.451.436-.014,1.8,0,3.6-.01,5.4-.006.853-.659.282-.991.421" transform="translate(-92.564 -308.562)" fill="#da5d71"/>
        <path id="Trazado_794375" data-name="Trazado 794375" d="M108.195,401.829a6.49,6.49,0,0,0,2.1.156,15.152,15.152,0,0,1,3.007.121c-1.54.007-3.08.02-4.62.014-.19,0-.527.14-.484-.291" transform="translate(-92.762 -344.526)" fill="#da5d71"/>
        <path id="Trazado_794376" data-name="Trazado 794376" d="M114.96,253.976c0,.807-.014,1.614.006,2.421.01.4-.135.543-.537.54-1.566-.015-3.133-.009-4.7,0-.518,0-.777-.183-.766-.757.028-1.495.025-2.991,0-4.486-.008-.521.2-.748.7-.748,1.59,0,3.181.01,4.771-.006.409,0,.539.155.53.547-.019.83-.006,1.661-.006,2.492" transform="translate(-93.424 -215.152)" fill="#cad546"/>
        <path id="Trazado_794377" data-name="Trazado 794377" d="M114.918,144.006c0,.782-.018,1.564.007,2.345.014.442-.163.573-.585.568-1.516-.018-3.033-.006-4.549-.01-.577,0-.9-.188-.878-.878.051-1.4.032-2.8.008-4.193-.011-.641.167-.952.887-.929,1.444.047,2.891.033,4.335,0,.559-.011.779.216.774.746-.007.782,0,1.564,0,2.346Z" transform="translate(-93.381 -120.814)" fill="#cad546"/>
      </g>
    </g>
  </g>
</svg>
