<svg xmlns="http://www.w3.org/2000/svg" xmlns:xlink="http://www.w3.org/1999/xlink" width="96" height="95" viewBox="0 0 96 95">
  <defs>
    <linearGradient id="linear-gradient" x1="0.5" x2="0.5" y2="1" gradientUnits="objectBoundingBox">
      <stop offset="0" stop-color="#fff"/>
      <stop offset="1" stop-color="#e9e9e9"/>
    </linearGradient>
    <filter id="Elipse_7662" x="0" y="0" width="96" height="95" filterUnits="userSpaceOnUse">
      <feOffset dy="3" input="SourceAlpha"/>
      <feGaussianBlur stdDeviation="3" result="blur"/>
      <feFlood flood-opacity="0.161"/>
      <feComposite operator="in" in2="blur"/>
      <feComposite in="SourceGraphic"/>
    </filter>
  </defs>
  <g id="Grupo_1101055" data-name="Grupo 1101055" transform="translate(-806 -1086)">
    <g transform="matrix(1, 0, 0, 1, 806, 1086)" filter="url(#Elipse_7662)">
      <ellipse id="Elipse_7662-2" data-name="Elipse 7662" cx="39" cy="38.5" rx="39" ry="38.5" transform="translate(9 6)" fill="url(#linear-gradient)"/>
    </g>
    <g id="Grupo_17245" data-name="Grupo 17245" transform="translate(1342.933 -460.312)">
      <path id="Trazado_27242" data-name="Trazado 27242" d="M-509.383,1576.024v11.311a34.233,34.233,0,0,0,14.418,27.915l4.359,3.094a5.487,5.487,0,0,0,6.352,0l4.359-3.094a34.232,34.232,0,0,0,14.418-27.915v-11.311a2.481,2.481,0,0,0-2.07-2.447l-19.271-3.241a3.7,3.7,0,0,0-1.225,0l-19.271,3.24A2.482,2.482,0,0,0-509.383,1576.024Z" transform="translate(-1.507 -1.508)" fill="#12263f"/>
      <path id="Trazado_27243" data-name="Trazado 27243" d="M-500.554,1585.121v9.794a29.64,29.64,0,0,0,12.483,24.17l3.775,2.68a4.752,4.752,0,0,0,5.5,0l3.775-2.68a29.64,29.64,0,0,0,12.484-24.17v-9.794A2.149,2.149,0,0,0-464.33,1583l-16.686-2.806a3.2,3.2,0,0,0-1.06,0L-498.762,1583A2.149,2.149,0,0,0-500.554,1585.121Z" transform="translate(-7.391 -8.083)" fill="#dee4f0"/>
      <path id="Trazado_27244" data-name="Trazado 27244" d="M-468.247,1605.186a6.038,6.038,0,0,1,6.038-6.038,6.083,6.083,0,0,1,.977.08c0-.2.007-.407.007-.612V1589.5a2,2,0,0,0-1.668-1.972l-10-1.681a6.037,6.037,0,0,1-6,5.368,6.038,6.038,0,0,1-6-5.377l-10.05,1.69a2,2,0,0,0-1.668,1.972v9.116c0,.2,0,.408.008.612a6.083,6.083,0,0,1,.977-.08,6.038,6.038,0,0,1,6.038,6.038,6.039,6.039,0,0,1-4.13,5.728,27.577,27.577,0,0,0,8.727,10.2l3.513,2.494a4.422,4.422,0,0,0,5.119,0l3.513-2.494a27.576,27.576,0,0,0,8.726-10.2A6.039,6.039,0,0,1-468.247,1605.186Z" transform="translate(-10.021 -11.874)" fill="#ffe92f"/>
      <path id="Trazado_27245" data-name="Trazado 27245" d="M-455.654,1589.37l-4.571-.769-25.521,25.52a27.557,27.557,0,0,0,2.322,3.441l28.105-28.105A1.983,1.983,0,0,0-455.654,1589.37Z" transform="translate(-17.259 -13.714)" fill="#fff80b"/>
      <path id="Trazado_27246" data-name="Trazado 27246" d="M-447.106,1595.513a1.994,1.994,0,0,0-.111-.653l-28.205,28.205q.569.634,1.179,1.234l27.137-27.137v-1.649Z" transform="translate(-24.139 -17.885)" fill="#ff0"/>
      <path id="Trazado_27247" data-name="Trazado 27247" d="M-438.174,1594.86a.754.754,0,0,0-.755.755l-.008,8.1a33.53,33.53,0,0,1-14.1,27.3l-4.359,3.094a4.738,4.738,0,0,1-5.479,0l-4.359-3.094a.754.754,0,0,0-1.052.178.754.754,0,0,0,.178,1.052l4.359,3.094a6.235,6.235,0,0,0,3.613,1.151,6.237,6.237,0,0,0,3.613-1.151l4.359-3.094a35.043,35.043,0,0,0,14.735-28.53l.008-8.1A.754.754,0,0,0-438.174,1594.86Z" transform="translate(-28.801 -17.885)" fill="#00223d"/>
      <path id="Trazado_27248" data-name="Trazado 27248" d="M-498.339,1611.336a33.419,33.419,0,0,1-11.8-25.509v-11.311a1.722,1.722,0,0,1,1.441-1.7l19.271-3.24a2.927,2.927,0,0,1,.974,0l19.271,3.24a1.722,1.722,0,0,1,1.441,1.7.755.755,0,0,0,.755.755.754.754,0,0,0,.755-.755,3.227,3.227,0,0,0-2.7-3.192l-19.271-3.241a4.433,4.433,0,0,0-1.475,0l-19.271,3.241a3.227,3.227,0,0,0-2.7,3.192v11.311a34.926,34.926,0,0,0,12.329,26.659.75.75,0,0,0,.488.179.753.753,0,0,0,.576-.266A.755.755,0,0,0-498.339,1611.336Z" fill="#00223d"/>
      <path id="Trazado_27249" data-name="Trazado 27249" d="M-463.717,1598.4a5.352,5.352,0,0,1,.856.07.755.755,0,0,0,.6-.165.755.755,0,0,0,.272-.564c0-.232.008-.437.008-.628v-9.116a2.747,2.747,0,0,0-2.3-2.716l-10-1.681a.754.754,0,0,0-.58.142.756.756,0,0,0-.3.52,5.287,5.287,0,0,1-2.182,3.714.755.755,0,0,0-.175,1.053.754.754,0,0,0,1.053.175,6.809,6.809,0,0,0,2.67-3.99l9.255,1.556a1.242,1.242,0,0,1,1.039,1.228v8.9q-.116,0-.23,0a6.8,6.8,0,0,0-6.792,6.792,6.782,6.782,0,0,0,3.835,6.115,26.934,26.934,0,0,1-8.113,9.2l-3.513,2.494a3.671,3.671,0,0,1-4.246,0l-3.513-2.494a26.935,26.935,0,0,1-8.113-9.2,6.783,6.783,0,0,0,3.835-6.115,6.8,6.8,0,0,0-6.792-6.792q-.115,0-.23,0v-8.9a1.242,1.242,0,0,1,1.039-1.228l9.307-1.565a6.78,6.78,0,0,0,6.619,5.262,6.892,6.892,0,0,0,.772-.043.754.754,0,0,0,.665-.835.755.755,0,0,0-.835-.665,5.4,5.4,0,0,1-.6.034,5.271,5.271,0,0,1-5.25-4.7.755.755,0,0,0-.295-.52.753.753,0,0,0-.581-.142l-10.05,1.69a2.747,2.747,0,0,0-2.3,2.716v9.116c0,.19,0,.39.008.628a.756.756,0,0,0,.272.563.756.756,0,0,0,.6.165,5.348,5.348,0,0,1,.856-.07,5.289,5.289,0,0,1,5.283,5.283,5.275,5.275,0,0,1-3.614,5.012.756.756,0,0,0-.458.427.756.756,0,0,0,.021.626,28.44,28.44,0,0,0,8.965,10.478l3.513,2.494a5.171,5.171,0,0,0,3,.954,5.171,5.171,0,0,0,3-.954l3.513-2.494a28.443,28.443,0,0,0,8.965-10.478.755.755,0,0,0,.021-.626.755.755,0,0,0-.459-.427,5.275,5.275,0,0,1-3.614-5.012A5.289,5.289,0,0,1-463.717,1598.4Z" transform="translate(-8.513 -10.366)" fill="#00223d"/>
    </g>
  </g>
</svg>
