<svg xmlns="http://www.w3.org/2000/svg" width="106" height="106" viewBox="0 0 106 106">
  <g id="Grupo_1084820" data-name="Grupo 1084820" transform="translate(-1007 -7521)">
    <g id="Elipse_4924" data-name="Elipse 4924" transform="translate(1007 7521)" fill="#fff" stroke="#02dd84" stroke-width="2">
      <circle cx="53" cy="53" r="53" stroke="none"/>
      <circle cx="53" cy="53" r="52" fill="none"/>
    </g>
    <g id="Grupo_1084821" data-name="Grupo 1084821" transform="translate(-88.184 4025.369)">
      <rect id="Rectángulo_4349" data-name="Rectángulo 4349" width="103" height="103" transform="translate(1097.184 3497.184)" fill="none"/>
      <g id="Grupo_17261" data-name="Grupo 17261" transform="translate(1124.183 3518.817)">
        <path id="Trazado_27285" data-name="Trazado 27285" d="M-307.822,1416.885l-12.774-18.667h25.667Z" transform="translate(332.205 -1391.218)" fill="#c8e7f9"/>
        <path id="Trazado_27286" data-name="Trazado 27286" d="M-296.124,1412.218l-4.607-14h9.333Z" transform="translate(320.506 -1391.218)" fill="#e6e6e6"/>
        <path id="Trazado_27287" data-name="Trazado 27287" d="M-291.54,1425.589a4.667,4.667,0,0,1-4.667,4.667,4.667,4.667,0,0,1-4.667-4.667,4.667,4.667,0,0,1,4.667-4.667A4.667,4.667,0,0,1-291.54,1425.589Z" transform="translate(320.589 -1404.589)" fill="#fad79b"/>
        <path id="Trazado_27288" data-name="Trazado 27288" d="M-319.605,1432.274a21,21,0,0,0-21,21h4.667a16.333,16.333,0,0,1,16.333-16.333,16.334,16.334,0,0,1,16.334,16.333h4.667A21,21,0,0,0-319.605,1432.274Z" transform="translate(343.988 -1411.274)" fill="#fac800"/>
        <path id="Trazado_27289" data-name="Trazado 27289" d="M-346,1478.25h46.667v18.667H-346Z" transform="translate(347.164 -1438.35)" fill="#e6e6e6"/>
        <path id="Trazado_27290" data-name="Trazado 27290" d="M-294.93,1389.861H-320.6l3.516-5.833h18.635Z" transform="translate(332.205 -1382.861)" fill="#e6e6e6"/>
        <path id="Trazado_27291" data-name="Trazado 27291" d="M-298.113,1389.861h-9.274l-4.7-5.833h18.667Z" transform="translate(327.191 -1382.861)" fill="#c8e7f9"/>
        <path id="Trazado_27292" data-name="Trazado 27292" d="M-301,1419.923h-1.408a22.23,22.23,0,0,0-16.106-18.124,5.756,5.756,0,0,0-.171-1.069l8.2-11.877a1.2,1.2,0,0,0,.039-1.266l-3.429-5.688c-.006-.016-.011-.031-.018-.046a1.167,1.167,0,0,0-1.052-.663H-333.61a1.167,1.167,0,0,0-1.052.663c-.007.015-.012.031-.019.046l-3.428,5.688a1.175,1.175,0,0,0-.165.628,1.184,1.184,0,0,0,.2.633l8.1,11.838a5.8,5.8,0,0,0-.183,1.112,22.23,22.23,0,0,0-16.106,18.124h-1.409a1.166,1.166,0,0,0-1.167,1.167v18.667a1.166,1.166,0,0,0,1.167,1.167H-301a1.167,1.167,0,0,0,1.167-1.167V1421.09A1.167,1.167,0,0,0-301,1419.923ZM-319.91,1398.4a5.872,5.872,0,0,0-1.493-1.245l2.631-7.794h5.105Zm-4.425.294a3.5,3.5,0,0,1,3.379,2.592,22.213,22.213,0,0,0-3.379-.259,22.191,22.191,0,0,0-3.379.259A3.5,3.5,0,0,1-324.335,1398.69Zm-3-9.333h6.1l-2.379,7.046a5.841,5.841,0,0,0-.721-.046,5.865,5.865,0,0,0-.679.041Zm12.241-4.957,1.581,2.624H-317.2Zm-2.29-.876-2.818,3.5h-8.158l-2.818-3.5Zm-16.083.876,2.112,2.624h-3.694Zm-1.435,4.957h5.11l2.558,7.772a5.889,5.889,0,0,0-1.5,1.236Zm10.563,14a19.865,19.865,0,0,1,19.562,16.567h-2.37a17.528,17.528,0,0,0-17.192-14.233,17.53,17.53,0,0,0-17.193,14.233H-343.9A19.864,19.864,0,0,1-324.335,1403.356Zm14.81,16.567h-29.62a15.191,15.191,0,0,1,14.81-11.9A15.191,15.191,0,0,1-309.525,1419.923Zm7.356,18.667H-346.5v-16.333h44.333Z" transform="translate(348.835 -1381.19)" fill="#00223d"/>
        <path id="Trazado_27293" data-name="Trazado 27293" d="M-245.358,1498.116a1.168,1.168,0,0,0-1.167,1.167,1.169,1.169,0,0,0,1.167,1.167,1.168,1.168,0,0,0,1.167-1.167A1.168,1.168,0,0,0-245.358,1498.116Z" transform="translate(288.583 -1450.049)" fill="#00223d"/>
        <path id="Trazado_27294" data-name="Trazado 27294" d="M-302.118,1500.449h18.667a1.168,1.168,0,0,0,1.167-1.167,1.168,1.168,0,0,0-1.167-1.167h-18.667a1.168,1.168,0,0,0-1.167,1.167A1.169,1.169,0,0,0-302.118,1500.449Z" transform="translate(322.01 -1450.049)" fill="#00223d"/>
        <path id="Trazado_27295" data-name="Trazado 27295" d="M-302.118,1511.8h11.667a1.166,1.166,0,0,0,1.167-1.167,1.166,1.166,0,0,0-1.167-1.167h-11.667a1.167,1.167,0,0,0-1.167,1.167A1.166,1.166,0,0,0-302.118,1511.8Z" transform="translate(322.01 -1456.734)" fill="#00223d"/>
        <path id="Trazado_27296" data-name="Trazado 27296" d="M-255.386,1509.468h-7a1.167,1.167,0,0,0-1.167,1.167,1.166,1.166,0,0,0,1.167,1.167h7a1.166,1.166,0,0,0,1.167-1.167A1.166,1.166,0,0,0-255.386,1509.468Z" transform="translate(298.611 -1456.734)" fill="#00223d"/>
        <path id="Trazado_27297" data-name="Trazado 27297" d="M-302.118,1489.1h7a1.166,1.166,0,0,0,1.167-1.167,1.166,1.166,0,0,0-1.167-1.167h-7a1.167,1.167,0,0,0-1.167,1.167A1.167,1.167,0,0,0-302.118,1489.1Z" transform="translate(322.01 -1443.364)" fill="#00223d"/>
        <path id="Trazado_27298" data-name="Trazado 27298" d="M-273.738,1489.1h11.667a1.166,1.166,0,0,0,1.167-1.167,1.166,1.166,0,0,0-1.167-1.167h-11.667a1.167,1.167,0,0,0-1.167,1.167A1.167,1.167,0,0,0-273.738,1489.1Z" transform="translate(305.297 -1443.364)" fill="#00223d"/>
        <path id="Trazado_27299" data-name="Trazado 27299" d="M-332.807,1498.674a1.159,1.159,0,0,0,.676.217,1.164,1.164,0,0,0,.95-.489l4.958-6.955a1.166,1.166,0,0,0-.273-1.627,1.167,1.167,0,0,0-1.628.273l-4.958,6.955A1.167,1.167,0,0,0-332.807,1498.674Z" transform="translate(339.684 -1445.035)" fill="#00223d"/>
        <path id="Trazado_27300" data-name="Trazado 27300" d="M-318.894,1507.8a1.168,1.168,0,0,0,1.167,1.167,1.168,1.168,0,0,0,1.167-1.167,1.169,1.169,0,0,0-1.167-1.167A1.168,1.168,0,0,0-318.894,1507.8Z" transform="translate(331.202 -1455.063)" fill="#00223d"/>
        <path id="Trazado_27301" data-name="Trazado 27301" d="M-334.36,1492.035a1.169,1.169,0,0,0,1.167-1.167,1.168,1.168,0,0,0-1.167-1.167,1.168,1.168,0,0,0-1.167,1.167A1.168,1.168,0,0,0-334.36,1492.035Z" transform="translate(340.998 -1445.094)" fill="#00223d"/>
      </g>
    </g>
  </g>
</svg>
